<svg width="24" height="24" viewBox="0 0 24 24" fill="none" xmlns="http://www.w3.org/2000/svg"> <path opacity="0.4" fill-rule="evenodd" clip-rule="evenodd" d="M15.66 18.46C15.4542 18.46 15.29 18.6242 15.29 18.83C15.29 19.0501 15.4586 19.21 15.66 19.21C15.8572 19.21 16.03 19.0445 16.03 18.83C16.03 18.6242 15.8658 18.46 15.66 18.46ZM13.79 18.83C13.79 17.7957 14.6258 16.96 15.66 16.96C16.6942 16.96 17.53 17.7957 17.53 18.83C17.53 19.8555 16.7029 20.71 15.66 20.71C14.6215 20.71 13.79 19.8698 13.79 18.83Z" fill="white"/> <path opacity="0.4" fill-rule="evenodd" clip-rule="evenodd" d="M10.9861 17.2787C12.0983 15.5173 13.7731 14.4099 15.6599 14.4099C17.5374 14.4099 19.2104 15.518 20.3312 17.2752C20.6277 17.7357 20.7498 18.3038 20.7498 18.8262C20.7498 19.3496 20.6272 19.9179 20.3335 20.3811C19.2213 22.1424 17.5467 23.2499 15.6599 23.2499C13.7738 23.2499 12.0996 22.1433 10.9874 20.3831C10.6917 19.9229 10.5698 19.3555 10.5698 18.8337C10.5698 18.3103 10.6924 17.7419 10.9861 17.2787ZM15.6599 15.9099C14.407 15.9099 13.1619 16.6421 12.254 18.0802L12.253 18.0819L12.253 18.0819C12.1471 18.2486 12.0698 18.5199 12.0698 18.8337C12.0698 19.1481 12.1474 19.4142 12.25 19.5733L12.2541 19.5795L12.254 19.5796C13.1619 21.0177 14.407 21.7499 15.6599 21.7499C16.9127 21.7499 18.1577 21.0177 19.0656 19.5796L19.0666 19.5779C19.1725 19.4112 19.2498 19.1399 19.2498 18.8262C19.2498 18.5117 19.1722 18.2457 19.0696 18.0865L19.0674 18.0831L19.0674 18.0831C18.1481 16.6412 16.9017 15.9099 15.6599 15.9099Z" fill="white"/> <path fill-rule="evenodd" clip-rule="evenodd" d="M2.3999 6C2.3999 3.38579 4.53569 1.25 7.1499 1.25H16.1499C18.7641 1.25 20.8999 3.38579 20.8999 6V14C20.8999 14.4142 20.5641 14.75 20.1499 14.75C19.7357 14.75 19.3999 14.4142 19.3999 14V6C19.3999 4.21421 17.9357 2.75 16.1499 2.75H7.1499C5.36412 2.75 3.8999 4.21421 3.8999 6V18C3.8999 19.7858 5.36412 21.25 7.1499 21.25H9.1499C9.56412 21.25 9.8999 21.5858 9.8999 22C9.8999 22.4142 9.56412 22.75 9.1499 22.75H7.1499C4.53569 22.75 2.3999 20.6142 2.3999 18V6Z" fill="white"/> <path opacity="0.4" fill-rule="evenodd" clip-rule="evenodd" d="M14.1499 4.25C14.5641 4.25 14.8999 4.58579 14.8999 5V6C14.8999 6.68579 15.4641 7.25 16.1499 7.25H17.1499C17.5641 7.25 17.8999 7.58579 17.8999 8C17.8999 8.41421 17.5641 8.75 17.1499 8.75H16.1499C14.6357 8.75 13.3999 7.51421 13.3999 6V5C13.3999 4.58579 13.7357 4.25 14.1499 4.25Z" fill="white"/> </svg>