<svg width="24" height="24" viewBox="0 0 24 24" fill="none" xmlns="http://www.w3.org/2000/svg"> <path fill-rule="evenodd" clip-rule="evenodd" d="M7.5 2.75C5.71421 2.75 4.25 4.21421 4.25 6V17C4.25 18.7858 5.71421 20.25 7.5 20.25H13.37V20.0478C13.3697 20.0455 13.369 20.0414 13.3678 20.0355C13.3644 20.019 13.3584 19.9972 13.3496 19.9732C13.3408 19.9492 13.3314 19.929 13.3235 19.9147C13.3209 19.9099 13.3189 19.9066 13.3177 19.9047L12.6424 19.1085C12.1267 18.4861 12.1168 17.5208 12.6468 16.8963L13.3178 16.0952C13.3189 16.0933 13.3209 16.09 13.3235 16.0853C13.3314 16.071 13.3408 16.0508 13.3496 16.0268C13.3584 16.0028 13.3644 15.981 13.3678 15.9645C13.369 15.9586 13.3697 15.9545 13.37 15.9522V15.1C13.37 14.1558 14.1458 13.38 15.09 13.38H15.9458C15.9479 13.3798 15.9539 13.3791 15.9638 13.3771C15.9816 13.3735 16.0041 13.3674 16.0281 13.3587C16.0521 13.35 16.0721 13.3407 16.086 13.3331C16.0904 13.3307 16.0934 13.3288 16.0952 13.3277L16.8914 12.6424C17.4529 12.1771 18.2821 12.1283 18.9 12.4956V6C18.9 4.21421 17.4358 2.75 15.65 2.75H7.5ZM2.75 6C2.75 3.38579 4.88579 1.25 7.5 1.25H15.65C18.2642 1.25 20.4 3.38579 20.4 6V14.04C20.4 14.2939 20.2716 14.5305 20.0587 14.6689C19.8458 14.8072 19.5774 14.8285 19.3454 14.7254C19.1984 14.66 19.0581 14.5747 18.9399 14.4762L18.9307 14.4685L18.1484 13.7951C18.0757 13.7383 17.9243 13.7383 17.8516 13.7951L17.0712 14.4668C17.0708 14.4671 17.0703 14.4675 17.0699 14.4679C16.9048 14.6106 16.7084 14.7075 16.5394 14.7688C16.3688 14.8307 16.1603 14.88 15.95 14.88H15.09C14.9742 14.88 14.87 14.9842 14.87 15.1V15.96C14.87 16.169 14.8191 16.3764 14.7579 16.5432C14.6975 16.7079 14.602 16.9016 14.4618 17.0654L13.7906 17.8667C13.7436 17.9219 13.7342 18.0724 13.796 18.1496L14.46 18.9326C14.6012 19.0967 14.6972 19.2914 14.7579 19.4568C14.8191 19.6236 14.87 19.831 14.87 20.04V20.8778C14.9023 21.0732 14.8561 21.2753 14.7384 21.4385C14.5975 21.6341 14.3711 21.75 14.13 21.75H7.5C4.88579 21.75 2.75 19.6142 2.75 17V6Z" fill="white"/> <path opacity="0.4" fill-rule="evenodd" clip-rule="evenodd" d="M13.95 4.1001C14.3642 4.1001 14.7 4.43588 14.7 4.8501V5.80009C14.7 6.43587 15.2142 6.95009 15.85 6.95009H16.8C17.2142 6.95009 17.55 7.28587 17.55 7.70009C17.55 8.1143 17.2142 8.45009 16.8 8.45009H15.85C14.3858 8.45009 13.2 7.26432 13.2 5.80009V4.8501C13.2 4.43588 13.5357 4.1001 13.95 4.1001Z" fill="white"/> <path opacity="0.4" fill-rule="evenodd" clip-rule="evenodd" d="M20.3292 16.2586C20.6227 16.5509 20.6237 17.0258 20.3314 17.3193L17.9214 19.7393C17.7804 19.8808 17.5889 19.9603 17.3892 19.9601C17.1894 19.9598 16.998 19.88 16.8574 19.7382L15.6574 18.5282C15.3657 18.2341 15.3677 17.7592 15.6618 17.4675C15.9559 17.1758 16.4308 17.1778 16.7225 17.4719L17.391 18.1461L19.2685 16.2608C19.5608 15.9673 20.0357 15.9663 20.3292 16.2586Z" fill="white"/> <path fill-rule="evenodd" clip-rule="evenodd" d="M17.8515 13.795L17.0712 14.4667C17.0708 14.467 17.0704 14.4673 17.07 14.4677C16.9049 14.6105 16.7084 14.7075 16.5394 14.7688C16.3687 14.8307 16.1603 14.8799 15.95 14.8799H15.09C14.9742 14.8799 14.87 14.9842 14.87 15.0999V15.9599C14.87 16.1689 14.819 16.3763 14.7579 16.5431C14.6975 16.7079 14.602 16.9016 14.4618 17.0653L13.7906 17.8667C13.7436 17.9218 13.7342 18.0724 13.7959 18.1495L14.4599 18.9324C14.6011 19.0966 14.6972 19.2913 14.7579 19.4567C14.819 19.6235 14.87 19.831 14.87 20.0399V20.8778C14.8724 20.8926 14.8744 20.9074 14.8759 20.9222C14.8864 21.023 14.977 21.1099 15.09 21.1099H15.95C16.1707 21.1099 16.3848 21.1665 16.5529 21.2312C16.7219 21.2962 16.9116 21.3952 17.07 21.5322C17.0704 21.5325 17.0708 21.5328 17.0712 21.5332L17.8516 22.2049C17.929 22.2654 18.0872 22.2562 18.1426 22.2098C18.1424 22.21 18.1428 22.2097 18.1426 22.2098L18.9288 21.5332C18.9291 21.5328 18.9295 21.5325 18.9299 21.5322C19.0883 21.3952 19.278 21.2962 19.447 21.2312C19.6151 21.1665 19.8293 21.1099 20.05 21.1099H20.9C21.0157 21.1099 21.11 21.0157 21.11 20.8999V20.0499C21.11 19.8292 21.1665 19.6151 21.2312 19.447C21.2962 19.278 21.3952 19.0883 21.5322 18.9299C21.5325 18.9295 21.5329 18.9291 21.5332 18.9287L22.2049 18.1484C22.2616 18.0757 22.2616 17.9242 22.2049 17.8515L21.5332 17.0711C21.5329 17.0708 21.5325 17.0704 21.5322 17.07C21.3952 16.9116 21.2962 16.7219 21.2312 16.5529C21.1665 16.3848 21.11 16.1706 21.11 15.9499V15.0999C21.11 14.9842 21.0157 14.8899 20.9 14.8899H20.05C19.7923 14.8899 19.5354 14.8124 19.3405 14.7231C19.1952 14.6581 19.0567 14.5735 18.9398 14.4761L18.9306 14.4684L18.1484 13.795C18.0757 13.7383 17.9243 13.7383 17.8515 13.795ZM16.8914 12.6424C17.519 12.1224 18.4809 12.1224 19.1085 12.6424L19.1193 12.6514L19.9013 13.3247C19.9034 13.3263 19.9081 13.3296 19.9156 13.3342C19.9264 13.3409 19.9398 13.348 19.9546 13.3546L19.9643 13.3589C19.9889 13.3703 20.0157 13.3797 20.0387 13.3856C20.0481 13.388 20.0549 13.3893 20.0589 13.3899H20.9C21.8442 13.3899 22.61 14.1557 22.61 15.0999V15.9414C22.6103 15.9436 22.6109 15.9472 22.612 15.9522C22.6155 15.9681 22.6218 15.9899 22.6312 16.0145C22.6406 16.0389 22.651 16.0605 22.6602 16.0766C22.6652 16.0855 22.6686 16.0906 22.6698 16.0923L23.3576 16.8913C23.8776 17.5189 23.8775 18.4809 23.3575 19.1085L23.3485 19.1193L22.6698 19.9076C22.6686 19.9093 22.6652 19.9144 22.6602 19.9232C22.651 19.9394 22.6406 19.9609 22.6312 19.9854C22.6218 20.01 22.6155 20.0317 22.612 20.0477C22.6109 20.0527 22.6103 20.0562 22.61 20.0585V20.8999C22.61 21.8441 21.8442 22.6099 20.9 22.6099H20.0585C20.0563 22.6103 20.0527 22.6109 20.0477 22.612C20.0318 22.6155 20.01 22.6218 19.9854 22.6312C19.961 22.6406 19.9395 22.651 19.9233 22.6601C19.9144 22.6652 19.9093 22.6686 19.9076 22.6698L19.1167 23.3506C18.4923 23.8831 17.5149 23.874 16.8914 23.3575L16.8806 23.3485L16.0923 22.6698C16.0906 22.6686 16.0855 22.6652 16.0767 22.6601C16.0605 22.651 16.039 22.6406 16.0145 22.6312C15.9899 22.6218 15.9682 22.6155 15.9522 22.612C15.9472 22.6109 15.9437 22.6103 15.9414 22.6099H15.09C14.2222 22.6099 13.5052 21.9657 13.3907 21.1332C13.3793 21.0777 13.3751 21.0317 13.3731 21.0035C13.3699 20.9582 13.3699 20.917 13.37 20.9025L13.37 20.0478C13.3696 20.0454 13.369 20.0413 13.3678 20.0355C13.3644 20.019 13.3583 19.9971 13.3495 19.9731C13.3407 19.9491 13.3313 19.9289 13.3235 19.9147C13.3208 19.9098 13.3189 19.9066 13.3177 19.9047L12.6424 19.1085C12.1267 18.486 12.1168 17.5207 12.6468 16.8962L13.3177 16.0951C13.3189 16.0932 13.3209 16.09 13.3235 16.0852C13.3313 16.071 13.3407 16.0508 13.3495 16.0268C13.3583 16.0028 13.3644 15.9809 13.3678 15.9644C13.369 15.9586 13.3696 15.9545 13.37 15.9521V15.0999C13.37 14.1557 14.1457 13.3799 15.09 13.3799H15.9458C15.9479 13.3797 15.9539 13.379 15.9638 13.377C15.9816 13.3734 16.004 13.3673 16.028 13.3586C16.0521 13.3499 16.072 13.3406 16.0859 13.333C16.0903 13.3306 16.0934 13.3288 16.0952 13.3276L16.8914 12.6424Z" fill="white"/> </svg>