<svg width="24" height="24" viewBox="0 0 24 24" fill="none" xmlns="http://www.w3.org/2000/svg"> <path d="M12.0041 2C6.49 2 2 6.49 2 12C2 17.51 6.49 22 12 22C17.51 22 22 17.51 22 12C22 6.49 17.51 2 12 2ZM16.06 11.27L12.53 14.8C12.38 14.95 12.19 15.02 12 15.02C11.81 15.02 11.62 14.95 11.47 14.8L7.94 11.27C7.65 10.98 7.65 10.5 7.94 10.21C8.23 9.92 8.71 9.92 9 10.21L12 13.21L15 10.21C15.29 9.92 15.77 9.92 16.06 10.21C16.35 10.5 16.35 10.97 16.06 11.27Z" fill="white"/> <g opacity="0" fill="none" stroke="none" aria-hidden="true"><path d="M0.0045 0.0021L0.0036 0.0093L0.0096 0.0025L0.002 0.0033L0.0049 0.0029L0.0018 0.0013L0.0053 0.0028L0.0013 0.0014L0.0053 0.0072L0.0029 0.008L0.0068 0.0032L0.004 0.005"/></g></svg>