<svg width="24" height="24" viewBox="0 0 24 24" fill="none" xmlns="http://www.w3.org/2000/svg"> <path d="M16.1989 2H7.81C4.17 2 2 4.17 2 7.81V16.18C2 19.83 4.17 22 7.81 22H16.18C19.82 22 21.99 19.83 21.99 16.19V7.81C22 4.17 19.83 2 16.19 2ZM18.53 12.53L14.24 16.82C14.09 16.97 13.9 17.04 13.71 17.04C13.52 17.04 13.33 16.97 13.18 16.82C12.89 16.53 12.89 16.05 13.18 15.76L16.19 12.75H6C5.59 12.75 5.25 12.41 5.25 12C5.25 11.59 5.59 11.25 6 11.25H16.19L13.18 8.24C12.89 7.95 12.89 7.47 13.18 7.18C13.47 6.89 13.95 6.89 14.24 7.18L18.53 11.47C18.67 11.61 18.75 11.8 18.75 12C18.75 12.2 18.67 12.39 18.53 12.53Z" fill="white"/> <g opacity="0" fill="none" stroke="none" aria-hidden="true"><path d="M0.0038 0.0044L0.0076 0.0082L0.008 0.0074L0.0066 0L0.003 0.0011L0.0036 0.0066L0.0048 0.0012L0.0083 0.0066L0.007 0.0013L0.0054 0.005L0.0044 0.0077L0.0008 0.0096"/></g></svg>