<svg width="24" height="24" viewBox="0 0 24 24" fill="none" xmlns="http://www.w3.org/2000/svg"> <path d="M12.0017 2C6.48 2 2 6.48 2 12C2 17.52 6.48 22 12 22C17.52 22 22 17.52 22 12C22 6.48 17.52 2 12 2ZM15.53 13.03L12.53 16.03C12.38 16.18 12.19 16.25 12 16.25C11.81 16.25 11.62 16.18 11.47 16.03L8.47 13.03C8.18 12.74 8.18 12.26 8.47 11.97C8.76 11.68 9.24 11.68 9.53 11.97L11.25 13.69V8.5C11.25 8.09 11.59 7.75 12 7.75C12.41 7.75 12.75 8.09 12.75 8.5V13.69L14.47 11.97C14.76 11.68 15.24 11.68 15.53 11.97C15.82 12.26 15.82 12.74 15.53 13.03Z" fill="white"/> <g opacity="0" fill="none" stroke="none" aria-hidden="true"><path d="M0.0067 0.0045L0.0008 0.0037L0.0082 0.0085L0.0035 0.0025L0.0032 0.0035L0.0033 0.0002L0.0004 0.0066L0.006 0.005L0.0093 0.0047L0.0032 0.0038L0.0087 0.0051L0.0076 0.0045"/></g></svg>