<svg width="24" height="24" viewBox="0 0 24 24" fill="none" xmlns="http://www.w3.org/2000/svg"> <path d="M12.0039 2C6.48 2 2 6.48 2 12C2 17.52 6.48 22 12 22C17.52 22 22 17.52 22 12C22 6.48 17.52 2 12 2ZM16.03 12.53L13.03 15.53C12.88 15.68 12.69 15.75 12.5 15.75C12.31 15.75 12.12 15.68 11.97 15.53C11.68 15.24 11.68 14.76 11.97 14.47L13.69 12.75H8.5C8.09 12.75 7.75 12.41 7.75 12C7.75 11.59 8.09 11.25 8.5 11.25H13.69L11.97 9.53C11.68 9.24 11.68 8.76 11.97 8.47C12.26 8.18 12.74 8.18 13.03 8.47L16.03 11.47C16.32 11.76 16.32 12.24 16.03 12.53Z" fill="white"/> <g opacity="0" fill="none" stroke="none" aria-hidden="true"><path d="M0.0076 0.0084L0.0053 0.0084L0.0025 0.0035L0.0067 0.0045L0.0089 0.0025L0.0002 0.0038L0.0036 0.0089L0.0011 0.0073L0.0096 0.0028L0.0032 0.0067L0.0093 0.0005L0.0079 0.0039"/></g></svg>