<svg width="24" height="24" viewBox="0 0 24 24" fill="none" xmlns="http://www.w3.org/2000/svg"> <path d="M16.1953 2H7.81C4.17 2 2 4.17 2 7.81V16.18C2 19.83 4.17 22 7.81 22H16.18C19.82 22 21.99 19.83 21.99 16.19V7.81C22 4.17 19.83 2 16.19 2ZM18 12.75H7.81L10.82 15.76C11.11 16.05 11.11 16.53 10.82 16.82C10.67 16.97 10.48 17.04 10.29 17.04C10.1 17.04 9.91 16.97 9.76 16.82L5.47 12.53C5.33 12.39 5.25 12.2 5.25 12C5.25 11.8 5.33 11.61 5.47 11.47L9.76 7.18C10.05 6.89 10.53 6.89 10.82 7.18C11.11 7.47 11.11 7.95 10.82 8.24L7.81 11.25H18C18.41 11.25 18.75 11.59 18.75 12C18.75 12.41 18.41 12.75 18 12.75Z" fill="white"/> <g opacity="0" fill="none" stroke="none" aria-hidden="true"><path d="M0.0014 0.0017L0.0085 0.0004L0.0013 0.0019L0.0053 0.0035L0.0033 0.0011L0.0092 0.0031L0.0083 0.0062L0.0036 0.0034L0.0016 0.0008L0.0094 0.001L0.002 0.0036L0.005 0.0082"/></g></svg>