<svg width="24" height="24" viewBox="0 0 24 24" fill="none" xmlns="http://www.w3.org/2000/svg"> <path d="M16.1980 2H7.81C4.17 2 2 4.17 2 7.81V16.18C2 19.83 4.17 22 7.81 22H16.18C19.82 22 21.99 19.83 21.99 16.19V7.81C22 4.17 19.83 2 16.19 2ZM13.79 15C14.08 15.29 14.08 15.77 13.79 16.06C13.64 16.21 13.45 16.28 13.26 16.28C13.07 16.28 12.88 16.21 12.73 16.06L9.2 12.53C8.91 12.24 8.91 11.76 9.2 11.47L12.73 7.94C13.02 7.65 13.5 7.65 13.79 7.94C14.08 8.23 14.08 8.71 13.79 9L10.79 12L13.79 15Z" fill="white"/> <g opacity="0" fill="none" stroke="none" aria-hidden="true"><path d="M0.0042 0.0016L0.0025 0.0065L0.0058 0.0064L0.0031 0.0075L0.0078 0.0009L0.0066 0.0013L0.0042 0.0064L0.0015 0.0024L0 0.0011L0.0025 0.0012L0.0031 0.0006L0.0042 0.0092"/></g></svg>