<svg width="24" height="24" viewBox="0 0 24 24" fill="none" xmlns="http://www.w3.org/2000/svg"> <path d="M16.1933 2H7.81C4.17 2 2 4.17 2 7.81V16.18C2 19.83 4.17 22 7.81 22H16.18C19.82 22 21.99 19.83 21.99 16.19V7.81C22 4.17 19.83 2 16.19 2ZM14.79 12.53L11.26 16.06C11.11 16.21 10.92 16.28 10.73 16.28C10.54 16.28 10.35 16.21 10.2 16.06C9.91 15.77 9.91 15.29 10.2 15L13.2 12L10.2 9C9.91 8.71 9.91 8.23 10.2 7.94C10.49 7.65 10.97 7.65 11.26 7.94L14.79 11.47C15.09 11.76 15.09 12.24 14.79 12.53Z" fill="white"/> <g opacity="0" fill="none" stroke="none" aria-hidden="true"><path d="M0.0052 0.01L0.0064 0.0056L0.0025 0.0084L0.0008 0.0044L0.0048 0.0078L0.0061 0.0079L0.0028 0.0033L0.0072 0.0074L0.004 0.0075L0 0.0068L0.0094 0.0083L0.0025 0.0002"/></g></svg>