<svg width="24" height="24" viewBox="0 0 24 24" fill="none" xmlns="http://www.w3.org/2000/svg"> <path d="M6.0024 9.33017V14.6702C6 17.9902 8.35 19.3402 11.22 17.6902L12.5 16.9502C12.81 16.7702 13 16.4402 13 16.0802V7.92017C13 7.56017 12.81 7.23017 12.5 7.05017L11.22 6.31017C8.35 4.66017 6 6.01017 6 9.33017Z" fill="white"/> <path d="M14 8.78957V15.2196C14 15.6096 14.42 15.8496 14.75 15.6496L15.85 15.0096C18.72 13.3596 18.72 10.6396 15.85 8.98957L14.75 8.34957C14.42 8.15957 14 8.39957 14 8.78957Z" fill="white"/> <g opacity="0" fill="none" stroke="none" aria-hidden="true"><path d="M0.0056 0.0025L0.0071 0.004L0.0068 0.0044L0.001 0.0007L0.0061 0.0012L0.0096 0.0021L0.0014 0.0064L0.0053 0.0038L0.0022 0.0053L0.0071 0.0068L0.0084 0.0076L0.0003 0.0059"/></g></svg>