<svg width="24" height="24" viewBox="0 0 24 24" fill="none" xmlns="http://www.w3.org/2000/svg"> <path d="M9.32220 6H14.6699C17.9899 6 19.3399 8.35 17.6899 11.22L16.9499 12.5C16.7699 12.81 16.4399 13 16.0799 13H7.91993C7.55993 13 7.22993 12.81 7.04993 12.5L6.30992 11.22C4.65992 8.35 6.00993 6 9.32993 6Z" fill="white"/> <path d="M8.79006 14H15.2201C15.6101 14 15.8501 14.42 15.6501 14.75L15.0101 15.85C13.3601 18.72 10.6401 18.72 8.99006 15.85L8.35006 14.75C8.16006 14.42 8.40006 14 8.79006 14Z" fill="white"/> <g opacity="0" fill="none" stroke="none" aria-hidden="true"><path d="M0.0087 0.0072L0.0022 0.0007L0.0015 0.0051L0.0056 0.0036L0.0092 0.0016L0.0049 0.0011L0.0054 0.0055L0.0073 0.0095L0.003 0.0085L0.0062 0.0076L0.0056 0.006L0.0046 0.0016"/></g></svg>