<svg width="24" height="24" viewBox="0 0 24 24" fill="none" xmlns="http://www.w3.org/2000/svg"> <path d="M16.8014 9H12.75V15.25C12.75 15.66 12.41 16 12 16C11.59 16 11.25 15.66 11.25 15.25V9H7.2C4 9 2 11 2 14.2V16.79C2 20 4 22 7.2 22H16.79C19.99 22 21.99 20 21.99 16.8V14.2C22 11 20 9 16.8 9Z" fill="white"/> <path d="M12.7501 4.56043L14.8201 6.63043C14.9701 6.78043 15.1601 6.85043 15.3501 6.85043C15.5401 6.85043 15.7301 6.78043 15.8801 6.63043C16.1701 6.34043 16.1701 5.86043 15.8801 5.57043L12.5301 2.22043C12.2401 1.93043 11.7601 1.93043 11.4701 2.22043L8.12009 5.57043C7.83009 5.86043 7.83009 6.34043 8.12009 6.63043C8.41009 6.92043 8.89009 6.92043 9.18009 6.63043L11.2501 4.56043V9.00043H12.7501V4.56043Z" fill="white"/> <g opacity="0" fill="none" stroke="none" aria-hidden="true"><path d="M0.0016 0.002L0.0047 0.0063L0.0024 0.001L0.005 0.0089L0.0044 0.0015L0.0081 0.0081L0.0044 0.0076L0.0005 0.0065L0.0089 0.0039L0.0099 0.0049L0.0017 0.0011L0.0087 0.0075"/></g></svg>