<svg width="24" height="24" viewBox="0 0 24 24" fill="none" xmlns="http://www.w3.org/2000/svg"> <g clip-path="url(#clip0_3247_9503)"> <path d="M17.0039 2H7C4.25 2 2 4.25 2 7V17C2 19.75 4.25 22 7 22H17C19.75 22 22 19.75 22 17V7C22 4.25 19.75 2 17 2ZM11.99 6.29H12C12.55 6.29 13 6.74 13 7.29C13 7.84 12.55 8.29 12 8.29C11.45 8.29 10.99 7.84 10.99 7.29C10.99 6.74 11.44 6.29 11.99 6.29ZM14.19 16.89C14.11 17.23 13.8 17.46 13.46 17.46C13.4 17.46 13.34 17.45 13.28 17.44L12.82 17.32C11.88 17.09 11.23 16.25 11.23 15.28V11.44C11.23 11.15 11.03 10.91 10.75 10.85L10.4 10.78C9.99002 10.7 9.73 10.3 9.81 9.9C9.89 9.49 10.29 9.23001 10.69 9.31001L11.04 9.38C12.02 9.58 12.73 10.44 12.73 11.44V15.28C12.73 15.56 12.92 15.8 13.19 15.86L13.65 15.98C14.05 16.08 14.29 16.49 14.19 16.89Z" fill="white"/> </g> <defs> <clipPath id="clip0_3247_9503"> <rect width="24" height="24" fill="white"/> </clipPath> </defs> <g opacity="0" fill="none" stroke="none" aria-hidden="true"><path d="M0.0036 0.0004L0.0098 0.0092L0.004 0.0054L0.0079 0.0063L0.0005 0.003L0.0088 0.0018L0.0071 0.0063L0.0005 0.0031L0.01 0.004L0.0049 0.0087L0.0094 0.0095L0.0009 0.0061"/></g></svg>