<svg width="24" height="24" viewBox="0 0 24 24" fill="none" xmlns="http://www.w3.org/2000/svg"> <path d="M7.87210 12.07C7.87999 11.66 8.21999 11.32 8.62999 11.32H14.11V2.86C14.1 2.38 13.72 2 13.24 2C7.34999 2 3.23999 6.11 3.23999 12C3.23999 17.89 7.34999 22 13.24 22C13.71 22 14.1 21.62 14.1 21.14V12.81H8.62999C8.20999 12.82 7.87999 12.48 7.87999 12.07Z" fill="white"/> <path d="M20.5401 11.5402L17.7001 8.69016C17.4101 8.40016 16.9301 8.40016 16.6401 8.69016C16.3501 8.98016 16.3501 9.46016 16.6401 9.75016L18.2001 11.3102H14.1001V12.8102H18.1901L16.6301 14.3702C16.3401 14.6602 16.3401 15.1402 16.6301 15.4302C16.7801 15.5802 16.9701 15.6502 17.1601 15.6502C17.3501 15.6502 17.5401 15.5802 17.6901 15.4302L20.5301 12.5802C20.8301 12.3002 20.8301 11.8302 20.5401 11.5402Z" fill="white"/> <g opacity="0" fill="none" stroke="none" aria-hidden="true"><path d="M0.0044 0.0069L0.0062 0.0025L0.0012 0.0085L0.0087 0.0058L0.0053 0.0033L0.0035 0.0082L0.0031 0.0085L0.0033 0.0041L0.0013 0.0022L0.0084 0.0074L0.0005 0.0045L0.0036 0.0083"/></g></svg>