<svg width="24" height="24" viewBox="0 0 24 24" fill="none" xmlns="http://www.w3.org/2000/svg"> <g clip-path="url(#clip0_4482_8193)"> <path d="M12.0044 2C6.48 2 2 6.48 2 12C2 17.52 6.48 22 12 22C17.52 22 22 17.52 22 12C22 6.48 17.52 2 12 2ZM8.67 14.85C9.13 15.33 9.75 15.63 10.42 15.7C10.83 15.74 11.13 16.11 11.09 16.52C11.05 16.91 10.72 17.19 10.34 17.19C10.31 17.19 10.29 17.19 10.26 17.19C9.25 17.08 8.3 16.62 7.59 15.89C5.81 14.03 5.81 11.12 7.59 9.26L8.54 8.31H8.12C7.71 8.31 7.37 7.97 7.37 7.56C7.37 7.15 7.71 6.81 8.12 6.81H10.34C10.64 6.81 10.92 6.99 11.03 7.27C11.15 7.55 11.08 7.87 10.87 8.09L8.66 10.31C7.45 11.58 7.45 13.58 8.67 14.85ZM15.89 15.69C16.3 15.69 16.64 16.03 16.64 16.44C16.64 16.85 16.3 17.19 15.89 17.19H13.67C13.37 17.19 13.09 17.01 12.98 16.73C12.86 16.45 12.93 16.13 13.14 15.91L15.35 13.69C16.56 12.42 16.56 10.42 15.34 9.15C14.88 8.67 14.26 8.37 13.59 8.3C13.18 8.26 12.88 7.89 12.92 7.48C12.96 7.07 13.33 6.77 13.74 6.81C14.75 6.92 15.7 7.38 16.41 8.11C18.19 9.97 18.19 12.88 16.41 14.74L15.46 15.69H15.88H15.89Z" fill="white"/> </g> <defs> <clipPath id="clip0_4482_8193"> <rect width="24" height="24" fill="white"/> </clipPath> </defs> <g opacity="0" fill="none" stroke="none" aria-hidden="true"><path d="M0.0017 0.0027L0.0013 0.0058L0.0044 0.0024L0.0025 0.0092L0.0024 0.0065L0.0045 0.0018L0.0092 0.0092L0.0028 0.0091L0.0093 0.0037L0.0055 0.0011L0.0057 0.0039L0.0028 0.0032"/></g></svg>