<svg width="24" height="24" viewBox="0 0 24 24" fill="none" xmlns="http://www.w3.org/2000/svg"> <g clip-path="url(#clip0_4482_8232)"> <path d="M12.0099 2C6.48 2 2 6.48 2 12C2 17.52 6.48 22 12 22C17.52 22 22 17.52 22 12C22 6.48 17.52 2 12 2ZM14.93 14.13L10.49 14.76C9.76 14.87 9.13 14.24 9.23 13.5L9.87 9.06C10 8.15 11.11 7.78 11.76 8.43L15.57 12.24C16.22 12.89 15.85 14 14.94 14.13H14.93Z" fill="white"/> </g> <defs> <clipPath id="clip0_4482_8232"> <rect width="24" height="24" fill="white"/> </clipPath> </defs> <g opacity="0" fill="none" stroke="none" aria-hidden="true"><path d="M0.0039 0.0009L0.0067 0.0032L0.0074 0.0002L0.0088 0.0099L0.0061 0.0073L0.0087 0.0047L0.0088 0.0062L0.0033 0.0006L0.0099 0.001L0.0026 0.0076L0.0006 0.0039L0.0018 0.004"/></g></svg>