<svg width="24" height="24" viewBox="0 0 24 24" fill="none" xmlns="http://www.w3.org/2000/svg"> <g clip-path="url(#clip0_4482_8242)"> <path d="M17 2H7C4.24 2 2 4.24 2 7V17C2 19.76 4.24 22 7 22H17C19.76 22 22 19.76 22 17V7C22 4.24 19.76 2 17 2ZM9.25 9.25L11.47 7.03C11.54 6.96 11.62 6.91 11.71 6.87C11.89 6.79 12.1 6.79 12.28 6.87C12.37 6.91 12.45 6.96 12.52 7.03L14.74 9.25C15.03 9.54 15.03 10.02 14.74 10.31C14.59 10.46 14.4 10.53 14.21 10.53C14.02 10.53 13.83 10.46 13.68 10.31L12.74 9.37V13.12C12.74 13.53 12.4 13.87 11.99 13.87C11.58 13.87 11.24 13.53 11.24 13.12V9.37L10.3 10.31C10.01 10.6 9.53 10.6 9.24 10.31C8.95 10.02 8.95 9.54 9.24 9.25H9.25ZM15.34 17.2H8.67C8.26 17.2 7.92 16.86 7.92 16.45C7.92 16.04 8.26 15.7 8.67 15.7H15.34C15.75 15.7 16.09 16.04 16.09 16.45C16.09 16.86 15.75 17.2 15.34 17.2Z" fill="white"/> </g> <defs> <clipPath id="clip0_4482_8242"> <rect width="24" height="24" fill="white"/> </clipPath> </defs> </svg>