<svg width="24" height="24" viewBox="0 0 24 24" fill="none" xmlns="http://www.w3.org/2000/svg"> <path opacity="0.4" d="M13.2328 8.51953L8.17999 12.3095V17.9195C8.17999 18.8795 9.33999 19.3595 10.02 18.6795L15.2 13.4995C16.03 12.6695 16.03 11.3195 15.2 10.4895L13.23 8.51953Z" fill="white"/> <path d="M8.17999 6.07993V12.3099L13.23 8.51993L10.02 5.30993C9.33999 4.63993 8.17999 5.11993 8.17999 6.07993Z" fill="white"/> <g opacity="0" fill="none" stroke="none" aria-hidden="true"><path d="M0.0071 0.0088L0.0002 0.0042L0.0001 0.0058L0.0091 0.0021L0.0017 0.0022L0.0026 0.0053L0.0053 0.0007L0.0029 0.0085L0.0035 0.0092L0.0056 0.0053L0.0052 0.0013L0.0058 0.0036"/></g></svg>