<svg width="24" height="24" viewBox="0 0 24 24" fill="none" xmlns="http://www.w3.org/2000/svg"> <path opacity="0.4" d="M15.4803 13.2297L11.69 8.17969H6.08C5.12 8.17969 4.64 9.33969 5.32 10.0197L10.5 15.1997C11.33 16.0297 12.68 16.0297 13.51 15.1997L15.48 13.2297Z" fill="white"/> <path d="M17.92 8.17969H11.69L15.48 13.2297L18.69 10.0197C19.36 9.33969 18.88 8.17969 17.92 8.17969Z" fill="white"/> <g opacity="0" fill="none" stroke="none" aria-hidden="true"><path d="M0.0051 0.0051L0.0028 0.0028L0.001 0.0089L0.0095 0.0034L0.0099 0.0075L0.0093 0.0014L0.0007 0.0034L0.0058 0.0039L0.007 0.0051L0.0028 0.0054L0.0082 0.0069L0.0042 0.0003"/></g></svg>