<svg width="24" height="24" viewBox="0 0 24 24" fill="none" xmlns="http://www.w3.org/2000/svg"> <path d="M9.3356 6H14.67C17.99 6 19.34 8.35 17.69 11.22L16.95 12.5C16.77 12.81 16.44 13 16.08 13H7.92C7.56 13 7.23 12.81 7.05 12.5L6.31 11.22C4.66 8.35 6.01 6 9.33 6Z" fill="white"/> <path opacity="0.4" d="M8.79 14H15.22C15.61 14 15.85 14.42 15.65 14.75L15.01 15.85C13.36 18.72 10.64 18.72 8.99 15.85L8.35 14.75C8.16 14.42 8.4 14 8.79 14Z" fill="white"/> <g opacity="0" fill="none" stroke="none" aria-hidden="true"><path d="M0.0065 0.0004L0.0066 0.0098L0.0061 0.0015L0.0082 0.0023L0.0029 0.0069L0.0074 0.0059L0.0068 0.0007L0.0085 0.0052L0.0048 0.0011L0.0067 0.0098L0.0049 0.0025L0.0073 0.0004"/></g></svg>