<svg width="24" height="24" viewBox="0 0 24 24" fill="none" xmlns="http://www.w3.org/2000/svg"> <path opacity="0.4" d="M12.0010 22C17.5228 22 22 17.5228 22 12C22 6.47715 17.5228 2 12 2C6.47715 2 2 6.47715 2 12C2 17.5228 6.47715 22 12 22Z" fill="white"/> <path d="M10.74 16.2802C10.55 16.2802 10.36 16.2102 10.21 16.0602C9.91999 15.7702 9.91999 15.2902 10.21 15.0002L13.21 12.0002L10.21 9.00016C9.91999 8.71016 9.91999 8.23016 10.21 7.94016C10.5 7.65016 10.98 7.65016 11.27 7.94016L14.8 11.4702C15.09 11.7602 15.09 12.2402 14.8 12.5302L11.27 16.0602C11.12 16.2102 10.93 16.2802 10.74 16.2802Z" fill="white"/> <g opacity="0" fill="none" stroke="none" aria-hidden="true"><path d="M0.0079 0.0095L0.0036 0.0063L0.0067 0.0013L0.0092 0.0051L0.0013 0.0095L0.0093 0.0041L0.006 0.0005L0.0004 0.0006L0.0007 0.0027L0.0044 0.0067L0.0091 0.0091L0.0039 0.0011"/></g></svg>