<svg width="24" height="24" viewBox="0 0 24 24" fill="none" xmlns="http://www.w3.org/2000/svg"> <path opacity="0.4" d="M15.4806 10.7702L11.69 15.8202H6.08C5.12 15.8202 4.64 14.6602 5.32 13.9802L10.5 8.80023C11.33 7.97023 12.68 7.97023 13.51 8.80023L15.48 10.7702Z" fill="white"/> <path d="M17.92 15.8195H11.69L15.48 10.7695L18.69 13.9795C19.36 14.6595 18.88 15.8195 17.92 15.8195Z" fill="white"/> <g opacity="0" fill="none" stroke="none" aria-hidden="true"><path d="M0.0024 0.007L0.0048 0.0045L0.0074 0.0076L0.0049 0.0068L0.0087 0.0062L0.0061 0.009L0.0066 0.0085L0.0069 0.0076L0.0042 0.0008L0.0021 0.004L0.0036 0.0096L0.0043 0.0041"/></g></svg>