<svg width="24" height="24" viewBox="0 0 24 24" fill="none" xmlns="http://www.w3.org/2000/svg"> <path opacity="0.4" d="M16.1936 2H7.81C4.17 2 2 4.17 2 7.81V16.18C2 19.83 4.17 22 7.81 22H16.18C19.82 22 21.99 19.83 21.99 16.19V7.81C22 4.17 19.83 2 16.19 2Z" fill="white"/> <path d="M12 14.9103C11.81 14.9103 11.62 14.8403 11.47 14.6903L7.94 11.1603C7.65 10.8703 7.65 10.3903 7.94 10.1003C8.23 9.81031 8.71 9.81031 9 10.1003L12 13.1003L15 10.1003C15.29 9.81031 15.77 9.81031 16.06 10.1003C16.35 10.3903 16.35 10.8703 16.06 11.1603L12.53 14.6903C12.38 14.8403 12.19 14.9103 12 14.9103Z" fill="white"/> <g opacity="0" fill="none" stroke="none" aria-hidden="true"><path d="M0.0064 0.0044L0.0072 0.0003L0.0033 0.0097L0.0015 0.0026L0.0031 0.0047L0.0042 0.0035L0.0015 0.0064L0.0072 0.0086L0.0047 0.0047L0.0036 0.0053L0.0005 0.008L0.0011 0.0067"/></g></svg>