<svg width="24" height="24" viewBox="0 0 24 24" fill="none" xmlns="http://www.w3.org/2000/svg"> <path opacity="0.4" d="M12.0034 22C17.5228 22 22 17.5228 22 12C22 6.47715 17.5228 2 12 2C6.47715 2 2 6.47715 2 12C2 17.5228 6.47715 22 12 22Z" fill="white"/> <path d="M13.26 16.2802C13.07 16.2802 12.88 16.2102 12.73 16.0602L9.20001 12.5302C8.91001 12.2402 8.91001 11.7602 9.20001 11.4702L12.73 7.94016C13.02 7.65016 13.5 7.65016 13.79 7.94016C14.08 8.23016 14.08 8.71016 13.79 9.00016L10.79 12.0002L13.79 15.0002C14.08 15.2902 14.08 15.7702 13.79 16.0602C13.65 16.2102 13.46 16.2802 13.26 16.2802Z" fill="white"/> <g opacity="0" fill="none" stroke="none" aria-hidden="true"><path d="M0.0017 0.0091L0.0061 0.0081L0.0006 0.0035L0.0022 0.0096L0.005 0.0042L0.0014 0.0001L0.0081 0.0013L0.0049 0.0069L0.0059 0.0024L0.0053 0.0037L0.0093 0.0038L0.0032 0.0057"/></g></svg>