<svg width="24" height="24" viewBox="0 0 24 24" fill="none" xmlns="http://www.w3.org/2000/svg"> <path opacity="0.4" d="M7.8091 2H16.18C19.83 2 22 4.17 22 7.81V16.18C22 19.82 19.83 21.99 16.19 21.99H7.81C4.17 22 2 19.83 2 16.19V7.81C2 4.17 4.17 2 7.81 2Z" fill="white"/> <path d="M5.47 11.4704L9.76 7.18039C10.05 6.89039 10.53 6.89039 10.82 7.18039C11.11 7.47039 11.11 7.95039 10.82 8.24039L7.81 11.2504H18C18.41 11.2504 18.75 11.5904 18.75 12.0004C18.75 12.4104 18.41 12.7504 18 12.7504H7.81L10.82 15.7604C11.11 16.0504 11.11 16.5304 10.82 16.8204C10.67 16.9704 10.48 17.0404 10.29 17.0404C10.1 17.0404 9.91 16.9704 9.76 16.8204L5.47 12.5304C5.33 12.3904 5.25 12.2004 5.25 12.0004C5.25 11.8004 5.33 11.6104 5.47 11.4704Z" fill="white"/> <g opacity="0" fill="none" stroke="none" aria-hidden="true"><path d="M0.0047 0.0053L0.0071 0.0002L0.0024 0.0011L0.01 0.0076L0.0042 0.0097L0.0056 0.0058L0.0086 0.0067L0.0022 0.0098L0.0087 0.0079L0.0055 0.0091L0.0095 0.0011L0.0071 0.0002"/></g></svg>