<svg width="24" height="24" viewBox="0 0 24 24" fill="none" xmlns="http://www.w3.org/2000/svg"> <path opacity="0.4" d="M12.0075 22C17.5228 22 22 17.5228 22 12C22 6.47715 17.5228 2 12 2C6.47715 2 2 6.47715 2 12C2 17.5228 6.47715 22 12 22Z" fill="white"/> <path d="M15.53 10.9704L12.53 7.97043C12.24 7.68043 11.76 7.68043 11.47 7.97043L8.47 10.9704C8.18 11.2604 8.18 11.7404 8.47 12.0304C8.76 12.3204 9.24 12.3204 9.53 12.0304L11.25 10.3104V15.5004C11.25 15.9104 11.59 16.2504 12 16.2504C12.41 16.2504 12.75 15.9104 12.75 15.5004V10.3104L14.47 12.0304C14.62 12.1804 14.81 12.2504 15 12.2504C15.19 12.2504 15.38 12.1804 15.53 12.0304C15.82 11.7404 15.82 11.2604 15.53 10.9704Z" fill="white"/> <g opacity="0" fill="none" stroke="none" aria-hidden="true"><path d="M0.0022 0.0079L0.0086 0.0067L0.0027 0.0037L0.0061 0.0077L0.0088 0.0022L0.0043 0.0031L0.0084 0.0047L0.0058 0.0038L0.0003 0.0018L0.0011 0.0064L0.006 0.0057L0.0015 0.008"/></g></svg>