<svg width="24" height="24" viewBox="0 0 24 24" fill="none" xmlns="http://www.w3.org/2000/svg"> <path opacity="0.4" d="M12.0046 22C17.5228 22 22 17.5228 22 12C22 6.47715 17.5228 2 12 2C6.47715 2 2 6.47715 2 12C2 17.5228 6.47715 22 12 22Z" fill="white"/> <path d="M15.53 11.97C15.24 11.68 14.76 11.68 14.47 11.97L12.75 13.69V8.5C12.75 8.09 12.41 7.75 12 7.75C11.59 7.75 11.25 8.09 11.25 8.5V13.69L9.53 11.97C9.24 11.68 8.76 11.68 8.47 11.97C8.18 12.26 8.18 12.74 8.47 13.03L11.47 16.03C11.62 16.18 11.81 16.25 12 16.25C12.19 16.25 12.38 16.18 12.53 16.03L15.53 13.03C15.82 12.74 15.82 12.26 15.53 11.97Z" fill="white"/> <g opacity="0" fill="none" stroke="none" aria-hidden="true"><path d="M0.0025 0.0095L0.0031 0.01L0.0071 0.0043L0.0007 0.0091L0.0009 0L0.0041 0.0049L0.0085 0.0049L0.0046 0.0044L0.0033 0.0021L0.0051 0.0066L0.0097 0.0041L0.0014 0.0032"/></g></svg>