<svg width="24" height="24" viewBox="0 0 24 24" fill="none" xmlns="http://www.w3.org/2000/svg"> <path d="M18.0063 9.33017V14.6702C18 17.9902 15.65 19.3402 12.78 17.6902L11.5 16.9502C11.19 16.7702 11 16.4402 11 16.0802V7.92017C11 7.56017 11.19 7.23017 11.5 7.05017L12.78 6.31017C15.65 4.66017 18 6.01017 18 9.33017Z" fill="white"/> <path opacity="0.4" d="M10 8.78957V15.2196C10 15.6096 9.58 15.8496 9.25 15.6496L8.15 15.0096C5.28 13.3596 5.28 10.6396 8.15 8.98957L9.25 8.34957C9.58 8.15957 10 8.39957 10 8.78957Z" fill="white"/> <g opacity="0" fill="none" stroke="none" aria-hidden="true"><path d="M0.0053 0.0097L0.0091 0.0023L0.0056 0.006L0.0025 0.0004L0.0085 0.0011L0.0016 0.0064L0.0056 0.0029L0.0079 0.0076L0.0011 0.0083L0.0049 0L0.005 0.0082L0.0034 0.004"/></g></svg>