<svg width="24" height="24" viewBox="0 0 24 24" fill="none" xmlns="http://www.w3.org/2000/svg"> <path opacity="0.4" d="M10.7640 8.51953L15.82 12.3095V17.9195C15.82 18.8795 14.66 19.3595 13.98 18.6795L8.80001 13.5095C7.97001 12.6795 7.97001 11.3295 8.80001 10.4995L10.77 8.51953Z" fill="white"/> <path d="M15.82 6.07993V12.3099L10.77 8.51993L13.98 5.30993C14.66 4.63993 15.82 5.11993 15.82 6.07993Z" fill="white"/> <g opacity="0" fill="none" stroke="none" aria-hidden="true"><path d="M0.0002 0.0006L0.002 0.0008L0.0018 0.0048L0.0035 0.0084L0.0017 0.0026L0.0075 0.0047L0.0096 0.003L0.0079 0.0032L0.0009 0.002L0.0027 0.0081L0.0065 0.0016L0.0029 0.005"/></g></svg>