<svg width="24" height="24" viewBox="0 0 24 24" fill="none" xmlns="http://www.w3.org/2000/svg"> <path opacity="0.4" d="M12.0017 22C17.5228 22 22 17.5228 22 12C22 6.47715 17.5228 2 12 2C6.47715 2 2 6.47715 2 12C2 17.5228 6.47715 22 12 22Z" fill="white"/> <path d="M16.748 7H11.918C11.508 7 11.168 7.34 11.168 7.75C11.168 8.16 11.508 8.5 11.918 8.5H14.938L7.21805 16.22C6.92805 16.51 6.92805 16.99 7.21805 17.28C7.36805 17.43 7.55805 17.5 7.74805 17.5C7.93805 17.5 8.12805 17.43 8.27805 17.28L15.998 9.56V12.58C15.998 12.99 16.338 13.33 16.748 13.33C17.158 13.33 17.498 12.99 17.498 12.58V7.75C17.498 7.34 17.158 7 16.748 7Z" fill="white"/> <g opacity="0" fill="none" stroke="none" aria-hidden="true"><path d="M0.0028 0.0017L0.0095 0.0085L0.0022 0.0006L0.0053 0.0005L0.0034 0.0064L0.0053 0.0091L0.0051 0.0097L0.0051 0.0008L0.0069 0.0084L0.0031 0.0029L0.0016 0.004L0.0089 0.0092"/></g></svg>