<svg width="24" height="24" viewBox="0 0 24 24" fill="none" xmlns="http://www.w3.org/2000/svg"> <g clip-path="url(#clip0_4482_8017)"> <path d="M15.8871 17.19H13.6696C13.3696 17.19 13.0896 17.01 12.9796 16.73C12.8596 16.45 12.9296 16.13 13.1396 15.91L15.3496 13.69C16.5596 12.42 16.5596 10.42 15.3396 9.14997C14.8796 8.66997 14.2596 8.36997 13.5896 8.29997C13.1796 8.25997 12.8796 7.88997 12.9196 7.47997C12.9596 7.06997 13.3296 6.76997 13.7396 6.80997C14.7496 6.91997 15.6996 7.37997 16.4096 8.10997C18.1896 9.96997 18.1896 12.88 16.4096 14.74L15.4596 15.69H15.8796C16.2896 15.69 16.6296 16.03 16.6296 16.44C16.6296 16.85 16.2896 17.19 15.8796 17.19H15.8896Z" fill="white"/> <path d="M10.3301 17.1901C10.3301 17.1901 10.2801 17.1901 10.2501 17.1901C9.24012 17.0801 8.29012 16.6201 7.58012 15.8901C5.80012 14.0301 5.80012 11.1201 7.58012 9.26006L8.53012 8.31006H8.11012C7.70012 8.31006 7.36012 7.97006 7.36012 7.56006C7.36012 7.15006 7.70012 6.81006 8.11012 6.81006H10.3301C10.6301 6.81006 10.9101 6.99006 11.0201 7.27006C11.1401 7.55006 11.0701 7.87006 10.8601 8.09006L8.65012 10.3101C7.44012 11.5801 7.44012 13.5801 8.66012 14.8501C9.12012 15.3301 9.74012 15.6301 10.4101 15.7001C10.8201 15.7401 11.1201 16.1101 11.0801 16.5201C11.0401 16.9101 10.7101 17.1901 10.3301 17.1901Z" fill="white"/> <g opacity="0.4"> <path d="M12 22C17.5228 22 22 17.5228 22 12C22 6.47715 17.5228 2 12 2C6.47715 2 2 6.47715 2 12C2 17.5228 6.47715 22 12 22Z" fill="white"/> </g> </g> <defs> <clipPath id="clip0_4482_8017"> <rect width="24" height="24" fill="white"/> </clipPath> </defs> <g opacity="0" fill="none" stroke="none" aria-hidden="true"><path d="M0.0007 0.0077L0.0004 0.0063L0.0086 0.002L0.0062 0.0085L0.0095 0.0031L0.0088 0.0096L0.0029 0.0054L0.0098 0.0069L0.0091 0.0029L0.0044 0.0062L0.0001 0.0071L0.0027 0.0047"/></g></svg>