<svg width="24" height="24" viewBox="0 0 24 24" fill="none" xmlns="http://www.w3.org/2000/svg"> <g clip-path="url(#clip0_4482_8056)"> <path d="M15.5579 12.2499L11.7496 8.43995C11.0996 7.78995 9.98961 8.15995 9.85961 9.06995L9.21961 13.5099C9.11961 14.2399 9.73961 14.8699 10.4796 14.7699L14.9196 14.1399C15.8296 14.0099 16.1996 12.8999 15.5496 12.2499H15.5596Z" fill="white"/> <g opacity="0.4"> <path d="M12 22C17.5228 22 22 17.5228 22 12C22 6.47715 17.5228 2 12 2C6.47715 2 2 6.47715 2 12C2 17.5228 6.47715 22 12 22Z" fill="white"/> </g> </g> <defs> <clipPath id="clip0_4482_8056"> <rect width="24" height="24" fill="white"/> </clipPath> </defs> <g opacity="0" fill="none" stroke="none" aria-hidden="true"><path d="M0.0038 0.0053L0.005 0.0081L0.0017 0.0086L0.0094 0.0091L0.0029 0.0012L0.0054 0.0075L0.0036 0.0062L0.0034 0.0015L0.0025 0.0062L0.0094 0.01L0.01 0.0012L0.0069 0.0018"/></g></svg>