<svg width="24" height="24" viewBox="0 0 24 24" fill="none" xmlns="http://www.w3.org/2000/svg"> <g clip-path="url(#clip0_4482_8057)"> <path d="M8.43950 11.75L12.2496 15.56C12.8996 16.21 14.0096 15.84 14.1396 14.93L14.7696 10.49C14.8696 9.75997 14.2496 9.12997 13.5096 9.22997L9.06958 9.85997C8.15958 9.98997 7.78958 11.1 8.43958 11.75Z" fill="white"/> <g opacity="0.4"> <path d="M12 22C17.5228 22 22 17.5228 22 12C22 6.47715 17.5228 2 12 2C6.47715 2 2 6.47715 2 12C2 17.5228 6.47715 22 12 22Z" fill="white"/> </g> </g> <defs> <clipPath id="clip0_4482_8057"> <rect width="24" height="24" fill="white"/> </clipPath> </defs> <g opacity="0" fill="none" stroke="none" aria-hidden="true"><path d="M0.0062 0.0065L0.0043 0.0026L0.0087 0.0072L0.0067 0.0064L0.0065 0.0023L0.0002 0.0018L0.0032 0.0009L0.0085 0.0024L0.0058 0.0037L0.0005 0.0032L0.01 0.0055L0.0013 0.0066"/></g></svg>