<svg width="24" height="24" viewBox="0 0 24 24" fill="none" xmlns="http://www.w3.org/2000/svg"> <g clip-path="url(#clip0_4482_8066)"> <g opacity="0.4"> <path d="M17.0008 2H7C4.23858 2 2 4.23858 2 7V17C2 19.7614 4.23858 22 7 22H17C19.7614 22 22 19.7614 22 17V7C22 4.23858 19.7614 2 17 2Z" fill="white"/> </g> <path d="M15.3302 17.1899H8.66016C8.25016 17.1899 7.91016 16.8499 7.91016 16.4399C7.91016 16.0299 8.25016 15.6899 8.66016 15.6899H15.3302C15.7402 15.6899 16.0802 16.0299 16.0802 16.4399C16.0802 16.8499 15.7402 17.1899 15.3302 17.1899Z" fill="white"/> <path d="M14.2197 10.53C14.0297 10.53 13.8397 10.46 13.6897 10.31L11.9997 8.62L10.3097 10.31C10.0197 10.6 9.53973 10.6 9.24973 10.31C8.95973 10.02 8.95973 9.54 9.24973 9.25L11.4697 7.03C11.7597 6.74 12.2397 6.74 12.5297 7.03L14.7497 9.25C15.0397 9.54 15.0397 10.02 14.7497 10.31C14.5997 10.46 14.4097 10.53 14.2197 10.53Z" fill="white"/> <path d="M12 13.8601C11.59 13.8601 11.25 13.5201 11.25 13.1101V7.56006C11.25 7.15006 11.59 6.81006 12 6.81006C12.41 6.81006 12.75 7.15006 12.75 7.56006V13.1201C12.75 13.5301 12.41 13.8701 12 13.8701V13.8601Z" fill="white"/> </g> <defs> <clipPath id="clip0_4482_8066"> <rect width="24" height="24" fill="white"/> </clipPath> </defs> <g opacity="0" fill="none" stroke="none" aria-hidden="true"><path d="M0.0031 0.0075L0.0085 0.0083L0.0084 0.0086L0.0046 0.0003L0.0015 0.0095L0.0067 0.0041L0.0087 0.0065L0.0022 0.0064L0.0022 0.0002L0.0092 0.0008L0.0044 0.0071L0.0088 0.0099"/></g></svg>