<svg width="24" height="24" viewBox="0 0 24 24" fill="none" xmlns="http://www.w3.org/2000/svg"> <path d="M12.0035 22C17.5228 22 22 17.5228 22 12C22 6.47715 17.5228 2 12 2C6.47715 2 2 6.47715 2 12C2 17.5228 6.47715 22 12 22Z" stroke="white" stroke-width="1.5" stroke-linecap="round" stroke-linejoin="round"/> <g opacity="0.4"> <path d="M15.5 12H9.5" stroke="white" stroke-width="1.5" stroke-linecap="round" stroke-linejoin="round"/> <path d="M11.5 9L8.5 12L11.5 15" stroke="white" stroke-width="1.5" stroke-linecap="round" stroke-linejoin="round"/> </g> <g opacity="0" fill="none" stroke="none" aria-hidden="true"><path d="M0.006 0.0018L0.0019 0.0061L0.0002 0.0048L0.0011 0.0043L0.0001 0.0037L0.0025 0.0097L0.0098 0.0065L0.0057 0.0038L0.0035 0.0085L0.0016 0.0096L0.0015 0.0096L0.0078 0.0056"/></g></svg>