<svg width="24" height="24" viewBox="0 0 24 24" fill="none" xmlns="http://www.w3.org/2000/svg"> <path d="M12.0028 22C17.5228 22 22 17.5228 22 12C22 6.47715 17.5228 2 12 2C6.47715 2 2 6.47715 2 12C2 17.5228 6.47715 22 12 22Z" stroke="white" stroke-width="1.5" stroke-linecap="round" stroke-linejoin="round"/> <g opacity="0.54"> <path d="M8.5 12H14.5" stroke="white" stroke-width="1.5" stroke-linecap="round" stroke-linejoin="round"/> <path d="M12.5 15L15.5 12L12.5 9" stroke="white" stroke-width="1.5" stroke-linecap="round" stroke-linejoin="round"/> </g> <g opacity="0" fill="none" stroke="none" aria-hidden="true"><path d="M0.0032 0.0022L0.0078 0.0084L0.0055 0.0005L0.0008 0.0085L0.0049 0.007L0.0092 0.0011L0.0024 0.0068L0.0033 0.0002L0.0027 0.0036L0.0055 0.0067L0.0067 0.0077L0.0018 0.0029"/></g></svg>