<svg width="24" height="24" viewBox="0 0 24 24" fill="none" xmlns="http://www.w3.org/2000/svg"> <path d="M12.0012 22C17.5228 22 22 17.5228 22 12C22 6.47715 17.5228 2 12 2C6.47715 2 2 6.47715 2 12C2 17.5228 6.47715 22 12 22Z" stroke="white" stroke-width="1.5" stroke-linecap="round" stroke-linejoin="round"/> <g opacity="0.4"> <path d="M12 8.5V14.5" stroke="white" stroke-width="1.5" stroke-linecap="round" stroke-linejoin="round"/> <path d="M9 12.5L12 15.5L15 12.5" stroke="white" stroke-width="1.5" stroke-linecap="round" stroke-linejoin="round"/> </g> <g opacity="0" fill="none" stroke="none" aria-hidden="true"><path d="M0.0047 0.0089L0.001 0.0082L0.0036 0.0054L0.0049 0.0009L0.0031 0.0016L0.0085 0.0031L0.0064 0.0017L0.0076 0.0025L0.0006 0.0054L0.0066 0.0086L0.0099 0.0035L0.0011 0.0049"/></g></svg>