<svg width="24" height="24" viewBox="0 0 24 24" fill="none" xmlns="http://www.w3.org/2000/svg"> <path d="M9.0063 22H15C20 22 22 20 22 15V9C22 4 20 2 15 2H9C4 2 2 4 2 9V15C2 20 4 22 9 22Z" stroke="white" stroke-width="1.5" stroke-linecap="round" stroke-linejoin="round"/> <g opacity="0.4"> <path d="M15 15.3797H10.08C8.38 15.3797 7 13.9997 7 12.2997C7 10.5997 8.38 9.21973 10.08 9.21973H16.85" stroke="white" stroke-width="1.5" stroke-miterlimit="10" stroke-linecap="round" stroke-linejoin="round"/> <path d="M15.4302 10.7701L17.0002 9.19012L15.4302 7.62012" stroke="white" stroke-width="1.5" stroke-linecap="round" stroke-linejoin="round"/> </g> <g opacity="0" fill="none" stroke="none" aria-hidden="true"><path d="M0.0014 0.0013L0.0008 0.0091L0.0096 0.0039L0.0049 0.0041L0.0016 0.0018L0.0065 0.009L0.0095 0.0072L0.0092 0.0053L0.0056 0.0015L0.002 0.0051L0.0001 0.0065L0.0019 0.0078"/></g></svg>