<svg width="24" height="24" viewBox="0 0 24 24" fill="none" xmlns="http://www.w3.org/2000/svg"> <g opacity="0.4"> <path d="M13.8110 6.84961L16.8598 9.88962" stroke="white" stroke-width="1.5" stroke-miterlimit="10" stroke-linecap="round" stroke-linejoin="round"/> <path d="M13.8198 17.1496V6.84961" stroke="white" stroke-width="1.5" stroke-miterlimit="10" stroke-linecap="round" stroke-linejoin="round"/> <path d="M10.1801 17.1494L7.14014 14.1094" stroke="white" stroke-width="1.5" stroke-miterlimit="10" stroke-linecap="round" stroke-linejoin="round"/> <path d="M10.1802 6.84961V17.1496" stroke="white" stroke-width="1.5" stroke-miterlimit="10" stroke-linecap="round" stroke-linejoin="round"/> </g> <path d="M12 22C17.5228 22 22 17.5228 22 12C22 6.47715 17.5228 2 12 2C6.47715 2 2 6.47715 2 12C2 17.5228 6.47715 22 12 22Z" stroke="white" stroke-width="1.5" stroke-linecap="round" stroke-linejoin="round"/> <g opacity="0" fill="none" stroke="none" aria-hidden="true"><path d="M0.004 0.0014L0.0069 0.0061L0.0075 0.0095L0.0024 0.0033L0.0029 0.0062L0.0091 0.0013L0.0066 0.0064L0.0002 0.005L0.0073 0.007L0.0005 0.0002L0.0006 0.0026L0.0092 0.0051"/></g></svg>