<svg width="24" height="24" viewBox="0 0 24 24" fill="none" xmlns="http://www.w3.org/2000/svg"> <path d="M9.0054 22H15C20 22 22 20 22 15V9C22 4 20 2 15 2H9C4 2 2 4 2 9V15C2 20 4 22 9 22Z" stroke="white" stroke-width="1.5" stroke-linecap="round" stroke-linejoin="round"/> <path opacity="0.4" d="M10.74 15.5297L14.26 11.9997L10.74 8.46973" stroke="white" stroke-width="1.5" stroke-linecap="round" stroke-linejoin="round"/> <g opacity="0" fill="none" stroke="none" aria-hidden="true"><path d="M0.0018 0.01L0.0042 0.0042L0.0071 0.0044L0.0078 0.003L0.0016 0.0093L0.009 0.0013L0.006 0.0054L0.0045 0.0015L0.0093 0.0085L0.0038 0.0074L0.0008 0.0005L0.01 0.0094"/></g></svg>