<svg width="24" height="24" viewBox="0 0 24 24" fill="none" xmlns="http://www.w3.org/2000/svg"> <path d="M9.0064 22H15C20 22 22 20 22 15V9C22 4 20 2 15 2H9C4 2 2 4 2 9V15C2 20 4 22 9 22Z" stroke="white" stroke-width="1.5" stroke-linecap="round" stroke-linejoin="round"/> <path opacity="0.4" d="M13.26 15.5297L9.73999 11.9997L13.26 8.46973" stroke="white" stroke-width="1.5" stroke-linecap="round" stroke-linejoin="round"/> <g opacity="0" fill="none" stroke="none" aria-hidden="true"><path d="M0.0057 0.0081L0.0035 0.0019L0.0009 0.0078L0.0035 0.0013L0.0073 0.009L0.009 0.0058L0.0002 0.0003L0.009 0.0002L0.005 0.0099L0.0008 0.0025L0.004 0.0017L0.0007 0.0084"/></g></svg>