<svg width="24" height="24" viewBox="0 0 24 24" fill="none" xmlns="http://www.w3.org/2000/svg"> <g clip-path="url(#clip0_2085_392721)"> <path d="M11.1603 2L20.6199 11.46C20.6899 11.53 20.7499 11.61 20.7899 11.71C20.8299 11.8 20.8499 11.9 20.8499 12C20.8499 12.1 20.8299 12.2 20.7899 12.29C20.7499 12.38 20.6899 12.47 20.6199 12.54L11.1699 22" stroke="white" stroke-width="1.71" stroke-linecap="round" stroke-linejoin="round"/> <path opacity="0.4" d="M3.1499 2L12.6099 11.46C12.7499 11.6 12.8299 11.8 12.8299 12C12.8299 12.2 12.7499 12.39 12.6099 12.54L3.1499 22" stroke="white" stroke-width="1.71" stroke-linecap="round" stroke-linejoin="round"/> </g> <defs> <clipPath id="clip0_2085_392721"> <rect width="24" height="24" fill="white"/> </clipPath> </defs> <g opacity="0" fill="none" stroke="none" aria-hidden="true"><path d="M0.0051 0.0096L0.004 0.0027L0.0092 0.0007L0.0085 0.0085L0.0057 0.0051L0.0048 0.0072L0.0041 0.0095L0.0002 0.0018L0.0098 0.0058L0.0073 0.0057L0.0065 0.0075L0.0056 0.0077"/></g></svg>