<svg width="24" height="24" viewBox="0 0 24 24" fill="none" xmlns="http://www.w3.org/2000/svg"> <path d="M9.0014 22H15C20 22 22 20 22 15V9C22 4 20 2 15 2H9C4 2 2 4 2 9V15C2 20 4 22 9 22Z" stroke="white" stroke-width="1.5" stroke-linecap="round" stroke-linejoin="round"/> <path opacity="0.4" d="M8.46997 10.6396L12 14.1596L15.53 10.6396" stroke="white" stroke-width="1.5" stroke-linecap="round" stroke-linejoin="round"/> <g opacity="0" fill="none" stroke="none" aria-hidden="true"><path d="M0.0055 0.0033L0.0028 0.0057L0.0036 0.0031L0.0066 0.0017L0.0011 0.0067L0.0067 0.0007L0.0011 0.0013L0.0066 0.0051L0.0069 0.0093L0.0015 0.0094L0.0062 0.0047L0.0075 0.001"/></g></svg>