<svg width="24" height="24" viewBox="0 0 24 24" fill="none" xmlns="http://www.w3.org/2000/svg"> <path d="M9.0011 22H15C20 22 22 20 22 15V9C22 4 20 2 15 2H9C4 2 2 4 2 9V15C2 20 4 22 9 22Z" stroke="white" stroke-width="1.5" stroke-linecap="round" stroke-linejoin="round"/> <path opacity="0.4" d="M8.46997 13.4604L12 9.94043L15.53 13.4604" stroke="white" stroke-width="1.5" stroke-linecap="round" stroke-linejoin="round"/> <g opacity="0" fill="none" stroke="none" aria-hidden="true"><path d="M0.0004 0.0055L0.0084 0.0031L0.0017 0.0079L0.0042 0.0053L0.0043 0.0048L0.0044 0.0075L0.0027 0.0026L0.0087 0.0053L0.002 0.0085L0.0087 0.0044L0.0035 0.0092L0.008 0.0041"/></g></svg>