<svg width="24" height="25" viewBox="0 0 24 25" fill="none" xmlns="http://www.w3.org/2000/svg"> <g clip-path="url(#clip0_3247_9578)"> <path d="M9.0087 11.9104L11.67 14.7904L21 6.15039" stroke="white" stroke-width="1.5" stroke-linecap="round" stroke-linejoin="round"/> <path opacity="0.4" d="M15.47 3.53017C14.39 3.13017 13.22 2.91016 12 2.91016C6.48 2.91016 2 7.39016 2 12.9102C2 18.4302 6.48 22.9102 12 22.9102C17.52 22.9102 22 18.4302 22 12.9102" stroke="white" stroke-width="1.5" stroke-miterlimit="10" stroke-linecap="round"/> </g> <defs> <clipPath id="clip0_3247_9578"> <rect width="24" height="24" fill="white" transform="translate(0 0.910156)"/> </clipPath> </defs> <g opacity="0" fill="none" stroke="none" aria-hidden="true"><path d="M0.007 0.0062L0.0015 0.0002L0.0075 0.0017L0.0062 0.005L0.0031 0.0012L0.0079 0.003L0.0064 0.0029L0.0082 0.0003L0.0085 0.0045L0.0079 0.0048L0.0012 0.003L0.0078 0.0036"/></g></svg>