<svg width="24" height="25" viewBox="0 0 24 25" fill="none" xmlns="http://www.w3.org/2000/svg"> <g clip-path="url(#clip0_3247_9579)"> <path opacity="0.4" d="M15.0034 2.91016H7C4.25 2.91016 2 5.16016 2 7.91016V17.9102C2 20.6602 4.25 22.9102 7 22.9102H17C19.75 22.9102 22 20.6602 22 17.9102V12.8902" stroke="white" stroke-width="1.5" stroke-miterlimit="10" stroke-linecap="round"/> <path d="M9 11.9104L11.67 14.7904L21 6.15039" stroke="white" stroke-width="1.5" stroke-linecap="round" stroke-linejoin="round"/> </g> <defs> <clipPath id="clip0_3247_9579"> <rect width="24" height="24" fill="white" transform="translate(0 0.910156)"/> </clipPath> </defs> <g opacity="0" fill="none" stroke="none" aria-hidden="true"><path d="M0.0017 0.0047L0.0064 0.0029L0.0029 0.0079L0.0073 0.0038L0.0004 0.0098L0.0052 0.0061L0.0049 0.0027L0.0065 0.0095L0.0013 0.0024L0.0031 0.0036L0.0045 0.0058L0.0009 0.0018"/></g></svg>