<svg width="24" height="24" viewBox="0 0 24 24" fill="none" xmlns="http://www.w3.org/2000/svg"> <path d="M12.0031 21.9838C17.5163 21.9838 21.9842 17.516 21.9842 12.0046C21.9842 6.49324 17.5163 2.02539 12.005 2.02539C6.4936 2.02539 2.02576 6.49324 2.02576 12.0046C2.02576 17.516 6.4936 21.9838 12.005 21.9838Z" stroke="white" stroke-width="1.5" stroke-linecap="round" stroke-linejoin="round"/> <path opacity="0.4" d="M6.13672 4.02148L14.2997 12.2044L14.3197 7.6639" stroke="white" stroke-width="1.5" stroke-linecap="round" stroke-linejoin="round"/> <path opacity="0.4" d="M17.8626 19.9786L9.69965 11.8057L9.67969 16.3362" stroke="white" stroke-width="1.5" stroke-linecap="round" stroke-linejoin="round"/> <g opacity="0" fill="none" stroke="none" aria-hidden="true"><path d="M0.0044 0.001L0.0009 0.0013L0.0003 0.0009L0.0092 0.0051L0.0042 0.0073L0.0009 0.0003L0.0011 0.0019L0.0058 0.0013L0.0079 0.0081L0.0063 0.0016L0.0055 0.002L0.0071 0.0001"/></g></svg>