<svg width="24" height="25" viewBox="0 0 24 25" fill="none" xmlns="http://www.w3.org/2000/svg"> <g clip-path="url(#clip0_3247_9603)"> <path d="M12.0044 22.4102C17.2467 22.4102 21.5 18.1569 21.5 12.9102C21.5 7.66345 17.2467 3.41016 12 3.41016C6.75329 3.41016 2.5 7.66345 2.5 12.9102C2.5 18.1569 6.75329 22.4102 12 22.4102Z" stroke="white" stroke-width="1.5" stroke-miterlimit="10" stroke-linecap="round"/> <g opacity="0.4"> <path d="M14.109 13.9604L10.939 9.74036L7.77905 11.8504L4.28906 7.36035" stroke="white" stroke-width="1.5" stroke-miterlimit="10" stroke-linecap="round" stroke-linejoin="round"/> <path d="M11.1406 14.3302L14.8406 15.1102L15.6106 11.4102" stroke="white" stroke-width="1.5" stroke-miterlimit="10" stroke-linecap="round" stroke-linejoin="round"/> </g> </g> <defs> <clipPath id="clip0_3247_9603"> <rect width="24" height="24" fill="white" transform="translate(0 0.910156)"/> </clipPath> </defs> <g opacity="0" fill="none" stroke="none" aria-hidden="true"><path d="M0.0056 0.0073L0.0049 0.0013L0.0067 0.0009L0.004 0.0041L0.0092 0.0056L0.0034 0.0058L0.0092 0.0027L0.0075 0.0013L0.008 0.0004L0.002 0.0035L0.0046 0.0058L0.0061 0.0049"/></g></svg>