<svg width="24" height="24" viewBox="0 0 24 24" fill="none" xmlns="http://www.w3.org/2000/svg"> <path d="M16.4458 8.90039C20.04 9.21039 21.51 11.0604 21.51 15.1104V15.2404C21.51 19.7104 19.72 21.5004 15.25 21.5004H8.73998C4.26998 21.5004 2.47998 19.7104 2.47998 15.2404V15.1104C2.47998 11.0904 3.92998 9.24039 7.46998 8.91039" stroke="white" stroke-width="1.5" stroke-linecap="round" stroke-linejoin="round"/> <g opacity="0.4"> <path d="M12 15.0001V3.62012" stroke="white" stroke-width="1.5" stroke-linecap="round" stroke-linejoin="round"/> <path d="M15.3504 5.85L12.0004 2.5L8.65039 5.85" stroke="white" stroke-width="1.5" stroke-linecap="round" stroke-linejoin="round"/> </g> <g opacity="0" fill="none" stroke="none" aria-hidden="true"><path d="M0.0033 0.0029L0.0012 0.0021L0.0043 0.0014L0.0004 0.0038L0.0016 0.0009L0.0063 0.0055L0.0091 0.0032L0.0093 0.0025L0.0079 0.0052L0.0073 0.01L0.0051 0.0056L0.0031 0.0087"/></g></svg>