<svg width="24" height="24" viewBox="0 0 24 24" fill="none" xmlns="http://www.w3.org/2000/svg"> <path d="M16.4453 8.90039C20.04 9.21039 21.51 11.0604 21.51 15.1104V15.2404C21.51 19.7104 19.72 21.5004 15.25 21.5004H8.73998C4.26998 21.5004 2.47998 19.7104 2.47998 15.2404V15.1104C2.47998 11.0904 3.92998 9.24039 7.46998 8.91039" stroke="white" stroke-width="1.5" stroke-linecap="round" stroke-linejoin="round"/> <g opacity="0.4"> <path d="M12 2V14.88" stroke="white" stroke-width="1.5" stroke-linecap="round" stroke-linejoin="round"/> <path d="M15.3504 12.6504L12.0004 16.0004L8.65039 12.6504" stroke="white" stroke-width="1.5" stroke-linecap="round" stroke-linejoin="round"/> </g> <g opacity="0" fill="none" stroke="none" aria-hidden="true"><path d="M0.0014 0.0029L0.0073 0.0079L0.0056 0.008L0.0091 0.0001L0.0071 0.0015L0.0031 0.0027L0.0025 0.0088L0.0047 0.0033L0.0061 0.0095L0.0031 0.0096L0.0017 0.0011L0.0051 0.0096"/></g></svg>