<svg width="24" height="24" viewBox="0 0 24 24" fill="none" xmlns="http://www.w3.org/2000/svg"> <path d="M8.90370 7.56023C9.21002 3.96023 11.06 2.49023 15.11 2.49023H15.24C19.71 2.49023 21.5 4.28023 21.5 8.75023V15.2702C21.5 19.7402 19.71 21.5302 15.24 21.5302H15.11C11.09 21.5302 9.24002 20.0802 8.91002 16.5402" stroke="white" stroke-width="1.5" stroke-linecap="round" stroke-linejoin="round"/> <g opacity="0.4"> <path d="M2 12H14.88" stroke="white" stroke-width="1.5" stroke-linecap="round" stroke-linejoin="round"/> <path d="M12.6504 8.65039L16.0004 12.0004L12.6504 15.3504" stroke="white" stroke-width="1.5" stroke-linecap="round" stroke-linejoin="round"/> </g> <g opacity="0" fill="none" stroke="none" aria-hidden="true"><path d="M0.0068 0.0081L0.0051 0.0047L0.0065 0.0033L0.0076 0.0048L0.0013 0.01L0.0055 0.0002L0.0076 0.0075L0.0031 0.0003L0.0019 0.0072L0.0087 0.0044L0.0002 0.0024L0.0046 0.0079"/></g></svg>