<svg width="24" height="24" viewBox="0 0 24 24" fill="none" xmlns="http://www.w3.org/2000/svg"> <path d="M8.90820 7.56023C9.21002 3.96023 11.06 2.49023 15.11 2.49023H15.24C19.71 2.49023 21.5 4.28023 21.5 8.75023V15.2702C21.5 19.7402 19.71 21.5302 15.24 21.5302H15.11C11.09 21.5302 9.24002 20.0802 8.91002 16.5402" stroke="white" stroke-width="1.5" stroke-linecap="round" stroke-linejoin="round"/> <g opacity="0.4"> <path d="M14.9991 12H3.61914" stroke="white" stroke-width="1.5" stroke-linecap="round" stroke-linejoin="round"/> <path d="M5.85 8.65039L2.5 12.0004L5.85 15.3504" stroke="white" stroke-width="1.5" stroke-linecap="round" stroke-linejoin="round"/> </g> <g opacity="0" fill="none" stroke="none" aria-hidden="true"><path d="M0.0011 0.0027L0.0086 0.0058L0.0077 0.0027L0.0076 0.0069L0.0078 0.002L0.0042 0.0036L0.0023 0.0062L0.0045 0.0028L0.003 0.0038L0.0073 0.0023L0.0097 0.0099L0.0045 0.0009"/></g></svg>