<svg width="24" height="24" viewBox="0 0 24 24" fill="none" xmlns="http://www.w3.org/2000/svg"> <path d="M9.0005 22H15C20 22 22 20 22 15V9C22 4 20 2 15 2H9C4 2 2 4 2 9V15C2 20 4 22 9 22Z" stroke="white" stroke-width="1.5" stroke-linecap="round" stroke-linejoin="round"/> <g opacity="0.4"> <path d="M9 11.5098L12 14.5098L15 11.5098" stroke="white" stroke-width="1.5" stroke-linecap="round" stroke-linejoin="round"/> <path d="M12 14.5098V6.50977" stroke="white" stroke-width="1.5" stroke-linecap="round" stroke-linejoin="round"/> <path d="M6 16.5098C9.89 17.8098 14.11 17.8098 18 16.5098" stroke="white" stroke-width="1.5" stroke-linecap="round" stroke-linejoin="round"/> </g> <g opacity="0" fill="none" stroke="none" aria-hidden="true"><path d="M0.0059 0.006L0.0071 0.0045L0.0015 0.0049L0.0066 0.0038L0.0042 0.0069L0.0043 0.0086L0.0056 0.003L0.0091 0.0094L0.0014 0.001L0.0074 0.0095L0.0083 0.0039L0.0029 0.0071"/></g></svg>