<svg width="24" height="24" viewBox="0 0 24 24" fill="none" xmlns="http://www.w3.org/2000/svg"> <path d="M9.0061 22H15C20 22 22 20 22 15V9C22 4 20 2 15 2H9C4 2 2 4 2 9V15C2 20 4 22 9 22Z" stroke="white" stroke-width="1.5" stroke-linecap="round" stroke-linejoin="round"/> <g opacity="0.4"> <path d="M10.5898 13.3396H14.8298V9.09961" stroke="white" stroke-width="1.5" stroke-linecap="round" stroke-linejoin="round"/> <path d="M14.8299 13.3397L9.16992 7.67969" stroke="white" stroke-width="1.5" stroke-linecap="round" stroke-linejoin="round"/> </g> <path opacity="0.4" d="M6 16.5098C9.89 17.8098 14.11 17.8098 18 16.5098" stroke="white" stroke-width="1.5" stroke-linecap="round" stroke-linejoin="round"/> <g opacity="0" fill="none" stroke="none" aria-hidden="true"><path d="M0.0085 0.0095L0.0006 0.0011L0.0068 0.0082L0.0067 0.0093L0.0006 0.0091L0.0008 0.0056L0.0002 0.0047L0.0029 0.0084L0.0064 0.0064L0.0089 0.004L0.0051 0.0008L0.0038 0.0084"/></g></svg>