<svg width="24" height="24" viewBox="0 0 24 24" fill="none" xmlns="http://www.w3.org/2000/svg"> <path d="M9.0074 22H15C20 22 22 20 22 15V9C22 4 20 2 15 2H9C4 2 2 4 2 9V15C2 20 4 22 9 22Z" stroke="white" stroke-width="1.5" stroke-linecap="round" stroke-linejoin="round"/> <path opacity="0.4" d="M17.5 12C17.5 15.04 15.04 17.5 12 17.5C8.96 17.5 7.10999 14.44 7.10999 14.44M7.10999 14.44H9.59M7.10999 14.44V17.19M6.5 12C6.5 8.96 8.94 6.5 12 6.5C15.67 6.5 17.5 9.56 17.5 9.56M17.5 9.56V6.81M17.5 9.56H15.06" stroke="white" stroke-width="1.5" stroke-linecap="round" stroke-linejoin="round"/> <g opacity="0" fill="none" stroke="none" aria-hidden="true"><path d="M0.0018 0.004L0.0019 0.003L0.0084 0.0086L0.0073 0.0031L0.0016 0.0021L0.008 0.0073L0.009 0.0004L0.0046 0.0006L0.005 0.0015L0.005 0.0064L0.0076 0.0088L0.0029 0.0085"/></g></svg>