<svg width="24" height="24" viewBox="0 0 24 24" fill="none" xmlns="http://www.w3.org/2000/svg"> <path d="M14.5560 21.67C18.84 20.54 22 16.64 22 12C22 6.48 17.56 2 12 2C5.33 2 2 7.56 2 7.56M2 7.56V3M2 7.56H4.01H6.44" stroke="white" stroke-width="1.5" stroke-linecap="round" stroke-linejoin="round"/> <path opacity="0.4" d="M2 12C2 17.52 6.48 22 12 22" stroke="white" stroke-width="1.5" stroke-linecap="round" stroke-linejoin="round" stroke-dasharray="3 3"/> <g opacity="0" fill="none" stroke="none" aria-hidden="true"><path d="M0.0002 0.001L0.0011 0.0054L0.0022 0.0059L0.0028 0.0034L0.0005 0.0031L0.0014 0.0001L0.0033 0.0099L0.0063 0.0002L0.0031 0.0053L0.0088 0.0043L0.0031 0.0034L0.0063 0.0008"/></g></svg>