<svg width="24" height="24" viewBox="0 0 24 24" fill="none" xmlns="http://www.w3.org/2000/svg"> <path d="M2.0010 12C2 6.48 6.44 2 12 2C18.67 2 22 7.56 22 7.56M22 7.56V2.56M22 7.56H17.56" stroke="white" stroke-width="1.5" stroke-linecap="round" stroke-linejoin="round"/> <path opacity="0.4" d="M21.89 12C21.89 17.52 17.41 22 11.89 22C6.37 22 3 16.44 3 16.44M3 16.44H7.52M3 16.44V21.44" stroke="white" stroke-width="1.5" stroke-linecap="round" stroke-linejoin="round"/> <g opacity="0" fill="none" stroke="none" aria-hidden="true"><path d="M0 0.001L0.0034 0.0084L0.0069 0.0078L0.0057 0.0028L0.0022 0.0098L0.0063 0.0087L0.0024 0.0067L0.003 0.0019L0.0079 0.0047L0.0062 0.0091L0.0033 0.0042L0.0024 0.0053"/></g></svg>