<svg width="24" height="24" viewBox="0 0 24 24" fill="none" xmlns="http://www.w3.org/2000/svg"> <path d="M9.0011 22H15C20 22 22 20 22 15V9C22 4 20 2 15 2H9C4 2 2 4 2 9V15C2 20 4 22 9 22Z" stroke="white" stroke-width="1.5" stroke-linecap="round" stroke-linejoin="round"/> <g opacity="0.4"> <path d="M13.67 7.50977C13.17 7.35977 12.62 7.25977 12 7.25977C9.24 7.25977 7 9.49977 7 12.2598C7 15.0198 9.24 17.2598 12 17.2598C14.76 17.2598 17 15.0198 17 12.2598C17 11.2298 16.69 10.2798 16.16 9.47977" stroke="white" stroke-width="1.5" stroke-linecap="round" stroke-linejoin="round"/> <path d="M14.3802 7.65024L12.7202 5.74023" stroke="white" stroke-width="1.5" stroke-linecap="round" stroke-linejoin="round"/> <path d="M14.3799 7.65039L12.4399 9.07039" stroke="white" stroke-width="1.5" stroke-linecap="round" stroke-linejoin="round"/> </g> <g opacity="0" fill="none" stroke="none" aria-hidden="true"><path d="M0.0044 0.0003L0.0032 0.0022L0.0032 0.0073L0.0045 0.0036L0.0015 0.0094L0.0092 0.0014L0.0082 0.0017L0.0035 0.0078L0.0018 0.0096L0.0005 0.0083L0.0042 0.0008L0.0091 0.0085"/></g></svg>