<svg width="24" height="25" viewBox="0 0 24 25" fill="none" xmlns="http://www.w3.org/2000/svg"> <g clip-path="url(#clip0_3247_9586)"> <path opacity="0.4" d="M14.0681 18.5598H6.75C4.55 18.5598 2.75 16.7598 2.75 14.5598V10.3398C2.75 8.63977 4.13996 7.25977 5.82996 7.25977" stroke="white" stroke-width="1.5" stroke-miterlimit="10" stroke-linecap="round" stroke-linejoin="round"/> <path d="M10.97 15.4805L14.0601 18.5605L10.97 21.6405" stroke="white" stroke-width="1.5" stroke-miterlimit="10" stroke-linecap="round" stroke-linejoin="round"/> <path opacity="0.4" d="M9.93994 7.25H17.75C19.68 7.25 21.25 8.82 21.25 10.75V15.47C21.25 17.17 19.86 18.55 18.17 18.55" stroke="white" stroke-width="1.5" stroke-miterlimit="10" stroke-linecap="round" stroke-linejoin="round"/> <path d="M13.03 10.3399L9.93994 7.24991L13.03 4.16992" stroke="white" stroke-width="1.5" stroke-miterlimit="10" stroke-linecap="round" stroke-linejoin="round"/> </g> <defs> <clipPath id="clip0_3247_9586"> <rect width="24" height="24" fill="white" transform="translate(0 0.910156)"/> </clipPath> </defs> <g opacity="0" fill="none" stroke="none" aria-hidden="true"><path d="M0.0046 0.0077L0.0034 0.0031L0.008 0.0051L0.0038 0.0035L0.0047 0.0035L0 0.0074L0.0012 0L0.0039 0.007L0.0083 0.004L0.0067 0.0093L0.0018 0.0039L0.0023 0.0026"/></g></svg>