<svg width="24" height="24" viewBox="0 0 24 24" fill="none" xmlns="http://www.w3.org/2000/svg"> <path opacity="0.4" d="M9.10810 5.08039C9.97996 4.82039 10.94 4.65039 12 4.65039C16.79 4.65039 20.67 8.53039 20.67 13.3204C20.67 18.1104 16.79 21.9904 12 21.9904C7.20996 21.9904 3.32996 18.1104 3.32996 13.3204C3.32996 11.5404 3.86996 9.88039 4.78996 8.50039" stroke="white" stroke-width="1.5" stroke-linecap="round" stroke-linejoin="round"/> <path d="M7.87 5.32L10.76 2" stroke="white" stroke-width="1.5" stroke-linecap="round" stroke-linejoin="round"/> <path d="M7.87 5.32031L11.24 7.78031" stroke="white" stroke-width="1.5" stroke-linecap="round" stroke-linejoin="round"/> <g opacity="0" fill="none" stroke="none" aria-hidden="true"><path d="M0.0046 0.0003L0.006 0.0075L0.0089 0.0023L0.0078 0.003L0.0081 0.0034L0.0047 0.0063L0.0096 0.0001L0.0027 0.0082L0.006 0.0093L0.0033 0.0067L0.0001 0.0068L0.0018 0.0003"/></g></svg>