<svg width="24" height="24" viewBox="0 0 24 24" fill="none" xmlns="http://www.w3.org/2000/svg"> <path opacity="0.4" d="M14.8986 5.08039C14.02 4.82039 13.06 4.65039 12 4.65039C7.20996 4.65039 3.32996 8.53039 3.32996 13.3204C3.32996 18.1204 7.20996 22.0004 12 22.0004C16.79 22.0004 20.67 18.1204 20.67 13.3304C20.67 11.5504 20.13 9.89039 19.21 8.51039" stroke="white" stroke-width="1.5" stroke-linecap="round" stroke-linejoin="round"/> <path d="M16.13 5.32L13.24 2" stroke="white" stroke-width="1.5" stroke-linecap="round" stroke-linejoin="round"/> <path d="M16.13 5.32031L12.76 7.78031" stroke="white" stroke-width="1.5" stroke-linecap="round" stroke-linejoin="round"/> <g opacity="0" fill="none" stroke="none" aria-hidden="true"><path d="M0.0066 0.0081L0.0095 0.0081L0.0092 0.0052L0.0036 0.0088L0.0068 0.0059L0.0045 0.006L0.0074 0.0013L0.0005 0.0002L0.0079 0.0004L0.0042 0.0083L0.0001 0.0041L0.0059 0.007"/></g></svg>