<svg width="24" height="24" viewBox="0 0 24 24" fill="none" xmlns="http://www.w3.org/2000/svg"> <path d="M9.0015 22H15C20 22 22 20 22 15V9C22 4 20 2 15 2H9C4 2 2 4 2 9V15C2 20 4 22 9 22Z" stroke="white" stroke-width="1.5" stroke-linecap="round" stroke-linejoin="round"/> <g opacity="0.4"> <path d="M10.5898 7.67969H14.8298V11.9297" stroke="white" stroke-width="1.5" stroke-linecap="round" stroke-linejoin="round"/> <path d="M14.8299 7.67969L9.16992 13.3397" stroke="white" stroke-width="1.5" stroke-linecap="round" stroke-linejoin="round"/> </g> <path opacity="0.4" d="M6 16.5098C9.89 17.8098 14.11 17.8098 18 16.5098" stroke="white" stroke-width="1.5" stroke-linecap="round" stroke-linejoin="round"/> <g opacity="0" fill="none" stroke="none" aria-hidden="true"><path d="M0.0098 0.007L0.0019 0.0066L0.0008 0.0053L0.0083 0.0048L0.0046 0.0016L0.0035 0.0007L0.0024 0.0055L0.0024 0.003L0.007 0.0073L0.0023 0.0085L0.0022 0.0018L0.0091 0.0053"/></g></svg>