<svg width="24" height="24" viewBox="0 0 24 24" fill="none" xmlns="http://www.w3.org/2000/svg"> <path d="M9.0035 22H15C20 22 22 20 22 15V9C22 4 20 2 15 2H9C4 2 2 4 2 9V15C2 20 4 22 9 22Z" stroke="white" stroke-width="1.5" stroke-linecap="round" stroke-linejoin="round"/> <g opacity="0.4"> <path d="M17.1499 13.8193L14.1099 16.8593" stroke="white" stroke-width="1.5" stroke-miterlimit="10" stroke-linecap="round" stroke-linejoin="round"/> <path d="M6.8501 13.8193H17.1501" stroke="white" stroke-width="1.5" stroke-miterlimit="10" stroke-linecap="round" stroke-linejoin="round"/> <path d="M6.8501 10.1796L9.8901 7.13965" stroke="white" stroke-width="1.5" stroke-miterlimit="10" stroke-linecap="round" stroke-linejoin="round"/> <path d="M17.1501 10.1797H6.8501" stroke="white" stroke-width="1.5" stroke-miterlimit="10" stroke-linecap="round" stroke-linejoin="round"/> </g> <g opacity="0" fill="none" stroke="none" aria-hidden="true"><path d="M0.0099 0.0084L0.0012 0.0089L0.0034 0.0083L0.0025 0.0058L0.0092 0.0004L0.008 0.0064L0.0079 0.0048L0.0054 0.0037L0.0028 0.0096L0.0071 0.0045L0.0002 0.0053L0.0095 0.0089"/></g></svg>