<svg width="24" height="24" viewBox="0 0 24 24" fill="none" xmlns="http://www.w3.org/2000/svg"> <g clip-path="url(#clip0_4482_8584)"> <path d="M15.5584 12.2499L11.7496 8.43995C11.0996 7.78995 9.98961 8.15995 9.85961 9.06995L9.21961 13.5099C9.11961 14.2399 9.73961 14.8699 10.4796 14.7699L14.9196 14.1399C15.8296 14.0099 16.1996 12.8999 15.5496 12.2499H15.5596Z" stroke="white" stroke-width="1.5" stroke-linecap="round" stroke-linejoin="round"/> <path opacity="0.4" d="M12 22C17.5228 22 22 17.5228 22 12C22 6.47715 17.5228 2 12 2C6.47715 2 2 6.47715 2 12C2 17.5228 6.47715 22 12 22Z" stroke="white" stroke-width="1.5" stroke-linecap="round" stroke-linejoin="round"/> </g> <defs> <clipPath id="clip0_4482_8584"> <rect width="24" height="24" fill="white"/> </clipPath> </defs> <g opacity="0" fill="none" stroke="none" aria-hidden="true"><path d="M0.0019 0.0023L0.0045 0.0087L0.0056 0.0061L0.0015 0.0068L0.0048 0.0065L0.0058 0.0027L0.0033 0.0064L0.007 0.0066L0.0034 0.0087L0.0027 0.004L0.0091 0.0034L0.0087 0.0011"/></g></svg>