<svg width="24" height="25" viewBox="0 0 24 25" fill="none" xmlns="http://www.w3.org/2000/svg"> <g clip-path="url(#clip0_3247_9589)"> <path d="M2.5035 16.0703V19.7603C2.5 21.2103 3.69001 22.4003 5.14001 22.4003H8.83002" stroke="white" stroke-width="1.5" stroke-miterlimit="10" stroke-linecap="round"/> <path opacity="0.4" d="M15.1699 22.4101H18.8599C20.3099 22.4101 21.4999 21.2201 21.4999 19.7701V16.0801" stroke="white" stroke-width="1.5" stroke-miterlimit="10" stroke-linecap="round"/> <path d="M21.4999 9.74016V6.05016C21.4999 4.60016 20.3099 3.41016 18.8599 3.41016H15.1699" stroke="white" stroke-width="1.5" stroke-miterlimit="10" stroke-linecap="round"/> <path opacity="0.4" d="M8.83002 3.41016H5.14001C3.69001 3.41016 2.5 4.60016 2.5 6.05016V9.74016" stroke="white" stroke-width="1.5" stroke-miterlimit="10" stroke-linecap="round"/> </g> <defs> <clipPath id="clip0_3247_9589"> <rect width="24" height="24" fill="white" transform="translate(0 0.910156)"/> </clipPath> </defs> <g opacity="0" fill="none" stroke="none" aria-hidden="true"><path d="M0.0099 0.008L0.0023 0.0024L0.0099 0.0004L0.0075 0.0047L0.0016 0.0007L0.0051 0.0025L0.0047 0.0047L0.0093 0.0082L0.0093 0.0075L0.008 0.0034L0.0007 0.0002L0.0022 0.0083"/></g></svg>