<svg width="24" height="25" viewBox="0 0 24 25" fill="none" xmlns="http://www.w3.org/2000/svg"> <g clip-path="url(#clip0_3247_9588)"> <path opacity="0.4" d="M8.83920 22.4101V18.7201C8.83002 17.2701 7.64 16.0801 6.19 16.0801H2.5" stroke="white" stroke-width="1.5" stroke-miterlimit="10" stroke-linecap="round"/> <path d="M21.5 16.0703H17.8101C16.3601 16.0703 15.17 17.2603 15.17 18.7103V22.4003" stroke="white" stroke-width="1.5" stroke-miterlimit="10" stroke-linecap="round"/> <path opacity="0.4" d="M15.17 3.41016V7.10016C15.17 8.55016 16.3601 9.74016 17.8101 9.74016H21.5" stroke="white" stroke-width="1.5" stroke-miterlimit="10" stroke-linecap="round"/> <path d="M2.5 9.74016H6.19C7.64 9.74016 8.83002 8.55016 8.83002 7.10016V3.41016" stroke="white" stroke-width="1.5" stroke-miterlimit="10" stroke-linecap="round"/> </g> <defs> <clipPath id="clip0_3247_9588"> <rect width="24" height="24" fill="white" transform="translate(0 0.910156)"/> </clipPath> </defs> <g opacity="0" fill="none" stroke="none" aria-hidden="true"><path d="M0.0011 0.0015L0.008 0.0049L0.0048 0.0071L0.0006 0.0019L0.0067 0.0047L0.0073 0.0019L0.0093 0.0098L0.0011 0.0099L0.0017 0.0077L0.004 0.0081L0.0027 0.0075L0.0006 0.0022"/></g></svg>