<svg width="24" height="24" viewBox="0 0 24 24" fill="none" xmlns="http://www.w3.org/2000/svg"> <path d="M12.0063 22.75C6.07 22.75 1.25 17.93 1.25 12C1.25 6.07 6.07 1.25 12 1.25C17.93 1.25 22.75 6.07 22.75 12C22.75 17.93 17.93 22.75 12 22.75ZM12 2.75C6.9 2.75 2.75 6.9 2.75 12C2.75 17.1 6.9 21.25 12 21.25C17.1 21.25 21.25 17.1 21.25 12C21.25 6.9 17.1 2.75 12 2.75Z" fill="white"/> <path d="M13.2599 16.2802C13.0699 16.2802 12.8799 16.2102 12.7299 16.0602L9.19992 12.5302C8.90992 12.2402 8.90992 11.7602 9.19992 11.4702L12.7299 7.94016C13.0199 7.65016 13.4999 7.65016 13.7899 7.94016C14.0799 8.23016 14.0799 8.71016 13.7899 9.00016L10.7899 12.0002L13.7899 15.0002C14.0799 15.2902 14.0799 15.7702 13.7899 16.0602C13.6499 16.2102 13.4599 16.2802 13.2599 16.2802Z" fill="white"/> <g opacity="0" fill="none" stroke="none" aria-hidden="true"><path d="M0.0053 0.0053L0 0.0096L0.009 0.0095L0.0094 0.0036L0.0012 0.0085L0.0015 0.0023L0.0095 0.0035L0.0002 0.0053L0.0048 0.0022L0.0018 0.0026L0.0009 0.0078L0.003 0.0023"/></g></svg>