<svg width="24" height="24" viewBox="0 0 24 24" fill="none" xmlns="http://www.w3.org/2000/svg"> <path d="M15.0062 20.6695C14.81 20.6695 14.62 20.5995 14.47 20.4495L7.95003 13.9295C6.89003 12.8695 6.89003 11.1295 7.95003 10.0695L14.47 3.54953C14.76 3.25953 15.24 3.25953 15.53 3.54953C15.82 3.83953 15.82 4.31953 15.53 4.60953L9.01003 11.1295C8.53003 11.6095 8.53003 12.3895 9.01003 12.8695L15.53 19.3895C15.82 19.6795 15.82 20.1595 15.53 20.4495C15.38 20.5895 15.19 20.6695 15 20.6695Z" fill="white"/> <g opacity="0" fill="none" stroke="none" aria-hidden="true"><path d="M0.001 0.0087L0.0069 0.0094L0.0091 0.0069L0.0047 0.0004L0.0071 0.0042L0.0096 0.0014L0.0025 0.003L0.003 0.0056L0.0073 0.0007L0.0092 0.0078L0.0042 0.0055L0.0037 0.0076"/></g></svg>