<svg width="24" height="24" viewBox="0 0 24 24" fill="none" xmlns="http://www.w3.org/2000/svg"> <path d="M12.0023 21.2501C11.81 21.2501 11.62 21.1801 11.47 21.0301L5.4 14.9601C5.11 14.6701 5.11 14.1901 5.4 13.9001C5.69 13.6101 6.17 13.6101 6.46 13.9001L12 19.4401L17.54 13.9001C17.83 13.6101 18.31 13.6101 18.6 13.9001C18.89 14.1901 18.89 14.6701 18.6 14.9601L12.53 21.0301C12.38 21.1801 12.19 21.2501 12 21.2501Z" fill="white"/> <path d="M12 21.08C11.59 21.08 11.25 20.74 11.25 20.33V3.5C11.25 3.09 11.59 2.75 12 2.75C12.41 2.75 12.75 3.09 12.75 3.5V20.33C12.75 20.74 12.41 21.08 12 21.08Z" fill="white"/> <g opacity="0" fill="none" stroke="none" aria-hidden="true"><path d="M0.0052 0.0096L0.0055 0.0062L0.0086 0.0002L0.0091 0.0098L0.0019 0.0042L0.0038 0.0067L0.0005 0.0075L0.0022 0.0071L0.002 0.0004L0.0095 0.0082L0.0071 0.0061L0.0026 0.0031"/></g></svg>