<svg width="24" height="24" viewBox="0 0 24 24" fill="none" xmlns="http://www.w3.org/2000/svg"> <path d="M18.0778 10.3204C17.8801 10.3204 17.6901 10.2504 17.5401 10.1004L12.0001 4.56043L6.46012 10.1004C6.17012 10.3904 5.69012 10.3904 5.40012 10.1004C5.11012 9.81043 5.11012 9.33043 5.40012 9.04043L11.4701 2.97043C11.7601 2.68043 12.2401 2.68043 12.5301 2.97043L18.6001 9.04043C18.8901 9.33043 18.8901 9.81043 18.6001 10.1004C18.4601 10.2504 18.2601 10.3204 18.0701 10.3204Z" fill="white"/> <path d="M12 21.2499C11.59 21.2499 11.25 20.9099 11.25 20.4999V3.66992C11.25 3.25992 11.59 2.91992 12 2.91992C12.41 2.91992 12.75 3.25992 12.75 3.66992V20.4999C12.75 20.9099 12.41 21.2499 12 21.2499Z" fill="white"/> <g opacity="0" fill="none" stroke="none" aria-hidden="true"><path d="M0.0034 0.0057L0.0072 0.0039L0.0007 0.0031L0.0026 0.0004L0.0073 0.0068L0.0042 0.0048L0.0048 0.0008L0.0001 0.0042L0.0027 0.0074L0.0095 0.0011L0.0038 0.0013L0.0069 0.0048"/></g></svg>