<svg width="24" height="24" viewBox="0 0 24 24" fill="none" xmlns="http://www.w3.org/2000/svg"> <path d="M19.9230 15.8001C19.73 15.8001 19.54 15.7301 19.39 15.5801L12.87 9.06008C12.39 8.58008 11.61 8.58008 11.13 9.06008L4.61002 15.5801C4.32002 15.8701 3.84002 15.8701 3.55002 15.5801C3.26002 15.2901 3.26002 14.8101 3.55002 14.5201L10.07 8.00008C11.13 6.94008 12.86 6.94008 13.93 8.00008L20.45 14.5201C20.74 14.8101 20.74 15.2901 20.45 15.5801C20.3 15.7201 20.11 15.8001 19.92 15.8001Z" fill="white"/> <g opacity="0" fill="none" stroke="none" aria-hidden="true"><path d="M0.008 0.0046L0.0005 0.0044L0.0086 0.0072L0.0074 0.0021L0.0075 0.0005L0.0033 0.0024L0.0043 0L0.0092 0.0067L0.0037 0.0064L0.0085 0.0025L0.0064 0.0076L0.0043 0.008"/></g></svg>