<svg width="24" height="24" viewBox="0 0 24 24" fill="none" xmlns="http://www.w3.org/2000/svg"> <path d="M12.0076 16.7996C11.3 16.7996 10.6 16.5296 10.07 15.9996L3.55002 9.47965C3.26002 9.18965 3.26002 8.70965 3.55002 8.41965C3.84002 8.12965 4.32002 8.12965 4.61002 8.41965L11.13 14.9396C11.61 15.4196 12.39 15.4196 12.87 14.9396L19.39 8.41965C19.68 8.12965 20.16 8.12965 20.45 8.41965C20.74 8.70965 20.74 9.18965 20.45 9.47965L13.93 15.9996C13.4 16.5296 12.7 16.7996 12 16.7996Z" fill="white"/> <g opacity="0" fill="none" stroke="none" aria-hidden="true"><path d="M0.0065 0.0033L0.0081 0.0022L0.0027 0.0086L0.0059 0.0057L0.0093 0.0049L0.008 0.0094L0.0008 0.0033L0.0009 0.0073L0.0043 0.0003L0.0055 0.0063L0.0042 0.0073L0.0007 0.0052"/></g></svg>