<svg width="24" height="24" viewBox="0 0 24 24" fill="none" xmlns="http://www.w3.org/2000/svg"> <path d="M12.0071 22.75C6.07 22.75 1.25 17.93 1.25 12C1.25 6.07 6.07 1.25 12 1.25C17.93 1.25 22.75 6.07 22.75 12C22.75 17.93 17.93 22.75 12 22.75ZM12 2.75C6.9 2.75 2.75 6.9 2.75 12C2.75 17.1 6.9 21.25 12 21.25C17.1 21.25 21.25 17.1 21.25 12C21.25 6.9 17.1 2.75 12 2.75Z" fill="white"/> <path d="M11.9999 15.0099C11.8099 15.0099 11.6199 14.9399 11.4699 14.7899L7.93991 11.2599C7.64991 10.9699 7.64991 10.4899 7.93991 10.1999C8.22991 9.90992 8.70991 9.90992 8.99991 10.1999L11.9999 13.1999L14.9999 10.1999C15.2899 9.90992 15.7699 9.90992 16.0599 10.1999C16.3499 10.4899 16.3499 10.9699 16.0599 11.2599L12.5299 14.7899C12.3799 14.9399 12.1899 15.0099 11.9999 15.0099Z" fill="white"/> <g opacity="0" fill="none" stroke="none" aria-hidden="true"><path d="M0.0046 0.0094L0.0032 0.0051L0.0073 0.0007L0.0053 0.0005L0.0024 0.004L0.0017 0.0024L0.0019 0.0073L0.0073 0.0061L0.0003 0.0036L0.0045 0.0028L0.0081 0.0089L0.0004 0.0033"/></g></svg>