<svg width="24" height="24" viewBox="0 0 24 24" fill="none" xmlns="http://www.w3.org/2000/svg"> <path d="M12.0071 22.75C6.07 22.75 1.25 17.93 1.25 12C1.25 6.07 6.07 1.25 12 1.25C17.93 1.25 22.75 6.07 22.75 12C22.75 17.93 17.93 22.75 12 22.75ZM12 2.75C6.9 2.75 2.75 6.9 2.75 12C2.75 17.1 6.9 21.25 12 21.25C17.1 21.25 21.25 17.1 21.25 12C21.25 6.9 17.1 2.75 12 2.75Z" fill="white"/> <path d="M12 16.25C11.59 16.25 11.25 15.91 11.25 15.5V9.5C11.25 9.09 11.59 8.75 12 8.75C12.41 8.75 12.75 9.09 12.75 9.5V15.5C12.75 15.91 12.41 16.25 12 16.25Z" fill="white"/> <path d="M14.9999 12.2504C14.8099 12.2504 14.6199 12.1804 14.4699 12.0304L11.9999 9.56043L9.52994 12.0304C9.23994 12.3204 8.75994 12.3204 8.46994 12.0304C8.17994 11.7404 8.17994 11.2604 8.46994 10.9704L11.4699 7.97043C11.7599 7.68043 12.2399 7.68043 12.5299 7.97043L15.5299 10.9704C15.8199 11.2604 15.8199 11.7404 15.5299 12.0304C15.3799 12.1804 15.1899 12.2504 14.9999 12.2504Z" fill="white"/> <g opacity="0" fill="none" stroke="none" aria-hidden="true"><path d="M0.0007 0.0014L0.0027 0.0081L0.0044 0.0098L0.0005 0.003L0.0065 0.0093L0.0062 0.0094L0.001 0.0024L0.0065 0.0095L0.0093 0.0038L0.0096 0.0026L0.0039 0.0087L0.0043 0.0036"/></g></svg>