<svg width="24" height="24" viewBox="0 0 24 24" fill="none" xmlns="http://www.w3.org/2000/svg"> <path d="M13.8064 10.9504C13.61 10.9504 13.42 10.8804 13.27 10.7304C12.98 10.4404 12.98 9.96043 13.27 9.67043L21.47 1.47043C21.76 1.18043 22.24 1.18043 22.53 1.47043C22.82 1.76043 22.82 2.24043 22.53 2.53043L14.33 10.7304C14.19 10.8704 14 10.9504 13.8 10.9504Z" fill="white"/> <path d="M17.83 11.7499H13C12.59 11.7499 12.25 11.4099 12.25 10.9999V6.16992C12.25 5.75992 12.59 5.41992 13 5.41992C13.41 5.41992 13.75 5.75992 13.75 6.16992V10.2499H17.83C18.24 10.2499 18.58 10.5899 18.58 10.9999C18.58 11.4099 18.24 11.7499 17.83 11.7499Z" fill="white"/> <path d="M15 22.75H9C3.57 22.75 1.25 20.43 1.25 15V9C1.25 3.57 3.57 1.25 9 1.25H11C11.41 1.25 11.75 1.59 11.75 2C11.75 2.41 11.41 2.75 11 2.75H9C4.39 2.75 2.75 4.39 2.75 9V15C2.75 19.61 4.39 21.25 9 21.25H15C19.61 21.25 21.25 19.61 21.25 15V13C21.25 12.59 21.59 12.25 22 12.25C22.41 12.25 22.75 12.59 22.75 13V15C22.75 20.43 20.43 22.75 15 22.75Z" fill="white"/> <g opacity="0" fill="none" stroke="none" aria-hidden="true"><path d="M0.0057 0.0078L0.0089 0.0073L0.0088 0.0019L0.0073 0.0059L0.0031 0.0069L0.0053 0.0021L0.0035 0.0084L0.0064 0.0078L0.0093 0.0018L0.0081 0.0069L0.0041 0.0075L0.0038 0.0094"/></g></svg>