<svg width="24" height="24" viewBox="0 0 24 24" fill="none" xmlns="http://www.w3.org/2000/svg"> <path d="M17.4300 15.3704C17.2499 15.3704 17.0599 15.3004 16.9099 15.1504C16.6199 14.8604 16.6199 14.3804 16.9099 14.0904L18.9399 12.0604L16.9099 10.0304C16.6199 9.74043 16.6199 9.26043 16.9099 8.97043C17.1999 8.68043 17.6799 8.68043 17.9699 8.97043L20.5299 11.5304C20.8199 11.8204 20.8199 12.3004 20.5299 12.5904L17.9699 15.1504C17.8199 15.3004 17.6299 15.3704 17.4399 15.3704Z" fill="white"/> <path d="M19.93 12.8096H9.76001C9.35001 12.8096 9.01001 12.4696 9.01001 12.0596C9.01001 11.6496 9.35001 11.3096 9.76001 11.3096H19.93C20.34 11.3096 20.68 11.6496 20.68 12.0596C20.68 12.4696 20.34 12.8096 19.93 12.8096Z" fill="white"/> <path d="M11.76 20.75C6.61001 20.75 3.01001 17.15 3.01001 12C3.01001 6.85 6.61001 3.25 11.76 3.25C12.17 3.25 12.51 3.59 12.51 4C12.51 4.41 12.17 4.75 11.76 4.75C7.49001 4.75 4.51001 7.73 4.51001 12C4.51001 16.27 7.49001 19.25 11.76 19.25C12.17 19.25 12.51 19.59 12.51 20C12.51 20.41 12.17 20.75 11.76 20.75Z" fill="white"/> <g opacity="0" fill="none" stroke="none" aria-hidden="true"><path d="M0 0.0022L0.0024 0.0031L0.0016 0.0078L0.0056 0.0001L0.006 0.0094L0.0007 0.01L0.0038 0.0099L0.0088 0.0036L0.0072 0.0065L0.0016 0.0033L0.0074 0.0097L0.0076 0.001"/></g></svg>