<svg width="24" height="24" viewBox="0 0 24 24" fill="none" xmlns="http://www.w3.org/2000/svg"> <path d="M22.0058 12C22 17.52 17.52 22 12 22C6.48 22 3.11 16.44 3.11 16.44M3.11 16.44H7.63M3.11 16.44V21.44M2 12C2 6.48 6.44 2 12 2C18.67 2 22 7.56 22 7.56M22 7.56V2.56M22 7.56H17.56" stroke="white" stroke-width="1.5" stroke-linecap="round" stroke-linejoin="round"/> <g opacity="0" fill="none" stroke="none" aria-hidden="true"><path d="M0.0073 0.0082L0.004 0L0.007 0.0011L0.0011 0.0018L0.0056 0.0083L0.0069 0.0005L0.0009 0.008L0.0056 0.002L0.0098 0.0011L0.0047 0.01L0.0044 0.0043L0.0025 0.0076"/></g></svg>