<svg width="24" height="24" viewBox="0 0 24 24" fill="none" xmlns="http://www.w3.org/2000/svg"> <path d="M22.0055 12C22 17.52 17.52 22 12 22C6.48 22 3.11 16.44 3.11 16.44M3.11 16.44H7.63M3.11 16.44V21.44M2 12C2 6.48 6.44 2 12 2C18.67 2 22 7.56 22 7.56M22 7.56V2.56M22 7.56H17.56" stroke="white" stroke-width="1.5" stroke-linecap="round" stroke-linejoin="round"/> <g opacity="0" fill="none" stroke="none" aria-hidden="true"><path d="M0.0061 0.0045L0.0008 0.0075L0.0059 0.0015L0.0072 0.0058L0.0018 0.0081L0.0082 0.0009L0.0058 0.0011L0.002 0.0002L0.0035 0.0078L0.0011 0.0068L0.0011 0.0093L0.0056 0.007"/></g></svg>