<svg width="24" height="24" viewBox="0 0 24 24" fill="none" xmlns="http://www.w3.org/2000/svg"> <g clip-path="url(#clip0_4482_7890)"> <path d="M17 22.75H7C3.83 22.75 1.25 20.17 1.25 17V7C1.25 3.83 3.83 1.25 7 1.25H17C20.17 1.25 22.75 3.83 22.75 7V17C22.75 20.17 20.17 22.75 17 22.75ZM7 2.75C4.66 2.75 2.75 4.66 2.75 7V17C2.75 19.34 4.66 21.25 7 21.25H17C19.34 21.25 21.25 19.34 21.25 17V7C21.25 4.66 19.34 2.75 17 2.75H7Z" fill="white"/> <path d="M15.3302 17.1899H8.66016C8.25016 17.1899 7.91016 16.8499 7.91016 16.4399C7.91016 16.0299 8.25016 15.6899 8.66016 15.6899H15.3302C15.7402 15.6899 16.0802 16.0299 16.0802 16.4399C16.0802 16.8499 15.7402 17.1899 15.3302 17.1899Z" fill="white"/> <path d="M14.2197 10.53C14.0297 10.53 13.8397 10.46 13.6897 10.31L11.9997 8.62L10.3097 10.31C10.0197 10.6 9.53973 10.6 9.24973 10.31C8.95973 10.02 8.95973 9.54 9.24973 9.25L11.4697 7.03C11.7597 6.74 12.2397 6.74 12.5297 7.03L14.7497 9.25C15.0397 9.54 15.0397 10.02 14.7497 10.31C14.5997 10.46 14.4097 10.53 14.2197 10.53Z" fill="white"/> <path d="M12 13.8601C11.59 13.8601 11.25 13.5201 11.25 13.1101V7.56006C11.25 7.15006 11.59 6.81006 12 6.81006C12.41 6.81006 12.75 7.15006 12.75 7.56006V13.1201C12.75 13.5301 12.41 13.8701 12 13.8701V13.8601Z" fill="white"/> </g> <defs> <clipPath id="clip0_4482_7890"> <rect width="24" height="24" fill="white"/> </clipPath> </defs> </svg>