<svg width="24" height="24" viewBox="0 0 24 24" fill="none" xmlns="http://www.w3.org/2000/svg"> <g clip-path="url(#clip0_4482_2560)"> <path d="M10.0001 12.0001C12.5701 12.0001 14.66 9.92005 14.66 7.34005C14.66 4.76005 12.5801 2.68005 10.0001 2.68005C7.43006 2.68005 5.34009 4.76005 5.34009 7.34005C5.34009 9.92005 7.43006 12.0001 10.0001 12.0001Z" stroke="white" stroke-width="1.5" stroke-linecap="round" stroke-linejoin="round"/> <path d="M18 21.31C18 17.71 14.41 14.79 10 14.79C5.59 14.79 2 17.71 2 21.31" stroke="white" stroke-width="1.5" stroke-linecap="round" stroke-linejoin="round"/> <path opacity="0.4" d="M21.3799 10.91V10.37C21.3799 9.27 20.4899 8.37 19.3799 8.37C18.2799 8.37 17.3799 9.26 17.3799 10.37V10.91" stroke="white" stroke-width="1.5" stroke-linecap="round" stroke-linejoin="round"/> <path opacity="0.4" d="M17.3999 13.09V13.63C17.3999 14.73 18.2899 15.63 19.3999 15.63C20.4999 15.63 21.3999 14.74 21.3999 13.63V13.09" stroke="white" stroke-width="1.5" stroke-linecap="round" stroke-linejoin="round"/> <path opacity="0.4" d="M19.3901 13.44V10.54" stroke="white" stroke-width="1.5" stroke-linecap="round" stroke-linejoin="round"/> </g> <defs> <clipPath id="clip0_4482_2560"> <rect width="24" height="24" fill="white"/> </clipPath> </defs> </svg>