<svg width="24" height="24" viewBox="0 0 24 24" fill="none" xmlns="http://www.w3.org/2000/svg"> <g clip-path="url(#clip0_4482_2551)"> <path d="M18 20H6C3.8 20 2 18.2 2 16V8C2 5.8 3.8 4 6 4H18C20.2 4 22 5.8 22 8V16C22 18.2 20.2 20 18 20Z" stroke="white" stroke-width="1.5" stroke-linecap="round" stroke-linejoin="round"/> <path opacity="0.4" d="M8.99991 11C10.0099 11 10.8299 10.18 10.8299 9.16997C10.8299 8.15997 10.0099 7.33997 8.99991 7.33997C7.98991 7.33997 7.16992 8.15997 7.16992 9.16997C7.16992 10.18 7.98991 11 8.99991 11Z" stroke="white" stroke-width="1.5" stroke-linecap="round" stroke-linejoin="round"/> <path opacity="0.4" d="M12.5 16.66C12.5 14.86 10.93 13.4 9 13.4C7.07 13.4 5.5 14.86 5.5 16.66" stroke="white" stroke-width="1.5" stroke-linecap="round" stroke-linejoin="round"/> <path opacity="0.4" d="M14.5 9H18.5" stroke="white" stroke-width="1.5" stroke-linecap="round" stroke-linejoin="round"/> <path opacity="0.4" d="M14.5 12.5H17.5" stroke="white" stroke-width="1.5" stroke-linecap="round" stroke-linejoin="round"/> </g> <defs> <clipPath id="clip0_4482_2551"> <rect width="24" height="24" fill="white"/> </clipPath> </defs> </svg>