<svg width="24" height="24" viewBox="0 0 24 24" fill="none" xmlns="http://www.w3.org/2000/svg"> <g clip-path="url(#clip0_4482_2556)"> <path opacity="0.4" d="M20.2199 10.45L21.8199 11.09C22.2399 11.26 22.2399 11.53 21.8199 11.7L20.2199 12.34L19.5799 13.94C19.4099 14.34 19.1399 14.34 18.9699 13.94L18.3299 12.34L16.7299 11.7C16.3299 11.53 16.3299 11.26 16.7299 11.09L18.3299 10.45L18.9699 8.84997C19.1399 8.41997 19.4099 8.41997 19.5799 8.84997L20.2199 10.45Z" stroke="white" stroke-width="1.5" stroke-linecap="round" stroke-linejoin="round"/> <path d="M10.0001 12.0001C12.5701 12.0001 14.6601 9.92005 14.6601 7.34005C14.6601 4.76005 12.5801 2.68005 10.0001 2.68005C7.42009 2.68005 5.34009 4.76005 5.34009 7.34005C5.34009 9.92005 7.43009 12.0001 10.0001 12.0001Z" stroke="white" stroke-width="1.5" stroke-linecap="round" stroke-linejoin="round"/> <path d="M18 21.31C18 17.71 14.41 14.79 10 14.79C5.59 14.79 2 17.71 2 21.31" stroke="white" stroke-width="1.5" stroke-linecap="round" stroke-linejoin="round"/> </g> <defs> <clipPath id="clip0_4482_2556"> <rect width="24" height="24" fill="white"/> </clipPath> </defs> </svg>