<svg width="24" height="24" viewBox="0 0 24 24" fill="none" xmlns="http://www.w3.org/2000/svg"> <g clip-path="url(#clip0_4482_2548)"> <path opacity="0.4" d="M14.7 10.99C15.8 10.99 16.69 10.1 16.69 9.00001C16.69 7.90001 15.8 7.01001 14.7 7.01001C13.6 7.01001 12.71 7.90001 12.71 9.00001C12.71 10.1 13.6 10.99 14.7 10.99Z" stroke="white" stroke-width="1.5" stroke-linecap="round" stroke-linejoin="round"/> <path opacity="0.4" d="M18.7 17C18.7 15.2 16.91 13.74 14.7 13.74C12.49 13.74 10.7 15.2 10.7 17" stroke="white" stroke-width="1.5" stroke-linecap="round" stroke-linejoin="round"/> <path d="M22.0001 6V18C22.0001 20.2 20.2001 22 18.0001 22H8.86011C6.66011 22 4.86011 20.2 4.86011 18V15.81H5.71011C6.81011 15.81 7.71011 14.91 7.71011 13.81V9.24C7.71011 8.14 6.81011 7.24 5.71011 7.24H4.86011V6C4.86011 3.8 6.66011 2 8.86011 2H18.0001C20.2001 2 22.0001 3.8 22.0001 6Z" stroke="white" stroke-width="1.5" stroke-linecap="round" stroke-linejoin="round"/> <path d="M7.71001 9.23999V13.81C7.71001 14.91 6.81001 15.81 5.71001 15.81H4C2.9 15.81 2 14.91 2 13.81V9.23999C2 8.13999 2.9 7.23999 4 7.23999H5.71001C6.81001 7.23999 7.71001 8.13999 7.71001 9.23999Z" stroke="white" stroke-width="1.5" stroke-linecap="round" stroke-linejoin="round"/> </g> <defs> <clipPath id="clip0_4482_2548"> <rect width="24" height="24" fill="white"/> </clipPath> </defs> </svg>