<svg width="24" height="24" viewBox="0 0 24 24" fill="none" xmlns="http://www.w3.org/2000/svg"> <g clip-path="url(#clip0_4482_2568)"> <path d="M9.49988 12C11.9099 12 13.8699 10.05 13.8699 7.63C13.8699 5.22 11.9199 3.26001 9.49988 3.26001C7.07988 3.26001 5.12988 5.21 5.12988 7.63C5.12988 10.05 7.08988 12 9.49988 12Z" stroke="white" stroke-width="1.5" stroke-linecap="round" stroke-linejoin="round"/> <path d="M17 20.73C17 17.35 13.64 14.62 9.5 14.62C5.36 14.62 2 17.35 2 20.73" stroke="white" stroke-width="1.5" stroke-linecap="round" stroke-linejoin="round"/> <path opacity="0.4" d="M22.2001 12.04C22.1901 12.82 21.8902 13.6 21.2902 14.2C20.0802 15.41 18.1101 15.41 16.8901 14.2L17.6301 13.95" stroke="white" stroke-width="1.5" stroke-linecap="round" stroke-linejoin="round"/> <path opacity="0.4" d="M20.5699 10.05L21.31 9.79996C20.1 8.58996 18.13 8.58996 16.91 9.79996C16.26 10.45 15.96 11.31 16.01 12.15" stroke="white" stroke-width="1.5" stroke-linecap="round" stroke-linejoin="round"/> </g> <defs> <clipPath id="clip0_4482_2568"> <rect width="24" height="24" fill="white"/> </clipPath> </defs> </svg>