<svg width="24" height="24" viewBox="0 0 24 24" fill="none" xmlns="http://www.w3.org/2000/svg"> <g clip-path="url(#clip0_4482_2557)"> <path d="M10.0001 12.0001C12.5701 12.0001 14.66 9.92005 14.66 7.34005C14.66 4.76005 12.5801 2.68005 10.0001 2.68005C7.43006 2.68005 5.34009 4.76005 5.34009 7.34005C5.34009 9.92005 7.43006 12.0001 10.0001 12.0001Z" stroke="white" stroke-width="1.5" stroke-linecap="round" stroke-linejoin="round"/> <path d="M18 21.31C18 17.71 14.41 14.79 10 14.79C5.59 14.79 2 17.71 2 21.31" stroke="white" stroke-width="1.5" stroke-linecap="round" stroke-linejoin="round"/> <path opacity="0.4" d="M21.16 11.08L19.6301 12.81C19.5001 12.94 19.3301 13.05 19.1501 13.1L17.8101 13.4C17.5201 13.46 17.2901 13.28 17.3101 12.98L17.3901 11.61C17.4001 11.42 17.47 11.23 17.61 11.09L19.1401 9.35998C19.6101 8.79998 20.4601 8.72998 21.0201 9.20998C21.5701 9.67998 21.64 10.52 21.16 11.08Z" stroke="white" stroke-width="1.5" stroke-miterlimit="10"/> </g> <defs> <clipPath id="clip0_4482_2557"> <rect width="24" height="24" fill="white"/> </clipPath> </defs> </svg>