<svg width="24" height="24" viewBox="0 0 24 24" fill="none" xmlns="http://www.w3.org/2000/svg"> <g clip-path="url(#clip0_4482_2558)"> <path d="M10.0001 12.0001C12.5701 12.0001 14.66 9.92005 14.66 7.34005C14.66 4.76005 12.5801 2.68005 10.0001 2.68005C7.43006 2.68005 5.34009 4.76005 5.34009 7.34005C5.34009 9.92005 7.43006 12.0001 10.0001 12.0001Z" stroke="white" stroke-width="1.5" stroke-linecap="round" stroke-linejoin="round"/> <path d="M18 21.31C18 17.71 14.41 14.79 10 14.79C5.59 14.79 2 17.71 2 21.31" stroke="white" stroke-width="1.5" stroke-linecap="round" stroke-linejoin="round"/> <g opacity="0.4"> <path d="M21.78 12C21.78 13.38 20.66 14.5 19.28 14.5C17.9 14.5 16.78 13.38 16.78 12C16.78 10.62 17.9 9.5 19.28 9.5C20.66 9.5 21.78 10.62 21.78 12Z" stroke="white" stroke-width="1.5" stroke-linecap="round" stroke-linejoin="round"/> <path d="M17.51 13.77L21.05 10.23" stroke="white" stroke-width="1.5" stroke-linecap="round" stroke-linejoin="round"/> </g> </g> <defs> <clipPath id="clip0_4482_2558"> <rect width="24" height="24" fill="white"/> </clipPath> </defs> </svg>