<svg width="24" height="24" viewBox="0 0 24 24" fill="none" xmlns="http://www.w3.org/2000/svg"> <g clip-path="url(#clip0_4482_2546)"> <path opacity="0.4" d="M12 11.1699C13.38 11.1699 14.49 10.0499 14.49 8.67994C14.49 7.29994 13.37 6.18994 12 6.18994C10.62 6.18994 9.51001 7.30994 9.51001 8.67994C9.51001 10.0499 10.62 11.1699 12 11.1699Z" stroke="white" stroke-width="1.5" stroke-linecap="round" stroke-linejoin="round"/> <path opacity="0.4" d="M17 17.82C17 15.57 14.76 13.75 12 13.75C9.24 13.75 7 15.57 7 17.82" stroke="white" stroke-width="1.5" stroke-linecap="round" stroke-linejoin="round"/> <path d="M17 22H7C4.25 22 2 19.75 2 17V7C2 4.25 4.25 2 7 2H17C19.75 2 22 4.25 22 7V17C22 19.75 19.75 22 17 22Z" stroke="white" stroke-width="1.5" stroke-linecap="round" stroke-linejoin="round"/> </g> <defs> <clipPath id="clip0_4482_2546"> <rect width="24" height="24" fill="white"/> </clipPath> </defs> </svg>