<svg width="24" height="24" viewBox="0 0 24 24" fill="none" xmlns="http://www.w3.org/2000/svg"> <g clip-path="url(#clip0_4482_2550)"> <path opacity="0.4" d="M12.0001 11.29C13.1801 11.29 14.1401 10.33 14.1401 9.15001C14.1401 7.97001 13.1801 7.01001 12.0001 7.01001C10.8201 7.01001 9.86011 7.97001 9.86011 9.15001C9.86011 10.33 10.8201 11.29 12.0001 11.29Z" stroke="white" stroke-width="1.5" stroke-linecap="round" stroke-linejoin="round"/> <path opacity="0.4" d="M16.2899 17C16.2899 15.07 14.36 13.5 12 13.5C9.63995 13.5 7.70996 15.07 7.70996 17" stroke="white" stroke-width="1.5" stroke-linecap="round" stroke-linejoin="round"/> <path d="M12 22C6.5 22 2 17.5 2 12C2 6.5 6.5 2 12 2C17.5 2 22 6.5 22 12C22 17.5 17.5 22 12 22Z" stroke="white" stroke-width="1.5" stroke-linecap="round" stroke-linejoin="round"/> </g> <defs> <clipPath id="clip0_4482_2550"> <rect width="24" height="24" fill="white"/> </clipPath> </defs> </svg>