<svg width="24" height="24" viewBox="0 0 24 24" fill="none" xmlns="http://www.w3.org/2000/svg"> <g clip-path="url(#clip0_4482_2547)"> <path opacity="0.4" d="M12 13.43C13.78 13.43 15.21 11.99 15.21 10.22C15.21 8.45 13.78 7 12 7C10.22 7 8.79004 8.44 8.79004 10.21C8.79004 11.98 10.22 13.43 12 13.43Z" stroke="white" stroke-width="1.5" stroke-linecap="round" stroke-linejoin="round"/> <path opacity="0.4" d="M18.4201 21.48C18.1401 18.41 15.3701 16 12.0001 16C8.67009 16 5.92009 18.36 5.59009 21.39" stroke="white" stroke-width="1.5" stroke-linecap="round" stroke-linejoin="round"/> <path d="M17 22H7C4.25 22 2 19.75 2 17V7C2 4.25 4.25 2 7 2H17C19.75 2 22 4.25 22 7V17C22 19.75 19.75 22 17 22Z" stroke="white" stroke-width="1.5" stroke-linecap="round" stroke-linejoin="round"/> </g> <defs> <clipPath id="clip0_4482_2547"> <rect width="24" height="24" fill="white"/> </clipPath> </defs> </svg>