<svg width="24" height="24" viewBox="0 0 24 24" fill="none" xmlns="http://www.w3.org/2000/svg"> <g clip-path="url(#clip0_4482_2561)"> <path d="M10.0001 12.0001C12.5701 12.0001 14.66 9.92005 14.66 7.34005C14.66 4.76005 12.5801 2.68005 10.0001 2.68005C7.43006 2.68005 5.34009 4.76005 5.34009 7.34005C5.34009 9.92005 7.43006 12.0001 10.0001 12.0001Z" stroke="white" stroke-width="1.5" stroke-linecap="round" stroke-linejoin="round"/> <path d="M18 21.31C18 17.71 14.41 14.79 10 14.79C5.59 14.79 2 17.71 2 21.31" stroke="white" stroke-width="1.5" stroke-linecap="round" stroke-linejoin="round"/> <g opacity="0.4"> <path d="M19.09 13.7498C20.25 13.7498 21.18 12.8098 21.18 11.6598C21.18 10.4998 20.24 9.56982 19.09 9.56982C17.94 9.56982 17 10.5098 17 11.6598C17 12.8098 17.93 13.7498 19.09 13.7498Z" stroke="white" stroke-width="1.5" stroke-linecap="round" stroke-linejoin="round"/> <path d="M20.6599 13.23L21.8799 14.44" stroke="white" stroke-width="1.5" stroke-linecap="round" stroke-linejoin="round"/> </g> </g> <defs> <clipPath id="clip0_4482_2561"> <rect width="24" height="24" fill="white"/> </clipPath> </defs> </svg>