<svg width="24" height="24" viewBox="0 0 24 24" fill="none" xmlns="http://www.w3.org/2000/svg"> <g clip-path="url(#clip0_4482_2545)"> <path d="M12.0099 9.94996C13.733 9.94996 15.1299 8.55309 15.1299 6.82996C15.1299 5.10684 13.733 3.70996 12.0099 3.70996C10.2868 3.70996 8.88989 5.10684 8.88989 6.82996C8.88989 8.55309 10.2868 9.94996 12.0099 9.94996Z" stroke="white" stroke-width="1.5"/> <path d="M5.1399 11.77C6.10088 11.77 6.8799 10.991 6.8799 10.03C6.8799 9.06906 6.10088 8.29004 5.1399 8.29004C4.17893 8.29004 3.3999 9.06906 3.3999 10.03C3.3999 10.991 4.17893 11.77 5.1399 11.77Z" stroke="white" stroke-width="1.5"/> <path d="M18.8899 11.77C19.8509 11.77 20.6299 10.991 20.6299 10.03C20.6299 9.06906 19.8509 8.29004 18.8899 8.29004C17.9289 8.29004 17.1499 9.06906 17.1499 10.03C17.1499 10.991 17.9289 11.77 18.8899 11.77Z" stroke="white" stroke-width="1.5"/> <g opacity="0.4"> <path d="M5.08008 20.29C5.11008 19.84 5.16008 19.4 5.25008 18.98C5.98008 15.26 8.73008 12.5 12.0101 12.5C15.2101 12.5 17.9101 15.12 18.7201 18.7C18.8301 19.21 18.9101 19.74 18.9401 20.29" stroke="white" stroke-width="1.5" stroke-linecap="round"/> <path d="M2.33008 16.54C2.44008 15 3.73008 13.79 5.30008 13.79C6.08008 13.79 6.80008 14.09 7.33008 14.59" stroke="white" stroke-width="1.5" stroke-linecap="round"/> <path d="M22 16.54C21.89 15 20.6 13.79 19.03 13.79C18.25 13.79 17.53 14.09 17 14.59" stroke="white" stroke-width="1.5" stroke-linecap="round"/> </g> </g> <defs> <clipPath id="clip0_4482_2545"> <rect width="24" height="24" fill="white"/> </clipPath> </defs> </svg>