<svg width="24" height="24" viewBox="0 0 24 24" fill="none" xmlns="http://www.w3.org/2000/svg"> <g clip-path="url(#clip0_4482_183)"> <path d="M20.1504 13V6C20.1504 3.8 18.3504 2 16.1504 2H7.15039C4.95039 2 3.15039 3.8 3.15039 6V18C3.15039 20.2 4.95039 22 7.15039 22H11.1504" stroke="white" stroke-width="1.5" stroke-linecap="round" stroke-linejoin="round"/> <path d="M14.1504 5V6C14.1504 7.1 15.0504 8 16.1504 8H17.1504" stroke="white" stroke-width="1.5" stroke-linecap="round" stroke-linejoin="round"/> <path d="M17.4603 21.67L19.7203 21.99C19.8903 22.01 20.0203 21.89 20.0003 21.71L19.6803 19.45C19.6403 19.19 19.5303 18.95 19.3403 18.77L14.0903 13.52C13.3803 12.81 12.2403 12.81 11.5403 13.52C10.8303 14.23 10.8303 15.37 11.5403 16.07L16.7903 21.32C16.9603 21.52 17.2003 21.63 17.4603 21.67Z" stroke="white" stroke-width="1.5" stroke-miterlimit="10"/> </g> <defs> <clipPath id="clip0_4482_183"> <rect width="24" height="24" fill="white"/> </clipPath> </defs> </svg>