<svg width="24" height="24" viewBox="0 0 24 24" fill="none" xmlns="http://www.w3.org/2000/svg"> <g clip-path="url(#clip0_4482_209)"> <path d="M16.78 18.83C16.78 19.45 16.28 19.96 15.66 19.96C15.04 19.96 14.54 19.46 14.54 18.83C14.54 18.21 15.04 17.71 15.66 17.71C16.28 17.71 16.78 18.21 16.78 18.83Z" stroke="white" stroke-width="1.5" stroke-linecap="round" stroke-linejoin="round"/> <path d="M15.6604 22.4999C17.2304 22.4999 18.6903 21.5799 19.7003 19.9799C20.1003 19.3499 20.1003 18.2999 19.7003 17.6799C18.6803 16.0799 17.2204 15.1599 15.6604 15.1599C14.0904 15.1599 12.6303 16.0799 11.6203 17.6799C11.2203 18.3099 11.2203 19.3599 11.6203 19.9799C12.6303 21.5799 14.0904 22.4999 15.6604 22.4999Z" stroke="white" stroke-width="1.5" stroke-linecap="round" stroke-linejoin="round"/> <path d="M20.1504 14V6C20.1504 3.8 18.3504 2 16.1504 2H7.15039C4.95039 2 3.15039 3.8 3.15039 6V18C3.15039 20.2 4.95039 22 7.15039 22H9.15039" stroke="white" stroke-width="1.5" stroke-linecap="round" stroke-linejoin="round"/> <path d="M14.1504 5V6C14.1504 7.1 15.0504 8 16.1504 8H17.1504" stroke="white" stroke-width="1.5" stroke-linecap="round" stroke-linejoin="round"/> </g> <defs> <clipPath id="clip0_4482_209"> <rect width="24" height="24" fill="white"/> </clipPath> </defs> </svg>