<svg width="24" height="24" viewBox="0 0 24 24" fill="none" xmlns="http://www.w3.org/2000/svg"> <g clip-path="url(#clip0_4482_179)"> <path d="M19.65 6V14.04C19.56 14 19.48 13.95 19.42 13.9L18.63 13.22C18.28 12.93 17.72 12.93 17.37 13.22L16.58 13.9C16.43 14.03 16.15 14.13 15.95 14.13H15.09C14.56 14.13 14.12 14.57 14.12 15.1V15.96C14.12 16.15 14.02 16.43 13.89 16.58L13.22 17.38C12.93 17.72 12.93 18.28 13.22 18.63L13.89 19.42C14.02 19.57 14.12 19.85 14.12 20.04V20.9C14.12 20.93 14.12 20.97 14.13 21H7.5C5.3 21 3.5 19.2 3.5 17V6C3.5 3.8 5.3 2 7.5 2H15.65C17.85 2 19.65 3.8 19.65 6Z" stroke="white" stroke-width="1.5" stroke-linecap="round" stroke-linejoin="round"/> <path d="M13.9502 4.8501V5.8001C13.9502 6.8501 14.8002 7.7001 15.8502 7.7001H16.8002" stroke="white" stroke-width="1.5" stroke-linecap="round" stroke-linejoin="round"/> <path d="M16.1904 18L17.3904 19.21L19.8004 16.79" stroke="white" stroke-width="1.5" stroke-linecap="round" stroke-linejoin="round"/> <path d="M22.7804 18.6299L22.1004 19.4199C21.9704 19.5699 21.8604 19.8499 21.8604 20.0499V20.8999C21.8604 21.4299 21.4304 21.8599 20.9004 21.8599H20.0504C19.8504 21.8599 19.5704 21.9699 19.4204 22.0999L18.6304 22.7799C18.2904 23.0699 17.7204 23.0699 17.3704 22.7799L16.5804 22.0999C16.4304 21.9699 16.1504 21.8599 15.9504 21.8599H15.0904C14.5904 21.8599 14.1804 21.4799 14.1304 20.9999C14.1204 20.9699 14.1204 20.9299 14.1204 20.8999V20.0399C14.1204 19.8499 14.0204 19.5699 13.8904 19.4199L13.2204 18.6299C12.9304 18.2799 12.9304 17.7199 13.2204 17.3799L13.8904 16.5799C14.0204 16.4299 14.1204 16.1499 14.1204 15.9599V15.0999C14.1204 14.5699 14.5604 14.1299 15.0904 14.1299H15.9504C16.1504 14.1299 16.4304 14.0299 16.5804 13.8999L17.3704 13.2199C17.7204 12.9299 18.2804 12.9299 18.6304 13.2199L19.4204 13.8999C19.4804 13.9499 19.5604 13.9999 19.6504 14.0399C19.7804 14.0999 19.9304 14.1399 20.0504 14.1399H20.9004C21.4304 14.1399 21.8604 14.5699 21.8604 15.0999V15.9499C21.8604 16.1499 21.9704 16.4299 22.1004 16.5799L22.7804 17.3699C23.0704 17.7199 23.0704 18.2799 22.7804 18.6299Z" stroke="white" stroke-width="1.5" stroke-linecap="round" stroke-linejoin="round"/> </g> <defs> <clipPath id="clip0_4482_179"> <rect width="24" height="24" fill="white"/> </clipPath> </defs> </svg>