<svg width="24" height="24" viewBox="0 0 24 24" fill="none" xmlns="http://www.w3.org/2000/svg"> <g clip-path="url(#clip0_4482_140)"> <path d="M9.99982 11.9999C12.5698 11.9999 14.6598 9.91993 14.6598 7.33993C14.6598 4.75993 12.5798 2.67993 9.99982 2.67993C7.42982 2.67993 5.33984 4.75993 5.33984 7.33993C5.33984 9.91993 7.42982 11.9999 9.99982 11.9999Z" stroke="white" stroke-width="1.5" stroke-linecap="round" stroke-linejoin="round"/> <path d="M18 21.31C18 17.71 14.41 14.79 10 14.79C5.59 14.79 2 17.71 2 21.31" stroke="white" stroke-width="1.5" stroke-linecap="round" stroke-linejoin="round"/> <path d="M21.3799 10.9101V10.3701C21.3799 9.27012 20.4899 8.37012 19.3799 8.37012C18.2799 8.37012 17.3799 9.26012 17.3799 10.3701V10.9101" stroke="white" stroke-width="1.5" stroke-linecap="round" stroke-linejoin="round"/> <path d="M17.4004 13.0901V13.6301C17.4004 14.7301 18.2904 15.6301 19.4004 15.6301C20.5004 15.6301 21.4004 14.7401 21.4004 13.6301V13.0901" stroke="white" stroke-width="1.5" stroke-linecap="round" stroke-linejoin="round"/> <path d="M19.3896 13.44V10.54" stroke="white" stroke-width="1.5" stroke-linecap="round" stroke-linejoin="round"/> </g> <defs> <clipPath id="clip0_4482_140"> <rect width="24" height="24" fill="white"/> </clipPath> </defs> </svg>