<svg width="24" height="24" viewBox="0 0 24 24" fill="none" xmlns="http://www.w3.org/2000/svg"> <g clip-path="url(#clip0_4482_136)"> <path d="M20.2197 10.4501L21.8197 11.0901C22.2397 11.2601 22.2397 11.5301 21.8197 11.7001L20.2197 12.3401L19.5797 13.9401C19.4097 14.3401 19.1397 14.3401 18.9697 13.9401L18.3297 12.3401L16.7297 11.7001C16.3297 11.5301 16.3297 11.2601 16.7297 11.0901L18.3297 10.4501L18.9697 8.85009C19.1397 8.42009 19.4097 8.42009 19.5797 8.85009L20.2197 10.4501Z" stroke="white" stroke-width="1.5" stroke-linecap="round" stroke-linejoin="round"/> <path d="M9.99985 11.9999C12.5698 11.9999 14.6599 9.91993 14.6599 7.33993C14.6599 4.75993 12.5798 2.67993 9.99985 2.67993C7.41985 2.67993 5.33984 4.75993 5.33984 7.33993C5.33984 9.91993 7.42985 11.9999 9.99985 11.9999Z" stroke="white" stroke-width="1.5" stroke-linecap="round" stroke-linejoin="round"/> <path d="M18 21.31C18 17.71 14.41 14.79 10 14.79C5.59 14.79 2 17.71 2 21.31" stroke="white" stroke-width="1.5" stroke-linecap="round" stroke-linejoin="round"/> </g> <defs> <clipPath id="clip0_4482_136"> <rect width="24" height="24" fill="white"/> </clipPath> </defs> </svg>