<svg width="24" height="24" viewBox="0 0 24 24" fill="none" xmlns="http://www.w3.org/2000/svg"> <g clip-path="url(#clip0_4482_148)"> <path d="M9.49988 12C11.9099 12 13.8699 10.05 13.8699 7.63001C13.8699 5.21001 11.9199 3.26001 9.49988 3.26001C7.07988 3.26001 5.12988 5.21001 5.12988 7.63001C5.12988 10.05 7.08988 12 9.49988 12Z" stroke="white" stroke-width="1.5" stroke-linecap="round" stroke-linejoin="round"/> <path d="M17 20.7301C17 17.3501 13.64 14.6201 9.5 14.6201C5.36 14.6201 2 17.3501 2 20.7301" stroke="white" stroke-width="1.5" stroke-linecap="round" stroke-linejoin="round"/> <path d="M22.1996 12.04C22.1896 12.82 21.8897 13.6 21.2897 14.2C20.0797 15.41 18.1096 15.41 16.8896 14.2L17.6296 13.95" stroke="white" stroke-width="1.5" stroke-linecap="round" stroke-linejoin="round"/> <path d="M20.5702 10.0501L21.3103 9.80008C20.1003 8.59008 18.1303 8.59008 16.9103 9.80008C16.2603 10.4501 15.9602 11.3101 16.0102 12.1501" stroke="white" stroke-width="1.5" stroke-linecap="round" stroke-linejoin="round"/> </g> <defs> <clipPath id="clip0_4482_148"> <rect width="24" height="24" fill="white"/> </clipPath> </defs> </svg>