<svg width="24" height="24" viewBox="0 0 24 24" fill="none" xmlns="http://www.w3.org/2000/svg"> <g clip-path="url(#clip0_4482_137)"> <path d="M9.99982 11.9999C12.5698 11.9999 14.6598 9.91993 14.6598 7.33993C14.6598 4.75993 12.5798 2.67993 9.99982 2.67993C7.42982 2.67993 5.33984 4.75993 5.33984 7.33993C5.33984 9.91993 7.42982 11.9999 9.99982 11.9999Z" stroke="white" stroke-width="1.5" stroke-linecap="round" stroke-linejoin="round"/> <path d="M18 21.31C18 17.71 14.41 14.79 10 14.79C5.59 14.79 2 17.71 2 21.31" stroke="white" stroke-width="1.5" stroke-linecap="round" stroke-linejoin="round"/> <path d="M21.1598 11.08L19.6298 12.81C19.4998 12.94 19.3298 13.05 19.1498 13.1L17.8098 13.4C17.5198 13.46 17.2898 13.28 17.3098 12.98L17.3898 11.61C17.3998 11.42 17.4698 11.23 17.6098 11.09L19.1398 9.35998C19.6098 8.79998 20.4598 8.72998 21.0198 9.20998C21.5698 9.67998 21.6398 10.52 21.1598 11.08Z" stroke="white" stroke-width="1.5" stroke-miterlimit="10"/> </g> <defs> <clipPath id="clip0_4482_137"> <rect width="24" height="24" fill="white"/> </clipPath> </defs> </svg>