<svg width="24" height="24" viewBox="0 0 24 24" fill="none" xmlns="http://www.w3.org/2000/svg"> <g clip-path="url(#clip0_4482_138)"> <path d="M9.99982 11.9999C12.5698 11.9999 14.6598 9.91993 14.6598 7.33993C14.6598 4.75993 12.5798 2.67993 9.99982 2.67993C7.42982 2.67993 5.33984 4.75993 5.33984 7.33993C5.33984 9.91993 7.42982 11.9999 9.99982 11.9999Z" stroke="white" stroke-width="1.5" stroke-linecap="round" stroke-linejoin="round"/> <path d="M18 21.31C18 17.71 14.41 14.79 10 14.79C5.59 14.79 2 17.71 2 21.31" stroke="white" stroke-width="1.5" stroke-linecap="round" stroke-linejoin="round"/> <path d="M21.7803 12C21.7803 13.38 20.6603 14.5 19.2803 14.5C17.9003 14.5 16.7803 13.38 16.7803 12C16.7803 10.62 17.9003 9.5 19.2803 9.5C20.6603 9.5 21.7803 10.62 21.7803 12Z" stroke="white" stroke-width="1.5" stroke-linecap="round" stroke-linejoin="round"/> <path d="M17.5098 13.77L21.0497 10.23" stroke="white" stroke-width="1.5" stroke-linecap="round" stroke-linejoin="round"/> </g> <defs> <clipPath id="clip0_4482_138"> <rect width="24" height="24" fill="white"/> </clipPath> </defs> </svg>