<svg width="24" height="24" viewBox="0 0 24 24" fill="none" xmlns="http://www.w3.org/2000/svg"> <g clip-path="url(#clip0_4482_126)"> <path d="M11.9998 11.1699C13.3798 11.1699 14.4898 10.0499 14.4898 8.67993C14.4898 7.30993 13.3798 6.17993 11.9998 6.17993C10.6198 6.17993 9.50977 7.29993 9.50977 8.66993C9.50977 10.0399 10.6198 11.1699 11.9998 11.1699Z" stroke="white" stroke-width="1.5" stroke-linecap="round" stroke-linejoin="round"/> <path d="M17 17.82C17 15.57 14.76 13.75 12 13.75C9.24 13.75 7 15.57 7 17.82" stroke="white" stroke-width="1.5" stroke-linecap="round" stroke-linejoin="round"/> <path d="M17 22H7C4.25 22 2 19.75 2 17V7C2 4.25 4.25 2 7 2H17C19.75 2 22 4.25 22 7V17C22 19.75 19.75 22 17 22Z" stroke="white" stroke-width="1.5" stroke-linecap="round" stroke-linejoin="round"/> </g> <defs> <clipPath id="clip0_4482_126"> <rect width="24" height="24" fill="white"/> </clipPath> </defs> </svg>