<svg width="24" height="24" viewBox="0 0 24 24" fill="none" xmlns="http://www.w3.org/2000/svg"> <g clip-path="url(#clip0_4482_130)"> <path d="M12.0004 11.29C13.1804 11.29 14.1404 10.33 14.1404 9.15C14.1404 7.97 13.1804 7 12.0004 7C10.8204 7 9.86035 7.96 9.86035 9.14C9.86035 10.32 10.8204 11.29 12.0004 11.29Z" stroke="white" stroke-width="1.5" stroke-linecap="round" stroke-linejoin="round"/> <path d="M16.29 17C16.29 15.06 14.36 13.5 12 13.5C9.64002 13.5 7.71002 15.06 7.71002 17" stroke="white" stroke-width="1.5" stroke-linecap="round" stroke-linejoin="round"/> <path d="M12 22C6.5 22 2 17.5 2 12C2 6.5 6.5 2 12 2C17.5 2 22 6.5 22 12C22 17.5 17.5 22 12 22Z" stroke="white" stroke-width="1.5" stroke-linecap="round" stroke-linejoin="round"/> </g> <defs> <clipPath id="clip0_4482_130"> <rect width="24" height="24" fill="white"/> </clipPath> </defs> </svg>