<svg width="24" height="24" viewBox="0 0 24 24" fill="none" xmlns="http://www.w3.org/2000/svg"> <g clip-path="url(#clip0_4482_141)"> <path d="M9.99982 11.9999C12.5698 11.9999 14.6598 9.91993 14.6598 7.33993C14.6598 4.75993 12.5798 2.67993 9.99982 2.67993C7.42982 2.67993 5.33984 4.75993 5.33984 7.33993C5.33984 9.91993 7.42982 11.9999 9.99982 11.9999Z" stroke="white" stroke-width="1.5" stroke-linecap="round" stroke-linejoin="round"/> <path d="M18 21.31C18 17.71 14.41 14.79 10 14.79C5.59 14.79 2 17.71 2 21.31" stroke="white" stroke-width="1.5" stroke-linecap="round" stroke-linejoin="round"/> <path d="M19.09 13.7499C20.25 13.7499 21.18 12.8099 21.18 11.6599C21.18 10.5099 20.24 9.56995 19.09 9.56995C17.94 9.56995 17 10.4999 17 11.6599C17 12.8199 17.93 13.7499 19.09 13.7499Z" stroke="white" stroke-width="1.5" stroke-linecap="round" stroke-linejoin="round"/> <path d="M20.6602 13.23L21.8802 14.44" stroke="white" stroke-width="1.5" stroke-linecap="round" stroke-linejoin="round"/> </g> <defs> <clipPath id="clip0_4482_141"> <rect width="24" height="24" fill="white"/> </clipPath> </defs> </svg>