<svg width="24" height="24" viewBox="0 0 24 24" fill="none" xmlns="http://www.w3.org/2000/svg"> <g clip-path="url(#clip0_4482_139)"> <path d="M9.99982 11.9999C12.5698 11.9999 14.6598 9.91993 14.6598 7.33993C14.6598 4.75993 12.5798 2.67993 9.99982 2.67993C7.42982 2.67993 5.33984 4.75993 5.33984 7.33993C5.33984 9.91993 7.42982 11.9999 9.99982 11.9999Z" stroke="white" stroke-width="1.5" stroke-linecap="round" stroke-linejoin="round"/> <path d="M18 21.31C18 17.71 14.41 14.79 10 14.79C5.59 14.79 2 17.71 2 21.31" stroke="white" stroke-width="1.5" stroke-linecap="round" stroke-linejoin="round"/> <path d="M16.8 11.72L18.8 13.92C18.84 13.97 18.91 14 18.98 14C19.05 14 19.12 13.97 19.17 13.92L21.17 11.72C21.25 11.63 21.26 11.5 21.19 11.41L20.3 10.11C20.25 10.04 20.18 10 20.09 10H17.86C17.78 10 17.7 10.04 17.65 10.11L16.76 11.41C16.71 11.5 16.72 11.63 16.8 11.72Z" stroke="white" stroke-width="1.5" stroke-linecap="round" stroke-linejoin="round"/> </g> <defs> <clipPath id="clip0_4482_139"> <rect width="24" height="24" fill="white"/> </clipPath> </defs> </svg>