<svg width="24" height="25" viewBox="0 0 24 25" fill="none" xmlns="http://www.w3.org/2000/svg"> <g clip-path="url(#clip0_3247_9468)"> <path d="M12.0003 15.0202C6.75 15.0202 2.5 13.4802 2.5 11.5902C2.5 9.70016 6.75 8.16016 12 8.16016C17.25 8.16016 21.5 9.70016 21.5 11.5902C21.5 12.9402 19.35 14.1002 16.22 14.6602" stroke="white" stroke-width="1.5" stroke-miterlimit="10" stroke-linecap="round"/> <path d="M8.84998 12.3799L12 15.0099L8.82996 17.6599" stroke="white" stroke-width="1.5" stroke-miterlimit="10" stroke-linecap="round" stroke-linejoin="round"/> </g> <defs> <clipPath id="clip0_3247_9468"> <rect width="24" height="24" fill="white" transform="translate(0 0.910156)"/> </clipPath> </defs> <g opacity="0" fill="none" stroke="none" aria-hidden="true"><path d="M0.0051 0.0006L0.0044 0.0049L0.0008 0.0063L0.0064 0.0091L0.0054 0.0091L0 0.007L0.0065 0.0002L0.0075 0.0022L0.0076 0.0056L0.0021 0.0095L0.0049 0.0065L0.0031 0.0025"/></g></svg>