<svg width="24" height="24" viewBox="0 0 24 24" fill="none" xmlns="http://www.w3.org/2000/svg"> <path d="M9.0033 22H15C20 22 22 20 22 15V9C22 4 20 2 15 2H9C4 2 2 4 2 9V15C2 20 4 22 9 22Z" stroke="white" stroke-width="1.5" stroke-linecap="round" stroke-linejoin="round"/> <path d="M10.7402 15.5297L14.2602 11.9997L10.7402 8.46973" stroke="white" stroke-width="1.5" stroke-linecap="round" stroke-linejoin="round"/> <g opacity="0" fill="none" stroke="none" aria-hidden="true"><path d="M0.0013 0.001L0.0025 0.0046L0.0026 0.009L0.0056 0.0047L0.0074 0.0033L0.0078 0.0015L0.0013 0.0084L0.0064 0.0009L0.0032 0.01L0.0056 0.0047L0.002 0.0002L0.0082 0.0027"/></g></svg>