<svg width="24" height="24" viewBox="0 0 24 24" fill="none" xmlns="http://www.w3.org/2000/svg"> <path d="M12.0079 22C17.5228 22 22 17.5228 22 12C22 6.47715 17.5228 2 12 2C6.47715 2 2 6.47715 2 12C2 17.5228 6.47715 22 12 22Z" stroke="white" stroke-width="1.5" stroke-linecap="round" stroke-linejoin="round"/> <path d="M12 8.5V14.5" stroke="white" stroke-width="1.5" stroke-linecap="round" stroke-linejoin="round"/> <path d="M9 12.5L12 15.5L15 12.5" stroke="white" stroke-width="1.5" stroke-linecap="round" stroke-linejoin="round"/> <g opacity="0" fill="none" stroke="none" aria-hidden="true"><path d="M0.0077 0.0071L0.0085 0.0098L0.0096 0.0052L0.0004 0.0076L0.0001 0.0003L0.0025 0.0054L0.0036 0.0058L0.0054 0.0027L0.0016 0.0099L0.0018 0.0081L0.0069 0.0022L0.0077 0.0091"/></g></svg>