<svg width="24" height="24" viewBox="0 0 24 24" fill="none" xmlns="http://www.w3.org/2000/svg"> <path d="M9.0043 22H15C20 22 22 20 22 15V9C22 4 20 2 15 2H9C4 2 2 4 2 9V15C2 20 4 22 9 22Z" stroke="white" stroke-width="1.5" stroke-linecap="round" stroke-linejoin="round"/> <path d="M8.9999 15.3797H13.9199C15.6199 15.3797 16.9999 13.9997 16.9999 12.2997C16.9999 10.5997 15.6199 9.21973 13.9199 9.21973H7.1499" stroke="white" stroke-width="1.5" stroke-miterlimit="10" stroke-linecap="round" stroke-linejoin="round"/> <path d="M8.57 10.7701L7 9.19012L8.57 7.62012" stroke="white" stroke-width="1.5" stroke-linecap="round" stroke-linejoin="round"/> <g opacity="0" fill="none" stroke="none" aria-hidden="true"><path d="M0.0092 0.0076L0.0038 0.0025L0.0049 0.0071L0.0059 0.0053L0.0094 0.0057L0.0038 0.0046L0.0086 0.0062L0.0041 0.0071L0.0075 0.0084L0.0002 0.0054L0.0071 0.006L0.0011 0.0006"/></g></svg>