<svg width="24" height="24" viewBox="0 0 24 24" fill="none" xmlns="http://www.w3.org/2000/svg"> <path d="M12.0095 22C17.5228 22 22 17.5228 22 12C22 6.47715 17.5228 2 12 2C6.47715 2 2 6.47715 2 12C2 17.5228 6.47715 22 12 22Z" stroke="white" stroke-width="1.5" stroke-linecap="round" stroke-linejoin="round"/> <path d="M15.5 12H9.5" stroke="white" stroke-width="1.5" stroke-linecap="round" stroke-linejoin="round"/> <path d="M11.5 9L8.5 12L11.5 15" stroke="white" stroke-width="1.5" stroke-linecap="round" stroke-linejoin="round"/> <g opacity="0" fill="none" stroke="none" aria-hidden="true"><path d="M0.0023 0.0004L0.0063 0.0005L0.0071 0.0036L0.0039 0.0073L0.004 0.0016L0.0021 0.0093L0.0058 0.0053L0.0036 0.0002L0.006 0.0064L0.0093 0.0064L0.0006 0.0056L0.0049 0.0045"/></g></svg>