<svg width="24" height="24" viewBox="0 0 24 24" fill="none" xmlns="http://www.w3.org/2000/svg"> <g clip-path="url(#clip0_2085_391292)"> <path d="M11.1611 2L20.62 11.46C20.69 11.53 20.75 11.61 20.79 11.71C20.83 11.8 20.85 11.9 20.85 12C20.85 12.1 20.83 12.2 20.79 12.29C20.75 12.38 20.69 12.47 20.62 12.54L11.17 22" stroke="white" stroke-width="1.71" stroke-linecap="round" stroke-linejoin="round"/> <path d="M3.14999 2L12.61 11.46C12.75 11.6 12.83 11.8 12.83 12C12.83 12.2 12.75 12.39 12.61 12.54L3.14999 22" stroke="white" stroke-width="1.71" stroke-linecap="round" stroke-linejoin="round"/> </g> <defs> <clipPath id="clip0_2085_391292"> <rect width="24" height="24" fill="white"/> </clipPath> </defs> <g opacity="0" fill="none" stroke="none" aria-hidden="true"><path d="M0.0044 0.0077L0.0069 0.0089L0.0017 0.0067L0.0035 0.0012L0.0028 0.0083L0.0008 0.0015L0.004 0.0029L0 0L0.0072 0.0077L0.0071 0L0.0007 0.0011L0.0078 0.0062"/></g></svg>