<svg width="24" height="24" viewBox="0 0 24 24" fill="none" xmlns="http://www.w3.org/2000/svg"> <path d="M12.0032 22C17.5228 22 22 17.5228 22 12C22 6.47715 17.5228 2 12 2C6.47715 2 2 6.47715 2 12C2 17.5228 6.47715 22 12 22Z" stroke="white" stroke-width="1.5" stroke-linecap="round" stroke-linejoin="round"/> <path d="M12 15.5V9.5" stroke="white" stroke-width="1.5" stroke-linecap="round" stroke-linejoin="round"/> <path d="M9 11.5L12 8.5L15 11.5" stroke="white" stroke-width="1.5" stroke-linecap="round" stroke-linejoin="round"/> <g opacity="0" fill="none" stroke="none" aria-hidden="true"><path d="M0.0087 0.0068L0.0077 0.0087L0.0047 0.0066L0.007 0.0018L0.0045 0.0093L0.0053 0.0006L0.0035 0.0059L0.0051 0.0045L0.0041 0.0006L0.0078 0.0011L0.0051 0.0047L0.0025 0.0091"/></g></svg>