<svg width="24" height="24" viewBox="0 0 24 24" fill="none" xmlns="http://www.w3.org/2000/svg"> <g clip-path="url(#clip0_2085_391293)"> <path d="M2.0092 12.8302L11.46 3.39016C11.53 3.32016 11.61 3.26016 11.7 3.22016C11.79 3.18016 11.89 3.16016 11.99 3.16016C12.09 3.16016 12.19 3.18016 12.28 3.22016C12.37 3.26016 12.46 3.32016 12.52 3.39016L21.98 12.8402" stroke="white" stroke-width="1.71" stroke-linecap="round" stroke-linejoin="round"/> <path d="M2 20.8499L11.46 11.3899C11.6 11.2499 11.8 11.1699 12 11.1699C12.2 11.1699 12.39 11.2499 12.54 11.3899L22 20.8499" stroke="white" stroke-width="1.71" stroke-linecap="round" stroke-linejoin="round"/> </g> <defs> <clipPath id="clip0_2085_391293"> <rect width="24" height="24" fill="white"/> </clipPath> </defs> <g opacity="0" fill="none" stroke="none" aria-hidden="true"><path d="M0.009 0.0016L0.0058 0.004L0.01 0.0058L0.0019 0.0042L0.01 0.0025L0.0053 0.0091L0.01 0.0002L0.0071 0.0062L0.0082 0.0022L0.0067 0.0031L0.0096 0.0073L0.0081 0.0063"/></g></svg>