<svg width="24" height="24" viewBox="0 0 24 24" fill="none" xmlns="http://www.w3.org/2000/svg"> <path d="M9.0082 22H15C20 22 22 20 22 15V9C22 4 20 2 15 2H9C4 2 2 4 2 9V15C2 20 4 22 9 22Z" stroke="white" stroke-width="1.5" stroke-linecap="round" stroke-linejoin="round"/> <path d="M8.47021 13.4604L12.0002 9.94043L15.5302 13.4604" stroke="white" stroke-width="1.5" stroke-linecap="round" stroke-linejoin="round"/> <g opacity="0" fill="none" stroke="none" aria-hidden="true"><path d="M0.0089 0.0007L0.0042 0.0077L0.0084 0.0013L0.0001 0.0044L0.0013 0.0013L0.0023 0.0067L0.0046 0.0087L0.0051 0.001L0.0076 0.0055L0.0095 0.0027L0.0032 0.0064L0.0049 0.006"/></g></svg>