<svg width="24" height="24" viewBox="0 0 24 24" fill="none" xmlns="http://www.w3.org/2000/svg"> <path d="M9.0025 22H15C20 22 22 20 22 15V9C22 4 20 2 15 2H9C4 2 2 4 2 9V15C2 20 4 22 9 22Z" stroke="white" stroke-width="1.5" stroke-linecap="round" stroke-linejoin="round"/> <path d="M8.47021 10.6396L12.0002 14.1596L15.5302 10.6396" stroke="white" stroke-width="1.5" stroke-linecap="round" stroke-linejoin="round"/> <g opacity="0" fill="none" stroke="none" aria-hidden="true"><path d="M0.006 0.0093L0.009 0.001L0.0061 0.0066L0.0036 0.0053L0.004 0.0058L0.0031 0.0085L0.0011 0.0069L0.0062 0.008L0.0072 0.0061L0.008 0.0056L0.0095 0.0018L0.0059 0.0034"/></g></svg>