<svg width="24" height="24" viewBox="0 0 24 24" fill="none" xmlns="http://www.w3.org/2000/svg"> <path d="M12.0056 22C17.5228 22 22 17.5228 22 12C22 6.47715 17.5228 2 12 2C6.47715 2 2 6.47715 2 12C2 17.5228 6.47715 22 12 22Z" stroke="white" stroke-width="1.5" stroke-linecap="round" stroke-linejoin="round"/> <path d="M8.5 12H14.5" stroke="white" stroke-width="1.5" stroke-linecap="round" stroke-linejoin="round"/> <path d="M12.5 15L15.5 12L12.5 9" stroke="white" stroke-width="1.5" stroke-linecap="round" stroke-linejoin="round"/> <g opacity="0" fill="none" stroke="none" aria-hidden="true"><path d="M0.0025 0.0004L0.002 0.0062L0.0043 0.0032L0.0015 0.0062L0.0053 0.0067L0.004 0.0095L0.0018 0.0037L0.0059 0.0035L0.0036 0.009L0.0029 0.008L0.0038 0.0015L0.0073 0.004"/></g></svg>