<svg width="24" height="24" viewBox="0 0 24 24" fill="none" xmlns="http://www.w3.org/2000/svg"> <g clip-path="url(#clip0_2085_391291)"> <path d="M12.7537 2L4.25001 11.46C4.18001 11.53 4.13001 11.61 4.09001 11.71C4.05001 11.8 4.04001 11.9 4.04001 12C4.04001 12.1 4.06001 12.2 4.09001 12.29C4.13001 12.38 4.18001 12.47 4.25001 12.54L12.75 22" stroke="white" stroke-width="1.71" stroke-linecap="round" stroke-linejoin="round"/> <path d="M19.96 2L11.45 11.46C11.32 11.6 11.25 11.8 11.25 12C11.25 12.2 11.32 12.39 11.45 12.54L19.96 22" stroke="white" stroke-width="1.71" stroke-linecap="round" stroke-linejoin="round"/> </g> <defs> <clipPath id="clip0_2085_391291"> <rect width="24" height="24" fill="white"/> </clipPath> </defs> <g opacity="0" fill="none" stroke="none" aria-hidden="true"><path d="M0.0068 0.0076L0.0047 0.0001L0.0004 0.0047L0.007 0.0026L0.0044 0.0055L0.0073 0.0006L0.0099 0.0053L0.0056 0.0055L0.0036 0.0038L0.0065 0.0079L0.0035 0.0028L0.0077 0.0063"/></g></svg>