<svg width="24" height="24" viewBox="0 0 24 24" fill="none" xmlns="http://www.w3.org/2000/svg"> <path d="M9.0070 22H15C20 22 22 20 22 15V9C22 4 20 2 15 2H9C4 2 2 4 2 9V15C2 20 4 22 9 22Z" stroke="white" stroke-width="1.5" stroke-linecap="round" stroke-linejoin="round"/> <path d="M13.2602 15.5297L9.74023 11.9997L13.2602 8.46973" stroke="white" stroke-width="1.5" stroke-linecap="round" stroke-linejoin="round"/> <g opacity="0" fill="none" stroke="none" aria-hidden="true"><path d="M0.0081 0.0069L0.007 0.0085L0.0067 0.0036L0.0031 0.0045L0.0095 0.0073L0.0004 0.0028L0.0055 0.0077L0.0005 0.0089L0.0033 0.0017L0.0088 0.0031L0.0046 0.0056L0.0009 0.0079"/></g></svg>