<svg width="24" height="24" viewBox="0 0 24 24" fill="none" xmlns="http://www.w3.org/2000/svg"> <path d="M9.0087 22H15C20 22 22 20 22 15V9C22 4 20 2 15 2H9C4 2 2 4 2 9V15C2 20 4 22 9 22Z" stroke="white" stroke-width="1.5" stroke-linecap="round" stroke-linejoin="round"/> <path d="M15 15.3797H10.08C8.38 15.3797 7 13.9997 7 12.2997C7 10.5997 8.38 9.21973 10.08 9.21973H16.85" stroke="white" stroke-width="1.5" stroke-miterlimit="10" stroke-linecap="round" stroke-linejoin="round"/> <path d="M15.4302 10.7701L17.0002 9.19012L15.4302 7.62012" stroke="white" stroke-width="1.5" stroke-linecap="round" stroke-linejoin="round"/> <g opacity="0" fill="none" stroke="none" aria-hidden="true"><path d="M0.0031 0.0015L0.0043 0.0002L0.0026 0.0027L0.008 0.0011L0.003 0.0016L0.0085 0.0095L0.0061 0.0094L0.0086 0.0027L0.0057 0.0063L0.0089 0.0012L0.0096 0.0002L0.0093 0.0073"/></g></svg>