<svg width="24" height="25" viewBox="0 0 24 25" fill="none" xmlns="http://www.w3.org/2000/svg"> <g clip-path="url(#clip0_3247_9456)"> <path d="M15.0074 2.91016H7C4.25 2.91016 2 5.16016 2 7.91016V17.9102C2 20.6602 4.25 22.9102 7 22.9102H17C19.75 22.9102 22 20.6602 22 17.9102V12.8902" stroke="white" stroke-width="1.5" stroke-miterlimit="10" stroke-linecap="round"/> <path d="M9 11.9106L11.67 14.7906L21 6.14062" stroke="white" stroke-width="1.5" stroke-linecap="round" stroke-linejoin="round"/> </g> <defs> <clipPath id="clip0_3247_9456"> <rect width="24" height="24" fill="white" transform="translate(0 0.910156)"/> </clipPath> </defs> <g opacity="0" fill="none" stroke="none" aria-hidden="true"><path d="M0.0018 0.0001L0.0033 0.0081L0.01 0.0065L0.0062 0.0063L0.0078 0.0096L0.0084 0.0094L0.0041 0.0016L0.0078 0.0093L0.0071 0.0028L0.0081 0.0076L0.0029 0.0074L0.0085 0.0091"/></g></svg>