<svg width="24" height="24" viewBox="0 0 24 24" fill="none" xmlns="http://www.w3.org/2000/svg"> <path d="M12.0028 21.9838C17.5165 21.9838 21.9843 17.516 21.9843 12.0046C21.9843 6.49324 17.5165 2.02539 12.0051 2.02539C6.49372 2.02539 2.02588 6.49324 2.02588 12.0046C2.02588 17.516 6.49372 21.9838 12.0051 21.9838Z" stroke="white" stroke-width="1.5" stroke-linecap="round" stroke-linejoin="round"/> <path d="M6.13721 4.02148L14.3002 12.2044L14.3202 7.6639" stroke="white" stroke-width="1.5" stroke-linecap="round" stroke-linejoin="round"/> <path d="M17.8629 19.9786L9.69989 11.8057L9.67993 16.3362" stroke="white" stroke-width="1.5" stroke-linecap="round" stroke-linejoin="round"/> <g opacity="0" fill="none" stroke="none" aria-hidden="true"><path d="M0.0032 0.0036L0 0.0078L0.007 0.0094L0.0066 0.0029L0.0018 0.004L0.0027 0.0082L0.0087 0.0053L0.008 0.0012L0.0029 0.0044L0.0024 0.0081L0.0038 0.0032L0.0052 0.0087"/></g></svg>