<svg width="24" height="24" viewBox="0 0 24 24" fill="none" xmlns="http://www.w3.org/2000/svg"> <g clip-path="url(#clip0_4482_7590)"> <path d="M14.5911 10.52L12.0002 13.11L9.41016 10.52" stroke="white" stroke-width="1.5" stroke-linecap="round" stroke-linejoin="round"/> <path d="M12 7.56V13.12" stroke="white" stroke-width="1.5" stroke-linecap="round" stroke-linejoin="round"/> <path d="M17 16.44L16.54 16.9C16.12 17.32 15.56 17.55 14.97 17.55H9.03C8.44 17.55 7.88 17.32 7.46 16.9L7 16.44" stroke="white" stroke-width="1.5" stroke-linecap="round" stroke-linejoin="round"/> <path d="M17 2H7C4.23858 2 2 4.23858 2 7V17C2 19.7614 4.23858 22 7 22H17C19.7614 22 22 19.7614 22 17V7C22 4.23858 19.7614 2 17 2Z" stroke="white" stroke-width="1.5" stroke-linecap="round" stroke-linejoin="round"/> </g> <defs> <clipPath id="clip0_4482_7590"> <rect width="24" height="24" fill="white"/> </clipPath> </defs> <g opacity="0" fill="none" stroke="none" aria-hidden="true"><path d="M0.0083 0.0077L0.0049 0.0075L0.0014 0.0024L0.0027 0.0036L0.0047 0.0089L0.0055 0.0075L0.0038 0.0058L0.0031 0.0012L0.0089 0.0091L0.0027 0.0079L0.0069 0.0099L0.0067 0.0036"/></g></svg>