<svg width="24" height="24" viewBox="0 0 24 24" fill="none" xmlns="http://www.w3.org/2000/svg"> <path d="M16.4426 8.90039C20.04 9.21039 21.51 11.0604 21.51 15.1104V15.2404C21.51 19.7104 19.72 21.5004 15.25 21.5004H8.73998C4.26998 21.5004 2.47998 19.7104 2.47998 15.2404V15.1104C2.47998 11.0904 3.92998 9.24039 7.46998 8.91039" stroke="white" stroke-width="1.5" stroke-linecap="round" stroke-linejoin="round"/> <path d="M12 2V14.88" stroke="white" stroke-width="1.5" stroke-linecap="round" stroke-linejoin="round"/> <path d="M15.3499 12.6504L11.9999 16.0004L8.6499 12.6504" stroke="white" stroke-width="1.5" stroke-linecap="round" stroke-linejoin="round"/> <g opacity="0" fill="none" stroke="none" aria-hidden="true"><path d="M0.0024 0.0043L0.0009 0.0047L0.0009 0.0011L0.0077 0.0009L0.0087 0.0088L0.0036 0.0021L0.002 0.0062L0.0083 0.0029L0.0045 0.0053L0 0.0055L0.01 0.0029L0.0013 0.0075"/></g></svg>