<svg width="24" height="25" viewBox="0 0 24 25" fill="none" xmlns="http://www.w3.org/2000/svg"> <g clip-path="url(#clip0_3247_9453)"> <path d="M12.0042 22.9102C17.5228 22.9102 22 18.433 22 12.9102C22 7.38731 17.5228 2.91016 12 2.91016C6.47715 2.91016 2 7.38731 2 12.9102C2 18.433 6.47715 22.9102 12 22.9102Z" stroke="white" stroke-width="1.5" stroke-miterlimit="10" stroke-linecap="round" stroke-linejoin="round"/> <path d="M11.99 8.2002H12.01" stroke="white" stroke-width="2" stroke-linecap="round" stroke-linejoin="round"/> <path d="M13.46 17.6202L13 17.5002C12.4 17.3502 11.98 16.8102 11.98 16.1902V12.3502C11.98 11.7102 11.53 11.1502 10.89 11.0202L10.54 10.9502" stroke="white" stroke-width="1.5" stroke-linecap="round" stroke-linejoin="round"/> </g> <defs> <clipPath id="clip0_3247_9453"> <rect width="24" height="24" fill="white" transform="translate(0 0.910156)"/> </clipPath> </defs> <g opacity="0" fill="none" stroke="none" aria-hidden="true"><path d="M0.0088 0.0018L0.0048 0.007L0.0008 0.004L0.003 0.0005L0.0044 0.0065L0.0055 0.0002L0.0098 0.0081L0.0059 0.0046L0.0006 0.0003L0.0055 0.0033L0.0076 0.0004L0.0029 0.0007"/></g></svg>