<svg width="24" height="24" viewBox="0 0 24 24" fill="none" xmlns="http://www.w3.org/2000/svg"> <path d="M8.8907 7.56023C9.2099 3.96023 11.0599 2.49023 15.1099 2.49023H15.2399C19.7099 2.49023 21.4999 4.28023 21.4999 8.75023V15.2702C21.4999 19.7402 19.7099 21.5302 15.2399 21.5302H15.1099C11.0899 21.5302 9.2399 20.0802 8.9099 16.5402" stroke="white" stroke-width="1.5" stroke-linecap="round" stroke-linejoin="round"/> <path d="M2 12H14.88" stroke="white" stroke-width="1.5" stroke-linecap="round" stroke-linejoin="round"/> <path d="M12.6499 8.65039L15.9999 12.0004L12.6499 15.3504" stroke="white" stroke-width="1.5" stroke-linecap="round" stroke-linejoin="round"/> <g opacity="0" fill="none" stroke="none" aria-hidden="true"><path d="M0.0067 0.0031L0.0051 0.0047L0.002 0.0014L0.0019 0.0028L0.0033 0.0062L0.0062 0.0024L0.0011 0.0092L0.0071 0.0086L0.0047 0.0087L0.0065 0.009L0.0025 0.0058L0.006 0.0001"/></g></svg>