<svg width="24" height="24" viewBox="0 0 24 24" fill="none" xmlns="http://www.w3.org/2000/svg"> <path d="M8.8991 7.56023C9.2099 3.96023 11.0599 2.49023 15.1099 2.49023H15.2399C19.7099 2.49023 21.4999 4.28023 21.4999 8.75023V15.2702C21.4999 19.7402 19.7099 21.5302 15.2399 21.5302H15.1099C11.0899 21.5302 9.2399 20.0802 8.9099 16.5402" stroke="white" stroke-width="1.5" stroke-linecap="round" stroke-linejoin="round"/> <path d="M15.0001 12H3.62012" stroke="white" stroke-width="1.5" stroke-linecap="round" stroke-linejoin="round"/> <path d="M5.85 8.65039L2.5 12.0004L5.85 15.3504" stroke="white" stroke-width="1.5" stroke-linecap="round" stroke-linejoin="round"/> <g opacity="0" fill="none" stroke="none" aria-hidden="true"><path d="M0.0086 0.0064L0.0069 0.0089L0.0045 0.0071L0.0004 0.0086L0.0063 0.0084L0.0075 0.0033L0.0064 0.0049L0.0012 0.0085L0.006 0.0024L0.007 0.0066L0.0036 0.0092L0.001 0.004"/></g></svg>