<svg width="24" height="24" viewBox="0 0 24 24" fill="none" xmlns="http://www.w3.org/2000/svg"> <path d="M9.0034 22H15C20 22 22 20 22 15V9C22 4 20 2 15 2H9C4 2 2 4 2 9V15C2 20 4 22 9 22Z" stroke="white" stroke-width="1.5" stroke-linecap="round" stroke-linejoin="round"/> <path d="M10.5898 13.3396H14.8298V9.09961" stroke="white" stroke-width="1.5" stroke-linecap="round" stroke-linejoin="round"/> <path d="M14.8299 13.3397L9.16992 7.67969" stroke="white" stroke-width="1.5" stroke-linecap="round" stroke-linejoin="round"/> <path d="M6 16.5098C9.89 17.8098 14.11 17.8098 18 16.5098" stroke="white" stroke-width="1.5" stroke-linecap="round" stroke-linejoin="round"/> <g opacity="0" fill="none" stroke="none" aria-hidden="true"><path d="M0.0017 0.0075L0.0049 0.0065L0.0044 0.0021L0.0008 0.0077L0.008 0.0014L0.0076 0.0042L0.0054 0.0043L0.0011 0.004L0.0073 0.0036L0.0013 0.0002L0.0073 0.0024L0.0084 0.0051"/></g></svg>