<svg width="24" height="24" viewBox="0 0 24 24" fill="none" xmlns="http://www.w3.org/2000/svg"> <path d="M22.0082 12C22 17.52 17.52 22 12 22C6.48 22 3.11 16.44 3.11 16.44M3.11 16.44H7.63M3.11 16.44V21.44M2 12C2 6.48 6.44 2 12 2C18.67 2 22 7.56 22 7.56M22 7.56V2.56M22 7.56H17.56" stroke="white" stroke-width="1.5" stroke-linecap="round" stroke-linejoin="round"/> <g opacity="0" fill="none" stroke="none" aria-hidden="true"><path d="M0.0089 0.0076L0.0084 0.0041L0.0072 0.0055L0.0061 0.0013L0.0029 0.0001L0.0007 0.0065L0.0086 0.0075L0.0006 0.0047L0.0055 0.0033L0.0097 0.0058L0.0031 0.0006L0.0049 0"/></g></svg>