<svg width="24" height="24" viewBox="0 0 24 24" fill="none" xmlns="http://www.w3.org/2000/svg"> <path d="M10.3325 7.50977C10.83 7.35977 11.38 7.25977 12 7.25977C14.76 7.25977 17 9.49977 17 12.2598C17 15.0198 14.76 17.2598 12 17.2598C9.24 17.2598 7 15.0198 7 12.2598C7 11.2298 7.31 10.2798 7.84 9.47977" stroke="white" stroke-width="1.5" stroke-linecap="round" stroke-linejoin="round"/> <path d="M9.62012 7.65024L11.2801 5.74023" stroke="white" stroke-width="1.5" stroke-linecap="round" stroke-linejoin="round"/> <path d="M9.62012 7.65039L11.5601 9.07039" stroke="white" stroke-width="1.5" stroke-linecap="round" stroke-linejoin="round"/> <path d="M9 22H15C20 22 22 20 22 15V9C22 4 20 2 15 2H9C4 2 2 4 2 9V15C2 20 4 22 9 22Z" stroke="white" stroke-width="1.5" stroke-linecap="round" stroke-linejoin="round"/> <g opacity="0" fill="none" stroke="none" aria-hidden="true"><path d="M0.002 0.0052L0.0085 0.0086L0.0077 0.0078L0.003 0.0063L0.001 0.0038L0.0067 0.0002L0.006 0.0097L0.0057 0.0048L0.0024 0.0038L0.0075 0.0041L0.0068 0.0028L0.0094 0.0056"/></g></svg>