<svg width="24" height="24" viewBox="0 0 24 24" fill="none" xmlns="http://www.w3.org/2000/svg"> <path d="M14.5568 21.67C18.84 20.54 22 16.64 22 12C22 6.48 17.56 2 12 2C5.33 2 2 7.56 2 7.56M2 7.56V3M2 7.56H4.01H6.44" stroke="white" stroke-width="1.5" stroke-linecap="round" stroke-linejoin="round"/> <path d="M2 12C2 17.52 6.48 22 12 22" stroke="white" stroke-width="1.5" stroke-linecap="round" stroke-linejoin="round" stroke-dasharray="3 3"/> <g opacity="0" fill="none" stroke="none" aria-hidden="true"><path d="M0.0034 0.0014L0.0011 0.0085L0.0012 0.0018L0.0091 0.008L0.0098 0.0062L0.0046 0.0096L0.0065 0.003L0.0093 0.0093L0.0023 0.0062L0.0085 0.0067L0.003 0.0073L0.0064 0.0094"/></g></svg>