<svg width="24" height="24" viewBox="0 0 24 24" fill="none" xmlns="http://www.w3.org/2000/svg"> <g clip-path="url(#clip0_4482_7665)"> <path d="M13.6673 7.56006C14.5099 7.65006 15.2899 8.03006 15.8799 8.64006C17.3799 10.2001 17.3799 12.6701 15.8799 14.2301L13.6699 16.4501H15.8899" stroke="white" stroke-width="1.5" stroke-linecap="round" stroke-linejoin="round"/> <path d="M10.3301 16.44C9.49012 16.35 8.71012 15.97 8.12012 15.36C6.62012 13.8 6.62012 11.33 8.12012 9.77005L10.3301 7.55005H8.11012" stroke="white" stroke-width="1.5" stroke-linecap="round" stroke-linejoin="round"/> <path d="M12 22C17.5228 22 22 17.5228 22 12C22 6.47715 17.5228 2 12 2C6.47715 2 2 6.47715 2 12C2 17.5228 6.47715 22 12 22Z" stroke="white" stroke-width="1.5" stroke-linecap="round" stroke-linejoin="round"/> </g> <defs> <clipPath id="clip0_4482_7665"> <rect width="24" height="24" fill="white"/> </clipPath> </defs> <g opacity="0" fill="none" stroke="none" aria-hidden="true"><path d="M0.0093 0.0042L0.0004 0.0086L0.0035 0.0034L0.0059 0.0092L0.0019 0.001L0.0017 0.0066L0.0011 0.0043L0.0082 0.0072L0.0019 0.009L0.0002 0.0066L0.0074 0.0048L0.0015 0.0025"/></g></svg>