<svg width="24" height="24" viewBox="0 0 24 24" fill="none" xmlns="http://www.w3.org/2000/svg"> <path d="M7.5094 8.33984H14.9C15.79 8.33984 16.5 9.05982 16.5 9.93982V11.7098" stroke="white" stroke-width="1.5" stroke-miterlimit="10" stroke-linecap="round" stroke-linejoin="round"/> <path d="M9.19 6.66016L7.5 8.34021L9.19 10.0302" stroke="white" stroke-width="1.5" stroke-miterlimit="10" stroke-linecap="round" stroke-linejoin="round"/> <path d="M16.5 15.66H9.10001C8.21001 15.66 7.5 14.9401 7.5 14.0601V12.29" stroke="white" stroke-width="1.5" stroke-miterlimit="10" stroke-linecap="round" stroke-linejoin="round"/> <path d="M14.8101 17.3398L16.5001 15.6597L14.8101 13.9697" stroke="white" stroke-width="1.5" stroke-miterlimit="10" stroke-linecap="round" stroke-linejoin="round"/> <path d="M12 22C17.5228 22 22 17.5228 22 12C22 6.47715 17.5228 2 12 2C6.47715 2 2 6.47715 2 12C2 17.5228 6.47715 22 12 22Z" stroke="white" stroke-width="1.5" stroke-miterlimit="10" stroke-linecap="round" stroke-linejoin="round"/> <g opacity="0" fill="none" stroke="none" aria-hidden="true"><path d="M0.0019 0.0063L0.0098 0.001L0.0025 0.0031L0.007 0.0093L0.0089 0.0085L0.0033 0.0067L0.0076 0.0014L0.009 0.0015L0.0053 0.0079L0.0069 0.0002L0.0039 0.0062L0.0016 0.0058"/></g></svg>