<svg width="24" height="24" viewBox="0 0 24 24" fill="none" xmlns="http://www.w3.org/2000/svg"> <g clip-path="url(#clip0_3247_9442)"> <path d="M3.06090 13.48C2.81003 11.25 3.37003 9.01001 4.62003 7.14001C5.87003 5.28001 7.74003 3.92001 9.90003 3.30001C12.06 2.68001 14.36 2.85001 16.41 3.77001C18.46 4.69001 20.11 6.30001 21.08 8.33001C22.05 10.35 22.27 12.65 21.71 14.82C21.15 16.99 19.83 18.89 18 20.19C16.17 21.49 13.94 22.09 11.7 21.9C9.47003 21.71 7.37003 20.73 5.79003 19.15" stroke="white" stroke-width="1.5" stroke-miterlimit="10" stroke-linecap="round"/> <path d="M12 9.40039V13.5004L15 15.4004" stroke="white" stroke-width="1.5" stroke-linecap="round" stroke-linejoin="round"/> <path d="M1 11.3896L3.17 13.9996L5.35 11.3896" stroke="white" stroke-width="1.5" stroke-linecap="round" stroke-linejoin="round"/> </g> <defs> <clipPath id="clip0_3247_9442"> <rect width="24" height="24" fill="white"/> </clipPath> </defs> <g opacity="0" fill="none" stroke="none" aria-hidden="true"><path d="M0.0075 0.0025L0.0093 0.0067L0.001 0.0059L0.008 0.0073L0.0023 0.0063L0.0083 0.0057L0.0047 0.0055L0.0047 0.0006L0.0049 0.0098L0.0009 0.0026L0.001 0.0068L0.0004 0.0001"/></g></svg>