<svg width="24" height="24" viewBox="0 0 24 24" fill="none" xmlns="http://www.w3.org/2000/svg"> <path d="M14.8942 5.08039C14.0201 4.82039 13.0601 4.65039 12.0001 4.65039C7.21008 4.65039 3.33008 8.53039 3.33008 13.3204C3.33008 18.1204 7.21008 22.0004 12.0001 22.0004C16.7901 22.0004 20.6701 18.1204 20.6701 13.3304C20.6701 11.5504 20.1301 9.89039 19.2101 8.51039" stroke="white" stroke-width="1.5" stroke-linecap="round" stroke-linejoin="round"/> <path d="M16.13 5.32L13.24 2" stroke="white" stroke-width="1.5" stroke-linecap="round" stroke-linejoin="round"/> <path d="M16.13 5.32031L12.76 7.78031" stroke="white" stroke-width="1.5" stroke-linecap="round" stroke-linejoin="round"/> <g opacity="0" fill="none" stroke="none" aria-hidden="true"><path d="M0.0049 0.0039L0.0049 0.0034L0.0015 0.0086L0.0075 0.0033L0.0047 0.0039L0.0007 0.0014L0.0083 0.0038L0.0064 0.0085L0.0062 0.0019L0.0009 0.0066L0.0018 0.0041L0.0052 0.0059"/></g></svg>