<svg width="24" height="24" viewBox="0 0 24 24" fill="none" xmlns="http://www.w3.org/2000/svg"> <path d="M9.0007 22H15C20 22 22 20 22 15V9C22 4 20 2 15 2H9C4 2 2 4 2 9V15C2 20 4 22 9 22Z" stroke="white" stroke-width="1.5" stroke-linecap="round" stroke-linejoin="round"/> <path d="M10.5898 7.67969H14.8298V11.9297" stroke="white" stroke-width="1.5" stroke-linecap="round" stroke-linejoin="round"/> <path d="M14.8299 7.67969L9.16992 13.3397" stroke="white" stroke-width="1.5" stroke-linecap="round" stroke-linejoin="round"/> <path d="M6 16.5098C9.89 17.8098 14.11 17.8098 18 16.5098" stroke="white" stroke-width="1.5" stroke-linecap="round" stroke-linejoin="round"/> <g opacity="0" fill="none" stroke="none" aria-hidden="true"><path d="M0.0027 0.0058L0.0054 0.0058L0.0096 0.001L0.0001 0.0064L0.0035 0.0036L0.0004 0.0042L0.0013 0.0068L0.0003 0.0068L0.0011 0.0018L0.0048 0.0046L0.0014 0.0062L0.0087 0.0056"/></g></svg>