<svg width="24" height="25" viewBox="0 0 24 25" fill="none" xmlns="http://www.w3.org/2000/svg"> <g clip-path="url(#clip0_3247_9466)"> <path d="M2.5041 16.0703V19.7603C2.5 21.2103 3.69001 22.4003 5.14001 22.4003H8.83002" stroke="white" stroke-width="1.5" stroke-miterlimit="10" stroke-linecap="round"/> <path d="M15.17 22.4101H18.86C20.31 22.4101 21.5 21.2201 21.5 19.7701V16.0801" stroke="white" stroke-width="1.5" stroke-miterlimit="10" stroke-linecap="round"/> <path d="M21.5 9.74016V6.05016C21.5 4.60016 20.31 3.41016 18.86 3.41016H15.17" stroke="white" stroke-width="1.5" stroke-miterlimit="10" stroke-linecap="round"/> <path d="M8.83002 3.41016H5.14001C3.69001 3.41016 2.5 4.60016 2.5 6.05016V9.74016" stroke="white" stroke-width="1.5" stroke-miterlimit="10" stroke-linecap="round"/> </g> <defs> <clipPath id="clip0_3247_9466"> <rect width="24" height="24" fill="white" transform="translate(0 0.910156)"/> </clipPath> </defs> <g opacity="0" fill="none" stroke="none" aria-hidden="true"><path d="M0.0084 0.0073L0.0016 0.0013L0.0055 0.0073L0.0075 0.0011L0.0048 0.0099L0.0079 0.0005L0.0067 0.0001L0.0005 0.0067L0.0069 0.0055L0.0072 0.0061L0.0083 0.0008L0.0045 0.0016"/></g></svg>