<svg width="24" height="24" viewBox="0 0 24 24" fill="none" xmlns="http://www.w3.org/2000/svg"> <g clip-path="url(#clip0_4482_1955)"> <path d="M6.19995 10.0399C7.03995 11.2299 8.42994 11.9999 9.99994 11.9999C12.5699 11.9999 14.6599 9.91994 14.6599 7.33994C14.6599 4.76994 12.5799 2.67993 9.99994 2.67993C8.26994 2.67993 6.75996 3.62994 5.95996 5.02994" stroke="white" stroke-width="1.5" stroke-linecap="round" stroke-linejoin="round"/> <path d="M18 21.31C18 17.71 14.41 14.79 10 14.79C5.59 14.79 2 17.71 2 21.31" stroke="white" stroke-width="1.5" stroke-linecap="round" stroke-linejoin="round"/> <path d="M21.3799 10.91V10.37C21.3799 9.27 20.4899 8.37 19.3799 8.37C18.2799 8.37 17.3799 9.26 17.3799 10.37V10.91" stroke="white" stroke-width="1.5" stroke-linecap="round" stroke-linejoin="round"/> <path d="M17.3999 13.09V13.63C17.3999 14.73 18.2899 15.63 19.3999 15.63C20.4999 15.63 21.3999 14.74 21.3999 13.63V13.09" stroke="white" stroke-width="1.5" stroke-linecap="round" stroke-linejoin="round"/> <path d="M19.3901 13.44V10.54" stroke="white" stroke-width="1.5" stroke-linecap="round" stroke-linejoin="round"/> </g> <defs> <clipPath id="clip0_4482_1955"> <rect width="24" height="24" fill="white"/> </clipPath> </defs> </svg>