<svg width="24" height="24" viewBox="0 0 24 24" fill="none" xmlns="http://www.w3.org/2000/svg"> <g clip-path="url(#clip0_4482_1951)"> <path d="M20.2202 10.45L21.8202 11.09C22.2402 11.26 22.2402 11.53 21.8202 11.7L20.2202 12.34L19.5802 13.94C19.4102 14.34 19.1402 14.34 18.9702 13.94L18.3302 12.34L16.7302 11.7C16.3302 11.53 16.3302 11.26 16.7302 11.09L18.3302 10.45L18.9702 8.84997C19.1402 8.41997 19.4102 8.41997 19.5802 8.84997L20.2202 10.45Z" stroke="white" stroke-width="1.5" stroke-linecap="round" stroke-linejoin="round"/> <path d="M6.2002 10.0299C7.0402 11.2199 8.43018 11.9999 10.0002 11.9999C12.5702 11.9999 14.6602 9.91994 14.6602 7.33994C14.6602 4.76994 12.5802 2.67993 10.0002 2.67993C8.27018 2.67993 6.7602 3.62994 5.9502 5.02994" stroke="white" stroke-width="1.5" stroke-linecap="round" stroke-linejoin="round"/> <path d="M18 21.31C18 17.71 14.41 14.79 10 14.79C5.59 14.79 2 17.71 2 21.31" stroke="white" stroke-width="1.5" stroke-linecap="round" stroke-linejoin="round"/> </g> <defs> <clipPath id="clip0_4482_1951"> <rect width="24" height="24" fill="white"/> </clipPath> </defs> </svg>