<svg width="24" height="24" viewBox="0 0 24 24" fill="none" xmlns="http://www.w3.org/2000/svg"> <g clip-path="url(#clip0_4482_1943)"> <path d="M14.7 10.99C15.8 10.99 16.69 10.1 16.69 9C16.69 7.9 15.8 7 14.7 7C13.6 7 12.71 7.89001 12.71 8.99001C12.71 10.09 13.6 10.99 14.7 10.99Z" stroke="white" stroke-width="1.5" stroke-linecap="round" stroke-linejoin="round"/> <path d="M18.7002 17C18.7002 15.2 16.9102 13.74 14.7002 13.74C12.4902 13.74 10.7002 15.2 10.7002 17" stroke="white" stroke-width="1.5" stroke-linecap="round" stroke-linejoin="round"/> <path d="M21.9999 6V18C21.9999 20.2 20.1999 22 17.9999 22H8.85986C6.65986 22 4.85986 20.2 4.85986 18V15.81H5.70987C6.80987 15.81 7.70987 14.91 7.70987 13.81V9.24001C7.70987 8.14001 6.80987 7.24001 5.70987 7.24001H4.85986V6C4.85986 3.8 6.65986 2 8.85986 2H17.9999C20.1999 2 21.9999 3.8 21.9999 6Z" stroke="white" stroke-width="1.5" stroke-linecap="round" stroke-linejoin="round"/> <path d="M7.71001 9.23999V13.81C7.71001 14.91 6.81001 15.81 5.71001 15.81H4C2.9 15.81 2 14.91 2 13.81V9.23999C2 8.13999 2.9 7.23999 4 7.23999H5.71001C6.81001 7.23999 7.71001 8.13999 7.71001 9.23999Z" stroke="white" stroke-width="1.5" stroke-linecap="round" stroke-linejoin="round"/> </g> <defs> <clipPath id="clip0_4482_1943"> <rect width="24" height="24" fill="white"/> </clipPath> </defs> </svg>