<svg width="24" height="24" viewBox="0 0 24 24" fill="none" xmlns="http://www.w3.org/2000/svg"> <g clip-path="url(#clip0_4482_1963)"> <path d="M5.7998 9.96002C6.5698 11.19 7.93982 12 9.49982 12C11.9098 12 13.8698 10.05 13.8698 7.63002C13.8698 5.22002 11.9198 3.26001 9.49982 3.26001C8.05982 3.26001 6.77981 3.96001 5.98981 5.04001" stroke="white" stroke-width="1.5" stroke-linecap="round" stroke-linejoin="round"/> <path d="M17 20.73C17 17.35 13.64 14.62 9.5 14.62C5.36 14.62 2 17.35 2 20.73" stroke="white" stroke-width="1.5" stroke-linecap="round" stroke-linejoin="round"/> <path d="M22.2001 12.04C22.1901 12.82 21.8902 13.6 21.2902 14.2C20.0802 15.41 18.1101 15.41 16.8901 14.2L17.6301 13.95" stroke="white" stroke-width="1.5" stroke-linecap="round" stroke-linejoin="round"/> <path d="M20.5702 10.05L21.3103 9.79996C20.1003 8.58996 18.1303 8.58996 16.9103 9.79996C16.2603 10.45 15.9602 11.3099 16.0102 12.1499" stroke="white" stroke-width="1.5" stroke-linecap="round" stroke-linejoin="round"/> </g> <defs> <clipPath id="clip0_4482_1963"> <rect width="24" height="24" fill="white"/> </clipPath> </defs> </svg>