<svg width="24" height="24" viewBox="0 0 24 24" fill="none" xmlns="http://www.w3.org/2000/svg"> <g clip-path="url(#clip0_4482_1952)"> <path d="M6.18994 10.0199C7.02994 11.2199 8.41994 11.9999 9.99994 11.9999C12.5699 11.9999 14.6599 9.91994 14.6599 7.33994C14.6599 4.76994 12.5799 2.67993 9.99994 2.67993C8.26994 2.67993 6.75996 3.61994 5.95996 5.01994" stroke="white" stroke-width="1.5" stroke-linecap="round" stroke-linejoin="round"/> <path d="M18 21.31C18 17.71 14.41 14.79 10 14.79C5.59 14.79 2 17.71 2 21.31" stroke="white" stroke-width="1.5" stroke-linecap="round" stroke-linejoin="round"/> <path d="M21.1598 11.08L19.6298 12.81C19.4998 12.94 19.3298 13.05 19.1498 13.1L17.8098 13.4C17.5198 13.46 17.2898 13.28 17.3098 12.98L17.3898 11.61C17.3998 11.42 17.4698 11.23 17.6098 11.09L19.1398 9.35998C19.6098 8.79998 20.4598 8.72998 21.0198 9.20998C21.5698 9.67998 21.6398 10.52 21.1598 11.08Z" stroke="white" stroke-width="1.5" stroke-miterlimit="10"/> </g> <defs> <clipPath id="clip0_4482_1952"> <rect width="24" height="24" fill="white"/> </clipPath> </defs> </svg>