<svg width="24" height="24" viewBox="0 0 24 24" fill="none" xmlns="http://www.w3.org/2000/svg"> <g clip-path="url(#clip0_4482_1953)"> <path d="M6.2002 10.0399C7.0402 11.2299 8.43018 11.9999 10.0002 11.9999C12.5702 11.9999 14.6602 9.91994 14.6602 7.33994C14.6602 4.76994 12.5802 2.67993 10.0002 2.67993C8.26018 2.67993 6.7502 3.62993 5.9502 5.03993" stroke="white" stroke-width="1.5" stroke-linecap="round" stroke-linejoin="round"/> <path d="M18 21.31C18 17.71 14.41 14.79 10 14.79C5.59 14.79 2 17.71 2 21.31" stroke="white" stroke-width="1.5" stroke-linecap="round" stroke-linejoin="round"/> <path d="M21.7803 12C21.7803 13.38 20.6603 14.5 19.2803 14.5C17.9003 14.5 16.7803 13.38 16.7803 12C16.7803 10.62 17.9003 9.5 19.2803 9.5C20.6603 9.5 21.7803 10.62 21.7803 12Z" stroke="white" stroke-width="1.5" stroke-linecap="round" stroke-linejoin="round"/> <path d="M17.5098 13.77L21.0497 10.23" stroke="white" stroke-width="1.5" stroke-linecap="round" stroke-linejoin="round"/> </g> <defs> <clipPath id="clip0_4482_1953"> <rect width="24" height="24" fill="white"/> </clipPath> </defs> </svg>