<svg width="24" height="24" viewBox="0 0 24 24" fill="none" xmlns="http://www.w3.org/2000/svg"> <g clip-path="url(#clip0_4482_1947)"> <path d="M2 10.04V9C2 6.8 3.8 5 6 5H10.25V5.75C10.25 6.44 10.81 7 11.5 7H12.5C13.19 7 13.75 6.44 13.75 5.75V5H18C20.2 5 22 6.8 22 9V18C22 20.2 20.2 22 18 22H6C3.8 22 2 20.2 2 18V15.03" stroke="white" stroke-width="1.5" stroke-linecap="round" stroke-linejoin="round"/> <path d="M8.99991 13C10.0099 13 10.8299 12.18 10.8299 11.17C10.8299 10.16 10.0099 9.33997 8.99991 9.33997C7.98991 9.33997 7.16992 10.16 7.16992 11.17C7.16992 12.18 7.98991 13 8.99991 13Z" stroke="white" stroke-width="1.5" stroke-linecap="round" stroke-linejoin="round"/> <path d="M12.5 18.66C12.5 16.86 10.93 15.4 9 15.4C7.07 15.4 5.5 16.86 5.5 18.66" stroke="white" stroke-width="1.5" stroke-linecap="round" stroke-linejoin="round"/> <path d="M14.5 11H18.5" stroke="white" stroke-width="1.5" stroke-linecap="round" stroke-linejoin="round"/> <path d="M14.5 14.5H17.5" stroke="white" stroke-width="1.5" stroke-linecap="round" stroke-linejoin="round"/> <path d="M13.75 3.25V5.75C13.75 6.44 13.19 7 12.5 7H11.5C10.81 7 10.25 6.44 10.25 5.75V3.25C10.25 2.56 10.81 2 11.5 2H12.5C13.19 2 13.75 2.56 13.75 3.25Z" stroke="white" stroke-width="1.5" stroke-linecap="round" stroke-linejoin="round"/> </g> <defs> <clipPath id="clip0_4482_1947"> <rect width="24" height="24" fill="white"/> </clipPath> </defs> </svg>