<svg width="24" height="24" viewBox="0 0 24 24" fill="none" xmlns="http://www.w3.org/2000/svg"> <g clip-path="url(#clip0_4482_1942)"> <path d="M12 13.43C13.78 13.43 15.21 11.99 15.21 10.22C15.21 8.44002 13.77 7.01001 12 7.01001C10.23 7.01001 8.79004 8.45002 8.79004 10.22C8.79004 11.99 10.22 13.43 12 13.43Z" stroke="white" stroke-width="1.5" stroke-linecap="round" stroke-linejoin="round"/> <path d="M18.4198 21.48C18.1398 18.41 15.3698 16 11.9998 16C8.66985 16 5.91984 18.36 5.58984 21.39" stroke="white" stroke-width="1.5" stroke-linecap="round" stroke-linejoin="round"/> <path d="M2 8.02V7C2 4.25 4.25 2 7 2H17C19.75 2 22 4.25 22 7V17C22 19.75 19.75 22 17 22H7C4.25 22 2 19.75 2 17V13" stroke="white" stroke-width="1.5" stroke-linecap="round" stroke-linejoin="round"/> </g> <defs> <clipPath id="clip0_4482_1942"> <rect width="24" height="24" fill="white"/> </clipPath> </defs> </svg>