<svg width="24" height="24" viewBox="0 0 24 24" fill="none" xmlns="http://www.w3.org/2000/svg"> <g clip-path="url(#clip0_4482_1956)"> <path d="M6.2002 10.0299C7.0402 11.2199 8.43018 11.9999 10.0002 11.9999C12.5702 11.9999 14.6602 9.91994 14.6602 7.33994C14.6602 4.76994 12.5802 2.67993 10.0002 2.67993C8.27018 2.67993 6.7502 3.62993 5.9502 5.03993" stroke="white" stroke-width="1.5" stroke-linecap="round" stroke-linejoin="round"/> <path d="M18 21.31C18 17.71 14.41 14.79 10 14.79C5.59 14.79 2 17.71 2 21.31" stroke="white" stroke-width="1.5" stroke-linecap="round" stroke-linejoin="round"/> <path d="M19.09 13.7501C20.25 13.7501 21.18 12.8101 21.18 11.6601C21.18 10.5101 20.24 9.57007 19.09 9.57007C17.94 9.57007 17 10.5101 17 11.6601C17 12.8101 17.93 13.7501 19.09 13.7501Z" stroke="white" stroke-width="1.5" stroke-linecap="round" stroke-linejoin="round"/> <path d="M20.6602 13.23L21.8802 14.44" stroke="white" stroke-width="1.5" stroke-linecap="round" stroke-linejoin="round"/> </g> <defs> <clipPath id="clip0_4482_1956"> <rect width="24" height="24" fill="white"/> </clipPath> </defs> </svg>