<svg width="24" height="24" viewBox="0 0 24 24" fill="none" xmlns="http://www.w3.org/2000/svg"> <g clip-path="url(#clip0_4482_1940)"> <path d="M10.6 4.04996C11.02 3.82996 11.5 3.70996 12.01 3.70996C13.73 3.70996 15.13 5.10996 15.13 6.82996C15.13 8.54996 13.73 9.94995 12.01 9.94995C11.12 9.94995 10.32 9.57995 9.75 8.97995" stroke="white" stroke-width="1.5" stroke-linecap="round"/> <path d="M5.1399 11.7701C6.10088 11.7701 6.8799 10.991 6.8799 10.03C6.8799 9.06907 6.10088 8.29004 5.1399 8.29004C4.17893 8.29004 3.3999 9.06907 3.3999 10.03C3.3999 10.991 4.17893 11.7701 5.1399 11.7701Z" stroke="white" stroke-width="1.5"/> <path d="M18.8899 11.7701C19.8509 11.7701 20.6299 10.991 20.6299 10.03C20.6299 9.06907 19.8509 8.29004 18.8899 8.29004C17.9289 8.29004 17.1499 9.06907 17.1499 10.03C17.1499 10.991 17.9289 11.7701 18.8899 11.7701Z" stroke="white" stroke-width="1.5"/> <path d="M5.08008 20.29C5.11008 19.84 5.16008 19.4 5.25008 18.98C5.98008 15.26 8.73008 12.5 12.0101 12.5C15.2101 12.5 17.9101 15.12 18.7201 18.7C18.8301 19.21 18.9101 19.74 18.9401 20.29" stroke="white" stroke-width="1.5" stroke-linecap="round"/> <path d="M2.33008 16.54C2.44008 15 3.73008 13.79 5.30008 13.79C6.08008 13.79 6.80008 14.09 7.33008 14.59" stroke="white" stroke-width="1.5" stroke-linecap="round"/> <path d="M22 16.54C21.89 15 20.6 13.79 19.03 13.79C18.25 13.79 17.53 14.09 17 14.59" stroke="white" stroke-width="1.5" stroke-linecap="round"/> </g> <defs> <clipPath id="clip0_4482_1940"> <rect width="24" height="24" fill="white"/> </clipPath> </defs> </svg>