<svg width="24" height="24" viewBox="0 0 24 24" fill="none" xmlns="http://www.w3.org/2000/svg"> <g clip-path="url(#clip0_4482_1954)"> <path d="M6.2002 10.0399C7.0402 11.2299 8.43018 11.9999 10.0002 11.9999C12.5702 11.9999 14.6602 9.91994 14.6602 7.33994C14.6602 4.76994 12.5802 2.67993 10.0002 2.67993C8.26018 2.67993 6.7502 3.62993 5.9502 5.03993" stroke="white" stroke-width="1.5" stroke-linecap="round" stroke-linejoin="round"/> <path d="M18 21.31C18 17.71 14.41 14.79 10 14.79C5.59 14.79 2 17.71 2 21.31" stroke="white" stroke-width="1.5" stroke-linecap="round" stroke-linejoin="round"/> <path d="M16.8 11.72L18.8 13.92C18.84 13.97 18.91 14 18.98 14C19.05 14 19.12 13.97 19.17 13.92L21.17 11.72C21.25 11.63 21.2601 11.5 21.1901 11.41L20.3 10.11C20.25 10.04 20.1801 10 20.0901 10H17.86C17.78 10 17.7001 10.04 17.6501 10.11L16.7601 11.41C16.7101 11.5 16.72 11.63 16.8 11.72Z" stroke="white" stroke-width="1.5" stroke-linecap="round" stroke-linejoin="round"/> </g> <defs> <clipPath id="clip0_4482_1954"> <rect width="24" height="24" fill="white"/> </clipPath> </defs> </svg>