<svg width="24" height="24" viewBox="0 0 24 24" fill="none" xmlns="http://www.w3.org/2000/svg"> <g clip-path="url(#clip0_4482_1349)"> <path d="M10.0001 2.18994C7.16006 2.18994 4.84009 4.49994 4.84009 7.34994C4.84009 10.1899 7.15006 12.5099 10.0001 12.5099C12.8501 12.5099 15.16 10.1999 15.16 7.34994C15.16 4.49994 12.8401 2.18994 10.0001 2.18994Z" fill="white"/> <path d="M21.3799 11.66C20.9699 11.66 20.6299 11.32 20.6299 10.91V10.37C20.6299 9.68 20.0699 9.12 19.3799 9.12C18.6899 9.12 18.1299 9.68 18.1299 10.37V10.91C18.1299 11.32 17.7899 11.66 17.3799 11.66C16.9699 11.66 16.6299 11.32 16.6299 10.91V10.37C16.6299 8.85 17.8599 7.62 19.3799 7.62C20.8999 7.62 22.1299 8.85 22.1299 10.37V10.91C22.1299 11.32 21.7999 11.66 21.3799 11.66Z" fill="white"/> <path d="M19.3999 16.38C17.8799 16.38 16.6499 15.15 16.6499 13.63V13.09C16.6499 12.68 16.9899 12.34 17.3999 12.34C17.8099 12.34 18.1499 12.68 18.1499 13.09V13.63C18.1499 14.32 18.7099 14.88 19.3999 14.88C20.0899 14.88 20.6499 14.32 20.6499 13.63V13.09C20.6499 12.68 20.9899 12.34 21.3999 12.34C21.8099 12.34 22.1499 12.68 22.1499 13.09V13.63C22.1499 15.15 20.9199 16.38 19.3999 16.38Z" fill="white"/> <path d="M19.3901 14.19C18.9801 14.19 18.6401 13.85 18.6401 13.44V10.54C18.6401 10.13 18.9801 9.79004 19.3901 9.79004C19.8001 9.79004 20.1401 10.13 20.1401 10.54V13.44C20.1401 13.85 19.8101 14.19 19.3901 14.19Z" fill="white"/> <path d="M10.0001 14.29C5.60014 14.29 1.88017 17.12 1.53017 20.73C1.50017 21 1.60017 21.27 1.78017 21.47C1.97017 21.68 2.24017 21.8 2.53017 21.8H17.4701C17.7601 21.8 18.0301 21.68 18.2201 21.47C18.4101 21.27 18.5001 21 18.4701 20.72C18.1201 17.12 14.4001 14.29 10.0001 14.29Z" fill="white"/> </g> <defs> <clipPath id="clip0_4482_1349"> <rect width="24" height="24" fill="white"/> </clipPath> </defs> </svg>