<svg width="24" height="24" viewBox="0 0 24 24" fill="none" xmlns="http://www.w3.org/2000/svg"> <g clip-path="url(#clip0_4482_1340)"> <path d="M18 4H6C3.8 4 2 5.8 2 8V16C2 18.2 3.8 20 6 20H18C20.2 20 22 18.2 22 16V8C22 5.8 20.2 4 18 4ZM9 6.84C10.28 6.84 11.33 7.89 11.33 9.17C11.33 10.46 10.28 11.5 9 11.5C7.72 11.5 6.67001 10.46 6.67001 9.17C6.67001 7.89 7.72 6.84 9 6.84ZM12.5 17.41C12.09 17.41 11.75 17.07 11.75 16.66C11.75 15.27 10.52 14.15 9 14.15C7.48 14.15 6.25 15.27 6.25 16.66C6.25 17.07 5.91 17.41 5.5 17.41C5.09 17.41 4.75 17.07 4.75 16.66C4.75 14.45 6.66 12.65 9 12.65C11.34 12.65 13.25 14.45 13.25 16.66C13.25 17.07 12.91 17.41 12.5 17.41ZM17.5 13.25H14.5C14.09 13.25 13.75 12.91 13.75 12.5C13.75 12.09 14.09 11.75 14.5 11.75H17.5C17.91 11.75 18.25 12.09 18.25 12.5C18.25 12.91 17.91 13.25 17.5 13.25ZM18.5 9.75H14.5C14.09 9.75 13.75 9.41 13.75 9C13.75 8.59 14.09 8.25 14.5 8.25H18.5C18.91 8.25 19.25 8.59 19.25 9C19.25 9.41 18.91 9.75 18.5 9.75Z" fill="white"/> </g> <defs> <clipPath id="clip0_4482_1340"> <rect width="24" height="24" fill="white"/> </clipPath> </defs> </svg>