<svg width="24" height="24" viewBox="0 0 24 24" fill="none" xmlns="http://www.w3.org/2000/svg"> <g clip-path="url(#clip0_4482_1344)"> <path d="M10.0001 14.29C5.60008 14.29 1.88008 17.12 1.53008 20.73C1.50008 21 1.59008 21.27 1.78008 21.47C1.97008 21.68 2.25008 21.8 2.53008 21.8H17.4701C17.7601 21.8 18.0301 21.68 18.2201 21.47C18.4001 21.27 18.5001 21 18.4701 20.73C18.1201 17.12 14.4001 14.29 10.0001 14.29Z" fill="white"/> <path d="M10.0001 2.18994C7.16009 2.18994 4.84009 4.49994 4.84009 7.34994C4.84009 10.1899 7.15009 12.5099 10.0001 12.5099C12.8501 12.5099 15.1601 10.1999 15.1601 7.34994C15.1601 4.49994 12.8401 2.18994 10.0001 2.18994Z" fill="white"/> <path d="M17.6601 14.03C17.4701 14.03 17.2801 13.96 17.1301 13.81C16.8401 13.52 16.8401 13.04 17.1301 12.75L20.3101 9.57004C20.6001 9.28004 21.0801 9.28004 21.3701 9.57004C21.6601 9.86004 21.6601 10.34 21.3701 10.63L18.1901 13.81C18.0401 13.95 17.8501 14.03 17.6601 14.03Z" fill="white"/> <path d="M20.8401 14.03C20.6501 14.03 20.4601 13.96 20.3101 13.81L17.1301 10.63C16.8401 10.34 16.8401 9.86004 17.1301 9.57004C17.4201 9.28004 17.9001 9.28004 18.1901 9.57004L21.3701 12.75C21.6601 13.04 21.6601 13.52 21.3701 13.81C21.2201 13.95 21.0301 14.03 20.8401 14.03Z" fill="white"/> </g> <defs> <clipPath id="clip0_4482_1344"> <rect width="24" height="24" fill="white"/> </clipPath> </defs> </svg>