<svg width="24" height="24" viewBox="0 0 24 24" fill="none" xmlns="http://www.w3.org/2000/svg"> <g clip-path="url(#clip0_4482_1345)"> <path d="M10.0001 14.29C5.60008 14.29 1.88008 17.12 1.53008 20.73C1.50008 21 1.59008 21.27 1.78008 21.47C1.97008 21.68 2.25008 21.8 2.53008 21.8H17.4701C17.7601 21.8 18.0301 21.68 18.2201 21.47C18.4001 21.27 18.5001 21 18.4701 20.73C18.1201 17.12 14.4001 14.29 10.0001 14.29Z" fill="white"/> <path d="M20.2199 10.45L21.8199 11.09C22.2399 11.26 22.2399 11.53 21.8199 11.7L20.2199 12.34L19.5799 13.94C19.4099 14.34 19.1399 14.34 18.9699 13.94L18.3299 12.34L16.7299 11.7C16.3299 11.53 16.3299 11.26 16.7299 11.09L18.3299 10.45L18.9699 8.84997C19.1399 8.41997 19.4099 8.41997 19.5799 8.84997L20.2199 10.45Z" fill="white"/> <path d="M10.0001 2.18994C7.16009 2.18994 4.84009 4.49994 4.84009 7.34994C4.84009 10.1899 7.15009 12.5099 10.0001 12.5099C12.8501 12.5099 15.1601 10.1999 15.1601 7.34994C15.1601 4.49994 12.8401 2.18994 10.0001 2.18994Z" fill="white"/> </g> <defs> <clipPath id="clip0_4482_1345"> <rect width="24" height="24" fill="white"/> </clipPath> </defs> </svg>