<svg width="24" height="24" viewBox="0 0 24 24" fill="none" xmlns="http://www.w3.org/2000/svg"> <g clip-path="url(#clip0_4482_1357)"> <path d="M9.49988 2.77002C6.81988 2.77002 4.62988 4.95002 4.62988 7.64002C4.62988 10.32 6.80988 12.51 9.49988 12.51C12.1899 12.51 14.3699 10.33 14.3699 7.64002C14.3699 4.95002 12.1799 2.77002 9.49988 2.77002Z" fill="white"/> <path d="M19.09 15.86C18.1 15.86 17.11 15.48 16.36 14.73C16.18 14.55 16.1001 14.28 16.1601 14.03C16.2201 13.78 16.4001 13.57 16.6501 13.49L17.3901 13.24C17.7801 13.1 18.21 13.32 18.34 13.71C18.4 13.89 18.39 14.07 18.33 14.23C19.15 14.51 20.1101 14.33 20.7701 13.67C21.2101 13.23 21.45 12.65 21.46 12.03C21.46 11.62 21.8 11.29 22.21 11.29H22.22C22.63 11.29 22.97 11.63 22.96 12.05C22.95 13.06 22.55 14.02 21.83 14.73C21.07 15.48 20.08 15.86 19.09 15.86Z" fill="white"/> <path d="M15.9999 12.9C15.6099 12.9 15.2699 12.59 15.2499 12.19C15.1899 11.1 15.5999 10.04 16.3699 9.26001C17.8799 7.76001 20.3299 7.76001 21.8299 9.26001C22.0099 9.44001 22.0899 9.71001 22.0299 9.96001C21.9699 10.21 21.79 10.42 21.54 10.5L20.8 10.75C20.4 10.88 19.9799 10.67 19.8499 10.28C19.7899 10.1 19.7999 9.92001 19.8699 9.76001C19.0399 9.48001 18.09 9.67001 17.43 10.32C16.96 10.79 16.7099 11.44 16.7499 12.1C16.7699 12.51 16.46 12.87 16.04 12.89C16.03 12.9 16.0199 12.9 15.9999 12.9Z" fill="white"/> <path d="M9.50014 13.92C5.10014 13.92 1.38017 16.75 1.03017 20.36C1.00017 20.63 1.10017 20.9 1.28017 21.1C1.47017 21.31 1.74017 21.43 2.03017 21.43H16.9701C17.2601 21.43 17.5301 21.31 17.7201 21.1C17.9101 20.9 18.0001 20.63 17.9701 20.35C17.6201 16.75 13.9001 13.92 9.50014 13.92Z" fill="white"/> </g> <defs> <clipPath id="clip0_4482_1357"> <rect width="24" height="24" fill="white"/> </clipPath> </defs> </svg>