<svg width="24" height="24" viewBox="0 0 24 24" fill="none" xmlns="http://www.w3.org/2000/svg"> <g clip-path="url(#clip0_4482_1346)"> <path d="M10.0001 14.29C5.60014 14.29 1.88017 17.12 1.53017 20.73C1.50017 21 1.60017 21.27 1.78017 21.47C1.97017 21.68 2.24017 21.8 2.53017 21.8H17.4701C17.7601 21.8 18.0301 21.68 18.2201 21.47C18.4101 21.27 18.5001 21 18.4701 20.72C18.1201 17.12 14.4001 14.29 10.0001 14.29Z" fill="white"/> <path d="M10.0001 2.18994C7.16006 2.18994 4.84009 4.49994 4.84009 7.34994C4.84009 10.1899 7.15006 12.5099 10.0001 12.5099C12.8501 12.5099 15.16 10.1999 15.16 7.34994C15.16 4.49994 12.8401 2.18994 10.0001 2.18994Z" fill="white"/> <path d="M21.16 11.08L19.6301 12.81C19.5001 12.94 19.3301 13.05 19.1501 13.1L17.8101 13.4C17.5201 13.46 17.2901 13.28 17.3101 12.98L17.3901 11.61C17.4001 11.42 17.47 11.23 17.61 11.09L19.1401 9.35998C19.6101 8.79998 20.4601 8.72998 21.0201 9.20998C21.5701 9.67998 21.64 10.52 21.16 11.08Z" fill="white"/> </g> <defs> <clipPath id="clip0_4482_1346"> <rect width="24" height="24" fill="white"/> </clipPath> </defs> </svg>