<svg width="24" height="24" viewBox="0 0 24 24" fill="none" xmlns="http://www.w3.org/2000/svg"> <g clip-path="url(#clip0_4482_1347)"> <path d="M10.0001 14.29C5.60014 14.29 1.88017 17.12 1.53017 20.73C1.50017 21 1.60017 21.27 1.78017 21.47C1.97017 21.68 2.24017 21.8 2.53017 21.8H17.4701C17.7601 21.8 18.0301 21.68 18.2201 21.47C18.4101 21.27 18.5001 21 18.4701 20.72C18.1201 17.12 14.4001 14.29 10.0001 14.29Z" fill="white"/> <path d="M10.0001 2.18994C7.16006 2.18994 4.84009 4.49994 4.84009 7.34994C4.84009 10.1899 7.15006 12.5099 10.0001 12.5099C12.8501 12.5099 15.16 10.1999 15.16 7.34994C15.16 4.49994 12.8401 2.18994 10.0001 2.18994Z" fill="white"/> <path d="M19.28 15.25C17.49 15.25 16.03 13.79 16.03 12C16.03 10.21 17.49 8.75 19.28 8.75C21.07 8.75 22.53 10.21 22.53 12C22.53 13.79 21.07 15.25 19.28 15.25ZM19.28 10.25C18.32 10.25 17.53 11.04 17.53 12C17.53 12.96 18.32 13.75 19.28 13.75C20.24 13.75 21.03 12.96 21.03 12C21.03 11.04 20.24 10.25 19.28 10.25Z" fill="white"/> <path d="M17.51 14.52C17.32 14.52 17.13 14.45 16.98 14.3C16.69 14.01 16.69 13.53 16.98 13.24L20.52 9.70004C20.81 9.41004 21.29 9.41004 21.58 9.70004C21.87 9.99004 21.87 10.47 21.58 10.76L18.0399 14.3C17.8899 14.45 17.7 14.52 17.51 14.52Z" fill="white"/> </g> <defs> <clipPath id="clip0_4482_1347"> <rect width="24" height="24" fill="white"/> </clipPath> </defs> </svg>