<svg width="24" height="24" viewBox="0 0 24 24" fill="none" xmlns="http://www.w3.org/2000/svg"> <g clip-path="url(#clip0_4482_1353)"> <path d="M10.0001 2.18994C7.16006 2.18994 4.84009 4.49994 4.84009 7.34994C4.84009 10.1899 7.15006 12.5099 10.0001 12.5099C12.8501 12.5099 15.16 10.1999 15.16 7.34994C15.16 4.49994 12.8401 2.18994 10.0001 2.18994Z" fill="white"/> <path d="M21.4699 11.58H17.4699C17.1699 11.58 16.89 11.4 16.78 11.12C16.66 10.84 16.7299 10.52 16.9399 10.3L18.5999 8.63999C18.8899 8.34999 19.3699 8.34999 19.6599 8.63999C19.9499 8.92999 19.9499 9.40999 19.6599 9.69999L19.28 10.08H21.4699C21.8799 10.08 22.2199 10.42 22.2199 10.83C22.2199 11.24 21.8799 11.58 21.4699 11.58Z" fill="white"/> <path d="M19.81 15.58C19.62 15.58 19.43 15.51 19.28 15.36C18.99 15.07 18.99 14.59 19.28 14.3L19.66 13.92H17.47C17.06 13.92 16.72 13.58 16.72 13.17C16.72 12.76 17.06 12.42 17.47 12.42H21.47C21.77 12.42 22.05 12.6 22.16 12.88C22.28 13.16 22.21 13.48 22 13.7L20.34 15.36C20.19 15.51 20 15.58 19.81 15.58Z" fill="white"/> <path d="M10.0001 14.29C5.60014 14.29 1.88017 17.12 1.53017 20.73C1.50017 21 1.60017 21.27 1.78017 21.47C1.97017 21.68 2.24017 21.8 2.53017 21.8H17.4701C17.7601 21.8 18.0301 21.68 18.2201 21.47C18.4101 21.27 18.5001 21 18.4701 20.72C18.1201 17.12 14.4001 14.29 10.0001 14.29Z" fill="white"/> </g> <defs> <clipPath id="clip0_4482_1353"> <rect width="24" height="24" fill="white"/> </clipPath> </defs> </svg>