<svg width="24" height="24" viewBox="0 0 24 24" fill="none" xmlns="http://www.w3.org/2000/svg"> <g clip-path="url(#clip0_4482_1341)"> <path d="M18 5H13.75V5.75C13.75 6.44 13.19 7 12.5 7H11.5C10.81 7 10.25 6.44 10.25 5.75V5H6C3.8 5 2 6.8 2 9V18C2 20.2 3.8 22 6 22H18C20.2 22 22 20.2 22 18V9C22 6.8 20.2 5 18 5ZM9 8.84C10.28 8.84 11.33 9.89 11.33 11.17C11.33 12.46 10.28 13.5 9 13.5C7.72 13.5 6.67001 12.46 6.67001 11.17C6.67001 9.89 7.72 8.84 9 8.84ZM12.5 19.41C12.09 19.41 11.75 19.07 11.75 18.66C11.75 17.27 10.52 16.15 9 16.15C7.48 16.15 6.25 17.27 6.25 18.66C6.25 19.07 5.91 19.41 5.5 19.41C5.09 19.41 4.75 19.07 4.75 18.66C4.75 16.45 6.66 14.65 9 14.65C11.34 14.65 13.25 16.45 13.25 18.66C13.25 19.07 12.91 19.41 12.5 19.41ZM17.5 15.25H14.5C14.09 15.25 13.75 14.91 13.75 14.5C13.75 14.09 14.09 13.75 14.5 13.75H17.5C17.91 13.75 18.25 14.09 18.25 14.5C18.25 14.91 17.91 15.25 17.5 15.25ZM18.5 11.75H14.5C14.09 11.75 13.75 11.41 13.75 11C13.75 10.59 14.09 10.25 14.5 10.25H18.5C18.91 10.25 19.25 10.59 19.25 11C19.25 11.41 18.91 11.75 18.5 11.75Z" fill="white"/> <path d="M12.5 7.75H11.5C10.4 7.75 9.5 6.85 9.5 5.75V3.25C9.5 2.15 10.4 1.25 11.5 1.25H12.5C13.6 1.25 14.5 2.15 14.5 3.25V5.75C14.5 6.85 13.6 7.75 12.5 7.75ZM11.5 2.75C11.22 2.75 11 2.97 11 3.25V5.75C11 6.03 11.22 6.25 11.5 6.25H12.5C12.78 6.25 13 6.03 13 5.75V3.25C13 2.97 12.78 2.75 12.5 2.75H11.5Z" fill="white"/> </g> <defs> <clipPath id="clip0_4482_1341"> <rect width="24" height="24" fill="white"/> </clipPath> </defs> </svg>