<svg width="24" height="24" viewBox="0 0 24 24" fill="none" xmlns="http://www.w3.org/2000/svg"> <g clip-path="url(#clip0_4482_1336)"> <path d="M17 2H7C4.25 2 2 4.25 2 7V17C2 19.75 4.25 22 7 22H17C19.75 22 22 19.75 22 17V7C22 4.25 19.75 2 17 2ZM12 6.18C13.38 6.18 14.49 7.3 14.49 8.67C14.49 10.05 13.38 11.17 12 11.17C10.62 11.17 9.51 10.05 9.51 8.67C9.51 7.3 10.62 6.18 12 6.18ZM17 18.57C16.59 18.57 16.25 18.23 16.25 17.82C16.25 15.99 14.34 14.5 12 14.5C9.66 14.5 7.75 15.99 7.75 17.82C7.75 18.23 7.41 18.57 7 18.57C6.59 18.57 6.25 18.23 6.25 17.82C6.25 15.16 8.83 13 12 13C15.17 13 17.75 15.16 17.75 17.82C17.75 18.23 17.41 18.57 17 18.57Z" fill="white"/> </g> <defs> <clipPath id="clip0_4482_1336"> <rect width="24" height="24" fill="white"/> </clipPath> </defs> </svg>