<svg width="24" height="24" viewBox="0 0 24 24" fill="none" xmlns="http://www.w3.org/2000/svg"> <g clip-path="url(#clip0_4482_1337)"> <path d="M17 22.75H7C3.83 22.75 1.25 20.17 1.25 17V7C1.25 3.83 3.83 1.25 7 1.25H17C20.17 1.25 22.75 3.83 22.75 7V17C22.75 20.17 20.17 22.75 17 22.75ZM7 2.75C4.66 2.75 2.75 4.66 2.75 7V17C2.75 19.34 4.66 21.25 7 21.25H17C19.34 21.25 21.25 19.34 21.25 17V7C21.25 4.66 19.34 2.75 17 2.75H7Z" fill="white"/> <path d="M12 6.5C9.95004 6.5 8.29004 8.17 8.29004 10.21C8.29004 12.26 9.96004 13.92 12 13.92C14.04 13.92 15.71 12.25 15.71 10.21C15.71 8.17 14.05 6.5 12 6.5Z" fill="white"/> <path d="M18.68 21.7C18.16 21.9 17.59 22 17 22H7.00005C6.40005 22 5.83005 21.89 5.30005 21.69C5.94005 18.44 8.70005 16 12 16C15.3 16 18.06 18.44 18.68 21.7Z" fill="white"/> </g> <defs> <clipPath id="clip0_4482_1337"> <rect width="24" height="24" fill="white"/> </clipPath> </defs> </svg>