<svg width="24" height="24" viewBox="0 0 24 24" fill="none" xmlns="http://www.w3.org/2000/svg"> <g clip-path="url(#clip0_4482_1354)"> <path d="M10.0001 2.18994C7.16006 2.18994 4.84009 4.49994 4.84009 7.34994C4.84009 10.1899 7.15006 12.5099 10.0001 12.5099C12.8501 12.5099 15.16 10.1999 15.16 7.34994C15.16 4.49994 12.8401 2.18994 10.0001 2.18994Z" fill="white"/> <path d="M19.1699 14.75C19.0699 14.75 18.9799 14.73 18.8799 14.69C18.5999 14.57 18.4199 14.3 18.4199 14V10C18.4199 9.59 18.7599 9.25 19.1699 9.25C19.5799 9.25 19.9199 9.59 19.9199 10V12.19L20.2999 11.81C20.5899 11.52 21.0699 11.52 21.3599 11.81C21.6499 12.1 21.6499 12.58 21.3599 12.87L19.7 14.53C19.56 14.67 19.3699 14.75 19.1699 14.75Z" fill="white"/> <path d="M10.0001 14.29C5.60014 14.29 1.88017 17.12 1.53017 20.73C1.50017 21 1.60017 21.27 1.78017 21.47C1.97017 21.68 2.24017 21.8 2.53017 21.8H17.4701C17.7601 21.8 18.0301 21.68 18.2201 21.47C18.4101 21.27 18.5001 21 18.4701 20.72C18.1201 17.12 14.4001 14.29 10.0001 14.29Z" fill="white"/> </g> <defs> <clipPath id="clip0_4482_1354"> <rect width="24" height="24" fill="white"/> </clipPath> </defs> </svg>