<svg width="24" height="24" viewBox="0 0 24 24" fill="none" xmlns="http://www.w3.org/2000/svg"> <g clip-path="url(#clip0_4482_1350)"> <path d="M10.0001 2.18994C7.16006 2.18994 4.84009 4.49994 4.84009 7.34994C4.84009 10.1899 7.15006 12.5099 10.0001 12.5099C12.8501 12.5099 15.16 10.1999 15.16 7.34994C15.16 4.49994 12.8401 2.18994 10.0001 2.18994Z" fill="white"/> <path d="M19.09 14.4999C17.52 14.4999 16.25 13.2199 16.25 11.6599C16.25 10.0999 17.53 8.81995 19.09 8.81995C20.65 8.81995 21.93 10.0999 21.93 11.6599C21.93 13.2199 20.66 14.4999 19.09 14.4999ZM19.09 10.3099C18.35 10.3099 17.75 10.9099 17.75 11.6499C17.75 12.3899 18.35 12.9899 19.09 12.9899C19.83 12.9899 20.43 12.3899 20.43 11.6499C20.43 10.9099 19.83 10.3099 19.09 10.3099Z" fill="white"/> <path d="M21.8901 15.19C21.7001 15.19 21.51 15.12 21.36 14.97L20.1401 13.76C19.8501 13.47 19.84 12.99 20.13 12.7C20.42 12.41 20.9 12.4 21.19 12.69L22.41 13.9C22.7 14.19 22.71 14.67 22.42 14.96C22.27 15.11 22.0801 15.19 21.8901 15.19Z" fill="white"/> <path d="M10.0001 14.29C5.60014 14.29 1.88017 17.12 1.53017 20.73C1.50017 21 1.60017 21.27 1.78017 21.47C1.97017 21.68 2.24017 21.8 2.53017 21.8H17.4701C17.7601 21.8 18.0301 21.68 18.2201 21.47C18.4101 21.27 18.5001 21 18.4701 20.72C18.1201 17.12 14.4001 14.29 10.0001 14.29Z" fill="white"/> </g> <defs> <clipPath id="clip0_4482_1350"> <rect width="24" height="24" fill="white"/> </clipPath> </defs> </svg>