<svg width="24" height="24" viewBox="0 0 24 24" fill="none" xmlns="http://www.w3.org/2000/svg"> <g clip-path="url(#clip0_4482_1356)"> <path d="M10.0001 2.18994C7.16006 2.18994 4.84009 4.49994 4.84009 7.34994C4.84009 10.1899 7.15006 12.5099 10.0001 12.5099C12.8501 12.5099 15.16 10.1999 15.16 7.34994C15.16 4.49994 12.8401 2.18994 10.0001 2.18994Z" fill="white"/> <path d="M18.3001 14.75C18.1001 14.75 17.9101 14.67 17.7701 14.53L16.1101 12.87C15.8201 12.58 15.8201 12.1 16.1101 11.81C16.4001 11.52 16.8801 11.52 17.1701 11.81L17.5501 12.19V10C17.5501 9.59 17.8901 9.25 18.3001 9.25C18.7101 9.25 19.0501 9.59 19.0501 10V14C19.0501 14.3 18.8701 14.58 18.5901 14.69C18.4901 14.73 18.3901 14.75 18.3001 14.75Z" fill="white"/> <path d="M20.6401 14.75C20.2301 14.75 19.8901 14.41 19.8901 14V9.99999C19.8901 9.69999 20.0701 9.41999 20.3501 9.30999C20.6301 9.18999 20.9501 9.25999 21.1701 9.46999L22.8301 11.13C23.1201 11.42 23.1201 11.9 22.8301 12.19C22.5401 12.48 22.0601 12.48 21.7701 12.19L21.3901 11.81V14C21.3901 14.41 21.0501 14.75 20.6401 14.75Z" fill="white"/> <path d="M10.0001 14.29C5.60014 14.29 1.88017 17.12 1.53017 20.73C1.50017 21 1.60017 21.27 1.78017 21.47C1.97017 21.68 2.24017 21.8 2.53017 21.8H17.4701C17.7601 21.8 18.0301 21.68 18.2201 21.47C18.4101 21.27 18.5001 21 18.4701 20.72C18.1201 17.12 14.4001 14.29 10.0001 14.29Z" fill="white"/> </g> <defs> <clipPath id="clip0_4482_1356"> <rect width="24" height="24" fill="white"/> </clipPath> </defs> </svg>