<svg width="24" height="24" viewBox="0 0 24 24" fill="none" xmlns="http://www.w3.org/2000/svg"> <g clip-path="url(#clip0_4482_1335)"> <path d="M15.6299 6.82996C15.6299 8.81996 14.0099 10.44 12.0099 10.44C10.0199 10.44 8.3999 8.81996 8.3999 6.82996C8.3999 4.82996 10.0199 3.20996 12.0099 3.20996C14.0099 3.20996 15.6299 4.82996 15.6299 6.82996Z" fill="white"/> <path d="M7.3799 10.03C7.3799 11.27 6.3799 12.28 5.1399 12.28C3.8999 12.28 2.8999 11.27 2.8999 10.03C2.8999 8.80004 3.8999 7.79004 5.1399 7.79004C6.3799 7.79004 7.3799 8.80004 7.3799 10.03Z" fill="white"/> <path d="M21.1299 10.03C21.1299 11.27 20.1199 12.28 18.8899 12.28C17.6499 12.28 16.6499 11.27 16.6499 10.03C16.6499 8.80004 17.6499 7.79004 18.8899 7.79004C20.1199 7.79004 21.1299 8.80004 21.1299 10.03Z" fill="white"/> <path d="M5.08007 21.04C5.06007 21.04 5.05007 21.04 5.03007 21.04C4.62007 21.01 4.30007 20.66 4.33007 20.25C4.36007 19.77 4.42007 19.3 4.51007 18.84C5.32007 14.67 8.41007 11.76 12.0101 11.76C15.4901 11.76 18.5501 14.55 19.4501 18.55C19.5701 19.1 19.6601 19.68 19.6901 20.26C19.7201 20.67 19.4001 21.03 18.9901 21.05C18.5701 21.09 18.2201 20.76 18.2001 20.35C18.1701 19.85 18.1001 19.36 17.9901 18.88C17.2501 15.57 14.7901 13.26 12.0201 13.26C9.15007 13.26 6.67007 15.68 5.99007 19.13C5.91007 19.53 5.86007 19.93 5.84007 20.34C5.81007 20.73 5.48007 21.04 5.08007 21.04Z" fill="white"/> <path d="M2.3399 17.2901C2.3199 17.2901 2.2999 17.2901 2.2799 17.2901C1.8699 17.2601 1.5599 16.9001 1.5899 16.4901C1.7299 14.5601 3.3699 13.05 5.3099 13.05C6.2599 13.05 7.1599 13.4 7.8499 14.05C8.1499 14.33 8.1699 14.8101 7.8899 15.1101C7.6099 15.4101 7.1299 15.4301 6.8299 15.1501C6.4199 14.7701 5.8799 14.55 5.3099 14.55C4.1499 14.55 3.1699 15.45 3.0899 16.6C3.0499 16.99 2.7199 17.2901 2.3399 17.2901Z" fill="white"/> <path d="M22 17.2901C21.61 17.2901 21.28 16.99 21.25 16.6C21.16 15.45 20.19 14.55 19.03 14.55C18.46 14.55 17.92 14.7601 17.51 15.1501C17.21 15.4301 16.73 15.4201 16.45 15.1101C16.17 14.8101 16.19 14.33 16.49 14.05C17.18 13.41 18.08 13.05 19.03 13.05C20.97 13.05 22.6 14.5601 22.75 16.4901C22.78 16.9001 22.47 17.2601 22.06 17.2901C22.04 17.2901 22.02 17.2901 22 17.2901Z" fill="white"/> </g> <defs> <clipPath id="clip0_4482_1335"> <rect width="24" height="24" fill="white"/> </clipPath> </defs> </svg>