<svg width="24" height="24" viewBox="0 0 24 24" fill="none" xmlns="http://www.w3.org/2000/svg"> <g clip-path="url(#clip0_4482_2603)"> <path d="M3.1499 13V18C3.1499 20.2 4.9499 22 7.1499 22H11.1499" stroke="white" stroke-width="1.5" stroke-linecap="round" stroke-linejoin="round"/> <path d="M20.1499 13V6C20.1499 3.8 18.3499 2 16.1499 2H7.1499C4.9499 2 3.1499 3.8 3.1499 6V7.72" stroke="white" stroke-width="1.5" stroke-linecap="round" stroke-linejoin="round"/> <path d="M14.1499 5V6C14.1499 7.1 15.0499 8 16.1499 8H17.1499" stroke="white" stroke-width="1.5" stroke-linecap="round" stroke-linejoin="round"/> <path d="M17.4598 21.67L19.7198 21.9901C19.8898 22.0101 20.0198 21.8901 19.9998 21.7101L19.6798 19.45C19.6398 19.19 19.5298 18.95 19.3398 18.77L14.0898 13.52C13.3798 12.81 12.2398 12.81 11.5398 13.52C10.8298 14.23 10.8298 15.3701 11.5398 16.0701L16.7898 21.3201C16.9598 21.5201 17.1998 21.63 17.4598 21.67Z" stroke="white" stroke-width="1.5" stroke-miterlimit="10"/> </g> <defs> <clipPath id="clip0_4482_2603"> <rect width="24" height="24" fill="white"/> </clipPath> </defs> </svg>