<svg width="24" height="24" viewBox="0 0 24 24" fill="none" xmlns="http://www.w3.org/2000/svg"> <g clip-path="url(#clip0_4482_2628)"> <path d="M16.78 18.83C16.78 19.45 16.28 19.96 15.66 19.96C15.04 19.96 14.54 19.46 14.54 18.83C14.54 18.21 15.04 17.71 15.66 17.71C16.28 17.71 16.78 18.21 16.78 18.83Z" stroke="white" stroke-width="1.5" stroke-linecap="round" stroke-linejoin="round"/> <path d="M15.6599 22.4999C17.2299 22.4999 18.6898 21.5799 19.6998 19.9799C20.0998 19.3499 20.0998 18.2999 19.6998 17.6799C18.6798 16.0799 17.2199 15.1599 15.6599 15.1599C14.0899 15.1599 12.6298 16.0799 11.6198 17.6799C11.2198 18.3099 11.2198 19.3599 11.6198 19.9799C12.6298 21.5799 14.0899 22.4999 15.6599 22.4999Z" stroke="white" stroke-width="1.5" stroke-linecap="round" stroke-linejoin="round"/> <path d="M3.1499 13.0801V18.0001C3.1499 20.2001 4.9499 22.0001 7.1499 22.0001H9.1499" stroke="white" stroke-width="1.5" stroke-linecap="round" stroke-linejoin="round"/> <path d="M20.1499 14V6C20.1499 3.8 18.3499 2 16.1499 2H7.1499C4.9499 2 3.1499 3.8 3.1499 6V8" stroke="white" stroke-width="1.5" stroke-linecap="round" stroke-linejoin="round"/> <path d="M14.1499 5V6C14.1499 7.1 15.0499 8 16.1499 8H17.1499" stroke="white" stroke-width="1.5" stroke-linecap="round" stroke-linejoin="round"/> </g> <defs> <clipPath id="clip0_4482_2628"> <rect width="24" height="24" fill="white"/> </clipPath> </defs> </svg>