<svg width="24" height="24" viewBox="0 0 24 24" fill="none" xmlns="http://www.w3.org/2000/svg"> <g clip-path="url(#clip0_4482_2599)"> <path d="M3.5 8V6C3.5 3.8 5.3 2 7.5 2H15.65C17.85 2 19.65 3.8 19.65 6V14.04C19.56 14 19.48 13.95 19.42 13.9L18.63 13.22C18.28 12.93 17.72 12.93 17.37 13.22L16.58 13.9C16.43 14.03 16.15 14.13 15.95 14.13H15.09C14.56 14.13 14.12 14.57 14.12 15.1V15.96C14.12 16.15 14.02 16.43 13.89 16.58L13.22 17.38C12.93 17.72 12.93 18.28 13.22 18.63L13.89 19.42C14.02 19.57 14.12 19.85 14.12 20.04V20.9C14.12 20.93 14.12 20.97 14.13 21H7.5C5.3 21 3.5 19.2 3.5 17V13" stroke="white" stroke-width="1.5" stroke-linecap="round" stroke-linejoin="round"/> <path d="M13.9502 4.8501V5.80009C13.9502 6.85009 14.8002 7.70009 15.8502 7.70009H16.8002" stroke="white" stroke-width="1.5" stroke-linecap="round" stroke-linejoin="round"/> <path d="M16.1899 18L17.3899 19.2101L19.7999 16.79" stroke="white" stroke-width="1.5" stroke-linecap="round" stroke-linejoin="round"/> <path d="M22.7799 18.6299L22.0999 19.4199C21.9699 19.5699 21.8599 19.8499 21.8599 20.0499V20.8999C21.8599 21.4299 21.4299 21.8599 20.8999 21.8599H20.0499C19.8499 21.8599 19.5699 21.9699 19.4199 22.0999L18.6299 22.7799C18.2899 23.0699 17.7199 23.0699 17.3699 22.7799L16.5799 22.0999C16.4299 21.9699 16.1499 21.8599 15.9499 21.8599H15.0899C14.5899 21.8599 14.1799 21.4799 14.1299 20.9999C14.1199 20.9699 14.1199 20.9299 14.1199 20.8999V20.0399C14.1199 19.8499 14.0199 19.5699 13.8899 19.4199L13.2199 18.6299C12.9299 18.2799 12.9299 17.7199 13.2199 17.3799L13.8899 16.5799C14.0199 16.4299 14.1199 16.1499 14.1199 15.9599V15.0999C14.1199 14.5699 14.5599 14.1299 15.0899 14.1299H15.9499C16.1499 14.1299 16.4299 14.0299 16.5799 13.8999L17.3699 13.2199C17.7199 12.9299 18.2799 12.9299 18.6299 13.2199L19.4199 13.8999C19.4799 13.9499 19.5599 13.9999 19.6499 14.0399C19.7799 14.0999 19.9299 14.1399 20.0499 14.1399H20.8999C21.4299 14.1399 21.8599 14.5699 21.8599 15.0999V15.9499C21.8599 16.1499 21.9699 16.4299 22.0999 16.5799L22.7799 17.3699C23.0699 17.7199 23.0699 18.2799 22.7799 18.6299Z" stroke="white" stroke-width="1.5" stroke-linecap="round" stroke-linejoin="round"/> </g> <defs> <clipPath id="clip0_4482_2599"> <rect width="24" height="24" fill="white"/> </clipPath> </defs> </svg>