<svg width="24" height="24" viewBox="0 0 24 24" fill="none" xmlns="http://www.w3.org/2000/svg"> <g clip-path="url(#clip0_4482_3158)"> <path d="M9.99985 12.7499C7.01985 12.7499 4.58984 10.3299 4.58984 7.33994C4.58984 4.34994 7.01985 1.92993 9.99985 1.92993C12.9798 1.92993 15.4099 4.35994 15.4099 7.33994C15.4099 10.3199 12.9798 12.7499 9.99985 12.7499ZM9.99985 3.43994C7.84985 3.43994 6.08984 5.18994 6.08984 7.34995C6.08984 9.50994 7.83985 11.2599 9.99985 11.2599C12.1498 11.2599 13.9099 9.50994 13.9099 7.34995C13.9099 5.18994 12.1498 3.43994 9.99985 3.43994Z" fill="white"/> <path d="M18 22.06C17.59 22.06 17.25 21.72 17.25 21.31C17.25 18.13 14 15.54 10 15.54C6 15.54 2.75 18.13 2.75 21.31C2.75 21.72 2.41 22.06 2 22.06C1.59 22.06 1.25 21.72 1.25 21.31C1.25 17.3 5.18 14.04 10 14.04C14.82 14.04 18.75 17.3 18.75 21.31C18.75 21.73 18.41 22.06 18 22.06Z" fill="white"/> <path d="M21.5 12.4399H17C16.59 12.4399 16.25 12.0999 16.25 11.6899C16.25 11.2799 16.59 10.9399 17 10.9399H21.5C21.91 10.9399 22.25 11.2799 22.25 11.6899C22.25 12.0999 21.91 12.4399 21.5 12.4399Z" fill="white"/> <path d="M19.25 14.6899C18.84 14.6899 18.5 14.3499 18.5 13.9399V9.43994C18.5 9.02994 18.84 8.68994 19.25 8.68994C19.66 8.68994 20 9.02994 20 9.43994V13.9399C20 14.3499 19.66 14.6899 19.25 14.6899Z" fill="white"/> </g> <defs> <clipPath id="clip0_4482_3158"> <rect width="24" height="24" fill="white"/> </clipPath> </defs> </svg>