<svg width="24" height="24" viewBox="0 0 24 24" fill="none" xmlns="http://www.w3.org/2000/svg"> <g clip-path="url(#clip0_4482_3165)"> <path d="M9.99982 12.7499C7.01982 12.7499 4.58984 10.3299 4.58984 7.33994C4.58984 4.34994 7.00982 1.92993 9.99982 1.92993C12.9898 1.92993 15.4098 4.35994 15.4098 7.33994C15.4098 10.3199 12.9798 12.7499 9.99982 12.7499ZM9.99982 3.43994C7.84982 3.43994 6.08984 5.18994 6.08984 7.34995C6.08984 9.50994 7.83982 11.2599 9.99982 11.2599C12.1598 11.2599 13.9098 9.50994 13.9098 7.34995C13.9098 5.18994 12.1498 3.43994 9.99982 3.43994Z" fill="white"/> <path d="M18 22.06C17.59 22.06 17.25 21.72 17.25 21.31C17.25 18.13 14 15.54 10 15.54C6 15.54 2.75 18.13 2.75 21.31C2.75 21.72 2.41 22.06 2 22.06C1.59 22.06 1.25 21.72 1.25 21.31C1.25 17.3 5.17 14.04 10 14.04C14.83 14.04 18.75 17.3 18.75 21.31C18.75 21.73 18.41 22.06 18 22.06Z" fill="white"/> <path d="M21.3799 11.66C20.9699 11.66 20.6299 11.32 20.6299 10.91V10.37C20.6299 9.68 20.0699 9.12 19.3799 9.12C18.6899 9.12 18.1299 9.68 18.1299 10.37V10.91C18.1299 11.32 17.7899 11.66 17.3799 11.66C16.9699 11.66 16.6299 11.32 16.6299 10.91V10.37C16.6299 8.85 17.8599 7.62 19.3799 7.62C20.8999 7.62 22.1299 8.85 22.1299 10.37V10.91C22.1299 11.32 21.7999 11.66 21.3799 11.66Z" fill="white"/> <path d="M19.3999 16.38C17.8799 16.38 16.6499 15.15 16.6499 13.63V13.09C16.6499 12.68 16.9899 12.34 17.3999 12.34C17.8099 12.34 18.1499 12.68 18.1499 13.09V13.63C18.1499 14.32 18.7099 14.88 19.3999 14.88C20.0899 14.88 20.6499 14.32 20.6499 13.63V13.09C20.6499 12.68 20.9899 12.34 21.3999 12.34C21.8099 12.34 22.1499 12.68 22.1499 13.09V13.63C22.1499 15.15 20.9199 16.38 19.3999 16.38Z" fill="white"/> <path d="M19.3901 14.19C18.9801 14.19 18.6401 13.85 18.6401 13.44V10.54C18.6401 10.13 18.9801 9.79004 19.3901 9.79004C19.8001 9.79004 20.1401 10.13 20.1401 10.54V13.44C20.1401 13.85 19.8101 14.19 19.3901 14.19Z" fill="white"/> </g> <defs> <clipPath id="clip0_4482_3165"> <rect width="24" height="24" fill="white"/> </clipPath> </defs> </svg>