<svg width="24" height="24" viewBox="0 0 24 24" fill="none" xmlns="http://www.w3.org/2000/svg"> <g clip-path="url(#clip0_4482_3156)"> <path d="M18 20.75H6C3.38 20.75 1.25 18.62 1.25 16V8C1.25 5.38 3.38 3.25 6 3.25H18C20.62 3.25 22.75 5.38 22.75 8V16C22.75 18.62 20.62 20.75 18 20.75ZM6 4.75C4.21 4.75 2.75 6.21 2.75 8V16C2.75 17.79 4.21 19.25 6 19.25H18C19.79 19.25 21.25 17.79 21.25 16V8C21.25 6.21 19.79 4.75 18 4.75H6Z" fill="white"/> <path d="M8.99991 11.75C7.57991 11.75 6.41992 10.59 6.41992 9.16997C6.41992 7.74997 7.57991 6.58997 8.99991 6.58997C10.4199 6.58997 11.5799 7.74997 11.5799 9.16997C11.5799 10.59 10.4199 11.75 8.99991 11.75ZM8.99991 8.08997C8.40991 8.08997 7.91992 8.56997 7.91992 9.16997C7.91992 9.76997 8.39991 10.25 8.99991 10.25C9.59991 10.25 10.0799 9.76997 10.0799 9.16997C10.0799 8.56997 9.58991 8.08997 8.99991 8.08997Z" fill="white"/> <path d="M12.5 17.41C12.09 17.41 11.75 17.07 11.75 16.66C11.75 15.28 10.52 14.15 9 14.15C7.48 14.15 6.25 15.27 6.25 16.66C6.25 17.07 5.91 17.41 5.5 17.41C5.09 17.41 4.75 17.07 4.75 16.66C4.75 14.45 6.66 12.65 9 12.65C11.34 12.65 13.25 14.45 13.25 16.66C13.25 17.07 12.91 17.41 12.5 17.41Z" fill="white"/> <path d="M18.5 9.75H14.5C14.09 9.75 13.75 9.41 13.75 9C13.75 8.59 14.09 8.25 14.5 8.25H18.5C18.91 8.25 19.25 8.59 19.25 9C19.25 9.41 18.91 9.75 18.5 9.75Z" fill="white"/> <path d="M17.5 13.25H14.5C14.09 13.25 13.75 12.91 13.75 12.5C13.75 12.09 14.09 11.75 14.5 11.75H17.5C17.91 11.75 18.25 12.09 18.25 12.5C18.25 12.91 17.91 13.25 17.5 13.25Z" fill="white"/> </g> <defs> <clipPath id="clip0_4482_3156"> <rect width="24" height="24" fill="white"/> </clipPath> </defs> </svg>