<svg width="24" height="24" viewBox="0 0 24 24" fill="none" xmlns="http://www.w3.org/2000/svg"> <g clip-path="url(#clip0_4482_3160)"> <path d="M9.99985 12.7499C7.01985 12.7499 4.58984 10.3299 4.58984 7.33994C4.58984 4.34994 7.01985 1.92993 9.99985 1.92993C12.9798 1.92993 15.4099 4.35994 15.4099 7.33994C15.4099 10.3199 12.9798 12.7499 9.99985 12.7499ZM9.99985 3.43994C7.84985 3.43994 6.08984 5.18994 6.08984 7.34995C6.08984 9.50994 7.83985 11.2599 9.99985 11.2599C12.1498 11.2599 13.9099 9.50994 13.9099 7.34995C13.9099 5.18994 12.1498 3.43994 9.99985 3.43994Z" fill="white"/> <path d="M18 22.06C17.59 22.06 17.25 21.72 17.25 21.31C17.25 18.13 14 15.54 10 15.54C6 15.54 2.75 18.13 2.75 21.31C2.75 21.72 2.41 22.06 2 22.06C1.59 22.06 1.25 21.72 1.25 21.31C1.25 17.3 5.18 14.04 10 14.04C14.82 14.04 18.75 17.3 18.75 21.31C18.75 21.73 18.41 22.06 18 22.06Z" fill="white"/> <path d="M17.6601 14.03C17.4701 14.03 17.2801 13.96 17.1301 13.81C16.8401 13.52 16.8401 13.04 17.1301 12.75L20.3101 9.57004C20.6001 9.28004 21.0801 9.28004 21.3701 9.57004C21.6601 9.86004 21.6601 10.34 21.3701 10.63L18.1901 13.81C18.0401 13.95 17.8501 14.03 17.6601 14.03Z" fill="white"/> <path d="M20.8401 14.03C20.6501 14.03 20.4601 13.96 20.3101 13.81L17.1301 10.63C16.8401 10.34 16.8401 9.86004 17.1301 9.57004C17.4201 9.28004 17.9001 9.28004 18.1901 9.57004L21.3701 12.75C21.6601 13.04 21.6601 13.52 21.3701 13.81C21.2201 13.95 21.0301 14.03 20.8401 14.03Z" fill="white"/> </g> <defs> <clipPath id="clip0_4482_3160"> <rect width="24" height="24" fill="white"/> </clipPath> </defs> </svg>