<svg width="24" height="24" viewBox="0 0 24 24" fill="none" xmlns="http://www.w3.org/2000/svg"> <g clip-path="url(#clip0_4482_3161)"> <path d="M19.2699 14.99C19.0699 14.99 18.5599 14.92 18.2699 14.23L17.7399 12.91L16.4399 12.39C15.7399 12.09 15.6699 11.59 15.6699 11.39C15.6699 11.19 15.7399 10.69 16.4299 10.4L17.7499 9.87003L18.2699 8.57004C18.5499 7.85004 19.0599 7.78003 19.2699 7.78003C19.4799 7.78003 19.9899 7.86003 20.2699 8.58003L20.7899 9.88004L22.0899 10.4C22.7999 10.69 22.8799 11.19 22.8799 11.4C22.8799 11.61 22.7999 12.11 22.0999 12.4L20.7899 12.92L20.2699 14.22C19.9799 14.92 19.4699 14.99 19.2699 14.99ZM17.9799 11.4L18.5999 11.65C18.7899 11.73 18.9399 11.88 19.0199 12.07L19.2699 12.69L19.5199 12.07C19.5999 11.88 19.7499 11.73 19.9399 11.65L20.5599 11.4L19.9399 11.15C19.7499 11.07 19.5999 10.92 19.5199 10.73L19.2699 10.11L19.0199 10.73C18.9399 10.92 18.7899 11.07 18.5999 11.15L17.9799 11.4Z" fill="white"/> <path d="M9.99985 12.7499C7.01985 12.7499 4.58984 10.3299 4.58984 7.33994C4.58984 4.34994 7.01985 1.92993 9.99985 1.92993C12.9798 1.92993 15.4099 4.35994 15.4099 7.33994C15.4099 10.3199 12.9798 12.7499 9.99985 12.7499ZM9.99985 3.43994C7.84985 3.43994 6.08984 5.18994 6.08984 7.34995C6.08984 9.50994 7.83985 11.2599 9.99985 11.2599C12.1598 11.2599 13.9099 9.50994 13.9099 7.34995C13.9099 5.18994 12.1498 3.43994 9.99985 3.43994Z" fill="white"/> <path d="M18 22.06C17.59 22.06 17.25 21.72 17.25 21.31C17.25 18.13 14 15.54 10 15.54C6 15.54 2.75 18.13 2.75 21.31C2.75 21.72 2.41 22.06 2 22.06C1.59 22.06 1.25 21.72 1.25 21.31C1.25 17.3 5.18 14.04 10 14.04C14.82 14.04 18.75 17.3 18.75 21.31C18.75 21.73 18.41 22.06 18 22.06Z" fill="white"/> </g> <defs> <clipPath id="clip0_4482_3161"> <rect width="24" height="24" fill="white"/> </clipPath> </defs> </svg>