<svg width="24" height="24" viewBox="0 0 24 24" fill="none" xmlns="http://www.w3.org/2000/svg"> <g clip-path="url(#clip0_4482_3153)"> <path d="M14.7 11.74C13.19 11.74 11.96 10.51 11.96 9C11.96 7.49 13.19 6.25 14.7 6.25C16.21 6.25 17.44 7.48 17.44 9C17.44 10.51 16.21 11.74 14.7 11.74ZM14.7 7.75C14.01 7.75 13.46 8.31 13.46 9C13.46 9.69 14.02 10.24 14.7 10.24C15.38 10.24 15.94 9.68 15.94 9C15.94 8.31 15.39 7.75 14.7 7.75Z" fill="white"/> <path d="M18.7002 17.75C18.2902 17.75 17.9502 17.41 17.9502 17C17.9502 15.62 16.4902 14.49 14.7002 14.49C12.9102 14.49 11.4502 15.61 11.4502 17C11.4502 17.41 11.1102 17.75 10.7002 17.75C10.2902 17.75 9.9502 17.41 9.9502 17C9.9502 14.79 12.0802 12.99 14.7002 12.99C17.3202 12.99 19.4502 14.79 19.4502 17C19.4502 17.41 19.1102 17.75 18.7002 17.75Z" fill="white"/> <path d="M17.9999 22.75H8.85986C6.23986 22.75 4.10986 20.62 4.10986 18V15.81C4.10986 15.4 4.44986 15.06 4.85986 15.06H5.70987C6.39987 15.06 6.95987 14.5 6.95987 13.81V9.24001C6.95987 8.55001 6.39987 7.99001 5.70987 7.99001H4.85986C4.44986 7.99001 4.10986 7.65001 4.10986 7.24001V6C4.10986 3.38 6.23986 1.25 8.85986 1.25H17.9999C20.6199 1.25 22.7499 3.38 22.7499 6V18C22.7499 20.62 20.6199 22.75 17.9999 22.75ZM5.60986 16.56V18C5.60986 19.79 7.06986 21.25 8.85986 21.25H17.9999C19.7899 21.25 21.2499 19.79 21.2499 18V6C21.2499 4.21 19.7899 2.75 17.9999 2.75H8.85986C7.06986 2.75 5.60986 4.21 5.60986 6V6.49001H5.70987C7.22987 6.49001 8.45987 7.72001 8.45987 9.24001V13.81C8.45987 15.33 7.22987 16.56 5.70987 16.56H5.60986Z" fill="white"/> <path d="M5.71001 16.56H4C2.48 16.56 1.25 15.33 1.25 13.81V9.23999C1.25 7.71999 2.48 6.48999 4 6.48999H5.71001C7.23001 6.48999 8.46001 7.71999 8.46001 9.23999V13.81C8.46001 15.33 7.23001 16.56 5.71001 16.56ZM4 7.98999C3.31 7.98999 2.75 8.54999 2.75 9.23999V13.81C2.75 14.5 3.31 15.06 4 15.06H5.71001C6.40001 15.06 6.96001 14.5 6.96001 13.81V9.23999C6.96001 8.54999 6.40001 7.98999 5.71001 7.98999H4Z" fill="white"/> </g> <defs> <clipPath id="clip0_4482_3153"> <rect width="24" height="24" fill="white"/> </clipPath> </defs> </svg>