<svg width="24" height="24" viewBox="0 0 24 24" fill="none" xmlns="http://www.w3.org/2000/svg"> <g clip-path="url(#clip0_4482_3173)"> <path d="M9.49988 12.75C6.67988 12.75 4.37988 10.46 4.37988 7.63002C4.37988 4.81002 6.66988 2.51001 9.49988 2.51001C12.3299 2.51001 14.6199 4.80002 14.6199 7.63002C14.6199 10.46 12.3199 12.75 9.49988 12.75ZM9.49988 4.02002C7.50988 4.02002 5.87988 5.64001 5.87988 7.64001C5.87988 9.63001 7.49988 11.26 9.49988 11.26C11.4999 11.26 13.1199 9.64001 13.1199 7.64001C13.1199 5.64001 11.4899 4.02002 9.49988 4.02002Z" fill="white"/> <path d="M17 21.48C16.59 21.48 16.25 21.14 16.25 20.73C16.25 17.77 13.22 15.37 9.5 15.37C5.78 15.37 2.75 17.78 2.75 20.73C2.75 21.14 2.41 21.48 2 21.48C1.59 21.48 1.25 21.14 1.25 20.73C1.25 16.95 4.95 13.87 9.5 13.87C14.05 13.87 17.75 16.95 17.75 20.73C17.75 21.15 17.41 21.48 17 21.48Z" fill="white"/> <path d="M19.0903 15.86C18.1003 15.86 17.1103 15.48 16.3603 14.73C16.1803 14.55 16.1003 14.28 16.1603 14.03C16.2203 13.78 16.4003 13.5701 16.6503 13.4901L17.3903 13.2401C17.7803 13.1101 18.2103 13.3201 18.3403 13.7101C18.4003 13.8901 18.3903 14.07 18.3303 14.23C19.1503 14.51 20.1103 14.33 20.7703 13.67C21.2103 13.23 21.4503 12.65 21.4603 12.03C21.4603 11.62 21.8003 11.29 22.2103 11.29H22.2203C22.6303 11.29 22.9703 11.63 22.9603 12.05C22.9503 13.06 22.5503 14.02 21.8303 14.73C21.0703 15.48 20.0803 15.86 19.0903 15.86Z" fill="white"/> <path d="M15.9999 12.9C15.6099 12.9 15.2699 12.59 15.2499 12.19C15.1899 11.1 15.5999 10.04 16.3699 9.26001C17.8799 7.76001 20.3299 7.76001 21.8299 9.26001C22.0099 9.44001 22.0899 9.71002 22.0299 9.96002C21.9699 10.21 21.79 10.42 21.54 10.5L20.8 10.75C20.4 10.88 19.9799 10.67 19.8499 10.28C19.7899 10.1 19.7999 9.92001 19.8699 9.76001C19.0399 9.48001 18.09 9.66002 17.43 10.32C16.96 10.79 16.7099 11.44 16.7499 12.1C16.7699 12.51 16.46 12.87 16.04 12.89C16.03 12.9 16.0199 12.9 15.9999 12.9Z" fill="white"/> </g> <defs> <clipPath id="clip0_4482_3173"> <rect width="24" height="24" fill="white"/> </clipPath> </defs> </svg>