<svg width="24" height="24" viewBox="0 0 24 24" fill="none" xmlns="http://www.w3.org/2000/svg"> <g clip-path="url(#clip0_4482_3162)"> <path d="M9.99982 12.7499C7.01982 12.7499 4.58984 10.3299 4.58984 7.33994C4.58984 4.34994 7.00982 1.92993 9.99982 1.92993C12.9898 1.92993 15.4098 4.35994 15.4098 7.33994C15.4098 10.3199 12.9798 12.7499 9.99982 12.7499ZM9.99982 3.43994C7.84982 3.43994 6.08984 5.18994 6.08984 7.34995C6.08984 9.50994 7.83982 11.2599 9.99982 11.2599C12.1598 11.2599 13.9098 9.50994 13.9098 7.34995C13.9098 5.18994 12.1498 3.43994 9.99982 3.43994Z" fill="white"/> <path d="M18 22.06C17.59 22.06 17.25 21.72 17.25 21.31C17.25 18.13 14 15.54 10 15.54C6 15.54 2.75 18.13 2.75 21.31C2.75 21.72 2.41 22.06 2 22.06C1.59 22.06 1.25 21.72 1.25 21.31C1.25 17.3 5.17 14.04 10 14.04C14.83 14.04 18.75 17.3 18.75 21.31C18.75 21.73 18.41 22.06 18 22.06Z" fill="white"/> <path d="M17.7002 14.16C17.4102 14.16 17.1502 14.06 16.9402 13.88C16.6702 13.65 16.5302 13.2999 16.5602 12.9299L16.6402 11.57C16.6602 11.19 16.8202 10.8299 17.0802 10.5599L18.5802 8.85995C18.9202 8.44995 19.4301 8.18994 19.9801 8.14994C20.5301 8.09994 21.0802 8.27995 21.5102 8.63995C21.9302 8.99995 22.1801 9.49994 22.2301 10.0599C22.2801 10.6199 22.1001 11.15 21.7301 11.57L21.7201 11.5799L20.1902 13.3099C19.9302 13.5699 19.6401 13.74 19.3501 13.82L17.9701 14.13C17.8801 14.16 17.7902 14.16 17.7002 14.16ZM20.1601 9.63995C20.1401 9.63995 20.1301 9.63995 20.1101 9.63995C19.9601 9.64995 19.8201 9.71994 19.7201 9.83994L18.1801 11.5899L18.1001 12.57L18.9901 12.3699C18.9901 12.3699 19.0501 12.3299 19.1001 12.2799L20.5902 10.5899C20.6902 10.4699 20.7401 10.3299 20.7201 10.1699C20.7001 10.0099 20.6402 9.87995 20.5202 9.77995C20.4302 9.68995 20.2901 9.63995 20.1601 9.63995Z" fill="white"/> </g> <defs> <clipPath id="clip0_4482_3162"> <rect width="24" height="24" fill="white"/> </clipPath> </defs> </svg>