<svg width="24" height="24" viewBox="0 0 24 24" fill="none" xmlns="http://www.w3.org/2000/svg"> <g clip-path="url(#clip0_4482_3163)"> <path d="M9.99982 12.7499C7.01982 12.7499 4.58984 10.3299 4.58984 7.33994C4.58984 4.34994 7.00982 1.92993 9.99982 1.92993C12.9898 1.92993 15.4098 4.35994 15.4098 7.33994C15.4098 10.3199 12.9798 12.7499 9.99982 12.7499ZM9.99982 3.43994C7.84982 3.43994 6.08984 5.18994 6.08984 7.34995C6.08984 9.50994 7.83982 11.2599 9.99982 11.2599C12.1598 11.2599 13.9098 9.50994 13.9098 7.34995C13.9098 5.18994 12.1498 3.43994 9.99982 3.43994Z" fill="white"/> <path d="M18 22.06C17.59 22.06 17.25 21.72 17.25 21.31C17.25 18.13 14 15.54 10 15.54C6 15.54 2.75 18.13 2.75 21.31C2.75 21.72 2.41 22.06 2 22.06C1.59 22.06 1.25 21.72 1.25 21.31C1.25 17.3 5.17 14.04 10 14.04C14.83 14.04 18.75 17.3 18.75 21.31C18.75 21.73 18.41 22.06 18 22.06Z" fill="white"/> <path d="M19.2803 15.25C17.4903 15.25 16.0303 13.79 16.0303 12C16.0303 10.21 17.4903 8.75 19.2803 8.75C21.0703 8.75 22.5303 10.21 22.5303 12C22.5303 13.79 21.0703 15.25 19.2803 15.25ZM19.2803 10.25C18.3203 10.25 17.5303 11.04 17.5303 12C17.5303 12.96 18.3203 13.75 19.2803 13.75C20.2403 13.75 21.0303 12.96 21.0303 12C21.0303 11.04 20.2403 10.25 19.2803 10.25Z" fill="white"/> <path d="M17.5102 14.5201C17.3202 14.5201 17.1302 14.4501 16.9802 14.3001C16.6902 14.0101 16.6902 13.5301 16.9802 13.2401L20.5202 9.70004C20.8102 9.41004 21.2902 9.41004 21.5802 9.70004C21.8702 9.99004 21.8702 10.47 21.5802 10.76L18.0402 14.3001C17.8902 14.4501 17.7002 14.5201 17.5102 14.5201Z" fill="white"/> </g> <defs> <clipPath id="clip0_4482_3163"> <rect width="24" height="24" fill="white"/> </clipPath> </defs> </svg>