<svg width="24" height="24" viewBox="0 0 24 24" fill="none" xmlns="http://www.w3.org/2000/svg"> <g clip-path="url(#clip0_4482_3169)"> <path d="M9.99982 12.7499C7.01982 12.7499 4.58984 10.3299 4.58984 7.33994C4.58984 4.34994 7.00982 1.92993 9.99982 1.92993C12.9898 1.92993 15.4098 4.35994 15.4098 7.33994C15.4098 10.3199 12.9798 12.7499 9.99982 12.7499ZM9.99982 3.43994C7.84982 3.43994 6.08984 5.18994 6.08984 7.34995C6.08984 9.50994 7.83982 11.2599 9.99982 11.2599C12.1598 11.2599 13.9098 9.50994 13.9098 7.34995C13.9098 5.18994 12.1498 3.43994 9.99982 3.43994Z" fill="white"/> <path d="M18 22.06C17.59 22.06 17.25 21.72 17.25 21.31C17.25 18.13 14 15.54 10 15.54C6 15.54 2.75 18.13 2.75 21.31C2.75 21.72 2.41 22.06 2 22.06C1.59 22.06 1.25 21.72 1.25 21.31C1.25 17.3 5.17 14.04 10 14.04C14.83 14.04 18.75 17.3 18.75 21.31C18.75 21.73 18.41 22.06 18 22.06Z" fill="white"/> <path d="M21.4702 11.58H17.4702C17.1702 11.58 16.8902 11.4 16.7802 11.12C16.6602 10.84 16.7302 10.52 16.9402 10.3L18.6002 8.63999C18.8902 8.34999 19.3702 8.34999 19.6602 8.63999C19.9502 8.92999 19.9502 9.40998 19.6602 9.69998L19.2802 10.08H21.4702C21.8802 10.08 22.2202 10.42 22.2202 10.83C22.2202 11.24 21.8802 11.58 21.4702 11.58Z" fill="white"/> <path d="M19.8098 15.58C19.6198 15.58 19.4298 15.51 19.2798 15.36C18.9898 15.07 18.9898 14.59 19.2798 14.3L19.6597 13.92H17.4697C17.0597 13.92 16.7197 13.58 16.7197 13.17C16.7197 12.76 17.0597 12.42 17.4697 12.42H21.4697C21.7697 12.42 22.0497 12.6001 22.1597 12.8801C22.2797 13.1601 22.2098 13.48 21.9998 13.7L20.3398 15.36C20.1898 15.51 19.9998 15.58 19.8098 15.58Z" fill="white"/> </g> <defs> <clipPath id="clip0_4482_3169"> <rect width="24" height="24" fill="white"/> </clipPath> </defs> </svg>