<svg width="24" height="24" viewBox="0 0 24 24" fill="none" xmlns="http://www.w3.org/2000/svg"> <g clip-path="url(#clip0_4482_3157)"> <path d="M18 22.75H6C3.38 22.75 1.25 20.62 1.25 18V9C1.25 6.38 3.38 4.25 6 4.25H10.25C10.66 4.25 11 4.59 11 5V5.75C11 6.03 11.22 6.25 11.5 6.25H12.5C12.78 6.25 13 6.03 13 5.75V5C13 4.59 13.34 4.25 13.75 4.25H18C20.62 4.25 22.75 6.38 22.75 9V18C22.75 20.62 20.62 22.75 18 22.75ZM6 5.75C4.21 5.75 2.75 7.21 2.75 9V18C2.75 19.79 4.21 21.25 6 21.25H18C19.79 21.25 21.25 19.79 21.25 18V9C21.25 7.21 19.79 5.75 18 5.75H14.5C14.5 6.85 13.6 7.75 12.5 7.75H11.5C10.4 7.75 9.5 6.85 9.5 5.75H6Z" fill="white"/> <path d="M8.99991 13.75C7.57991 13.75 6.41992 12.59 6.41992 11.17C6.41992 9.74997 7.57991 8.58997 8.99991 8.58997C10.4199 8.58997 11.5799 9.74997 11.5799 11.17C11.5799 12.59 10.4199 13.75 8.99991 13.75ZM8.99991 10.09C8.40991 10.09 7.91992 10.57 7.91992 11.17C7.91992 11.77 8.39991 12.25 8.99991 12.25C9.59991 12.25 10.0799 11.77 10.0799 11.17C10.0799 10.57 9.58991 10.09 8.99991 10.09Z" fill="white"/> <path d="M12.5 19.41C12.09 19.41 11.75 19.07 11.75 18.66C11.75 17.28 10.52 16.15 9 16.15C7.48 16.15 6.25 17.27 6.25 18.66C6.25 19.07 5.91 19.41 5.5 19.41C5.09 19.41 4.75 19.07 4.75 18.66C4.75 16.45 6.66 14.65 9 14.65C11.34 14.65 13.25 16.45 13.25 18.66C13.25 19.07 12.91 19.41 12.5 19.41Z" fill="white"/> <path d="M18.5 11.75H14.5C14.09 11.75 13.75 11.41 13.75 11C13.75 10.59 14.09 10.25 14.5 10.25H18.5C18.91 10.25 19.25 10.59 19.25 11C19.25 11.41 18.91 11.75 18.5 11.75Z" fill="white"/> <path d="M17.5 15.25H14.5C14.09 15.25 13.75 14.91 13.75 14.5C13.75 14.09 14.09 13.75 14.5 13.75H17.5C17.91 13.75 18.25 14.09 18.25 14.5C18.25 14.91 17.91 15.25 17.5 15.25Z" fill="white"/> <path d="M12.5 7.75H11.5C10.4 7.75 9.5 6.85 9.5 5.75V3.25C9.5 2.15 10.4 1.25 11.5 1.25H12.5C13.6 1.25 14.5 2.15 14.5 3.25V5.75C14.5 6.85 13.6 7.75 12.5 7.75ZM11.5 2.75C11.22 2.75 11 2.97 11 3.25V5.75C11 6.03 11.22 6.25 11.5 6.25H12.5C12.78 6.25 13 6.03 13 5.75V3.25C13 2.97 12.78 2.75 12.5 2.75H11.5Z" fill="white"/> </g> <defs> <clipPath id="clip0_4482_3157"> <rect width="24" height="24" fill="white"/> </clipPath> </defs> </svg>