<svg width="24" height="24" viewBox="0 0 24 24" fill="none" xmlns="http://www.w3.org/2000/svg"> <g clip-path="url(#clip0_4482_3151)"> <path d="M11.9998 11.9199C10.2098 11.9199 8.75977 10.4599 8.75977 8.66994C8.75977 6.87994 10.2198 5.42993 11.9998 5.42993C13.7798 5.42993 15.2398 6.88994 15.2398 8.66994C15.2398 10.4499 13.7898 11.9199 11.9998 11.9199ZM11.9998 6.92993C11.0398 6.92993 10.2598 7.70994 10.2598 8.66994C10.2598 9.62994 11.0398 10.4199 11.9998 10.4199C12.9598 10.4199 13.7398 9.63994 13.7398 8.66994C13.7398 7.69994 12.9598 6.92993 11.9998 6.92993Z" fill="white"/> <path d="M17 18.57C16.59 18.57 16.25 18.23 16.25 17.82C16.25 15.99 14.34 14.5 12 14.5C9.66 14.5 7.75 15.99 7.75 17.82C7.75 18.23 7.41 18.57 7 18.57C6.59 18.57 6.25 18.23 6.25 17.82C6.25 15.16 8.83 13 12 13C15.17 13 17.75 15.16 17.75 17.82C17.75 18.23 17.41 18.57 17 18.57Z" fill="white"/> <path d="M17 22.75H7C3.83 22.75 1.25 20.17 1.25 17V7C1.25 3.83 3.83 1.25 7 1.25H17C20.17 1.25 22.75 3.83 22.75 7V17C22.75 20.17 20.17 22.75 17 22.75ZM7 2.75C4.66 2.75 2.75 4.66 2.75 7V17C2.75 19.34 4.66 21.25 7 21.25H17C19.34 21.25 21.25 19.34 21.25 17V7C21.25 4.66 19.34 2.75 17 2.75H7Z" fill="white"/> </g> <defs> <clipPath id="clip0_4482_3151"> <rect width="24" height="24" fill="white"/> </clipPath> </defs> </svg>