<svg width="24" height="24" viewBox="0 0 24 24" fill="none" xmlns="http://www.w3.org/2000/svg"> <g clip-path="url(#clip0_4482_3155)"> <path d="M11.9999 12.04C10.4099 12.04 9.10986 10.74 9.10986 9.15001C9.10986 7.56001 10.4099 6.26001 11.9999 6.26001C13.5999 6.26001 14.8899 7.56001 14.8899 9.15001C14.8899 10.74 13.5999 12.04 11.9999 12.04ZM11.9999 7.75002C11.2299 7.75002 10.6099 8.37001 10.6099 9.14001C10.6099 9.91001 11.2299 10.53 11.9999 10.53C12.7699 10.53 13.3899 9.91001 13.3899 9.14001C13.3899 8.38001 12.7699 7.75002 11.9999 7.75002Z" fill="white"/> <path d="M16.2899 17.75C15.8799 17.75 15.5399 17.41 15.5399 17C15.5399 15.48 13.95 14.25 12 14.25C10.05 14.25 8.45996 15.48 8.45996 17C8.45996 17.41 8.11996 17.75 7.70996 17.75C7.29996 17.75 6.95996 17.41 6.95996 17C6.95996 14.66 9.21995 12.75 12 12.75C14.78 12.75 17.0399 14.66 17.0399 17C17.0399 17.41 16.7099 17.75 16.2899 17.75Z" fill="white"/> <path d="M12 22.75C6.07 22.75 1.25 17.93 1.25 12C1.25 6.07 6.07 1.25 12 1.25C17.93 1.25 22.75 6.07 22.75 12C22.75 17.93 17.93 22.75 12 22.75ZM12 2.75C6.9 2.75 2.75 6.9 2.75 12C2.75 17.1 6.9 21.25 12 21.25C17.1 21.25 21.25 17.1 21.25 12C21.25 6.9 17.1 2.75 12 2.75Z" fill="white"/> </g> <defs> <clipPath id="clip0_4482_3155"> <rect width="24" height="24" fill="white"/> </clipPath> </defs> </svg>