<svg width="24" height="24" viewBox="0 0 24 24" fill="none" xmlns="http://www.w3.org/2000/svg"> <g clip-path="url(#clip0_4482_3152)"> <path d="M12 14.18C9.81004 14.18 8.04004 12.4 8.04004 10.22C8.04004 8.03002 9.82004 6.26001 12 6.26001C14.18 6.26001 15.96 8.04002 15.96 10.22C15.96 12.4 14.19 14.18 12 14.18ZM12 7.75002C10.64 7.75002 9.54004 8.86002 9.54004 10.21C9.54004 11.57 10.65 12.67 12 12.67C13.35 12.67 14.46 11.56 14.46 10.21C14.46 8.86002 13.36 7.75002 12 7.75002Z" fill="white"/> <path d="M18.4202 22.23C18.0402 22.23 17.7102 21.94 17.6702 21.55C17.4202 18.86 14.9302 16.75 12.0002 16.75C9.06018 16.75 6.63017 18.78 6.34017 21.47C6.30017 21.88 5.92018 22.19 5.51018 22.13C5.10018 22.09 4.80017 21.71 4.85017 21.3C5.23017 17.85 8.30018 15.25 12.0002 15.25C15.7602 15.25 18.8402 17.9 19.1702 21.41C19.2102 21.82 18.9102 22.19 18.4902 22.23C18.4602 22.23 18.4402 22.23 18.4202 22.23Z" fill="white"/> <path d="M17 22.75H7C3.83 22.75 1.25 20.17 1.25 17V7C1.25 3.83 3.83 1.25 7 1.25H17C20.17 1.25 22.75 3.83 22.75 7V17C22.75 20.17 20.17 22.75 17 22.75ZM7 2.75C4.66 2.75 2.75 4.66 2.75 7V17C2.75 19.34 4.66 21.25 7 21.25H17C19.34 21.25 21.25 19.34 21.25 17V7C21.25 4.66 19.34 2.75 17 2.75H7Z" fill="white"/> </g> <defs> <clipPath id="clip0_4482_3152"> <rect width="24" height="24" fill="white"/> </clipPath> </defs> </svg>