<svg width="24" height="24" viewBox="0 0 24 24" fill="none" xmlns="http://www.w3.org/2000/svg"> <g clip-path="url(#clip0_4482_3170)"> <path d="M9.99982 12.7499C7.01982 12.7499 4.58984 10.3299 4.58984 7.33994C4.58984 4.34994 7.00982 1.92993 9.99982 1.92993C12.9898 1.92993 15.4098 4.35994 15.4098 7.33994C15.4098 10.3199 12.9798 12.7499 9.99982 12.7499ZM9.99982 3.43994C7.84982 3.43994 6.08984 5.18994 6.08984 7.34995C6.08984 9.50994 7.83982 11.2599 9.99982 11.2599C12.1598 11.2599 13.9098 9.50994 13.9098 7.34995C13.9098 5.18994 12.1498 3.43994 9.99982 3.43994Z" fill="white"/> <path d="M18 22.06C17.59 22.06 17.25 21.72 17.25 21.31C17.25 18.13 14 15.54 10 15.54C6 15.54 2.75 18.13 2.75 21.31C2.75 21.72 2.41 22.06 2 22.06C1.59 22.06 1.25 21.72 1.25 21.31C1.25 17.3 5.17 14.04 10 14.04C14.83 14.04 18.75 17.3 18.75 21.31C18.75 21.73 18.41 22.06 18 22.06Z" fill="white"/> <path d="M19.1699 14.75C19.0699 14.75 18.9799 14.73 18.8799 14.69C18.5999 14.57 18.4199 14.3 18.4199 14V10C18.4199 9.59 18.7599 9.25 19.1699 9.25C19.5799 9.25 19.9199 9.59 19.9199 10V12.19L20.2999 11.81C20.5899 11.52 21.0699 11.52 21.3599 11.81C21.6499 12.1 21.6499 12.58 21.3599 12.87L19.7 14.53C19.56 14.67 19.3699 14.75 19.1699 14.75Z" fill="white"/> </g> <defs> <clipPath id="clip0_4482_3170"> <rect width="24" height="24" fill="white"/> </clipPath> </defs> </svg>