<svg width="24" height="24" viewBox="0 0 24 24" fill="none" xmlns="http://www.w3.org/2000/svg"> <g clip-path="url(#clip0_4482_3171)"> <path d="M9.99982 12.7499C7.01982 12.7499 4.58984 10.3299 4.58984 7.33994C4.58984 4.34994 7.00982 1.92993 9.99982 1.92993C12.9898 1.92993 15.4098 4.35994 15.4098 7.33994C15.4098 10.3199 12.9798 12.7499 9.99982 12.7499ZM9.99982 3.43994C7.84982 3.43994 6.08984 5.18994 6.08984 7.34995C6.08984 9.50994 7.83982 11.2599 9.99982 11.2599C12.1598 11.2599 13.9098 9.50994 13.9098 7.34995C13.9098 5.18994 12.1498 3.43994 9.99982 3.43994Z" fill="white"/> <path d="M18 22.06C17.59 22.06 17.25 21.72 17.25 21.31C17.25 18.13 14 15.54 10 15.54C6 15.54 2.75 18.13 2.75 21.31C2.75 21.72 2.41 22.06 2 22.06C1.59 22.06 1.25 21.72 1.25 21.31C1.25 17.3 5.17 14.04 10 14.04C14.83 14.04 18.75 17.3 18.75 21.31C18.75 21.73 18.41 22.06 18 22.06Z" fill="white"/> <path d="M19.8299 14.75C19.6299 14.75 19.4398 14.67 19.2998 14.53L17.6399 12.87C17.3499 12.58 17.3499 12.1 17.6399 11.81C17.9299 11.52 18.4099 11.52 18.6999 11.81L19.0799 12.19V10C19.0799 9.59 19.4199 9.25 19.8299 9.25C20.2399 9.25 20.5799 9.59 20.5799 10V14C20.5799 14.3 20.3998 14.58 20.1198 14.69C20.0198 14.73 19.9299 14.75 19.8299 14.75Z" fill="white"/> </g> <defs> <clipPath id="clip0_4482_3171"> <rect width="24" height="24" fill="white"/> </clipPath> </defs> </svg>