<svg width="24" height="24" viewBox="0 0 24 24" fill="none" xmlns="http://www.w3.org/2000/svg"> <g clip-path="url(#clip0_4482_3166)"> <path d="M9.99982 12.7499C7.01982 12.7499 4.58984 10.3299 4.58984 7.33994C4.58984 4.34994 7.00982 1.92993 9.99982 1.92993C12.9898 1.92993 15.4098 4.35994 15.4098 7.33994C15.4098 10.3199 12.9798 12.7499 9.99982 12.7499ZM9.99982 3.43994C7.84982 3.43994 6.08984 5.18994 6.08984 7.34995C6.08984 9.50994 7.83982 11.2599 9.99982 11.2599C12.1598 11.2599 13.9098 9.50994 13.9098 7.34995C13.9098 5.18994 12.1498 3.43994 9.99982 3.43994Z" fill="white"/> <path d="M18 22.06C17.59 22.06 17.25 21.72 17.25 21.31C17.25 18.13 14 15.54 10 15.54C6 15.54 2.75 18.13 2.75 21.31C2.75 21.72 2.41 22.06 2 22.06C1.59 22.06 1.25 21.72 1.25 21.31C1.25 17.3 5.17 14.04 10 14.04C14.83 14.04 18.75 17.3 18.75 21.31C18.75 21.73 18.41 22.06 18 22.06Z" fill="white"/> <path d="M19.09 14.5001C17.52 14.5001 16.25 13.2201 16.25 11.6601C16.25 10.1001 17.53 8.82007 19.09 8.82007C20.65 8.82007 21.93 10.1001 21.93 11.6601C21.93 13.2201 20.66 14.5001 19.09 14.5001ZM19.09 10.3101C18.35 10.3101 17.75 10.9101 17.75 11.6501C17.75 12.3901 18.35 12.9901 19.09 12.9901C19.83 12.9901 20.43 12.3901 20.43 11.6501C20.43 10.9101 19.83 10.3101 19.09 10.3101Z" fill="white"/> <path d="M21.8901 15.19C21.7001 15.19 21.51 15.12 21.36 14.97L20.1401 13.76C19.8501 13.47 19.84 12.99 20.13 12.7C20.42 12.41 20.9 12.4 21.19 12.69L22.41 13.9C22.7 14.19 22.71 14.67 22.42 14.96C22.27 15.11 22.0801 15.19 21.8901 15.19Z" fill="white"/> </g> <defs> <clipPath id="clip0_4482_3166"> <rect width="24" height="24" fill="white"/> </clipPath> </defs> </svg>