<svg width="24" height="24" viewBox="0 0 24 24" fill="none" xmlns="http://www.w3.org/2000/svg"> <g clip-path="url(#clip0_4482_3172)"> <path d="M9.99982 12.7499C7.01982 12.7499 4.58984 10.3299 4.58984 7.33994C4.58984 4.34994 7.00982 1.92993 9.99982 1.92993C12.9898 1.92993 15.4098 4.35994 15.4098 7.33994C15.4098 10.3199 12.9798 12.7499 9.99982 12.7499ZM9.99982 3.43994C7.84982 3.43994 6.08984 5.18994 6.08984 7.34995C6.08984 9.50994 7.83982 11.2599 9.99982 11.2599C12.1598 11.2599 13.9098 9.50994 13.9098 7.34995C13.9098 5.18994 12.1498 3.43994 9.99982 3.43994Z" fill="white"/> <path d="M18 22.06C17.59 22.06 17.25 21.72 17.25 21.31C17.25 18.13 14 15.54 10 15.54C6 15.54 2.75 18.13 2.75 21.31C2.75 21.72 2.41 22.06 2 22.06C1.59 22.06 1.25 21.72 1.25 21.31C1.25 17.3 5.17 14.04 10 14.04C14.83 14.04 18.75 17.3 18.75 21.31C18.75 21.73 18.41 22.06 18 22.06Z" fill="white"/> <path d="M18.3001 14.75C18.1001 14.75 17.9101 14.67 17.7701 14.53L16.1101 12.87C15.8201 12.58 15.8201 12.1 16.1101 11.81C16.4001 11.52 16.8801 11.52 17.1701 11.81L17.5501 12.19V10C17.5501 9.59 17.8901 9.25 18.3001 9.25C18.7101 9.25 19.0501 9.59 19.0501 10V14C19.0501 14.3 18.8701 14.58 18.5901 14.69C18.4901 14.73 18.3901 14.75 18.3001 14.75Z" fill="white"/> <path d="M20.6401 14.75C20.2301 14.75 19.8901 14.41 19.8901 14V9.99999C19.8901 9.69999 20.0701 9.41999 20.3501 9.30999C20.6301 9.18999 20.9501 9.25999 21.1701 9.46999L22.8301 11.13C23.1201 11.42 23.1201 11.9 22.8301 12.19C22.5401 12.48 22.0601 12.48 21.7701 12.19L21.3901 11.81V14C21.3901 14.41 21.0501 14.75 20.6401 14.75Z" fill="white"/> </g> <defs> <clipPath id="clip0_4482_3172"> <rect width="24" height="24" fill="white"/> </clipPath> </defs> </svg>