<svg width="24" height="24" viewBox="0 0 24 24" fill="none" xmlns="http://www.w3.org/2000/svg"> <g clip-path="url(#clip0_4482_3150)"> <path d="M12.0101 10.69C9.88014 10.69 8.14014 8.95996 8.14014 6.81996C8.14014 4.67996 9.87014 2.94995 12.0101 2.94995C14.1401 2.94995 15.8801 4.67996 15.8801 6.81996C15.8801 8.95996 14.1501 10.69 12.0101 10.69ZM12.0101 4.45996C10.7001 4.45996 9.64014 5.51996 9.64014 6.82996C9.64014 8.13996 10.7001 9.19995 12.0101 9.19995C13.3101 9.19995 14.3801 8.13996 14.3801 6.82996C14.3801 5.51996 13.3201 4.45996 12.0101 4.45996Z" fill="white"/> <path d="M5.1399 12.53C3.7699 12.53 2.6499 11.41 2.6499 10.04C2.6499 8.67004 3.7699 7.55005 5.1399 7.55005C6.5099 7.55005 7.6299 8.67004 7.6299 10.04C7.6299 11.41 6.5099 12.53 5.1399 12.53ZM5.1399 9.04004C4.5899 9.04004 4.1499 9.48004 4.1499 10.03C4.1499 10.58 4.5899 11.0201 5.1399 11.0201C5.6899 11.0201 6.1299 10.57 6.1299 10.03C6.1299 9.49004 5.6899 9.04004 5.1399 9.04004Z" fill="white"/> <path d="M18.8899 12.53C17.5199 12.53 16.3999 11.41 16.3999 10.04C16.3999 8.67004 17.5199 7.55005 18.8899 7.55005C20.2599 7.55005 21.3799 8.67004 21.3799 10.04C21.3799 11.41 20.2599 12.53 18.8899 12.53ZM18.8899 9.04004C18.3399 9.04004 17.8999 9.48004 17.8999 10.03C17.8999 10.58 18.3399 11.0201 18.8899 11.0201C19.4399 11.0201 19.8799 10.57 19.8799 10.03C19.8799 9.49004 19.4399 9.04004 18.8899 9.04004Z" fill="white"/> <path d="M5.08007 21.04C5.06007 21.04 5.05007 21.04 5.03007 21.04C4.62007 21.01 4.30007 20.66 4.33007 20.25C4.36007 19.77 4.42007 19.3 4.51007 18.84C5.32007 14.67 8.41007 11.76 12.0101 11.76C15.4901 11.76 18.5501 14.55 19.4501 18.55C19.5701 19.1 19.6601 19.68 19.6901 20.26C19.7201 20.67 19.4001 21.03 18.9901 21.05C18.5701 21.08 18.2201 20.76 18.2001 20.35C18.1701 19.85 18.1001 19.36 17.9901 18.88C17.2501 15.57 14.7901 13.26 12.0201 13.26C9.15007 13.26 6.67007 15.68 5.99007 19.13C5.91007 19.53 5.86007 19.93 5.84007 20.34C5.81007 20.73 5.48007 21.04 5.08007 21.04Z" fill="white"/> <path d="M2.3399 17.29C2.3199 17.29 2.2999 17.29 2.2799 17.29C1.8699 17.26 1.5599 16.9001 1.5899 16.4901C1.7299 14.5601 3.3699 13.05 5.3099 13.05C6.2599 13.05 7.1599 13.4 7.8499 14.05C8.1499 14.33 8.1699 14.81 7.8899 15.11C7.6099 15.41 7.1299 15.43 6.8299 15.15C6.4199 14.77 5.8799 14.55 5.3099 14.55C4.1499 14.55 3.1699 15.4501 3.0899 16.6001C3.0499 16.9901 2.7199 17.29 2.3399 17.29Z" fill="white"/> <path d="M22 17.29C21.61 17.29 21.28 16.9901 21.25 16.6001C21.16 15.4501 20.19 14.55 19.03 14.55C18.46 14.55 17.92 14.76 17.51 15.15C17.21 15.43 16.73 15.42 16.45 15.11C16.17 14.81 16.19 14.33 16.49 14.05C17.18 13.41 18.08 13.05 19.03 13.05C20.97 13.05 22.6 14.5601 22.75 16.4901C22.78 16.9001 22.47 17.26 22.06 17.29C22.04 17.29 22.02 17.29 22 17.29Z" fill="white"/> </g> <defs> <clipPath id="clip0_4482_3150"> <rect width="24" height="24" fill="white"/> </clipPath> </defs> </svg>