<svg width="24" height="24" viewBox="0 0 24 24" fill="none" xmlns="http://www.w3.org/2000/svg"> <g clip-path="url(#clip0_4482_3164)"> <path d="M9.99982 12.7499C7.01982 12.7499 4.58984 10.3299 4.58984 7.33994C4.58984 4.34994 7.00982 1.92993 9.99982 1.92993C12.9898 1.92993 15.4098 4.35994 15.4098 7.33994C15.4098 10.3199 12.9798 12.7499 9.99982 12.7499ZM9.99982 3.43994C7.84982 3.43994 6.08984 5.18994 6.08984 7.34995C6.08984 9.50994 7.83982 11.2599 9.99982 11.2599C12.1598 11.2599 13.9098 9.50994 13.9098 7.34995C13.9098 5.18994 12.1498 3.43994 9.99982 3.43994Z" fill="white"/> <path d="M18 22.06C17.59 22.06 17.25 21.72 17.25 21.31C17.25 18.13 14 15.54 10 15.54C6 15.54 2.75 18.13 2.75 21.31C2.75 21.72 2.41 22.06 2 22.06C1.59 22.06 1.25 21.72 1.25 21.31C1.25 17.3 5.17 14.04 10 14.04C14.83 14.04 18.75 17.3 18.75 21.31C18.75 21.73 18.41 22.06 18 22.06Z" fill="white"/> <path d="M18.9801 14.75C18.6801 14.75 18.3902 14.61 18.2102 14.38L16.2502 12.22C16.2502 12.22 16.2502 12.22 16.2502 12.21C15.9602 11.88 15.9001 11.41 16.1201 11.03L17.0401 9.67998C17.2401 9.39998 17.5401 9.23999 17.8701 9.23999H20.1001C20.4301 9.23999 20.7301 9.38999 20.9201 9.65999L21.8202 10.98C22.0802 11.32 22.0601 11.85 21.7401 12.21L19.7401 14.42C19.5101 14.64 19.2501 14.75 18.9801 14.75ZM19.3202 13.38L19.3501 13.42C19.3501 13.4 19.3302 13.39 19.3202 13.38ZM17.6101 11.5L18.9801 13.01L20.3402 11.51L19.8202 10.75H18.1101L17.6101 11.5ZM20.5602 11.82C20.5702 11.84 20.5801 11.86 20.6001 11.88L20.5602 11.82Z" fill="white"/> </g> <defs> <clipPath id="clip0_4482_3164"> <rect width="24" height="24" fill="white"/> </clipPath> </defs> </svg>