<svg width="24" height="24" viewBox="0 0 24 24" fill="none" xmlns="http://www.w3.org/2000/svg"> <g clip-path="url(#clip0_4482_1690)"> <path d="M12.3030 12.8901H11.6899C11.1399 12.8901 10.6899 13.3301 10.6899 13.8901V16.1601H13.3099V13.8901C13.3099 13.3301 12.8599 12.8901 12.3099 12.8901Z" fill="white"/> <path d="M12 2C6.5 2 2 6.5 2 12C2 17.5 6.5 22 12 22C17.5 22 22 17.5 22 12C22 6.5 17.5 2 12 2ZM17 14.95C17 16.06 16.1 16.95 15 16.95H9C7.9 16.95 7 16.06 7 14.95V11.38C7 10.76 7.28002 10.18 7.77002 9.8L10.77 7.46C11.49 6.9 12.51 6.9 13.23 7.46L16.23 9.8C16.72 10.18 17 10.76 17 11.38V14.95Z" fill="white"/> </g> <defs> <clipPath id="clip0_4482_1690"> <rect width="24" height="24" fill="white"/> </clipPath> </defs> <g opacity="0" fill="none" stroke="none" aria-hidden="true"><path d="M0.004 0.0075L0.0037 0.0015L0.0081 0.0036L0.0083 0.001L0.0074 0.0089L0.0004 0.0063L0.0049 0.0076L0.0077 0.0047L0.001 0.0099L0.0022 0.0018L0.0044 0.0086L0.0012 0.0083"/></g></svg>