<svg width="24" height="24" viewBox="0 0 24 24" fill="none" xmlns="http://www.w3.org/2000/svg"> <g clip-path="url(#clip0_4482_1687)"> <path d="M12.0071 2C6.5 2 2 6.5 2 12C2 17.5 6.5 22 12 22C17.5 22 22 17.5 22 12C22 6.5 17.5 2 12 2ZM17 15.04C17 16.14 16.1 17.04 15 17.04H9C7.9 17.04 7 16.14 7 15.04V11.46C7 10.84 7.27999 10.26 7.76999 9.88L10.77 7.55C11.49 6.99 12.5 6.99 13.23 7.55L16.23 9.88C16.72 10.26 17 10.84 17 11.46V15.04Z" fill="white"/> </g> <defs> <clipPath id="clip0_4482_1687"> <rect width="24" height="24" fill="white"/> </clipPath> </defs> <g opacity="0" fill="none" stroke="none" aria-hidden="true"><path d="M0.0085 0.0021L0.0086 0.0026L0.008 0.0097L0.0085 0.0092L0.0071 0.0026L0.0093 0.009L0.0054 0.0006L0.0033 0.0092L0.0088 0.0081L0.007 0.0064L0.0028 0.0055L0.0091 0.0069"/></g></svg>