<svg width="24" height="24" viewBox="0 0 24 24" fill="none" xmlns="http://www.w3.org/2000/svg"> <g clip-path="url(#clip0_4482_3208)"> <path d="M11.1499 22.75H7.1499C4.5299 22.75 2.3999 20.62 2.3999 18V6C2.3999 3.38 4.5299 1.25 7.1499 1.25H16.1499C18.7699 1.25 20.8999 3.38 20.8999 6V13C20.8999 13.41 20.5599 13.75 20.1499 13.75C19.7399 13.75 19.3999 13.41 19.3999 13V6C19.3999 4.21 17.9399 2.75 16.1499 2.75H7.1499C5.3599 2.75 3.8999 4.21 3.8999 6V18C3.8999 19.79 5.3599 21.25 7.1499 21.25H11.1499C11.5599 21.25 11.8999 21.59 11.8999 22C11.8999 22.41 11.5599 22.75 11.1499 22.75Z" fill="white"/> <path d="M17.1499 8.75H16.1499C14.6299 8.75 13.3999 7.52 13.3999 6V5C13.3999 4.59 13.7399 4.25 14.1499 4.25C14.5599 4.25 14.8999 4.59 14.8999 5V6C14.8999 6.69 15.4599 7.25 16.1499 7.25H17.1499C17.5599 7.25 17.8999 7.59 17.8999 8C17.8999 8.41 17.5599 8.75 17.1499 8.75Z" fill="white"/> <path d="M19.77 22.75C19.72 22.75 19.67 22.75 19.62 22.74L17.35 22.41C16.93 22.35 16.53 22.15 16.24 21.85L11 16.6C10.52 16.12 10.25 15.48 10.25 14.79C10.25 14.1 10.52 13.47 11 12.98C12 11.98 13.62 11.98 14.61 12.98L19.86 18.23C20.15 18.52 20.35 18.91 20.41 19.33L20.73 21.6C20.77 21.92 20.67 22.23 20.46 22.45C20.28 22.65 20.03 22.75 19.77 22.75ZM17.57 20.93L19.16 21.16L18.93 19.57C18.92 19.47 18.87 19.38 18.8 19.31L13.55 14.06C13.14 13.65 12.47 13.65 12.06 14.06C11.86 14.26 11.75 14.52 11.75 14.81C11.75 15.09 11.86 15.36 12.06 15.56L17.31 20.81C17.38 20.87 17.47 20.92 17.57 20.93Z" fill="white"/> </g> <defs> <clipPath id="clip0_4482_3208"> <rect width="24" height="24" fill="white"/> </clipPath> </defs> </svg>