<svg width="24" height="24" viewBox="0 0 24 24" fill="none" xmlns="http://www.w3.org/2000/svg"> <g clip-path="url(#clip0_4482_3233)"> <path d="M15.6603 20.6999C14.6303 20.6999 13.7803 19.8599 13.7803 18.8199C13.7803 17.7799 14.6203 16.9399 15.6603 16.9399C16.7003 16.9399 17.5403 17.7799 17.5403 18.8199C17.5403 19.8599 16.6903 20.6999 15.6603 20.6999ZM15.6603 18.4499C15.4503 18.4499 15.2803 18.6199 15.2803 18.8299C15.2803 19.0399 15.4503 19.2099 15.6603 19.2099C15.8703 19.2099 16.0403 19.0399 16.0403 18.8299C16.0403 18.6199 15.8603 18.4499 15.6603 18.4499Z" fill="white"/> <path d="M15.6601 23.2499C13.8501 23.2499 12.1401 22.1999 10.9801 20.3799C10.4201 19.5099 10.4201 18.1399 10.9801 17.2699C12.1401 15.4499 13.8501 14.3999 15.6601 14.3999C17.4701 14.3999 19.18 15.4499 20.34 17.2699C20.9 18.1399 20.9 19.5099 20.34 20.3799C19.17 22.1999 17.4701 23.2499 15.6601 23.2499ZM15.6601 15.8999C14.3701 15.8999 13.1301 16.6899 12.2501 18.0699C12.0101 18.4499 12.0101 19.1899 12.2501 19.5699C13.1301 20.9499 14.3701 21.7499 15.6601 21.7499C16.9501 21.7499 18.19 20.9599 19.07 19.5799C19.31 19.1999 19.31 18.4599 19.07 18.0799C18.19 16.6899 16.9401 15.8999 15.6601 15.8999Z" fill="white"/> <path d="M9.1499 22.75H7.1499C4.5299 22.75 2.3999 20.62 2.3999 18V6C2.3999 3.38 4.5299 1.25 7.1499 1.25H16.1499C18.7699 1.25 20.8999 3.38 20.8999 6V14C20.8999 14.41 20.5599 14.75 20.1499 14.75C19.7399 14.75 19.3999 14.41 19.3999 14V6C19.3999 4.21 17.9399 2.75 16.1499 2.75H7.1499C5.3599 2.75 3.8999 4.21 3.8999 6V18C3.8999 19.79 5.3599 21.25 7.1499 21.25H9.1499C9.5599 21.25 9.8999 21.59 9.8999 22C9.8999 22.41 9.5599 22.75 9.1499 22.75Z" fill="white"/> <path d="M17.1499 8.75H16.1499C14.6299 8.75 13.3999 7.52 13.3999 6V5C13.3999 4.59 13.7399 4.25 14.1499 4.25C14.5599 4.25 14.8999 4.59 14.8999 5V6C14.8999 6.69 15.4599 7.25 16.1499 7.25H17.1499C17.5599 7.25 17.8999 7.59 17.8999 8C17.8999 8.41 17.5599 8.75 17.1499 8.75Z" fill="white"/> </g> <defs> <clipPath id="clip0_4482_3233"> <rect width="24" height="24" fill="white"/> </clipPath> </defs> </svg>