<svg width="24" height="24" viewBox="0 0 24 24" fill="none" xmlns="http://www.w3.org/2000/svg"> <g clip-path="url(#clip0_4482_7880)"> <path d="M10.3296 15.5299C9.83959 15.5299 9.37959 15.3399 9.01959 14.9899C8.59959 14.5699 8.40959 13.9999 8.48959 13.4099L9.12959 8.96995C9.22959 8.26995 9.70959 7.68995 10.3796 7.46995C11.0496 7.23995 11.7796 7.41995 12.2896 7.91995L16.0996 11.7299C16.5996 12.2299 16.7696 12.9599 16.5496 13.6399C16.3296 14.3199 15.7496 14.7899 15.0496 14.8899L10.6096 15.5199C10.5196 15.5299 10.4296 15.5399 10.3396 15.5399L10.3296 15.5299ZM10.9796 8.85995C10.9296 8.85995 10.8896 8.86995 10.8596 8.87995C10.7996 8.89995 10.6496 8.96995 10.6196 9.16995L9.97959 13.6099C9.95959 13.7699 10.0296 13.8699 10.0796 13.9199C10.1296 13.9699 10.2296 14.0399 10.3896 14.0199L14.8296 13.3899C15.0296 13.3599 15.0996 13.2099 15.1196 13.1499C15.1396 13.0899 15.1796 12.9199 15.0296 12.7799L11.2196 8.96995C11.1396 8.88995 11.0396 8.85995 10.9696 8.85995H10.9796Z" fill="white"/> <path d="M12 22.75C6.07 22.75 1.25 17.93 1.25 12C1.25 6.07 6.07 1.25 12 1.25C17.93 1.25 22.75 6.07 22.75 12C22.75 17.93 17.93 22.75 12 22.75ZM12 2.75C6.9 2.75 2.75 6.9 2.75 12C2.75 17.1 6.9 21.25 12 21.25C17.1 21.25 21.25 17.1 21.25 12C21.25 6.9 17.1 2.75 12 2.75Z" fill="white"/> </g> <defs> <clipPath id="clip0_4482_7880"> <rect width="24" height="24" fill="white"/> </clipPath> </defs> </svg>