<svg width="24" height="24" viewBox="0 0 24 24" fill="none" xmlns="http://www.w3.org/2000/svg"> <g clip-path="url(#clip0_4482_477)"> <path d="M16.2371 9.89014L13.23 7.56014C12.51 7.00014 11.5 7.00014 10.77 7.56014L7.76999 9.89014C7.27999 10.2701 7 10.8501 7 11.4701V15.0501C7 16.1501 7.9 17.0501 9 17.0501H15C16.1 17.0501 17 16.1501 17 15.0501V11.4701C17 10.8501 16.72 10.2701 16.23 9.89014Z" stroke="white" stroke-width="1.5"/> <path d="M12 22C6.5 22 2 17.5 2 12C2 6.5 6.5 2 12 2C17.5 2 22 6.5 22 12C22 17.5 17.5 22 12 22Z" stroke="white" stroke-width="1.5" stroke-linecap="round" stroke-linejoin="round"/> </g> <defs> <clipPath id="clip0_4482_477"> <rect width="24" height="24" fill="white"/> </clipPath> </defs> <g opacity="0" fill="none" stroke="none" aria-hidden="true"><path d="M0.0007 0.0085L0.0036 0.0094L0.0019 0.0004L0.0085 0.0029L0.0093 0L0.0068 0.0093L0.0016 0.0004L0.0046 0.009L0.0097 0.0069L0.0073 0.01L0.006 0.0058L0.0042 0.0027"/></g></svg>