<svg width="24" height="24" viewBox="0 0 24 24" fill="none" xmlns="http://www.w3.org/2000/svg"> <g clip-path="url(#clip0_4482_478)"> <path d="M7.33490 9.41016V15.2702C7.33002 16.4702 8.31001 17.4502 9.51001 17.4502H14.55C15.75 17.4502 16.73 16.4702 16.73 15.2702V9.41016" stroke="white" stroke-width="1.5" stroke-linecap="round" stroke-linejoin="round"/> <path d="M6 10.29L11.19 6.81997C11.75 6.44997 12.48 6.44997 13.03 6.83997L17.99 10.29" stroke="white" stroke-width="1.5" stroke-linecap="round" stroke-linejoin="round"/> <path d="M12 22C6.5 22 2 17.5 2 12C2 6.5 6.5 2 12 2C17.5 2 22 6.5 22 12C22 17.5 17.5 22 12 22Z" stroke="white" stroke-width="1.5" stroke-linecap="round" stroke-linejoin="round"/> </g> <defs> <clipPath id="clip0_4482_478"> <rect width="24" height="24" fill="white"/> </clipPath> </defs> <g opacity="0" fill="none" stroke="none" aria-hidden="true"><path d="M0.0037 0.0018L0.0045 0.0096L0.0033 0.0009L0.0076 0.0006L0.0078 0.002L0.01 0.0054L0.0074 0.0078L0.0021 0.0048L0.0005 0.0044L0.0088 0.0023L0 0.0045L0.0098 0.0009"/></g></svg>