<svg width="24" height="24" viewBox="0 0 24 24" fill="none" xmlns="http://www.w3.org/2000/svg"> <g clip-path="url(#clip0_4482_466)"> <path d="M20.4685 7.69018L14.46 3.02018C13.02 1.90018 10.99 1.90018 9.55 3.02018L3.55 7.69018C2.57 8.45018 2 9.61018 2 10.8502V18.0002C2 20.2102 3.79 22.0002 6 22.0002H18C20.21 22.0002 22 20.2102 22 18.0002V10.8502C22 9.61018 21.43 8.45018 20.46 7.69018Z" stroke="white" stroke-width="1.5"/> <path d="M9 17H15" stroke="white" stroke-width="1.5" stroke-linecap="round"/> </g> <defs> <clipPath id="clip0_4482_466"> <rect width="24" height="24" fill="white"/> </clipPath> </defs> <g opacity="0" fill="none" stroke="none" aria-hidden="true"><path d="M0.0023 0.008L0.0028 0.0052L0.0049 0.0043L0.0042 0.0038L0.0024 0.0013L0.0035 0.0041L0.0081 0.0069L0.0007 0.0033L0.0067 0.0051L0.0093 0.004L0.009 0.0084L0.0051 0.0046"/></g></svg>