<svg width="24" height="24" viewBox="0 0 24 24" fill="none" xmlns="http://www.w3.org/2000/svg"> <g clip-path="url(#clip0_4482_470)"> <path d="M20.7560 7.2102V2.7002C20.75 2.4202 20.53 2.2002 20.25 2.2002H17.25C16.97 2.2002 16.75 2.4202 16.75 2.7002V4.3102" stroke="white" stroke-width="1.5" stroke-linecap="round" stroke-linejoin="round"/> <path d="M3.44 7.25977V17.9998C3.44 20.2098 5.23 21.9998 7.44 21.9998H16.68C18.89 21.9998 20.68 20.2098 20.68 17.9998V7.25977" stroke="white" stroke-width="1.5" stroke-linecap="round" stroke-linejoin="round"/> <path d="M1 8.86984L10.52 2.50984C11.55 1.81984 12.89 1.83984 13.9 2.53984L23 8.86984" stroke="white" stroke-width="1.5" stroke-linecap="round" stroke-linejoin="round"/> </g> <defs> <clipPath id="clip0_4482_470"> <rect width="24" height="24" fill="white"/> </clipPath> </defs> <g opacity="0" fill="none" stroke="none" aria-hidden="true"><path d="M0.0042 0.0069L0.0007 0.0017L0.0041 0.0083L0.0068 0.0013L0.0064 0.0087L0.0085 0.0038L0.0004 0.0067L0.0095 0.0005L0.006 0.0055L0.0066 0.0021L0.0036 0.0084L0.0002 0.0064"/></g></svg>