<svg width="24" height="24" viewBox="0 0 24 24" fill="none" xmlns="http://www.w3.org/2000/svg"> <g clip-path="url(#clip0_4482_469)"> <path d="M9.0033 17H15" stroke="white" stroke-width="1.5" stroke-linecap="round"/> <path d="M3.44 7.25977V17.9998C3.44 20.2098 5.23 21.9998 7.44 21.9998H16.68C18.89 21.9998 20.68 20.2098 20.68 17.9998V7.25977" stroke="white" stroke-width="1.5" stroke-linecap="round" stroke-linejoin="round"/> <path d="M1 8.86984L10.52 2.50984C11.55 1.81984 12.89 1.83984 13.9 2.53984L23 8.86984" stroke="white" stroke-width="1.5" stroke-linecap="round" stroke-linejoin="round"/> </g> <defs> <clipPath id="clip0_4482_469"> <rect width="24" height="24" fill="white"/> </clipPath> </defs> <g opacity="0" fill="none" stroke="none" aria-hidden="true"><path d="M0.0091 0.0067L0.0079 0.0085L0.0059 0.0064L0.0006 0.0025L0.0095 0.0027L0.0079 0.0016L0.0082 0.0016L0.0024 0.0064L0.0046 0.01L0.0019 0.0084L0.0014 0.0063L0.0005 0.0014"/></g></svg>