<svg width="24" height="24" viewBox="0 0 24 24" fill="none" xmlns="http://www.w3.org/2000/svg"> <g clip-path="url(#clip0_4482_497)"> <path d="M20.5034 6V18C20.5 20.2 18.7 22 16.5 22H7.5C5.3 22 3.5 20.2 3.5 18V6C3.5 3.8 5.3 2 7.5 2H16.5C18.7 2 20.5 3.8 20.5 6Z" stroke="white" stroke-width="1.5" stroke-linejoin="round"/> <path d="M14.63 7.37998L12.77 5.92998C12.32 5.57998 11.69 5.57998 11.24 5.92998L9.38 7.37998C9.08 7.61998 8.90002 7.97998 8.90002 8.35998V10.58C8.90002 11.27 9.46001 11.82 10.14 11.82H13.87C14.56 11.82 15.11 11.26 15.11 10.58V8.35998C15.11 7.97998 14.93 7.61998 14.63 7.37998Z" stroke="white" stroke-width="1.5"/> <path d="M10.1899 15.3301H14.1899" stroke="white" stroke-width="1.5" stroke-linecap="round" stroke-linejoin="round"/> <path d="M10.1899 18.3301H14.1899" stroke="white" stroke-width="1.5" stroke-linecap="round" stroke-linejoin="round"/> </g> <defs> <clipPath id="clip0_4482_497"> <rect width="24" height="24" fill="white"/> </clipPath> </defs> <g opacity="0" fill="none" stroke="none" aria-hidden="true"><path d="M0.0056 0.0087L0.0042 0.0036L0.0042 0.0093L0.0053 0.0051L0.0056 0.0025L0.0026 0.0071L0.0047 0.002L0.0085 0.0054L0.0048 0.0054L0.0078 0.0055L0.002 0.0008L0.0059 0.0098"/></g></svg>