<svg width="24" height="24" viewBox="0 0 24 24" fill="none" xmlns="http://www.w3.org/2000/svg"> <g clip-path="url(#clip0_4482_476)"> <path d="M13.3019 16.77H10.6899V14.5C10.6899 13.95 11.1399 13.5 11.6899 13.5H12.3099C12.8599 13.5 13.3099 13.95 13.3099 14.5V16.77Z" stroke="white" stroke-width="1.5" stroke-linecap="round" stroke-linejoin="round"/> <path d="M16.23 9.89014L13.23 7.56014C12.51 7.00014 11.5 7.00014 10.77 7.56014L7.76999 9.89014C7.27999 10.2701 7 10.8501 7 11.4701V15.0501C7 16.1501 7.9 17.0501 9 17.0501H15C16.1 17.0501 17 16.1501 17 15.0501V11.4701C17 10.8501 16.72 10.2701 16.23 9.89014Z" stroke="white" stroke-width="1.5"/> <path d="M17 22H7C4.25 22 2 19.75 2 17V7C2 4.25 4.25 2 7 2H17C19.75 2 22 4.25 22 7V17C22 19.75 19.75 22 17 22Z" stroke="white" stroke-width="1.5" stroke-linecap="round" stroke-linejoin="round"/> </g> <defs> <clipPath id="clip0_4482_476"> <rect width="24" height="24" fill="white"/> </clipPath> </defs> <g opacity="0" fill="none" stroke="none" aria-hidden="true"><path d="M0.0075 0.0033L0.0099 0.0042L0.0062 0.0034L0.0063 0.0062L0.0078 0.0005L0.0081 0.0078L0.0076 0.0031L0.0088 0.006L0.0096 0.0086L0.0071 0.0052L0.0029 0.0076L0.0017 0.0077"/></g></svg>