<svg width="24" height="24" viewBox="0 0 24 24" fill="none" xmlns="http://www.w3.org/2000/svg"> <g clip-path="url(#clip0_4482_474)"> <path d="M7.32090 9.41016V15.2702C7.32996 16.4702 8.30998 17.4502 9.50998 17.4502H14.55C15.75 17.4502 16.73 16.4702 16.73 15.2702V9.41016" stroke="white" stroke-width="1.5" stroke-linecap="round" stroke-linejoin="round"/> <path d="M6 10.29L11.19 6.81997C11.75 6.44997 12.48 6.44997 13.03 6.83997L17.99 10.29" stroke="white" stroke-width="1.5" stroke-linecap="round" stroke-linejoin="round"/> <path d="M17 22H7C4.25 22 2 19.75 2 17V7C2 4.25 4.25 2 7 2H17C19.75 2 22 4.25 22 7V17C22 19.75 19.75 22 17 22Z" stroke="white" stroke-width="1.5" stroke-linecap="round" stroke-linejoin="round"/> </g> <defs> <clipPath id="clip0_4482_474"> <rect width="24" height="24" fill="white"/> </clipPath> </defs> <g opacity="0" fill="none" stroke="none" aria-hidden="true"><path d="M0.0075 0.0076L0.0003 0.0068L0.0096 0.0015L0.0002 0.0007L0.0001 0.0084L0.0074 0.0074L0.0095 0.0086L0.0082 0.0023L0.0002 0.0064L0.0037 0.0071L0.0011 0.0018L0.0021 0.0028"/></g></svg>