<svg width="24" height="24" viewBox="0 0 24 24" fill="none" xmlns="http://www.w3.org/2000/svg"> <g clip-path="url(#clip0_4482_473)"> <path d="M16.2327 9.89014L13.23 7.56014C12.51 7.00014 11.5 7.00014 10.77 7.56014L7.76999 9.89014C7.27999 10.2701 7 10.8501 7 11.4701V15.0501C7 16.1501 7.9 17.0501 9 17.0501H15C16.1 17.0501 17 16.1501 17 15.0501V11.4701C17 10.8501 16.72 10.2701 16.23 9.89014Z" stroke="white" stroke-width="1.5"/> <path d="M17 22H7C4.25 22 2 19.75 2 17V7C2 4.25 4.25 2 7 2H17C19.75 2 22 4.25 22 7V17C22 19.75 19.75 22 17 22Z" stroke="white" stroke-width="1.5" stroke-linecap="round" stroke-linejoin="round"/> </g> <defs> <clipPath id="clip0_4482_473"> <rect width="24" height="24" fill="white"/> </clipPath> </defs> <g opacity="0" fill="none" stroke="none" aria-hidden="true"><path d="M0.0028 0.0099L0.0054 0.0038L0.0017 0.0031L0.006 0.01L0.0031 0.006L0.0082 0.0029L0.0059 0.006L0.0082 0.0052L0.0074 0.0046L0 0.0056L0.0021 0.0069L0.0011 0.007"/></g></svg>