<svg width="24" height="24" viewBox="0 0 24 24" fill="none" xmlns="http://www.w3.org/2000/svg"> <g clip-path="url(#clip0_4482_744)"> <path opacity="0.4" d="M15.16 7.33994C15.16 10.1899 12.8401 12.4999 10.0001 12.4999C7.16006 12.4999 4.84009 10.1899 4.84009 7.33994C4.84009 4.49994 7.16006 2.18994 10.0001 2.18994C12.8401 2.18994 15.16 4.49994 15.16 7.33994Z" fill="white"/> <path d="M18 22.06C17.59 22.06 17.25 21.72 17.25 21.31C17.25 18.13 14 15.54 10 15.54C6 15.54 2.75 18.13 2.75 21.31C2.75 21.72 2.41 22.06 2 22.06C1.59 22.06 1.25 21.72 1.25 21.31C1.25 17.3 5.17 14.04 10 14.04C14.83 14.04 18.75 17.3 18.75 21.31C18.75 21.73 18.41 22.06 18 22.06Z" fill="white"/> <path d="M21.38 11.66C20.97 11.66 20.63 11.32 20.63 10.91V10.37C20.63 9.68 20.07 9.12 19.38 9.12C18.69 9.12 18.13 9.68 18.13 10.37V10.91C18.13 11.32 17.79 11.66 17.38 11.66C16.97 11.66 16.63 11.32 16.63 10.91V10.37C16.63 8.85 17.86 7.62 19.38 7.62C20.9 7.62 22.13 8.85 22.13 10.37V10.91C22.13 11.32 21.8 11.66 21.38 11.66Z" fill="white"/> <path d="M19.4 16.38C17.88 16.38 16.65 15.15 16.65 13.63V13.09C16.65 12.68 16.99 12.34 17.4 12.34C17.81 12.34 18.15 12.68 18.15 13.09V13.63C18.15 14.32 18.71 14.88 19.4 14.88C20.09 14.88 20.65 14.32 20.65 13.63V13.09C20.65 12.68 20.99 12.34 21.4 12.34C21.81 12.34 22.15 12.68 22.15 13.09V13.63C22.15 15.15 20.92 16.38 19.4 16.38Z" fill="white"/> <path d="M19.39 14.19C18.98 14.19 18.64 13.85 18.64 13.44V10.54C18.64 10.13 18.98 9.79004 19.39 9.79004C19.8 9.79004 20.14 10.13 20.14 10.54V13.44C20.14 13.85 19.81 14.19 19.39 14.19Z" fill="white"/> </g> <defs> <clipPath id="clip0_4482_744"> <rect width="24" height="24" fill="white"/> </clipPath> </defs> </svg>