<svg width="24" height="24" viewBox="0 0 24 24" fill="none" xmlns="http://www.w3.org/2000/svg"> <g clip-path="url(#clip0_4482_747)"> <path opacity="0.4" d="M15.16 7.33994C15.16 10.1899 12.8401 12.4999 10.0001 12.4999C7.16006 12.4999 4.84009 10.1899 4.84009 7.33994C4.84009 4.49994 7.16006 2.18994 10.0001 2.18994C12.8401 2.18994 15.16 4.49994 15.16 7.33994Z" fill="white"/> <path d="M18 22.06C17.59 22.06 17.25 21.72 17.25 21.31C17.25 18.13 14 15.54 10 15.54C6 15.54 2.75 18.13 2.75 21.31C2.75 21.72 2.41 22.06 2 22.06C1.59 22.06 1.25 21.72 1.25 21.31C1.25 17.3 5.17 14.04 10 14.04C14.83 14.04 18.75 17.3 18.75 21.31C18.75 21.73 18.41 22.06 18 22.06Z" fill="white"/> <path d="M21 13.58H17C16.7 13.58 16.42 13.4 16.31 13.12C16.19 12.84 16.26 12.52 16.47 12.3L18.13 10.64C18.42 10.35 18.9 10.35 19.19 10.64C19.48 10.93 19.48 11.41 19.19 11.7L18.81 12.08H21C21.41 12.08 21.75 12.42 21.75 12.83C21.75 13.24 21.41 13.58 21 13.58Z" fill="white"/> </g> <defs> <clipPath id="clip0_4482_747"> <rect width="24" height="24" fill="white"/> </clipPath> </defs> </svg>