<svg width="24" height="24" viewBox="0 0 24 24" fill="none" xmlns="http://www.w3.org/2000/svg"> <g clip-path="url(#clip0_4482_735)"> <path opacity="0.4" d="M18 20H6C3.8 20 2 18.2 2 16V8C2 5.8 3.8 4 6 4H18C20.2 4 22 5.8 22 8V16C22 18.2 20.2 20 18 20Z" fill="white"/> <path d="M9.00003 11C10.01 11 10.83 10.18 10.83 9.16997C10.83 8.15997 10.01 7.33997 9.00003 7.33997C7.99003 7.33997 7.17004 8.15997 7.17004 9.16997C7.17004 10.18 7.99003 11 9.00003 11Z" fill="white"/> <path d="M9.00003 11.5C7.72003 11.5 6.67004 10.46 6.67004 9.16997C6.67004 7.87997 7.71003 6.83997 9.00003 6.83997C10.29 6.83997 11.33 7.87997 11.33 9.16997C11.33 10.46 10.28 11.5 9.00003 11.5ZM9.00003 7.83997C8.27003 7.83997 7.67004 8.43997 7.67004 9.16997C7.67004 9.89997 8.27003 10.5 9.00003 10.5C9.73003 10.5 10.33 9.89997 10.33 9.16997C10.33 8.43997 9.73003 7.83997 9.00003 7.83997Z" fill="white"/> <path d="M12.5 17.41C12.09 17.41 11.75 17.07 11.75 16.66C11.75 15.28 10.52 14.15 9 14.15C7.48 14.15 6.25 15.27 6.25 16.66C6.25 17.07 5.91 17.41 5.5 17.41C5.09 17.41 4.75 17.07 4.75 16.66C4.75 14.45 6.66 12.65 9 12.65C11.34 12.65 13.25 14.45 13.25 16.66C13.25 17.07 12.91 17.41 12.5 17.41Z" fill="white"/> <path d="M18.5 9.75H14.5C14.09 9.75 13.75 9.41 13.75 9C13.75 8.59 14.09 8.25 14.5 8.25H18.5C18.91 8.25 19.25 8.59 19.25 9C19.25 9.41 18.91 9.75 18.5 9.75Z" fill="white"/> <path d="M17.5 13.25H14.5C14.09 13.25 13.75 12.91 13.75 12.5C13.75 12.09 14.09 11.75 14.5 11.75H17.5C17.91 11.75 18.25 12.09 18.25 12.5C18.25 12.91 17.91 13.25 17.5 13.25Z" fill="white"/> </g> <defs> <clipPath id="clip0_4482_735"> <rect width="24" height="24" fill="white"/> </clipPath> </defs> </svg>