<svg width="24" height="24" viewBox="0 0 24 24" fill="none" xmlns="http://www.w3.org/2000/svg"> <g clip-path="url(#clip0_4482_739)"> <path opacity="0.4" d="M15.1601 7.33994C15.1601 10.1899 12.8401 12.4999 10.0001 12.4999C7.16009 12.4999 4.84009 10.1899 4.84009 7.33994C4.84009 4.49994 7.16009 2.18994 10.0001 2.18994C12.8401 2.18994 15.1601 4.49994 15.1601 7.33994Z" fill="white"/> <path d="M18 22.06C17.59 22.06 17.25 21.72 17.25 21.31C17.25 18.13 14 15.54 10 15.54C6 15.54 2.75 18.13 2.75 21.31C2.75 21.72 2.41 22.06 2 22.06C1.59 22.06 1.25 21.72 1.25 21.31C1.25 17.3 5.18 14.04 10 14.04C14.82 14.04 18.75 17.3 18.75 21.31C18.75 21.73 18.41 22.06 18 22.06Z" fill="white"/> <path d="M17.6601 14.03C17.4701 14.03 17.2801 13.96 17.1301 13.81C16.8401 13.52 16.8401 13.04 17.1301 12.75L20.3101 9.57004C20.6001 9.28004 21.0801 9.28004 21.3701 9.57004C21.6601 9.86004 21.6601 10.34 21.3701 10.63L18.1901 13.81C18.0401 13.95 17.8501 14.03 17.6601 14.03Z" fill="white"/> <path d="M20.8401 14.03C20.6501 14.03 20.4601 13.96 20.3101 13.81L17.1301 10.63C16.8401 10.34 16.8401 9.86004 17.1301 9.57004C17.4201 9.28004 17.9001 9.28004 18.1901 9.57004L21.3701 12.75C21.6601 13.04 21.6601 13.52 21.3701 13.81C21.2201 13.95 21.0301 14.03 20.8401 14.03Z" fill="white"/> </g> <defs> <clipPath id="clip0_4482_739"> <rect width="24" height="24" fill="white"/> </clipPath> </defs> </svg>