<svg width="24" height="24" viewBox="0 0 24 24" fill="none" xmlns="http://www.w3.org/2000/svg"> <g clip-path="url(#clip0_4482_740)"> <path d="M20.22 10.45L21.8201 11.09C22.2401 11.26 22.2401 11.53 21.8201 11.7L20.22 12.34L19.58 13.94C19.41 14.34 19.14 14.34 18.97 13.94L18.33 12.34L16.7301 11.7C16.3301 11.53 16.3301 11.26 16.7301 11.09L18.33 10.45L18.97 8.84997C19.14 8.41997 19.41 8.41997 19.58 8.84997L20.22 10.45Z" fill="white"/> <path opacity="0.4" d="M15.16 7.33994C15.16 10.1899 12.84 12.4999 9.99997 12.4999C7.15997 12.4999 4.83997 10.1899 4.83997 7.33994C4.83997 4.49994 7.15997 2.18994 9.99997 2.18994C12.84 2.18994 15.16 4.49994 15.16 7.33994Z" fill="white"/> <path d="M18 22.06C17.59 22.06 17.25 21.72 17.25 21.31C17.25 18.13 14 15.54 10 15.54C6 15.54 2.75 18.13 2.75 21.31C2.75 21.72 2.41 22.06 2 22.06C1.59 22.06 1.25 21.72 1.25 21.31C1.25 17.3 5.18 14.04 10 14.04C14.82 14.04 18.75 17.3 18.75 21.31C18.75 21.73 18.41 22.06 18 22.06Z" fill="white"/> </g> <defs> <clipPath id="clip0_4482_740"> <rect width="24" height="24" fill="white"/> </clipPath> </defs> </svg>