<svg width="24" height="24" viewBox="0 0 24 24" fill="none" xmlns="http://www.w3.org/2000/svg"> <g clip-path="url(#clip0_4482_753)"> <path opacity="0.4" d="M22 6V18C22 20.2 20.2 22 18 22H8.85999C6.65999 22 4.85999 20.2 4.85999 18V15.81H5.70999C6.80999 15.81 7.70999 14.91 7.70999 13.81V9.24C7.70999 8.14 6.80999 7.24 5.70999 7.24H4.85999V6C4.85999 3.8 6.65999 2 8.85999 2H18C20.2 2 22 3.8 22 6Z" fill="white"/> <path d="M18.7 17.75C18.29 17.75 17.95 17.41 17.95 17C17.95 15.62 16.49 14.49 14.7 14.49C12.91 14.49 11.45 15.61 11.45 17C11.45 17.41 11.11 17.75 10.7 17.75C10.29 17.75 9.94995 17.41 9.94995 17C9.94995 14.79 12.08 12.99 14.7 12.99C17.32 12.99 19.45 14.79 19.45 17C19.45 17.41 19.11 17.75 18.7 17.75Z" fill="white"/> <path d="M14.76 10.99C15.86 10.99 16.75 10.1 16.75 9C16.75 7.9 15.86 7 14.76 7C13.66 7 12.77 7.89 12.77 8.99C12.77 10.09 13.65 10.99 14.76 10.99Z" fill="white"/> <path d="M14.76 11.36C13.45 11.36 12.39 10.3 12.39 8.99C12.39 7.68 13.45 6.62 14.76 6.62C16.07 6.62 17.13 7.68 17.13 8.99C17.13 10.3 16.06 11.36 14.76 11.36ZM14.76 7.38C13.87 7.38 13.14 8.11 13.14 9C13.14 9.89 13.87 10.62 14.76 10.62C15.65 10.62 16.38 9.89 16.38 9C16.38 8.1 15.65 7.38 14.76 7.38Z" fill="white"/> <path d="M7.71001 9.23999V13.81C7.71001 14.91 6.81001 15.81 5.71001 15.81H4C2.9 15.81 2 14.91 2 13.81V9.23999C2 8.13999 2.9 7.23999 4 7.23999H5.71001C6.81001 7.23999 7.71001 8.13999 7.71001 9.23999Z" fill="white"/> </g> <defs> <clipPath id="clip0_4482_753"> <rect width="24" height="24" fill="white"/> </clipPath> </defs> </svg>