<svg width="24" height="24" viewBox="0 0 24 24" fill="none" xmlns="http://www.w3.org/2000/svg"> <g clip-path="url(#clip0_4482_741)"> <path opacity="0.4" d="M15.16 7.33994C15.16 10.1899 12.8401 12.4999 10.0001 12.4999C7.16006 12.4999 4.84009 10.1899 4.84009 7.33994C4.84009 4.49994 7.16006 2.18994 10.0001 2.18994C12.8401 2.18994 15.16 4.49994 15.16 7.33994Z" fill="white"/> <path d="M18 22.06C17.59 22.06 17.25 21.72 17.25 21.31C17.25 18.13 14 15.54 10 15.54C6 15.54 2.75 18.13 2.75 21.31C2.75 21.72 2.41 22.06 2 22.06C1.59 22.06 1.25 21.72 1.25 21.31C1.25 17.3 5.17 14.04 10 14.04C14.83 14.04 18.75 17.3 18.75 21.31C18.75 21.73 18.41 22.06 18 22.06Z" fill="white"/> <path d="M21.16 11.08L19.6301 12.81C19.5001 12.94 19.3301 13.05 19.1501 13.1L17.8101 13.4C17.5201 13.46 17.2901 13.28 17.3101 12.98L17.3901 11.61C17.4001 11.42 17.47 11.23 17.61 11.09L19.1401 9.35998C19.6101 8.79998 20.4601 8.72998 21.0201 9.20998C21.5701 9.67998 21.64 10.52 21.16 11.08Z" fill="white"/> </g> <defs> <clipPath id="clip0_4482_741"> <rect width="24" height="24" fill="white"/> </clipPath> </defs> </svg>