<svg width="24" height="24" viewBox="0 0 24 24" fill="none" xmlns="http://www.w3.org/2000/svg"> <g clip-path="url(#clip0_4482_742)"> <path opacity="0.4" d="M15.16 7.33994C15.16 10.1899 12.8401 12.4999 10.0001 12.4999C7.16006 12.4999 4.84009 10.1899 4.84009 7.33994C4.84009 4.49994 7.16006 2.18994 10.0001 2.18994C12.8401 2.18994 15.16 4.49994 15.16 7.33994Z" fill="white"/> <path d="M18 22.06C17.59 22.06 17.25 21.72 17.25 21.31C17.25 18.13 14 15.54 10 15.54C6 15.54 2.75 18.13 2.75 21.31C2.75 21.72 2.41 22.06 2 22.06C1.59 22.06 1.25 21.72 1.25 21.31C1.25 17.3 5.17 14.04 10 14.04C14.83 14.04 18.75 17.3 18.75 21.31C18.75 21.73 18.41 22.06 18 22.06Z" fill="white"/> <path d="M21.58 9.7C21.29 9.41 20.81 9.41 20.52 9.7L16.98 13.24C16.68 13.53 16.68 14.01 16.98 14.3C16.4 13.71 16.03 12.9 16.03 12C16.03 10.21 17.49 8.75 19.28 8.75C20.18 8.75 20.99 9.12 21.58 9.7Z" fill="white"/> <path d="M22.53 12C22.53 13.79 21.07 15.25 19.28 15.25C18.38 15.25 17.57 14.88 16.98 14.3C17.12 14.45 17.32 14.52 17.51 14.52C17.7 14.52 17.89 14.45 18.04 14.3L21.58 10.76C21.87 10.47 21.87 9.98995 21.58 9.69995C22.16 10.29 22.53 11.1 22.53 12Z" fill="white"/> <path d="M19.28 15.25C17.49 15.25 16.03 13.79 16.03 12C16.03 10.21 17.49 8.75 19.28 8.75C21.07 8.75 22.53 10.21 22.53 12C22.53 13.79 21.07 15.25 19.28 15.25ZM19.28 10.25C18.32 10.25 17.53 11.04 17.53 12C17.53 12.96 18.32 13.75 19.28 13.75C20.24 13.75 21.03 12.96 21.03 12C21.03 11.04 20.24 10.25 19.28 10.25Z" fill="white"/> </g> <defs> <clipPath id="clip0_4482_742"> <rect width="24" height="24" fill="white"/> </clipPath> </defs> </svg>