<svg width="24" height="24" viewBox="0 0 24 24" fill="none" xmlns="http://www.w3.org/2000/svg"> <g clip-path="url(#clip0_4482_748)"> <path opacity="0.4" d="M15.16 7.33994C15.16 10.1899 12.8401 12.4999 10.0001 12.4999C7.16006 12.4999 4.84009 10.1899 4.84009 7.33994C4.84009 4.49994 7.16006 2.18994 10.0001 2.18994C12.8401 2.18994 15.16 4.49994 15.16 7.33994Z" fill="white"/> <path d="M18 22.06C17.59 22.06 17.25 21.72 17.25 21.31C17.25 18.13 14 15.54 10 15.54C6 15.54 2.75 18.13 2.75 21.31C2.75 21.72 2.41 22.06 2 22.06C1.59 22.06 1.25 21.72 1.25 21.31C1.25 17.3 5.17 14.04 10 14.04C14.83 14.04 18.75 17.3 18.75 21.31C18.75 21.73 18.41 22.06 18 22.06Z" fill="white"/> <path d="M21.4699 11.58H17.4699C17.1699 11.58 16.89 11.4 16.78 11.12C16.66 10.84 16.7299 10.52 16.9399 10.3L18.5999 8.63999C18.8899 8.34999 19.3699 8.34999 19.6599 8.63999C19.9499 8.92999 19.9499 9.40998 19.6599 9.69998L19.28 10.08H21.4699C21.8799 10.08 22.2199 10.42 22.2199 10.83C22.2199 11.24 21.8799 11.58 21.4699 11.58Z" fill="white"/> <path d="M19.81 15.58C19.62 15.58 19.43 15.51 19.28 15.36C18.99 15.07 18.99 14.59 19.28 14.3L19.66 13.92H17.47C17.06 13.92 16.72 13.58 16.72 13.17C16.72 12.76 17.06 12.42 17.47 12.42H21.47C21.77 12.42 22.05 12.6 22.16 12.88C22.28 13.16 22.21 13.48 22 13.7L20.34 15.36C20.19 15.51 20 15.58 19.81 15.58Z" fill="white"/> </g> <defs> <clipPath id="clip0_4482_748"> <rect width="24" height="24" fill="white"/> </clipPath> </defs> </svg>