<svg width="24" height="24" viewBox="0 0 24 24" fill="none" xmlns="http://www.w3.org/2000/svg"> <g clip-path="url(#clip0_4482_665)"> <path opacity="0.4" d="M17 22H7C4.25 22 2 19.75 2 17V7C2 4.25 4.25 2 7 2H17C19.75 2 22 4.25 22 7V17C22 19.75 19.75 22 17 22Z" fill="white"/> <path d="M9.5 11.5H9C7.48 11.5 6.25 10.27 6.25 8.75V8.25C6.25 6.73 7.48 5.5 9 5.5H9.5C11.02 5.5 12.25 6.73 12.25 8.25V8.75C12.25 10.27 11.02 11.5 9.5 11.5ZM9 7C8.31 7 7.75 7.56 7.75 8.25V8.75C7.75 9.44 8.31 10 9 10H9.5C10.19 10 10.75 9.44 10.75 8.75V8.25C10.75 7.56 10.19 7 9.5 7H9Z" fill="white"/> <path d="M17 14.5H7C6.59 14.5 6.25 14.16 6.25 13.75C6.25 13.34 6.59 13 7 13H17C17.41 13 17.75 13.34 17.75 13.75C17.75 14.16 17.41 14.5 17 14.5Z" fill="white"/> <path d="M12.83 18.5H7C6.59 18.5 6.25 18.16 6.25 17.75C6.25 17.34 6.59 17 7 17H12.83C13.24 17 13.58 17.34 13.58 17.75C13.58 18.16 13.25 18.5 12.83 18.5Z" fill="white"/> </g> <defs> <clipPath id="clip0_4482_665"> <rect width="24" height="24" fill="white"/> </clipPath> </defs> </svg>