<svg width="24" height="24" viewBox="0 0 24 24" fill="none" xmlns="http://www.w3.org/2000/svg"> <g clip-path="url(#clip0_4482_736)"> <path opacity="0.4" d="M22 9V18C22 20.2 20.2 22 18 22H6C3.8 22 2 20.2 2 18V9C2 6.8 3.8 5 6 5H10.25V5.75C10.25 6.44 10.81 7 11.5 7H12.5C13.19 7 13.75 6.44 13.75 5.75V5H18C20.2 5 22 6.8 22 9Z" fill="white"/> <path d="M9.00003 13C10.01 13 10.83 12.18 10.83 11.17C10.83 10.16 10.01 9.33997 9.00003 9.33997C7.99003 9.33997 7.17004 10.16 7.17004 11.17C7.17004 12.18 7.99003 13 9.00003 13Z" fill="white"/> <path d="M9.00003 13.5C7.72003 13.5 6.67004 12.46 6.67004 11.17C6.67004 9.87997 7.71003 8.83997 9.00003 8.83997C10.29 8.83997 11.33 9.87997 11.33 11.17C11.33 12.46 10.28 13.5 9.00003 13.5ZM9.00003 9.83997C8.27003 9.83997 7.67004 10.44 7.67004 11.17C7.67004 11.9 8.27003 12.5 9.00003 12.5C9.73003 12.5 10.33 11.9 10.33 11.17C10.33 10.44 9.73003 9.83997 9.00003 9.83997Z" fill="white"/> <path d="M12.5 19.41C12.09 19.41 11.75 19.07 11.75 18.66C11.75 17.28 10.52 16.15 9 16.15C7.48 16.15 6.25 17.27 6.25 18.66C6.25 19.07 5.91 19.41 5.5 19.41C5.09 19.41 4.75 19.07 4.75 18.66C4.75 16.45 6.66 14.65 9 14.65C11.34 14.65 13.25 16.45 13.25 18.66C13.25 19.07 12.91 19.41 12.5 19.41Z" fill="white"/> <path d="M18.5 11.75H14.5C14.09 11.75 13.75 11.41 13.75 11C13.75 10.59 14.09 10.25 14.5 10.25H18.5C18.91 10.25 19.25 10.59 19.25 11C19.25 11.41 18.91 11.75 18.5 11.75Z" fill="white"/> <path d="M17.5 15.25H14.5C14.09 15.25 13.75 14.91 13.75 14.5C13.75 14.09 14.09 13.75 14.5 13.75H17.5C17.91 13.75 18.25 14.09 18.25 14.5C18.25 14.91 17.91 15.25 17.5 15.25Z" fill="white"/> <path d="M13.75 3.25V5.75C13.75 6.44 13.19 7 12.5 7H11.5C10.81 7 10.25 6.44 10.25 5.75V3.25C10.25 2.56 10.81 2 11.5 2H12.5C13.19 2 13.75 2.56 13.75 3.25Z" fill="white"/> </g> <defs> <clipPath id="clip0_4482_736"> <rect width="24" height="24" fill="white"/> </clipPath> </defs> </svg>