<svg width="24" height="24" viewBox="0 0 24 24" fill="none" xmlns="http://www.w3.org/2000/svg"> <g clip-path="url(#clip0_4482_731)"> <path d="M12 11.1701C13.38 11.1701 14.49 10.0501 14.49 8.68005C14.49 7.31005 13.38 6.18005 12 6.18005C10.62 6.18005 9.51001 7.30005 9.51001 8.67005C9.51001 10.0401 10.62 11.1701 12 11.1701Z" fill="white"/> <path d="M12 11.6701C10.35 11.6701 9.01001 10.3301 9.01001 8.67005C9.01001 7.01005 10.35 5.68005 12 5.68005C13.65 5.68005 14.99 7.02005 14.99 8.67005C14.99 10.3201 13.65 11.6701 12 11.6701ZM12 6.68005C10.9 6.68005 10.01 7.57005 10.01 8.67005C10.01 9.77005 10.91 10.6701 12 10.6701C13.09 10.6701 13.99 9.78005 13.99 8.67005C13.99 7.57005 13.1 6.68005 12 6.68005Z" fill="white"/> <path d="M17 18.57C16.59 18.57 16.25 18.23 16.25 17.82C16.25 15.99 14.34 14.5 12 14.5C9.66 14.5 7.75 15.99 7.75 17.82C7.75 18.23 7.41 18.57 7 18.57C6.59 18.57 6.25 18.23 6.25 17.82C6.25 15.16 8.83 13 12 13C15.17 13 17.75 15.16 17.75 17.82C17.75 18.23 17.41 18.57 17 18.57Z" fill="white"/> <path opacity="0.4" d="M17 22H7C4.25 22 2 19.75 2 17V7C2 4.25 4.25 2 7 2H17C19.75 2 22 4.25 22 7V17C22 19.75 19.75 22 17 22Z" fill="white"/> </g> <defs> <clipPath id="clip0_4482_731"> <rect width="24" height="24" fill="white"/> </clipPath> </defs> </svg>