<svg width="24" height="24" viewBox="0 0 24 24" fill="none" xmlns="http://www.w3.org/2000/svg"> <g clip-path="url(#clip0_3111_20418)"> <path d="M17 22.75H7C3.83 22.75 1.25 20.17 1.25 17V7C1.25 3.83 3.83 1.25 7 1.25H17C20.17 1.25 22.75 3.83 22.75 7V17C22.75 20.17 20.17 22.75 17 22.75ZM7 2.75C4.66 2.75 2.75 4.66 2.75 7V17C2.75 19.34 4.66 21.25 7 21.25H17C19.34 21.25 21.25 19.34 21.25 17V7C21.25 4.66 19.34 2.75 17 2.75H7Z" fill="white"/> <g opacity="0.4"> <path d="M12 13.9298C9.95004 13.9298 8.29004 12.2598 8.29004 10.2198C8.29004 8.16977 9.96004 6.50977 12 6.50977C14.04 6.50977 15.71 8.17977 15.71 10.2198C15.71 12.2598 14.05 13.9298 12 13.9298ZM12 7.49977C10.5 7.49977 9.29004 8.71977 9.29004 10.2098C9.29004 11.7098 10.51 12.9198 12 12.9198C13.49 12.9198 14.71 11.6998 14.71 10.2098C14.71 8.71977 13.5 7.49977 12 7.49977Z" fill="white"/> <path d="M12 7.49977C10.5 7.49977 9.29004 8.71977 9.29004 10.2098C9.29004 11.7098 10.51 12.9198 12 12.9198C13.49 12.9198 14.71 11.6998 14.71 10.2098C14.71 8.71977 13.5 7.49977 12 7.49977Z" fill="white"/> </g> <path opacity="0.4" d="M18.68 21.7C18.16 21.9 17.59 22 17 22H7C6.4 22 5.83 21.89 5.3 21.69C5.94 18.44 8.7 16 12 16C15.3 16 18.06 18.44 18.68 21.7Z" fill="white"/> </g> <defs> <clipPath id="clip0_3111_20418"> <rect width="24" height="24" fill="white"/> </clipPath> </defs> </svg>