<svg width="24" height="24" viewBox="0 0 24 24" fill="none" xmlns="http://www.w3.org/2000/svg"> <g clip-path="url(#clip0_4482_734)"> <path opacity="0.4" d="M12 22C6.5 22 2 17.5 2 12C2 6.5 6.5 2 12 2C17.5 2 22 6.5 22 12C22 17.5 17.5 22 12 22Z" fill="white"/> <path d="M12 11.29C13.18 11.29 14.14 10.33 14.14 9.15C14.14 7.97 13.18 7 12 7C10.82 7 9.85999 7.96 9.85999 9.14C9.85999 10.32 10.82 11.29 12 11.29Z" fill="white"/> <path d="M12 11.79C10.54 11.79 9.35999 10.6 9.35999 9.15001C9.35999 7.69001 10.55 6.51001 12 6.51001C13.46 6.51001 14.64 7.70001 14.64 9.15001C14.64 10.6 13.46 11.79 12 11.79ZM12 7.50001C11.09 7.50001 10.36 8.24001 10.36 9.14001C10.36 10.05 11.1 10.78 12 10.78C12.9 10.78 13.64 10.04 13.64 9.14001C13.64 8.24001 12.91 7.50001 12 7.50001Z" fill="white"/> <path d="M16.2899 17.75C15.8799 17.75 15.5399 17.41 15.5399 17C15.5399 15.48 13.95 14.25 12 14.25C10.05 14.25 8.45996 15.48 8.45996 17C8.45996 17.41 8.11996 17.75 7.70996 17.75C7.29996 17.75 6.95996 17.41 6.95996 17C6.95996 14.66 9.21995 12.75 12 12.75C14.78 12.75 17.0399 14.66 17.0399 17C17.0399 17.41 16.7099 17.75 16.2899 17.75Z" fill="white"/> </g> <defs> <clipPath id="clip0_4482_734"> <rect width="24" height="24" fill="white"/> </clipPath> </defs> </svg>