<svg width="24" height="24" viewBox="0 0 24 24" fill="none" xmlns="http://www.w3.org/2000/svg"> <g clip-path="url(#clip0_4482_750)"> <path opacity="0.4" d="M15.16 7.33994C15.16 10.1899 12.8401 12.4999 10.0001 12.4999C7.16006 12.4999 4.84009 10.1899 4.84009 7.33994C4.84009 4.49994 7.16006 2.18994 10.0001 2.18994C12.8401 2.18994 15.16 4.49994 15.16 7.33994Z" fill="white"/> <path d="M18 22.06C17.59 22.06 17.25 21.72 17.25 21.31C17.25 18.13 14 15.54 10 15.54C6 15.54 2.75 18.13 2.75 21.31C2.75 21.72 2.41 22.06 2 22.06C1.59 22.06 1.25 21.72 1.25 21.31C1.25 17.3 5.17 14.04 10 14.04C14.83 14.04 18.75 17.3 18.75 21.31C18.75 21.73 18.41 22.06 18 22.06Z" fill="white"/> <path d="M19.8299 14.75C19.6299 14.75 19.4398 14.67 19.2998 14.53L17.6399 12.87C17.3499 12.58 17.3499 12.1 17.6399 11.81C17.9299 11.52 18.4099 11.52 18.6999 11.81L19.0799 12.19V10C19.0799 9.59 19.4199 9.25 19.8299 9.25C20.2399 9.25 20.5799 9.59 20.5799 10V14C20.5799 14.3 20.3998 14.58 20.1198 14.69C20.0198 14.73 19.9299 14.75 19.8299 14.75Z" fill="white"/> </g> <defs> <clipPath id="clip0_4482_750"> <rect width="24" height="24" fill="white"/> </clipPath> </defs> </svg>