<svg width="24" height="24" viewBox="0 0 24 24" fill="none" xmlns="http://www.w3.org/2000/svg"> <g clip-path="url(#clip0_4482_749)"> <path opacity="0.4" d="M15.16 7.33994C15.16 10.1899 12.8401 12.4999 10.0001 12.4999C7.16006 12.4999 4.84009 10.1899 4.84009 7.33994C4.84009 4.49994 7.16006 2.18994 10.0001 2.18994C12.8401 2.18994 15.16 4.49994 15.16 7.33994Z" fill="white"/> <path d="M18 22.06C17.59 22.06 17.25 21.72 17.25 21.31C17.25 18.13 14 15.54 10 15.54C6 15.54 2.75 18.13 2.75 21.31C2.75 21.72 2.41 22.06 2 22.06C1.59 22.06 1.25 21.72 1.25 21.31C1.25 17.3 5.17 14.04 10 14.04C14.83 14.04 18.75 17.3 18.75 21.31C18.75 21.73 18.41 22.06 18 22.06Z" fill="white"/> <path d="M19.1699 14.75C19.0699 14.75 18.9799 14.73 18.8799 14.69C18.5999 14.57 18.4199 14.3 18.4199 14V10C18.4199 9.59 18.7599 9.25 19.1699 9.25C19.5799 9.25 19.9199 9.59 19.9199 10V12.19L20.2999 11.81C20.5899 11.52 21.0699 11.52 21.3599 11.81C21.6499 12.1 21.6499 12.58 21.3599 12.87L19.7 14.53C19.56 14.67 19.3699 14.75 19.1699 14.75Z" fill="white"/> </g> <defs> <clipPath id="clip0_4482_749"> <rect width="24" height="24" fill="white"/> </clipPath> </defs> </svg>