<svg width="24" height="24" viewBox="0 0 24 24" fill="none" xmlns="http://www.w3.org/2000/svg"> <g clip-path="url(#clip0_4482_738)"> <path opacity="0.4" d="M15.16 7.33994C15.16 10.1899 12.84 12.4999 9.99997 12.4999C7.15997 12.4999 4.83997 10.1899 4.83997 7.33994C4.83997 4.49994 7.15997 2.18994 9.99997 2.18994C12.84 2.18994 15.16 4.49994 15.16 7.33994Z" fill="white"/> <path d="M18 22.06C17.59 22.06 17.25 21.72 17.25 21.31C17.25 18.13 14 15.54 10 15.54C6 15.54 2.75 18.13 2.75 21.31C2.75 21.72 2.41 22.06 2 22.06C1.59 22.06 1.25 21.72 1.25 21.31C1.25 17.3 5.18 14.04 10 14.04C14.82 14.04 18.75 17.3 18.75 21.31C18.75 21.73 18.41 22.06 18 22.06Z" fill="white"/> <path d="M21.5 12.4399H17C16.59 12.4399 16.25 12.0999 16.25 11.6899C16.25 11.2799 16.59 10.9399 17 10.9399H21.5C21.91 10.9399 22.25 11.2799 22.25 11.6899C22.25 12.0999 21.91 12.4399 21.5 12.4399Z" fill="white"/> </g> <defs> <clipPath id="clip0_4482_738"> <rect width="24" height="24" fill="white"/> </clipPath> </defs> </svg>