<svg width="24" height="24" viewBox="0 0 24 24" fill="none" xmlns="http://www.w3.org/2000/svg"> <g clip-path="url(#clip0_4482_745)"> <path opacity="0.4" d="M15.16 7.33994C15.16 10.1899 12.8401 12.4999 10.0001 12.4999C7.16006 12.4999 4.84009 10.1899 4.84009 7.33994C4.84009 4.49994 7.16006 2.18994 10.0001 2.18994C12.8401 2.18994 15.16 4.49994 15.16 7.33994Z" fill="white"/> <path d="M18 22.06C17.59 22.06 17.25 21.72 17.25 21.31C17.25 18.13 14 15.54 10 15.54C6 15.54 2.75 18.13 2.75 21.31C2.75 21.72 2.41 22.06 2 22.06C1.59 22.06 1.25 21.72 1.25 21.31C1.25 17.3 5.17 14.04 10 14.04C14.83 14.04 18.75 17.3 18.75 21.31C18.75 21.73 18.41 22.06 18 22.06Z" fill="white"/> <path d="M19.09 14.4999C17.52 14.4999 16.25 13.2199 16.25 11.6599C16.25 10.0999 17.53 8.81995 19.09 8.81995C20.65 8.81995 21.93 10.0999 21.93 11.6599C21.93 13.2199 20.66 14.4999 19.09 14.4999ZM19.09 10.3099C18.35 10.3099 17.75 10.9099 17.75 11.6499C17.75 12.3899 18.35 12.9899 19.09 12.9899C19.83 12.9899 20.43 12.3899 20.43 11.6499C20.43 10.9099 19.83 10.3099 19.09 10.3099Z" fill="white"/> <path d="M21.8901 15.19C21.7001 15.19 21.51 15.12 21.36 14.97L20.1401 13.76C19.8501 13.47 19.84 12.99 20.13 12.7C20.42 12.41 20.9 12.4 21.19 12.69L22.41 13.9C22.7 14.19 22.71 14.67 22.42 14.96C22.27 15.11 22.0801 15.19 21.8901 15.19Z" fill="white"/> </g> <defs> <clipPath id="clip0_4482_745"> <rect width="24" height="24" fill="white"/> </clipPath> </defs> </svg>