<svg width="24" height="24" viewBox="0 0 24 24" fill="none" xmlns="http://www.w3.org/2000/svg"> <g clip-path="url(#clip0_4482_751)"> <path opacity="0.4" d="M10.0001 2.18994C7.16006 2.18994 4.84009 4.49994 4.84009 7.34994C4.84009 10.1899 7.15006 12.5099 10.0001 12.5099C12.8501 12.5099 15.16 10.1999 15.16 7.34994C15.16 4.49994 12.8401 2.18994 10.0001 2.18994Z" fill="white"/> <path d="M18 22.06C17.59 22.06 17.25 21.72 17.25 21.31C17.25 18.13 14 15.54 10 15.54C6 15.54 2.75 18.13 2.75 21.31C2.75 21.72 2.41 22.06 2 22.06C1.59 22.06 1.25 21.72 1.25 21.31C1.25 17.3 5.17 14.04 10 14.04C14.83 14.04 18.75 17.3 18.75 21.31C18.75 21.73 18.41 22.06 18 22.06Z" fill="white"/> <path d="M18.3 14.75C18.1 14.75 17.91 14.67 17.77 14.53L16.11 12.87C15.82 12.58 15.82 12.1 16.11 11.81C16.4 11.52 16.88 11.52 17.17 11.81L17.55 12.19V10C17.55 9.59 17.89 9.25 18.3 9.25C18.71 9.25 19.05 9.59 19.05 10V14C19.05 14.3 18.87 14.58 18.59 14.69C18.49 14.73 18.39 14.75 18.3 14.75Z" fill="white"/> <path d="M20.64 14.75C20.23 14.75 19.89 14.41 19.89 14V9.99999C19.89 9.69999 20.07 9.41999 20.35 9.30999C20.63 9.18999 20.95 9.25999 21.17 9.46999L22.83 11.13C23.12 11.42 23.12 11.9 22.83 12.19C22.54 12.48 22.06 12.48 21.77 12.19L21.39 11.81V14C21.39 14.41 21.05 14.75 20.64 14.75Z" fill="white"/> </g> <defs> <clipPath id="clip0_4482_751"> <rect width="24" height="24" fill="white"/> </clipPath> </defs> </svg>