<svg width="24" height="24" viewBox="0 0 24 24" fill="none" xmlns="http://www.w3.org/2000/svg"> <g clip-path="url(#clip0_4482_730)"> <path opacity="0.4" d="M12.01 9.94996C13.7331 9.94996 15.13 8.55309 15.13 6.82996C15.13 5.10683 13.7331 3.70996 12.01 3.70996C10.2869 3.70996 8.89001 5.10683 8.89001 6.82996C8.89001 8.55309 10.2869 9.94996 12.01 9.94996Z" fill="white"/> <path opacity="0.4" d="M12.01 10.44C10.02 10.44 8.39001 8.81995 8.39001 6.81995C8.39001 4.81995 10.01 3.19995 12.01 3.19995C14.01 3.19995 15.63 4.81995 15.63 6.81995C15.63 8.81995 14.01 10.44 12.01 10.44ZM12.01 4.20995C10.57 4.20995 9.39001 5.37995 9.39001 6.82995C9.39001 8.27995 10.56 9.44995 12.01 9.44995C13.45 9.44995 14.63 8.27995 14.63 6.82995C14.63 5.37995 13.46 4.20995 12.01 4.20995Z" fill="white"/> <path opacity="0.4" d="M5.14002 11.77C6.101 11.77 6.88002 10.991 6.88002 10.03C6.88002 9.06906 6.101 8.29004 5.14002 8.29004C4.17905 8.29004 3.40002 9.06906 3.40002 10.03C3.40002 10.991 4.17905 11.77 5.14002 11.77Z" fill="white"/> <path opacity="0.4" d="M5.14002 12.28C3.90002 12.28 2.90002 11.27 2.90002 10.04C2.90002 8.80005 3.91002 7.80005 5.14002 7.80005C6.37002 7.80005 7.38002 8.81005 7.38002 10.04C7.38002 11.27 6.38002 12.28 5.14002 12.28ZM5.14002 8.79005C4.46002 8.79005 3.90002 9.35005 3.90002 10.03C3.90002 10.71 4.46002 11.27 5.14002 11.27C5.82002 11.27 6.38002 10.71 6.38002 10.03C6.38002 9.35005 5.82002 8.79005 5.14002 8.79005Z" fill="white"/> <path opacity="0.4" d="M18.89 11.77C19.851 11.77 20.63 10.991 20.63 10.03C20.63 9.06906 19.851 8.29004 18.89 8.29004C17.929 8.29004 17.15 9.06906 17.15 10.03C17.15 10.991 17.929 11.77 18.89 11.77Z" fill="white"/> <path opacity="0.4" d="M18.89 12.28C17.65 12.28 16.65 11.27 16.65 10.04C16.65 8.80005 17.66 7.80005 18.89 7.80005C20.12 7.80005 21.13 8.81005 21.13 10.04C21.13 11.27 20.12 12.28 18.89 12.28ZM18.89 8.79005C18.21 8.79005 17.65 9.35005 17.65 10.03C17.65 10.71 18.21 11.27 18.89 11.27C19.57 11.27 20.13 10.71 20.13 10.03C20.13 9.35005 19.57 8.79005 18.89 8.79005Z" fill="white"/> <path d="M5.07995 21.04C5.05995 21.04 5.04995 21.04 5.02995 21.04C4.61995 21.01 4.29995 20.66 4.32995 20.25C4.35995 19.77 4.41995 19.3 4.50995 18.84C5.31995 14.67 8.40995 11.76 12.01 11.76C15.49 11.76 18.55 14.55 19.45 18.55C19.57 19.1 19.66 19.68 19.69 20.26C19.72 20.67 19.4 21.03 18.99 21.05C18.57 21.09 18.22 20.76 18.2 20.35C18.17 19.85 18.1 19.36 17.99 18.88C17.25 15.57 14.79 13.26 12.02 13.26C9.14995 13.26 6.66995 15.68 5.98995 19.13C5.90995 19.53 5.85995 19.93 5.83995 20.34C5.80995 20.73 5.47995 21.04 5.07995 21.04Z" fill="white"/> <path d="M2.34002 17.29C2.32002 17.29 2.30002 17.29 2.28002 17.29C1.87002 17.26 1.56002 16.9 1.59002 16.49C1.73002 14.56 3.37002 13.05 5.31002 13.05C6.26002 13.05 7.16002 13.4 7.85002 14.05C8.15002 14.33 8.17002 14.81 7.89002 15.11C7.61002 15.41 7.13002 15.43 6.83002 15.15C6.42002 14.77 5.88002 14.55 5.31002 14.55C4.15002 14.55 3.17002 15.45 3.09002 16.6C3.05002 16.99 2.72002 17.29 2.34002 17.29Z" fill="white"/> <path d="M22 17.29C21.61 17.29 21.28 16.99 21.25 16.6C21.16 15.45 20.19 14.55 19.03 14.55C18.46 14.55 17.92 14.76 17.51 15.15C17.21 15.43 16.73 15.42 16.45 15.11C16.17 14.81 16.19 14.33 16.49 14.05C17.18 13.41 18.08 13.05 19.03 13.05C20.97 13.05 22.6 14.56 22.75 16.49C22.78 16.9 22.47 17.26 22.06 17.29C22.04 17.29 22.02 17.29 22 17.29Z" fill="white"/> </g> <defs> <clipPath id="clip0_4482_730"> <rect width="24" height="24" fill="white"/> </clipPath> </defs> </svg>