<svg width="24" height="24" viewBox="0 0 24 24" fill="none" xmlns="http://www.w3.org/2000/svg"> <g clip-path="url(#clip0_4482_743)"> <path opacity="0.4" d="M15.16 7.33994C15.16 10.1899 12.8401 12.4999 10.0001 12.4999C7.16006 12.4999 4.84009 10.1899 4.84009 7.33994C4.84009 4.49994 7.16006 2.18994 10.0001 2.18994C12.8401 2.18994 15.16 4.49994 15.16 7.33994Z" fill="white"/> <path d="M18 22.06C17.59 22.06 17.25 21.72 17.25 21.31C17.25 18.13 14 15.54 10 15.54C6 15.54 2.75 18.13 2.75 21.31C2.75 21.72 2.41 22.06 2 22.06C1.59 22.06 1.25 21.72 1.25 21.31C1.25 17.3 5.17 14.04 10 14.04C14.83 14.04 18.75 17.3 18.75 21.31C18.75 21.73 18.41 22.06 18 22.06Z" fill="white"/> <path d="M16.8 11.72L18.8 13.92C18.84 13.97 18.91 14 18.98 14C19.05 14 19.12 13.97 19.17 13.92L21.17 11.72C21.25 11.63 21.2601 11.5 21.1901 11.41L20.3 10.11C20.25 10.04 20.1801 10 20.0901 10H17.86C17.78 10 17.7001 10.04 17.6501 10.11L16.7601 11.41C16.7101 11.5 16.72 11.63 16.8 11.72Z" fill="white"/> </g> <defs> <clipPath id="clip0_4482_743"> <rect width="24" height="24" fill="white"/> </clipPath> </defs> </svg>