<svg width="24" height="24" viewBox="0 0 24 24" fill="none" xmlns="http://www.w3.org/2000/svg"> <g clip-path="url(#clip0_4482_788)"> <path opacity="0.4" d="M11.1504 22.75H7.15039C4.53039 22.75 2.40039 20.62 2.40039 18V6C2.40039 3.38 4.53039 1.25 7.15039 1.25H16.1504C18.7704 1.25 20.9004 3.38 20.9004 6V13C20.9004 13.41 20.5604 13.75 20.1504 13.75C19.7404 13.75 19.4004 13.41 19.4004 13V6C19.4004 4.21 17.9404 2.75 16.1504 2.75H7.15039C5.36039 2.75 3.90039 4.21 3.90039 6V18C3.90039 19.79 5.36039 21.25 7.15039 21.25H11.1504C11.5604 21.25 11.9004 21.59 11.9004 22C11.9004 22.41 11.5604 22.75 11.1504 22.75Z" fill="white"/> <path d="M17.1504 8.75H16.1504C14.6304 8.75 13.4004 7.52 13.4004 6V5C13.4004 4.59 13.7404 4.25 14.1504 4.25C14.5604 4.25 14.9004 4.59 14.9004 5V6C14.9004 6.69 15.4604 7.25 16.1504 7.25H17.1504C17.5604 7.25 17.9004 7.59 17.9004 8C17.9004 8.41 17.5604 8.75 17.1504 8.75Z" fill="white"/> <path d="M17.4603 21.67L19.7203 21.99C19.8903 22.01 20.0203 21.89 20.0003 21.71L19.6803 19.45C19.6403 19.19 19.5303 18.95 19.3403 18.77L14.0903 13.52C13.3803 12.81 12.2403 12.81 11.5403 13.52C10.8303 14.23 10.8303 15.37 11.5403 16.07L16.7903 21.32C16.9603 21.52 17.2003 21.63 17.4603 21.67Z" fill="white"/> </g> <defs> <clipPath id="clip0_4482_788"> <rect width="24" height="24" fill="white"/> </clipPath> </defs> </svg>