<svg width="24" height="24" viewBox="0 0 24 24" fill="none" xmlns="http://www.w3.org/2000/svg"> <g clip-path="url(#clip0_4482_814)"> <path opacity="0.4" d="M9.15039 22.75H7.15039C4.53039 22.75 2.40039 20.62 2.40039 18V6C2.40039 3.38 4.53039 1.25 7.15039 1.25H16.1504C18.7704 1.25 20.9004 3.38 20.9004 6V14C20.9004 14.41 20.5604 14.75 20.1504 14.75C19.7404 14.75 19.4004 14.41 19.4004 14V6C19.4004 4.21 17.9404 2.75 16.1504 2.75H7.15039C5.36039 2.75 3.90039 4.21 3.90039 6V18C3.90039 19.79 5.36039 21.25 7.15039 21.25H9.15039C9.56039 21.25 9.90039 21.59 9.90039 22C9.90039 22.41 9.56039 22.75 9.15039 22.75Z" fill="white"/> <path d="M17.1504 8.75H16.1504C14.6304 8.75 13.4004 7.52 13.4004 6V5C13.4004 4.59 13.7404 4.25 14.1504 4.25C14.5604 4.25 14.9004 4.59 14.9004 5V6C14.9004 6.69 15.4604 7.25 16.1504 7.25H17.1504C17.5604 7.25 17.9004 7.59 17.9004 8C17.9004 8.41 17.5604 8.75 17.1504 8.75Z" fill="white"/> <path d="M19.7003 17.6699C18.6803 16.0699 17.2204 15.1499 15.6604 15.1499C14.0904 15.1499 12.6303 16.0699 11.6203 17.6699C11.2203 18.2999 11.2203 19.3499 11.6203 19.9699C12.6403 21.5699 14.1004 22.4899 15.6604 22.4899C17.2304 22.4899 18.6903 21.5699 19.7003 19.9699C20.1003 19.3499 20.1003 18.2999 19.7003 17.6699ZM15.6604 20.3299C14.8304 20.3299 14.1604 19.6599 14.1604 18.8299C14.1604 17.9999 14.8304 17.3299 15.6604 17.3299C16.4904 17.3299 17.1604 17.9999 17.1604 18.8299C17.1604 19.6599 16.4804 20.3299 15.6604 20.3299Z" fill="white"/> </g> <defs> <clipPath id="clip0_4482_814"> <rect width="24" height="24" fill="white"/> </clipPath> </defs> </svg>