<svg width="24" height="24" viewBox="0 0 24 24" fill="none" xmlns="http://www.w3.org/2000/svg"> <g clip-path="url(#clip0_4482_1393)"> <path d="M11.1499 22.75H7.1499C4.5299 22.75 2.3999 20.62 2.3999 18V6C2.3999 3.38 4.5299 1.25 7.1499 1.25H16.1499C18.7699 1.25 20.8999 3.38 20.8999 6V13C20.8999 13.41 20.5599 13.75 20.1499 13.75C19.7399 13.75 19.3999 13.41 19.3999 13V6C19.3999 4.21 17.9399 2.75 16.1499 2.75H7.1499C5.3599 2.75 3.8999 4.21 3.8999 6V18C3.8999 19.79 5.3599 21.25 7.1499 21.25H11.1499C11.5599 21.25 11.8999 21.59 11.8999 22C11.8999 22.41 11.5599 22.75 11.1499 22.75Z" fill="white"/> <path d="M17.1499 8.75H16.1499C14.6299 8.75 13.3999 7.52 13.3999 6V5C13.3999 4.59 13.7399 4.25 14.1499 4.25C14.5599 4.25 14.8999 4.59 14.8999 5V6C14.8999 6.69 15.4599 7.25 16.1499 7.25H17.1499C17.5599 7.25 17.8999 7.59 17.8999 8C17.8999 8.41 17.5599 8.75 17.1499 8.75Z" fill="white"/> <path d="M17.4601 21.6701L19.7201 21.9901C19.8901 22.0101 20.0201 21.8901 20.0001 21.7101L19.6801 19.45C19.6401 19.19 19.5301 18.95 19.3401 18.77L14.0901 13.52C13.3801 12.81 12.2401 12.81 11.5401 13.52C10.8301 14.23 10.8301 15.3701 11.5401 16.0701L16.7901 21.3201C16.9601 21.5201 17.2001 21.6301 17.4601 21.6701Z" fill="white"/> </g> <defs> <clipPath id="clip0_4482_1393"> <rect width="24" height="24" fill="white"/> </clipPath> </defs> </svg>