<svg width="24" height="24" viewBox="0 0 24 24" fill="none" xmlns="http://www.w3.org/2000/svg"> <g clip-path="url(#clip0_4482_1405)"> <path d="M9.1499 22.75H7.1499C4.5299 22.75 2.3999 20.62 2.3999 18V6C2.3999 3.38 4.5299 1.25 7.1499 1.25H16.1499C18.7699 1.25 20.8999 3.38 20.8999 6V14C20.8999 14.41 20.5599 14.75 20.1499 14.75C19.7399 14.75 19.3999 14.41 19.3999 14V6C19.3999 4.21 17.9399 2.75 16.1499 2.75H7.1499C5.3599 2.75 3.8999 4.21 3.8999 6V18C3.8999 19.79 5.3599 21.25 7.1499 21.25H9.1499C9.5599 21.25 9.8999 21.59 9.8999 22C9.8999 22.41 9.5599 22.75 9.1499 22.75Z" fill="white"/> <path d="M17.1499 8.75H16.1499C14.6299 8.75 13.3999 7.52 13.3999 6V5C13.3999 4.59 13.7399 4.25 14.1499 4.25C14.5599 4.25 14.8999 4.59 14.8999 5V6C14.8999 6.69 15.4599 7.25 16.1499 7.25H17.1499C17.5599 7.25 17.8999 7.59 17.8999 8C17.8999 8.41 17.5599 8.75 17.1499 8.75Z" fill="white"/> <path d="M19.6998 17.6699C18.6798 16.0699 17.2199 15.1499 15.6599 15.1499C14.0899 15.1499 12.6298 16.0699 11.6198 17.6699C11.2198 18.2999 11.2198 19.3499 11.6198 19.9699C12.6398 21.5699 14.0999 22.4899 15.6599 22.4899C17.2299 22.4899 18.6898 21.5699 19.6998 19.9699C20.0998 19.3499 20.0998 18.2999 19.6998 17.6699ZM15.6599 20.3299C14.8299 20.3299 14.1599 19.6599 14.1599 18.8299C14.1599 17.9999 14.8299 17.3299 15.6599 17.3299C16.4899 17.3299 17.1599 17.9999 17.1599 18.8299C17.1599 19.6599 16.4799 20.3299 15.6599 20.3299Z" fill="white"/> </g> <defs> <clipPath id="clip0_4482_1405"> <rect width="24" height="24" fill="white"/> </clipPath> </defs> </svg>