<svg width="24" height="24" viewBox="0 0 24 24" fill="none" xmlns="http://www.w3.org/2000/svg"> <g clip-path="url(#clip0_4482_1389)"> <path d="M15.65 2H7.5C5.3 2 3.5 3.8 3.5 6V17C3.5 19.2 5.3 21 7.5 21H14.13C14.12 20.97 14.12 20.93 14.12 20.9V20.04C14.12 19.85 14.02 19.57 13.89 19.42L13.22 18.63C12.93 18.28 12.93 17.72 13.22 17.38L13.89 16.58C14.02 16.43 14.12 16.15 14.12 15.96V15.1C14.12 14.57 14.56 14.13 15.09 14.13H15.95C16.15 14.13 16.43 14.03 16.58 13.9L17.37 13.22C17.72 12.93 18.28 12.93 18.63 13.22L19.42 13.9C19.48 13.95 19.56 14 19.65 14.04V6C19.65 3.8 17.85 2 15.65 2ZM16.8 8.45H15.85C14.39 8.45 13.2 7.26 13.2 5.8V4.85C13.2 4.44 13.54 4.1 13.95 4.1C14.36 4.1 14.7 4.44 14.7 4.85V5.8C14.7 6.43 15.22 6.95 15.85 6.95H16.8C17.21 6.95 17.55 7.29 17.55 7.7C17.55 8.11 17.21 8.45 16.8 8.45Z" fill="white"/> <path d="M18.0001 23.75C17.6001 23.75 17.2001 23.62 16.8901 23.36L16.0901 22.67C16.0601 22.65 15.9801 22.62 15.9401 22.61H15.0901C14.2301 22.61 13.5101 21.98 13.3901 21.13C13.3701 21.03 13.3701 20.95 13.3701 20.9V20.04C13.3701 20.01 13.3401 19.93 13.3201 19.9L12.6501 19.11C12.1201 18.48 12.1301 17.5 12.6501 16.89L13.3201 16.1C13.3401 16.07 13.3701 15.99 13.3801 15.95V15.1C13.3801 14.15 14.1501 13.38 15.1001 13.38H15.9601C15.9901 13.38 16.0801 13.35 16.1101 13.33L16.8901 12.66C17.5301 12.13 18.4801 12.13 19.1201 12.65L19.9201 13.34C20.0201 13.39 20.0601 13.4 20.0701 13.4H20.9101C21.8501 13.4 22.6201 14.17 22.6201 15.11V15.96C22.6201 15.99 22.6601 16.07 22.6801 16.1L23.3601 16.89C23.8901 17.53 23.8901 18.49 23.3701 19.12L23.3601 19.13L22.6801 19.92C22.6601 19.95 22.6301 20.03 22.6201 20.07V20.91C22.6201 21.85 21.8501 22.62 20.9101 22.62H20.0601C20.0301 22.62 19.9501 22.66 19.9201 22.68L19.1301 23.36C18.8101 23.61 18.4101 23.75 18.0001 23.75ZM14.8701 20.87L14.8801 20.93C14.8901 21.02 14.9701 21.12 15.0901 21.12H15.9501C16.3301 21.12 16.7801 21.29 17.0701 21.54L17.8601 22.22C17.9301 22.27 18.0901 22.27 18.1401 22.22L18.9301 21.54C19.2201 21.29 19.6701 21.12 20.0501 21.12H20.9001C21.0201 21.12 21.1101 21.03 21.1101 20.91V20.06C21.1101 19.68 21.2801 19.23 21.5301 18.94L22.2001 18.16C22.2601 18.09 22.2601 17.93 22.2001 17.86L21.5301 17.08C21.2801 16.79 21.1101 16.34 21.1101 15.96V15.11C21.1101 14.99 21.0201 14.9 20.9001 14.9H20.0501C19.7501 14.9 19.4701 14.79 19.3401 14.73C19.2001 14.67 19.0601 14.58 18.9501 14.49L18.1501 13.8C18.0901 13.75 17.9301 13.75 17.8601 13.81L17.0801 14.48C16.8001 14.73 16.3501 14.89 15.9601 14.89H15.1001C14.9801 14.89 14.8801 14.99 14.8801 15.11V15.97C14.8801 16.34 14.7101 16.8 14.4701 17.08L13.8101 17.87C13.7601 17.93 13.7501 18.09 13.8101 18.16L14.4801 18.94C14.7201 19.22 14.8901 19.67 14.8901 20.05V20.87H14.8701Z" fill="white"/> <path d="M17.3899 19.96C17.1899 19.96 16.9999 19.88 16.8599 19.74L15.6599 18.53C15.3699 18.24 15.3699 17.76 15.6599 17.47C15.9499 17.18 16.4299 17.18 16.7199 17.47L17.3899 18.15L19.2699 16.26C19.5599 15.97 20.0399 15.97 20.3299 16.26C20.6199 16.55 20.6199 17.03 20.3299 17.32L17.9199 19.74C17.7799 19.88 17.5899 19.96 17.3899 19.96Z" fill="white"/> </g> <defs> <clipPath id="clip0_4482_1389"> <rect width="24" height="24" fill="white"/> </clipPath> </defs> </svg>