<svg width="24" height="24" viewBox="0 0 24 24" fill="none" xmlns="http://www.w3.org/2000/svg"> <path d="M4.8758 4.99C3.09 6.79 2 9.27 2 12C2 17.52 6.48 22 12 22C17.52 22 22 17.52 22 12C22 6.48 17.52 2 12 2C11.31 2 10.64 2.07 9.98 2.2" stroke="white" stroke-width="1.5" stroke-miterlimit="10" stroke-linecap="round" stroke-linejoin="round"/> <path d="M8.46997 10.7402L12 14.2602L15.53 10.7402" stroke="white" stroke-width="1.5" stroke-linecap="round" stroke-linejoin="round"/> <g opacity="0" fill="none" stroke="none" aria-hidden="true"><path d="M0.0073 0.0033L0.0067 0.006L0.0005 0.0005L0.0036 0.0084L0.0047 0.0019L0.0033 0.0025L0.0077 0.0058L0.0027 0.0084L0.0061 0.0027L0.0001 0.0055L0.0097 0.0029L0.0029 0.0017"/></g></svg>