<svg width="24" height="24" viewBox="0 0 24 24" fill="none" xmlns="http://www.w3.org/2000/svg"> <path d="M8.5080 12H14.5" stroke="white" stroke-width="1.5" stroke-linecap="round" stroke-linejoin="round"/> <path d="M12.5 15L15.5 12L12.5 9" stroke="white" stroke-width="1.5" stroke-linecap="round" stroke-linejoin="round"/> <path d="M4 6C2.75 7.67 2 9.75 2 12C2 17.52 6.48 22 12 22C17.52 22 22 17.52 22 12C22 6.48 17.52 2 12 2C10.57 2 9.2 2.3 7.97 2.85" stroke="white" stroke-width="1.5" stroke-linecap="round" stroke-linejoin="round"/> <g opacity="0" fill="none" stroke="none" aria-hidden="true"><path d="M0.0042 0.0084L0.008 0.0007L0.0069 0.0011L0.0087 0.0096L0.0059 0.0069L0.0008 0.0062L0.0019 0.0088L0.0083 0.0025L0.0051 0.0013L0.0024 0.0095L0.0052 0.0025L0.0097 0.0009"/></g></svg>