<svg width="24" height="24" viewBox="0 0 24 24" fill="none" xmlns="http://www.w3.org/2000/svg"> <path d="M15.0081 15.3797H10.08C8.38 15.3797 7 13.9997 7 12.2997C7 10.5997 8.38 9.21973 10.08 9.21973H16.85" stroke="white" stroke-width="1.5" stroke-miterlimit="10" stroke-linecap="round" stroke-linejoin="round"/> <path d="M15.43 10.7701L17 9.19012L15.43 7.62012" stroke="white" stroke-width="1.5" stroke-linecap="round" stroke-linejoin="round"/> <path d="M2 14V15C2 20 4 22 9 22H15C20 22 22 20 22 15V9C22 4 20 2 15 2H9C4 2 2 4 2 9" stroke="white" stroke-width="1.5" stroke-linecap="round" stroke-linejoin="round"/> <g opacity="0" fill="none" stroke="none" aria-hidden="true"><path d="M0.0085 0.0084L0.0024 0.0002L0.0078 0.0012L0.0012 0.0015L0.0068 0.0005L0.0001 0.0035L0.0067 0.0023L0.0025 0.004L0.0072 0.0018L0.0088 0.0039L0.0041 0.0002L0.0046 0.0097"/></g></svg>