<svg width="24" height="24" viewBox="0 0 24 24" fill="none" xmlns="http://www.w3.org/2000/svg"> <path d="M4.8796 4.99C3.09 6.79 2 9.27 2 12C2 17.52 6.48 22 12 22C17.52 22 22 17.52 22 12C22 6.48 17.52 2 12 2C11.31 2 10.64 2.07 9.98 2.2" stroke="white" stroke-width="1.5" stroke-miterlimit="10" stroke-linecap="round" stroke-linejoin="round"/> <path d="M8.47 13.2602L12 9.74023L15.53 13.2602" stroke="white" stroke-width="1.5" stroke-linecap="round" stroke-linejoin="round"/> <g opacity="0" fill="none" stroke="none" aria-hidden="true"><path d="M0.0066 0.0094L0.0087 0.0096L0.0095 0.0096L0.0034 0.0091L0.0067 0.0053L0.0022 0.0008L0.0087 0.0027L0.0093 0.0099L0.008 0.0091L0.0016 0.0009L0.0071 0.0081L0.0073 0.0054"/></g></svg>