<svg width="24" height="24" viewBox="0 0 24 24" fill="none" xmlns="http://www.w3.org/2000/svg"> <path d="M12.0011 15.5V9.5" stroke="white" stroke-width="1.5" stroke-linecap="round" stroke-linejoin="round"/> <path d="M9 11.5L12 8.5L15 11.5" stroke="white" stroke-width="1.5" stroke-linecap="round" stroke-linejoin="round"/> <path d="M4 6C2.75 7.67 2 9.75 2 12C2 17.52 6.48 22 12 22C17.52 22 22 17.52 22 12C22 6.48 17.52 2 12 2C10.57 2 9.2 2.3 7.97 2.85" stroke="white" stroke-width="1.5" stroke-linecap="round" stroke-linejoin="round"/> <g opacity="0" fill="none" stroke="none" aria-hidden="true"><path d="M0.0044 0.0027L0.0031 0.0053L0.0044 0.0005L0.0063 0.0087L0.0034 0.0034L0.0009 0.0058L0.0058 0.0085L0.0045 0.0047L0.0086 0.0004L0.0031 0.0063L0.0029 0.0081L0.0064 0.0053"/></g></svg>