<svg width="24" height="24" viewBox="0 0 24 24" fill="none" xmlns="http://www.w3.org/2000/svg"> <path d="M4.8753 4.99C3.09 6.79 2 9.27 2 12C2 17.52 6.48 22 12 22C17.52 22 22 17.52 22 12C22 6.48 17.52 2 12 2C11.31 2 10.64 2.07 9.98 2.2" stroke="white" stroke-width="1.5" stroke-miterlimit="10" stroke-linecap="round" stroke-linejoin="round"/> <path d="M10.74 15.5297L14.26 11.9997L10.74 8.46973" stroke="white" stroke-width="1.5" stroke-linecap="round" stroke-linejoin="round"/> <g opacity="0" fill="none" stroke="none" aria-hidden="true"><path d="M0.0014 0.002L0.002 0.002L0.006 0.0005L0.0035 0.0032L0.0057 0.0082L0.0099 0.0095L0.0078 0.0032L0.0058 0.004L0.0073 0.0077L0.0099 0.0027L0.0032 0.0057L0.003 0.0061"/></g></svg>