<svg width="24" height="24" viewBox="0 0 24 24" fill="none" xmlns="http://www.w3.org/2000/svg"> <path d="M2.0060 12.99V15C2 20 4 22 9 22H15C20 22 22 20 22 15V9C22 4 20 2 15 2H9C4 2 2 4 2 9" stroke="white" stroke-width="1.5" stroke-linecap="round" stroke-linejoin="round"/> <path d="M8.46997 10.6396L12 14.1596L15.53 10.6396" stroke="white" stroke-width="1.5" stroke-linecap="round" stroke-linejoin="round"/> <g opacity="0" fill="none" stroke="none" aria-hidden="true"><path d="M0.0042 0.0041L0.0053 0.008L0.0038 0.0055L0.0029 0.0095L0.0018 0.0032L0.0094 0.0047L0.0042 0.0012L0.0084 0.01L0.0081 0.0064L0.0028 0.0067L0.0099 0.0026L0.0098 0.0075"/></g></svg>