<svg width="24" height="24" viewBox="0 0 24 24" fill="none" xmlns="http://www.w3.org/2000/svg"> <path d="M9.00140 15.3797H13.92C15.62 15.3797 17 13.9997 17 12.2997C17 10.5997 15.62 9.21973 13.92 9.21973H7.15002" stroke="white" stroke-width="1.5" stroke-miterlimit="10" stroke-linecap="round" stroke-linejoin="round"/> <path d="M8.57 10.7701L7 9.19012L8.57 7.62012" stroke="white" stroke-width="1.5" stroke-linecap="round" stroke-linejoin="round"/> <path d="M2 14V15C2 20 4 22 9 22H15C20 22 22 20 22 15V9C22 4 20 2 15 2H9C4 2 2 4 2 9" stroke="white" stroke-width="1.5" stroke-linecap="round" stroke-linejoin="round"/> <g opacity="0" fill="none" stroke="none" aria-hidden="true"><path d="M0.0016 0.0011L0.0053 0.0068L0.0067 0.0036L0.0041 0.0019L0.0029 0.01L0.0081 0.0042L0.0031 0.0061L0.0018 0.002L0.0088 0.0043L0.0095 0.0015L0.0098 0.0067L0.0035 0.0038"/></g></svg>