<svg width="24" height="24" viewBox="0 0 24 24" fill="none" xmlns="http://www.w3.org/2000/svg"> <path d="M2.0065 13.04V15C2 20 4 22 9 22H15C20 22 22 20 22 15V9C22 4 20 2 15 2H9C4 2 2 4 2 9" stroke="white" stroke-width="1.5" stroke-linecap="round" stroke-linejoin="round"/> <path d="M8.46997 13.4604L12 9.94043L15.53 13.4604" stroke="white" stroke-width="1.5" stroke-linecap="round" stroke-linejoin="round"/> <g opacity="0" fill="none" stroke="none" aria-hidden="true"><path d="M0.0061 0.0054L0.0078 0.0068L0.0029 0.0002L0.0067 0.0044L0.0016 0.0096L0.0061 0.003L0.0039 0.0028L0.0049 0.01L0.001 0.0009L0.0051 0.0076L0.0012 0.0098L0.003 0.0087"/></g></svg>