<svg width="24" height="24" viewBox="0 0 24 24" fill="none" xmlns="http://www.w3.org/2000/svg"> <path d="M2.0064 13.01V15C2 20 4 22 9 22H15C20 22 22 20 22 15V9C22 4 20 2 15 2H9C4 2 2 4 2 9" stroke="white" stroke-width="1.5" stroke-linecap="round" stroke-linejoin="round"/> <path d="M10.74 15.5297L14.26 11.9997L10.74 8.46973" stroke="white" stroke-width="1.5" stroke-linecap="round" stroke-linejoin="round"/> <g opacity="0" fill="none" stroke="none" aria-hidden="true"><path d="M0.0057 0.0064L0.0013 0.0081L0.0077 0.0082L0.0098 0.0055L0.0023 0.0056L0 0.0005L0.0031 0.0093L0.008 0.0062L0.0075 0.01L0.0025 0.0067L0.0004 0.0038L0.0036 0.0093"/></g></svg>