<svg width="24" height="25" viewBox="0 0 24 25" fill="none" xmlns="http://www.w3.org/2000/svg"> <g clip-path="url(#clip0_3247_9684)"> <path d="M12.0025 22.4102C6.75 22.4102 2.5 18.1602 2.5 12.9102C2.5 7.66016 6.75 3.41016 12 3.41016C17.25 3.41016 21.5 7.66016 21.5 12.9102C21.5 16.1602 19.87 19.0202 17.39 20.7402" stroke="white" stroke-width="1.5" stroke-miterlimit="10" stroke-linecap="round"/> <path d="M14.11 11.8506L10.9399 16.0706L7.78003 13.9606L4.29004 18.4606" stroke="white" stroke-width="1.5" stroke-miterlimit="10" stroke-linecap="round" stroke-linejoin="round"/> <path d="M11.1401 11.4802L14.8401 10.7002L15.6101 14.4002" stroke="white" stroke-width="1.5" stroke-miterlimit="10" stroke-linecap="round" stroke-linejoin="round"/> </g> <defs> <clipPath id="clip0_3247_9684"> <rect width="24" height="24" fill="white" transform="translate(0 0.910156)"/> </clipPath> </defs> <g opacity="0" fill="none" stroke="none" aria-hidden="true"><path d="M0.002 0.0075L0.0083 0.0012L0.0073 0.0039L0.0023 0.0005L0.0024 0.0028L0.0019 0.01L0.0046 0.0004L0.0033 0.008L0.0084 0.0014L0.005 0.0051L0.0036 0.0051L0.0055 0.0025"/></g></svg>