<svg width="24" height="25" viewBox="0 0 24 25" fill="none" xmlns="http://www.w3.org/2000/svg"> <g clip-path="url(#clip0_3247_9660)"> <path d="M9.0038 11.9104L11.67 14.7904L21 6.15039" stroke="white" stroke-width="1.5" stroke-linecap="round" stroke-linejoin="round"/> <path d="M2 12.9102C2 18.4302 6.48 22.9102 12 22.9102C17.52 22.9102 22 18.4302 22 12.9102" stroke="white" stroke-width="1.5" stroke-miterlimit="10" stroke-linecap="round"/> <path d="M15.47 3.53017C14.39 3.13017 13.2201 2.91016 12.0001 2.91016C8.90006 2.91016 6.13004 4.32016 4.29004 6.54016" stroke="white" stroke-width="1.5" stroke-miterlimit="10" stroke-linecap="round"/> </g> <defs> <clipPath id="clip0_3247_9660"> <rect width="24" height="24" fill="white" transform="translate(0 0.910156)"/> </clipPath> </defs> <g opacity="0" fill="none" stroke="none" aria-hidden="true"><path d="M0.0072 0.0048L0.0055 0.0028L0.0042 0.0083L0.0053 0.0042L0.005 0.0068L0.0049 0.0062L0.0031 0.0063L0.0009 0.0041L0.0023 0.0063L0.0024 0.0071L0.0047 0.0085L0.0055 0.0007"/></g></svg>