<svg width="24" height="25" viewBox="0 0 24 25" fill="none" xmlns="http://www.w3.org/2000/svg"> <g clip-path="url(#clip0_3247_9661)"> <path d="M2.0045 17.9106C2 20.6606 4.25 22.9106 7 22.9106H17C19.75 22.9106 22 20.6606 22 17.9106V12.8906" stroke="white" stroke-width="1.5" stroke-miterlimit="10" stroke-linecap="round"/> <path d="M15 2.91016H7C4.25 2.91016 2 5.16016 2 7.91016V11.8302" stroke="white" stroke-width="1.5" stroke-miterlimit="10" stroke-linecap="round"/> <path d="M9 11.9104L11.67 14.7904L21 6.15039" stroke="white" stroke-width="1.5" stroke-linecap="round" stroke-linejoin="round"/> </g> <defs> <clipPath id="clip0_3247_9661"> <rect width="24" height="24" fill="white" transform="translate(0 0.910156)"/> </clipPath> </defs> <g opacity="0" fill="none" stroke="none" aria-hidden="true"><path d="M0.01 0.009L0.0045 0.0058L0.0021 0.009L0.0031 0.0079L0.0027 0.0094L0.0069 0.0093L0.0078 0.0064L0.0073 0.0011L0.0033 0.002L0.0051 0.0049L0.0047 0.0096L0.0075 0.0043"/></g></svg>