<svg width="24" height="24" viewBox="0 0 24 24" fill="none" xmlns="http://www.w3.org/2000/svg"> <path d="M6.1224 4L14.31 12.2L14.32 7.65" stroke="white" stroke-width="1.5" stroke-linecap="round" stroke-linejoin="round"/> <path d="M17.88 19.9998L9.68999 11.7998L9.67999 16.3498" stroke="white" stroke-width="1.5" stroke-linecap="round" stroke-linejoin="round"/> <path d="M20 6C21.25 7.67 22 9.75 22 12C22 17.52 17.52 22 12 22C6.48 22 2 17.52 2 12C2 6.48 6.48 2 12 2C13.43 2 14.8 2.3 16.03 2.85" stroke="white" stroke-width="1.5" stroke-linecap="round" stroke-linejoin="round"/> <g opacity="0" fill="none" stroke="none" aria-hidden="true"><path d="M0.0016 0.008L0.008 0.0089L0.0001 0.0016L0.004 0.0085L0.0055 0.0048L0.0026 0.0019L0.0071 0.0032L0.0001 0.0054L0.0082 0.0033L0.0082 0.0027L0.0084 0.0038L0.0051 0.0098"/></g></svg>