<svg width="24" height="25" viewBox="0 0 24 25" fill="none" xmlns="http://www.w3.org/2000/svg"> <g clip-path="url(#clip0_3247_9685)"> <path d="M17.3113 20.7804C19.8401 19.0704 21.5 16.1804 21.5 12.9004C21.5 7.65039 17.25 3.40039 12 3.40039C6.75 3.40039 2.5 7.65039 2.5 12.9004C2.5 18.1504 6.75 22.4004 12 22.4004" stroke="white" stroke-width="1.5" stroke-miterlimit="10" stroke-linecap="round"/> <path d="M14.11 13.9604L10.9399 9.74036L7.78003 11.8504L4.29004 7.36035" stroke="white" stroke-width="1.5" stroke-miterlimit="10" stroke-linecap="round" stroke-linejoin="round"/> <path d="M11.1401 14.3302L14.8401 15.1102L15.6101 11.4102" stroke="white" stroke-width="1.5" stroke-miterlimit="10" stroke-linecap="round" stroke-linejoin="round"/> </g> <defs> <clipPath id="clip0_3247_9685"> <rect width="24" height="24" fill="white" transform="translate(0 0.910156)"/> </clipPath> </defs> <g opacity="0" fill="none" stroke="none" aria-hidden="true"><path d="M0.0091 0.0007L0.0061 0.0047L0.0075 0.0076L0.0096 0.009L0.0071 0.0025L0.003 0.0091L0.0082 0.0001L0.0028 0.0034L0.0039 0.0059L0.0068 0.0035L0.0011 0.0098L0.0064 0.0035"/></g></svg>