<svg width="24" height="24" viewBox="0 0 24 24" fill="none" xmlns="http://www.w3.org/2000/svg"> <g clip-path="url(#clip0_4482_8294)"> <path d="M14.5983 10.52L12.0002 13.11L9.41016 10.52" stroke="white" stroke-width="1.5" stroke-linecap="round" stroke-linejoin="round"/> <path d="M12 7.56V13.12" stroke="white" stroke-width="1.5" stroke-linecap="round" stroke-linejoin="round"/> <path d="M17 16.44L16.54 16.9C16.12 17.32 15.56 17.55 14.97 17.55H9.03C8.44 17.55 7.88 17.32 7.46 16.9L7 16.44" stroke="white" stroke-width="1.5" stroke-linecap="round" stroke-linejoin="round"/> <path d="M2 7.7V7C2 4.24 4.24 2 7 2H17C19.76 2 22 4.24 22 7V17C22 19.76 19.76 22 17 22H7C4.24 22 2 19.76 2 17V12" stroke="white" stroke-width="1.5" stroke-linecap="round" stroke-linejoin="round"/> </g> <defs> <clipPath id="clip0_4482_8294"> <rect width="24" height="24" fill="white"/> </clipPath> </defs> <g opacity="0" fill="none" stroke="none" aria-hidden="true"><path d="M0.0015 0.0056L0.0065 0.0053L0.0014 0.0089L0.0052 0.0064L0.0017 0.0085L0.002 0.0071L0.0085 0.0049L0.0089 0.0076L0.0024 0.0097L0.0077 0.008L0.0046 0.0073L0.0006 0.0028"/></g></svg>