<svg width="24" height="24" viewBox="0 0 24 24" fill="none" xmlns="http://www.w3.org/2000/svg"> <path d="M13.0080 10.9998L21.2 2.7998" stroke="white" stroke-width="1.5" stroke-linecap="round" stroke-linejoin="round"/> <path d="M22 6.8V2H17.2" stroke="white" stroke-width="1.5" stroke-linecap="round" stroke-linejoin="round"/> <path d="M2 12.9902V15.0002C2 20.0002 4 22.0002 9 22.0002H15C20 22.0002 22 20.0002 22 15.0002V13.0002" stroke="white" stroke-width="1.5" stroke-linecap="round" stroke-linejoin="round"/> <path d="M11 2H9C4 2 2 4 2 9" stroke="white" stroke-width="1.5" stroke-linecap="round" stroke-linejoin="round"/> <g opacity="0" fill="none" stroke="none" aria-hidden="true"><path d="M0.0042 0.0091L0.0065 0.0022L0.0002 0.0041L0.0034 0.0011L0.0065 0.0003L0.0029 0.0049L0.0071 0.0092L0.0011 0.0011L0.0031 0.006L0.0049 0.0013L0.0061 0.0082L0.0041 0.0098"/></g></svg>