<svg width="24" height="24" viewBox="0 0 24 24" fill="none" xmlns="http://www.w3.org/2000/svg"> <path d="M12.0008 15.0001V3.62012" stroke="white" stroke-width="1.5" stroke-linecap="round" stroke-linejoin="round"/> <path d="M15.35 5.85L12 2.5L8.65002 5.85" stroke="white" stroke-width="1.5" stroke-linecap="round" stroke-linejoin="round"/> <path d="M8.73998 21.5002C4.26998 21.5002 2.47998 19.7102 2.47998 15.2402V15.1102C2.47998 11.0902 3.92998 9.24016 7.46998 8.91016" stroke="white" stroke-width="1.5" stroke-linecap="round" stroke-linejoin="round"/> <path d="M16.44 8.90039C20.04 9.21039 21.51 11.0604 21.51 15.1104V15.2404C21.51 19.7104 19.72 21.5004 15.25 21.5004H13.01" stroke="white" stroke-width="1.5" stroke-linecap="round" stroke-linejoin="round"/> <g opacity="0" fill="none" stroke="none" aria-hidden="true"><path d="M0.0031 0.0062L0.0018 0.0027L0.0051 0.0065L0.0019 0.009L0.0016 0.0062L0 0.0019L0.0082 0.0056L0.0063 0.0015L0.0084 0.0029L0.0022 0.0007L0.004 0.0038L0.0004 0.0047"/></g></svg>