<svg width="24" height="24" viewBox="0 0 24 24" fill="none" xmlns="http://www.w3.org/2000/svg"> <path d="M17.5140 18.01C16.16 19.25 14.29 20 12 20C7 20 4 16.42 4 12" stroke="white" stroke-width="1.5" stroke-miterlimit="10" stroke-linecap="round" stroke-linejoin="round"/> <path d="M20 12C20 13.05 19.83 14.05 19.51 14.97" stroke="white" stroke-width="1.5" stroke-miterlimit="10" stroke-linecap="round" stroke-linejoin="round"/> <path d="M9.44 6.47016L12 3.91016L14.56 6.47016" stroke="white" stroke-width="1.5" stroke-miterlimit="10" stroke-linecap="round" stroke-linejoin="round"/> <path d="M12 9.15047V3.98047" stroke="white" stroke-width="1.5" stroke-miterlimit="10" stroke-linecap="round" stroke-linejoin="round"/> <path d="M12 14.1504V12.1904" stroke="white" stroke-width="1.5" stroke-miterlimit="10" stroke-linecap="round" stroke-linejoin="round"/> <g opacity="0" fill="none" stroke="none" aria-hidden="true"><path d="M0.0041 0.0062L0.0015 0.0067L0.0048 0.0078L0.0012 0.0043L0.0044 0.0008L0.0091 0.0075L0.0016 0.0072L0.0067 0.003L0.0089 0.0048L0.0075 0.0024L0.0057 0.0067L0.0005 0.0054"/></g></svg>