<svg width="24" height="25" viewBox="0 0 24 25" fill="none" xmlns="http://www.w3.org/2000/svg"> <g clip-path="url(#clip0_3247_9663)"> <path d="M8.03940 15.9L9.51001 17.82L12.99 14.54" stroke="white" stroke-width="1.5" stroke-linecap="round" stroke-linejoin="round"/> <path d="M3 11.8302V7.91016C3 4.91016 4.5 2.91016 8 2.91016H16C19.5 2.91016 21 4.91016 21 7.91016V17.9102C21 20.9102 19.5 22.9102 16 22.9102H8C4.5 22.9102 3 20.9102 3 17.9102" stroke="white" stroke-width="1.5" stroke-miterlimit="10" stroke-linecap="round" stroke-linejoin="round"/> <path d="M14.5 5.41016V7.41016C14.5 8.51016 15.4 9.41016 16.5 9.41016H18.5" stroke="white" stroke-width="1.5" stroke-miterlimit="10" stroke-linecap="round" stroke-linejoin="round"/> </g> <defs> <clipPath id="clip0_3247_9663"> <rect width="24" height="24" fill="white" transform="translate(0 0.910156)"/> </clipPath> </defs> <g opacity="0" fill="none" stroke="none" aria-hidden="true"><path d="M0.0019 0.0069L0.0013 0.0067L0.0073 0.0048L0.0007 0.0077L0.0053 0.0053L0.008 0.0057L0.0032 0.004L0.0093 0.0029L0.0014 0.0035L0.0021 0.0014L0.0089 0.0051L0.0023 0.0079"/></g></svg>