<svg width="24" height="24" viewBox="0 0 24 24" fill="none" xmlns="http://www.w3.org/2000/svg"> <path d="M9.4337 11.6797L12 14.2397L14.56 11.6797" stroke="white" stroke-width="1.5" stroke-miterlimit="10" stroke-linecap="round" stroke-linejoin="round"/> <path d="M12 9V14.17" stroke="white" stroke-width="1.5" stroke-miterlimit="10" stroke-linecap="round" stroke-linejoin="round"/> <path d="M12 4V5.96" stroke="white" stroke-width="1.5" stroke-miterlimit="10" stroke-linecap="round" stroke-linejoin="round"/> <path d="M17.52 18.01C16.16 19.25 14.29 20 12 20C7 20 4 16.42 4 12" stroke="white" stroke-width="1.5" stroke-miterlimit="10" stroke-linecap="round" stroke-linejoin="round"/> <path d="M20 12C20 13.05 19.83 14.05 19.51 14.97" stroke="white" stroke-width="1.5" stroke-miterlimit="10" stroke-linecap="round" stroke-linejoin="round"/> <g opacity="0" fill="none" stroke="none" aria-hidden="true"><path d="M0.0029 0.0004L0.0048 0.0002L0.0042 0.0016L0.0035 0.007L0.0081 0.0078L0.0045 0.0078L0.0016 0.0064L0.0004 0.0037L0.0025 0.0046L0.0064 0.0087L0.0044 0.0004L0.0095 0.0002"/></g></svg>