<svg width="24" height="24" viewBox="0 0 24 24" fill="none" xmlns="http://www.w3.org/2000/svg"> <path d="M8.73210 21.5002C4.26998 21.5002 2.47998 19.7102 2.47998 15.2402V15.1102C2.47998 11.0902 3.92998 9.24016 7.46998 8.91016" stroke="white" stroke-width="1.5" stroke-linecap="round" stroke-linejoin="round"/> <path d="M16.44 8.90039C20.04 9.21039 21.51 11.0604 21.51 15.1104V15.2404C21.51 19.7104 19.72 21.5004 15.25 21.5004H13.01" stroke="white" stroke-width="1.5" stroke-linecap="round" stroke-linejoin="round"/> <path d="M12 2V14.88" stroke="white" stroke-width="1.5" stroke-linecap="round" stroke-linejoin="round"/> <path d="M15.35 12.6504L12 16.0004L8.64999 12.6504" stroke="white" stroke-width="1.5" stroke-linecap="round" stroke-linejoin="round"/> <g opacity="0" fill="none" stroke="none" aria-hidden="true"><path d="M0.0044 0.0029L0.006 0.0077L0.0073 0.0078L0.0013 0.0091L0.0002 0.0013L0.0078 0.0091L0.0002 0.0084L0.0045 0.0076L0.0096 0.0095L0.0093 0.0052L0.0042 0.0075L0.004 0.007"/></g></svg>