<svg width="24" height="24" viewBox="0 0 24 24" fill="none" xmlns="http://www.w3.org/2000/svg"> <path d="M22.0047 2L13.8 10.2" stroke="white" stroke-width="1.5" stroke-linecap="round" stroke-linejoin="round"/> <path d="M13 6.16992V10.9999H17.83" stroke="white" stroke-width="1.5" stroke-linecap="round" stroke-linejoin="round"/> <path d="M2 12.9805V15.0005C2 20.0005 4 22.0005 9 22.0005H15C20 22.0005 22 20.0005 22 15.0005V13.0005" stroke="white" stroke-width="1.5" stroke-linecap="round" stroke-linejoin="round"/> <path d="M11 2H9C4 2 2 4 2 9" stroke="white" stroke-width="1.5" stroke-linecap="round" stroke-linejoin="round"/> <g opacity="0" fill="none" stroke="none" aria-hidden="true"><path d="M0.0029 0.0067L0.0004 0.0037L0.0045 0.0062L0.0036 0.0071L0.0024 0.0034L0.0022 0.0091L0.0024 0.0078L0.0092 0.0054L0.0062 0.0023L0.0033 0.0085L0.0078 0.0084L0.0086 0.006"/></g></svg>