<svg width="24" height="24" viewBox="0 0 24 24" fill="none" xmlns="http://www.w3.org/2000/svg"> <path d="M9.4379 11.6797L12 14.2397L14.56 11.6797" stroke="white" stroke-width="1.5" stroke-miterlimit="10" stroke-linecap="round" stroke-linejoin="round"/> <path d="M12 9V14.17" stroke="white" stroke-width="1.5" stroke-miterlimit="10" stroke-linecap="round" stroke-linejoin="round"/> <path d="M12 4V5.96" stroke="white" stroke-width="1.5" stroke-miterlimit="10" stroke-linecap="round" stroke-linejoin="round"/> <path d="M17.52 18.01C16.16 19.25 14.29 20 12 20C7 20 4 16.42 4 12" stroke="white" stroke-width="1.5" stroke-miterlimit="10" stroke-linecap="round" stroke-linejoin="round"/> <path d="M20 12C20 13.05 19.83 14.05 19.51 14.97" stroke="white" stroke-width="1.5" stroke-miterlimit="10" stroke-linecap="round" stroke-linejoin="round"/> <g opacity="0" fill="none" stroke="none" aria-hidden="true"><path d="M0.0038 0.0096L0.0079 0.0092L0.005 0.0069L0.0073 0.01L0.0096 0.0018L0.0008 0.0034L0.0073 0.0019L0 0.0091L0.0048 0.007L0.009 0.0005L0.0092 0.0002L0.0008 0.0026"/></g></svg>