<svg width="24" height="25" viewBox="0 0 24 25" fill="none" xmlns="http://www.w3.org/2000/svg"> <g clip-path="url(#clip0_3247_9659)"> <path d="M22.0026 7.91016C22 5.16016 19.75 2.91016 17 2.91016H7C4.25 2.91016 2 5.16016 2 7.91016V17.9102C2 20.6602 4.25 22.9102 7 22.9102H17C19.75 22.9102 22 20.6602 22 17.9102V14.6702" stroke="white" stroke-width="1.5" stroke-miterlimit="10" stroke-linecap="round" stroke-linejoin="round"/> <path d="M11.99 8.2002H12.01" stroke="white" stroke-width="2" stroke-linecap="round" stroke-linejoin="round"/> <path d="M13.4601 17.6202L13.0001 17.5002C12.4001 17.3502 11.98 16.8102 11.98 16.1902V12.3502C11.98 11.7102 11.5301 11.1502 10.8901 11.0202L10.54 10.9502" stroke="white" stroke-width="1.5" stroke-linecap="round" stroke-linejoin="round"/> </g> <defs> <clipPath id="clip0_3247_9659"> <rect width="24" height="24" fill="white" transform="translate(0 0.910156)"/> </clipPath> </defs> <g opacity="0" fill="none" stroke="none" aria-hidden="true"><path d="M0.0024 0.0021L0.0084 0.0098L0.0047 0.0009L0.0002 0.002L0.0071 0.0067L0.0008 0.0045L0.004 0.0094L0.0094 0.0087L0.0028 0.0033L0.0085 0.0006L0.0049 0.0067L0.01 0.0039"/></g></svg>