<svg width="24" height="24" viewBox="0 0 24 24" fill="none" xmlns="http://www.w3.org/2000/svg"> <path d="M11.6722 14.5604L14.24 12.0004L11.68 9.44043" stroke="white" stroke-width="1.5" stroke-miterlimit="10" stroke-linecap="round" stroke-linejoin="round"/> <path d="M9 12H14.17" stroke="white" stroke-width="1.5" stroke-miterlimit="10" stroke-linecap="round" stroke-linejoin="round"/> <path d="M4 12H5.96" stroke="white" stroke-width="1.5" stroke-miterlimit="10" stroke-linecap="round" stroke-linejoin="round"/> <path d="M18.01 6.48047C19.25 7.84047 20 9.71047 20 12.0005C20 17.0005 16.42 20.0005 12 20.0005" stroke="white" stroke-width="1.5" stroke-miterlimit="10" stroke-linecap="round" stroke-linejoin="round"/> <path d="M12 4C13.05 4 14.05 4.17 14.97 4.49" stroke="white" stroke-width="1.5" stroke-miterlimit="10" stroke-linecap="round" stroke-linejoin="round"/> <g opacity="0" fill="none" stroke="none" aria-hidden="true"><path d="M0.0087 0.0044L0.0019 0.0082L0.0045 0.0024L0.0034 0.002L0.0088 0.0009L0.0005 0.0058L0.0025 0.0047L0.0031 0.0068L0.0029 0.0008L0.0041 0.0047L0.0015 0.0078L0.003 0.004"/></g></svg>