<svg width="24" height="24" viewBox="0 0 24 24" fill="none" xmlns="http://www.w3.org/2000/svg"> <path d="M11.6711 14.5604L14.24 12.0004L11.68 9.44043" stroke="white" stroke-width="1.5" stroke-miterlimit="10" stroke-linecap="round" stroke-linejoin="round"/> <path d="M9 12H14.17" stroke="white" stroke-width="1.5" stroke-miterlimit="10" stroke-linecap="round" stroke-linejoin="round"/> <path d="M4 12H5.96" stroke="white" stroke-width="1.5" stroke-miterlimit="10" stroke-linecap="round" stroke-linejoin="round"/> <path d="M18.01 6.48047C19.25 7.84047 20 9.71047 20 12.0005C20 17.0005 16.42 20.0005 12 20.0005" stroke="white" stroke-width="1.5" stroke-miterlimit="10" stroke-linecap="round" stroke-linejoin="round"/> <path d="M12 4C13.05 4 14.05 4.17 14.97 4.49" stroke="white" stroke-width="1.5" stroke-miterlimit="10" stroke-linecap="round" stroke-linejoin="round"/> <g opacity="0" fill="none" stroke="none" aria-hidden="true"><path d="M0.0004 0.0047L0.006 0.0002L0.0049 0.0011L0.0061 0.0087L0.0013 0.0084L0.0036 0.002L0.0046 0.0014L0.0052 0.007L0.0023 0.0017L0.0007 0.0073L0.0067 0.0093L0.0003 0.0093"/></g></svg>