<svg width="24" height="24" viewBox="0 0 24 24" fill="none" xmlns="http://www.w3.org/2000/svg"> <path d="M17.4492 14.5604L20 12.0004L17.44 9.44043" stroke="white" stroke-width="1.5" stroke-miterlimit="10" stroke-linecap="round" stroke-linejoin="round"/> <path d="M14.76 12H19.93" stroke="white" stroke-width="1.5" stroke-miterlimit="10" stroke-linecap="round" stroke-linejoin="round"/> <path d="M9.75997 12H11.72" stroke="white" stroke-width="1.5" stroke-miterlimit="10" stroke-linecap="round" stroke-linejoin="round"/> <path d="M5.99 6.48047C4.75 7.84047 4 9.71047 4 12.0005C4 17.0005 7.58 20.0005 12 20.0005" stroke="white" stroke-width="1.5" stroke-miterlimit="10" stroke-linecap="round" stroke-linejoin="round"/> <path d="M12 4C10.95 4 9.95 4.17 9.03 4.49" stroke="white" stroke-width="1.5" stroke-miterlimit="10" stroke-linecap="round" stroke-linejoin="round"/> <g opacity="0" fill="none" stroke="none" aria-hidden="true"><path d="M0.0051 0.0083L0.0049 0.0049L0.002 0.0093L0.0051 0.0086L0.0083 0.0062L0.0022 0.0051L0.0048 0.0081L0.0072 0.002L0.0097 0.0008L0.0022 0.0034L0.0033 0.008L0.0086 0.0045"/></g></svg>