<svg width="24" height="24" viewBox="0 0 24 24" fill="none" xmlns="http://www.w3.org/2000/svg"> <g clip-path="url(#clip0_3247_9656)"> <path d="M12.0061 2C6.48 2 2 6.48 2 12C2 17.52 6.48 22 12 22C17.52 22 22 17.52 22 12C22 8.95 20.64 6.22 18.48 4.39" stroke="white" stroke-width="1.5" stroke-miterlimit="10" stroke-linecap="round" stroke-linejoin="round"/> <path d="M9 8.18004C9.35 7.79004 9.78999 7.49004 10.27 7.29004C10.76 7.09004 11.28 7.01004 11.8 7.05004C12.32 7.09004 12.83 7.25005 13.28 7.51005C13.73 7.77005 14.12 8.14004 14.41 8.57004C14.7 9.00004 14.89 9.50004 14.96 10.02C15.03 10.54 14.98 11.07 14.81 11.57C14.64 12.07 14.37 12.52 14 12.89C13.63 13.26 13.18 13.55 12.69 13.72" stroke="white" stroke-width="1.5" stroke-linecap="round" stroke-linejoin="round"/> <path d="M11.99 16.9502H12.01" stroke="white" stroke-width="2" stroke-linecap="round" stroke-linejoin="round"/> </g> <defs> <clipPath id="clip0_3247_9656"> <rect width="24" height="24" fill="white"/> </clipPath> </defs> <g opacity="0" fill="none" stroke="none" aria-hidden="true"><path d="M0.0006 0.0013L0.0002 0.001L0.0028 0L0.0083 0.0034L0.0018 0.0016L0.0074 0.0047L0.0034 0.0025L0.0055 0.0012L0.0022 0.0046L0.0054 0.0045L0.0015 0.0027L0.0031 0.0044"/></g></svg>