<svg width="24" height="24" viewBox="0 0 24 24" fill="none" xmlns="http://www.w3.org/2000/svg"> <path d="M2.0034 13.05V15C2 20 4 22 9 22H15C20 22 22 20 22 15V9C22 4 20 2 15 2H9C4 2 2 4 2 9" stroke="white" stroke-width="1.5" stroke-linecap="round" stroke-linejoin="round"/> <path d="M10.59 13.3396H14.83V9.09961" stroke="white" stroke-width="1.5" stroke-linecap="round" stroke-linejoin="round"/> <path d="M14.83 13.3397L9.16998 7.67969" stroke="white" stroke-width="1.5" stroke-linecap="round" stroke-linejoin="round"/> <path d="M6 16.5098C9.89 17.8098 14.11 17.8098 18 16.5098" stroke="white" stroke-width="1.5" stroke-linecap="round" stroke-linejoin="round"/> <g opacity="0" fill="none" stroke="none" aria-hidden="true"><path d="M0.0056 0.0089L0.0076 0.0007L0.0087 0.0079L0.0014 0.0036L0.0031 0.0076L0.0095 0.0051L0.0076 0.0023L0.0096 0.0077L0.0006 0.0074L0.0001 0.002L0.0004 0.0035L0.0033 0.0004"/></g></svg>