<svg width="24" height="24" viewBox="0 0 24 24" fill="none" xmlns="http://www.w3.org/2000/svg"> <path d="M14.5542 21.67C18.84 20.54 22 16.64 22 12C22 6.48 17.56 2 12 2C5.33 2 2 7.56 2 7.56M2 7.56V3M2 7.56H4.01H6.44" stroke="white" stroke-width="1.5" stroke-linecap="round" stroke-linejoin="round"/> <path d="M2 12C2 17.52 6.48 22 12 22" stroke="white" stroke-width="1.5" stroke-linecap="round" stroke-linejoin="round" stroke-dasharray="3 3"/> <g opacity="0" fill="none" stroke="none" aria-hidden="true"><path d="M0.0088 0.0053L0.0051 0.0074L0.0022 0.0011L0.003 0.0061L0.0083 0.0082L0.0088 0.0083L0.0033 0.0021L0.0002 0.0085L0.0063 0.0045L0.0074 0.0097L0.0047 0.0064L0.0009 0.0042"/></g></svg>