<svg width="24" height="24" viewBox="0 0 24 24" fill="none" xmlns="http://www.w3.org/2000/svg"> <path d="M13.6770 7.50977C13.17 7.35977 12.62 7.25977 12 7.25977C9.24 7.25977 7 9.49977 7 12.2598C7 15.0198 9.24 17.2598 12 17.2598C14.76 17.2598 17 15.0198 17 12.2598C17 11.2298 16.69 10.2798 16.16 9.47977" stroke="white" stroke-width="1.5" stroke-linecap="round" stroke-linejoin="round"/> <path d="M14.38 7.65024L12.72 5.74023" stroke="white" stroke-width="1.5" stroke-linecap="round" stroke-linejoin="round"/> <path d="M14.38 7.65039L12.44 9.07039" stroke="white" stroke-width="1.5" stroke-linecap="round" stroke-linejoin="round"/> <path d="M2 14V15C2 20 4 22 9 22H15C20 22 22 20 22 15V9C22 4 20 2 15 2H9C4 2 2 4 2 9" stroke="white" stroke-width="1.5" stroke-linecap="round" stroke-linejoin="round"/> <g opacity="0" fill="none" stroke="none" aria-hidden="true"><path d="M0.0081 0.0084L0.0087 0.0033L0.0093 0.0086L0.0063 0.0052L0.002 0.009L0.0068 0.0069L0.0082 0.0003L0.0039 0.004L0.006 0.01L0.0053 0.0087L0.009 0.0028L0.0076 0.0071"/></g></svg>