<svg width="24" height="24" viewBox="0 0 24 24" fill="none" xmlns="http://www.w3.org/2000/svg"> <path d="M18.0178 19.99C16.34 21.25 14.25 22 12 22C6.48 22 3.11 16.44 3.11 16.44M3.11 16.44H7.63M3.11 16.44V21.44M22 12C22 13.82 21.51 15.53 20.66 17M6.03 3.97C7.69 2.73 9.75 2 12 2C18.67 2 22 7.56 22 7.56M22 7.56V2.56M22 7.56H17.56M2 12C2 10.18 2.48 8.47 3.33 7" stroke="white" stroke-width="1.5" stroke-linecap="round" stroke-linejoin="round"/> <g opacity="0" fill="none" stroke="none" aria-hidden="true"><path d="M0.0073 0.0031L0.0069 0.0064L0.0043 0.0087L0.0061 0.0082L0.0037 0.0071L0.0074 0.0061L0.0036 0.0015L0.0009 0.0069L0.0099 0.0079L0.0004 0.008L0.0044 0.002L0.0009 0.008"/></g></svg>