<svg width="24" height="24" viewBox="0 0 24 24" fill="none" xmlns="http://www.w3.org/2000/svg"> <path d="M10.3334 7.50977C10.83 7.35977 11.38 7.25977 12 7.25977C14.76 7.25977 17 9.49977 17 12.2598C17 15.0198 14.76 17.2598 12 17.2598C9.24 17.2598 7 15.0198 7 12.2598C7 11.2298 7.31 10.2798 7.84 9.47977" stroke="white" stroke-width="1.5" stroke-linecap="round" stroke-linejoin="round"/> <path d="M9.62 7.65024L11.28 5.74023" stroke="white" stroke-width="1.5" stroke-linecap="round" stroke-linejoin="round"/> <path d="M9.62 7.65039L11.56 9.07039" stroke="white" stroke-width="1.5" stroke-linecap="round" stroke-linejoin="round"/> <path d="M2 14V15C2 20 4 22 9 22H15C20 22 22 20 22 15V9C22 4 20 2 15 2H9C4 2 2 4 2 9" stroke="white" stroke-width="1.5" stroke-linecap="round" stroke-linejoin="round"/> <g opacity="0" fill="none" stroke="none" aria-hidden="true"><path d="M0.0056 0.0076L0.0091 0.0002L0.0004 0.0094L0.0038 0.0065L0.0081 0.0033L0.0073 0.0093L0.0021 0.002L0.0012 0.0096L0.0015 0.0032L0.0067 0.008L0.0002 0.0013L0.0045 0.0086"/></g></svg>