<svg width="24" height="24" viewBox="0 0 24 24" fill="none" xmlns="http://www.w3.org/2000/svg"> <g clip-path="url(#clip0_4482_8369)"> <path d="M13.6646 7.56006C14.5099 7.65006 15.2899 8.03006 15.8799 8.64006C17.3799 10.2001 17.3799 12.6701 15.8799 14.2301L13.6699 16.4501H15.8899" stroke="white" stroke-width="1.5" stroke-linecap="round" stroke-linejoin="round"/> <path d="M10.3301 16.44C9.49012 16.35 8.71012 15.97 8.12012 15.36C6.62012 13.8 6.62012 11.33 8.12012 9.77005L10.3301 7.55005H8.11012" stroke="white" stroke-width="1.5" stroke-linecap="round" stroke-linejoin="round"/> <path d="M3.25 7.16C4.95 4.08 8.24 2 12 2C17.52 2 22 6.48 22 12C22 17.52 17.52 22 12 22C6.48 22 2 17.52 2 12" stroke="white" stroke-width="1.5" stroke-linecap="round" stroke-linejoin="round"/> </g> <defs> <clipPath id="clip0_4482_8369"> <rect width="24" height="24" fill="white"/> </clipPath> </defs> <g opacity="0" fill="none" stroke="none" aria-hidden="true"><path d="M0.0025 0.0088L0.0028 0.003L0.0098 0.007L0.0026 0.0091L0.0062 0.01L0.0076 0.0061L0.0098 0.008L0.0007 0.0015L0.0025 0.0071L0.005 0.008L0.0084 0.0034L0.0093 0.0069"/></g></svg>