<svg width="24" height="24" viewBox="0 0 24 24" fill="none" xmlns="http://www.w3.org/2000/svg"> <path d="M17.4255 5.16016C19.08 5.16016 20.42 6.50016 20.42 8.16016V11.4802" stroke="white" stroke-width="1.5" stroke-miterlimit="10" stroke-linecap="round" stroke-linejoin="round"/> <path d="M3.57996 5.16016H12.99" stroke="white" stroke-width="1.5" stroke-miterlimit="10" stroke-linecap="round" stroke-linejoin="round"/> <path d="M6.73996 2L3.57996 5.15997L6.73996 8.32001" stroke="white" stroke-width="1.5" stroke-miterlimit="10" stroke-linecap="round" stroke-linejoin="round"/> <path d="M20.42 18.8395H6.57996C4.91996 18.8395 3.57996 17.4995 3.57996 15.8395V12.5195" stroke="white" stroke-width="1.5" stroke-miterlimit="10" stroke-linecap="round" stroke-linejoin="round"/> <path d="M17.26 21.9997L20.42 18.8397L17.26 15.6797" stroke="white" stroke-width="1.5" stroke-miterlimit="10" stroke-linecap="round" stroke-linejoin="round"/> <g opacity="0" fill="none" stroke="none" aria-hidden="true"><path d="M0.0061 0.0024L0.0048 0.0006L0.004 0.0022L0.0049 0.009L0.0066 0.0038L0.0044 0.0042L0.0095 0.0021L0.0016 0.0054L0.0004 0.0074L0.0047 0.0078L0.0026 0.0012L0.0083 0.0051"/></g></svg>