<svg width="24" height="24" viewBox="0 0 24 24" fill="none" xmlns="http://www.w3.org/2000/svg"> <path d="M3.33050 13.3304C3.33002 18.1204 7.21002 22.0004 12 22.0004C16.79 22.0004 20.67 18.1204 20.67 13.3304C20.67 11.5504 20.13 9.89039 19.21 8.51039M14.89 5.08039C14.02 4.82039 13.06 4.65039 12 4.65039C8.79002 4.65039 5.98002 6.40039 4.49002 8.99039" stroke="white" stroke-width="1.5" stroke-linecap="round" stroke-linejoin="round"/> <path d="M15.13 5.32L12.24 2" stroke="white" stroke-width="1.5" stroke-linecap="round" stroke-linejoin="round"/> <path d="M15.13 5.32031L11.76 7.78031" stroke="white" stroke-width="1.5" stroke-linecap="round" stroke-linejoin="round"/> <g opacity="0" fill="none" stroke="none" aria-hidden="true"><path d="M0.0059 0.0072L0.0005 0.0022L0.0086 0.0051L0.004 0.0005L0.0005 0.0046L0.0085 0.006L0.0081 0.0026L0.0043 0.0024L0.0092 0.0004L0.0061 0.0076L0.0051 0.0065L0.0002 0.002"/></g></svg>