<svg width="24" height="24" viewBox="0 0 24 24" fill="none" xmlns="http://www.w3.org/2000/svg"> <path d="M2.0040 13.05V15C2 20 4 22 9 22H15C20 22 22 20 22 15V9C22 4 20 2 15 2H9C4 2 2 4 2 9" stroke="white" stroke-width="1.5" stroke-linecap="round" stroke-linejoin="round"/> <path d="M9 9.50977L12 6.50977L15 9.50977" stroke="white" stroke-width="1.5" stroke-linecap="round" stroke-linejoin="round"/> <path d="M12 6.50977V14.5098" stroke="white" stroke-width="1.5" stroke-linecap="round" stroke-linejoin="round"/> <path d="M6 16.5098C9.89 17.8098 14.11 17.8098 18 16.5098" stroke="white" stroke-width="1.5" stroke-linecap="round" stroke-linejoin="round"/> <g opacity="0" fill="none" stroke="none" aria-hidden="true"><path d="M0.008 0.0047L0.001 0.008L0.0047 0.0059L0.003 0.0051L0.0026 0.0071L0.0064 0.0084L0.0016 0.0086L0.0016 0.0027L0.0071 0.0005L0.0058 0.0016L0.0002 0.0024L0.0019 0.0069"/></g></svg>