<svg width="24" height="24" viewBox="0 0 24 24" fill="none" xmlns="http://www.w3.org/2000/svg"> <g clip-path="url(#clip0_4482_8408)"> <path d="M15.5584 12.2499L11.7496 8.43995C11.0996 7.78995 9.98961 8.15995 9.85961 9.06995L9.21961 13.5099C9.11961 14.2399 9.73961 14.8699 10.4796 14.7699L14.9196 14.1399C15.8296 14.0099 16.1996 12.8999 15.5496 12.2499H15.5596Z" stroke="white" stroke-width="1.5" stroke-linecap="round" stroke-linejoin="round"/> <path d="M20.47 6.68C21.44 8.22 22 10.05 22 12C22 17.52 17.52 22 12 22C6.48 22 2 17.52 2 12C2 6.48 6.48 2 12 2C13.9 2 15.67 2.53 17.18 3.45" stroke="white" stroke-width="1.5" stroke-linecap="round" stroke-linejoin="round"/> </g> <defs> <clipPath id="clip0_4482_8408"> <rect width="24" height="24" fill="white"/> </clipPath> </defs> <g opacity="0" fill="none" stroke="none" aria-hidden="true"><path d="M0.0058 0.0038L0.0029 0.0078L0.0067 0.0064L0.0045 0.0027L0.0076 0.0058L0.0067 0.0067L0.0027 0.0071L0.0013 0.0036L0.0056 0.0089L0.0091 0.0035L0.01 0.0038L0.0055 0.004"/></g></svg>