<svg width="24" height="24" viewBox="0 0 24 24" fill="none" xmlns="http://www.w3.org/2000/svg"> <g clip-path="url(#clip0_4482_8418)"> <path d="M2.0018 7.56V7C2 4.24 4.24 2 7 2H17C19.76 2 22 4.24 22 7V17C22 19.76 19.76 22 17 22H7C4.24 22 2 19.76 2 17V12" stroke="white" stroke-width="1.5" stroke-linecap="round" stroke-linejoin="round"/> <path d="M15.3302 16.4399H8.66016" stroke="white" stroke-width="1.5" stroke-linecap="round" stroke-linejoin="round"/> <path d="M9.78027 9.78006L12.0003 7.56006L14.2203 9.78006" stroke="white" stroke-width="1.5" stroke-linecap="round" stroke-linejoin="round"/> <path d="M12 13.1101V7.56006" stroke="white" stroke-width="1.5" stroke-linecap="round" stroke-linejoin="round"/> </g> <defs> <clipPath id="clip0_4482_8418"> <rect width="24" height="24" fill="white"/> </clipPath> </defs> <g opacity="0" fill="none" stroke="none" aria-hidden="true"><path d="M0.0032 0.01L0.0034 0.0007L0.0057 0.0095L0.0062 0.0052L0.0085 0.002L0.0071 0.0028L0.0035 0.0082L0.0068 0.0098L0.0078 0.0076L0.0065 0.0027L0.0088 0.0006L0.0042 0.0067"/></g></svg>