<svg width="24" height="25" viewBox="0 0 24 25" fill="none" xmlns="http://www.w3.org/2000/svg"> <g clip-path="url(#clip0_3247_9670)"> <path d="M6.1934 16.0703H2.5" stroke="white" stroke-width="1.5" stroke-miterlimit="10" stroke-linecap="round"/> <path d="M8.83008 22.4097V18.7197" stroke="white" stroke-width="1.5" stroke-miterlimit="10" stroke-linecap="round"/> <path d="M21.4999 16.0703H17.8099C16.3599 16.0703 15.1699 17.2603 15.1699 18.7103V22.4003" stroke="white" stroke-width="1.5" stroke-miterlimit="10" stroke-linecap="round"/> <path d="M15.1699 3.41016V7.10016C15.1699 8.55016 16.3599 9.74016 17.8099 9.74016H21.4999" stroke="white" stroke-width="1.5" stroke-miterlimit="10" stroke-linecap="round"/> <path d="M2.5 9.74016H6.19C7.64 9.74016 8.83002 8.55016 8.83002 7.10016V3.41016" stroke="white" stroke-width="1.5" stroke-miterlimit="10" stroke-linecap="round"/> </g> <defs> <clipPath id="clip0_3247_9670"> <rect width="24" height="24" fill="white" transform="translate(0 0.910156)"/> </clipPath> </defs> <g opacity="0" fill="none" stroke="none" aria-hidden="true"><path d="M0.0017 0.0037L0.0099 0.0049L0.0036 0.0075L0.0053 0.0034L0.0078 0.0063L0.0033 0.0051L0.0048 0.0022L0.0066 0.0071L0.0005 0.0012L0.0024 0.0049L0.0045 0.0056L0.0006 0.0013"/></g></svg>