<svg width="24" height="25" viewBox="0 0 24 25" fill="none" xmlns="http://www.w3.org/2000/svg"> <g clip-path="url(#clip0_3247_9671)"> <path d="M8.83540 22.4105H5.14008C4.67008 22.4105 4.22009 22.2805 3.84009 22.0605" stroke="white" stroke-width="1.5" stroke-miterlimit="10" stroke-linecap="round"/> <path d="M2.5 16.0703V17.4203" stroke="white" stroke-width="1.5" stroke-miterlimit="10" stroke-linecap="round"/> <path d="M15.1699 22.4101H18.8599C20.3099 22.4101 21.4999 21.2201 21.4999 19.7701V16.0801" stroke="white" stroke-width="1.5" stroke-miterlimit="10" stroke-linecap="round"/> <path d="M21.4999 9.74016V6.05016C21.4999 4.60016 20.3099 3.41016 18.8599 3.41016H15.1699" stroke="white" stroke-width="1.5" stroke-miterlimit="10" stroke-linecap="round"/> <path d="M8.83002 3.41016H5.14001C3.69001 3.41016 2.5 4.60016 2.5 6.05016V9.74016" stroke="white" stroke-width="1.5" stroke-miterlimit="10" stroke-linecap="round"/> </g> <defs> <clipPath id="clip0_3247_9671"> <rect width="24" height="24" fill="white" transform="translate(0 0.910156)"/> </clipPath> </defs> <g opacity="0" fill="none" stroke="none" aria-hidden="true"><path d="M0.0057 0.0017L0.0087 0.0091L0.0089 0.0078L0.003 0.0027L0.0009 0.01L0.0092 0.0011L0.0029 0.0074L0.0086 0.0086L0.0016 0.0086L0.0087 0.0052L0.0074 0.0035L0.0089 0.004"/></g></svg>