<svg width="24" height="24" viewBox="0 0 24 24" fill="none" xmlns="http://www.w3.org/2000/svg"> <g clip-path="url(#clip0_4482_3513)"> <path d="M5.5047 20.02V16.98" stroke="white" stroke-width="1.5" stroke-linecap="round" stroke-linejoin="round"/> <path d="M7.02002 18.5H3.97998" stroke="white" stroke-width="1.5" stroke-linecap="round" stroke-linejoin="round"/> <path d="M22 10.4102V17.2102C22 19.3102 20.3 21.0102 18.2 21.0102H9.22998C9.71998 20.2902 10 19.4302 10 18.5002C10 16.0102 7.99 14.0002 5.5 14.0002C4.57 14.0002 3.72 14.2802 3 14.7602V10.4102C3 9.24024 3.53997 8.13024 4.46997 7.41024L10.17 2.98023C11.54 1.91023 13.46 1.91023 14.83 2.98023L20.53 7.41024C21.46 8.13024 22 9.24024 22 10.4102Z" stroke="white" stroke-width="1.5"/> <path d="M10 18.5C10 19.43 9.71998 20.29 9.22998 21.01C8.41998 22.21 7.06 23 5.5 23C3.02 23 1 20.98 1 18.5C1 16.94 1.79 15.57 3 14.76C3.72 14.28 4.57 14 5.5 14C7.99 14 10 16.01 10 18.5Z" stroke="white" stroke-width="1.5" stroke-linecap="round" stroke-linejoin="round"/> </g> <defs> <clipPath id="clip0_4482_3513"> <rect width="24" height="24" fill="white"/> </clipPath> </defs> <g opacity="0" fill="none" stroke="none" aria-hidden="true"><path d="M0.0068 0.0015L0.0053 0.0009L0.0063 0.0019L0.0004 0.0084L0.0056 0.01L0.0016 0.0075L0.0056 0.0085L0.0096 0.0031L0.0048 0.009L0.006 0.0001L0.0065 0.0075L0.0006 0.0014"/></g></svg>