<svg width="24" height="24" viewBox="0 0 24 24" fill="none" xmlns="http://www.w3.org/2000/svg"> <g clip-path="url(#clip0_4482_3503)"> <path d="M7.33400 9.41016V15.2702C7.33008 16.4702 8.31007 17.4501 9.51007 17.4501H14.55C15.75 17.4501 16.73 16.4702 16.73 15.2702V9.41016" stroke="white" stroke-width="1.5" stroke-linecap="round" stroke-linejoin="round"/> <path d="M6 10.29L11.19 6.81998C11.75 6.44998 12.48 6.44997 13.03 6.83997L17.99 10.29" stroke="white" stroke-width="1.5" stroke-linecap="round" stroke-linejoin="round"/> <path d="M12 22C6.5 22 2 17.5 2 12C2 6.5 6.5 2 12 2C17.5 2 22 6.5 22 12C22 17.5 17.5 22 12 22Z" stroke="white" stroke-width="1.5" stroke-linecap="round" stroke-linejoin="round"/> </g> <defs> <clipPath id="clip0_4482_3503"> <rect width="24" height="24" fill="white"/> </clipPath> </defs> <g opacity="0" fill="none" stroke="none" aria-hidden="true"><path d="M0.0041 0.0058L0.004 0.0011L0.0009 0.0095L0.0069 0.0067L0.0039 0.0048L0.0018 0.0016L0.0058 0.0015L0.0077 0.003L0.0003 0.0066L0.0055 0.0075L0.0034 0.0016L0.0091 0.0034"/></g></svg>