<svg width="24" height="24" viewBox="0 0 24 24" fill="none" xmlns="http://www.w3.org/2000/svg"> <g clip-path="url(#clip0_4482_3492)"> <path d="M20.4523 7.69017L14.4598 3.02018C13.0198 1.90018 10.9898 1.90018 9.54977 3.02018L3.54977 7.69017C2.57977 8.45017 2.00977 9.61018 2.00977 10.8502V18.0002C2.00977 20.2102 3.79977 22.0002 6.00977 22.0002H18.0098C20.2198 22.0002 22.0098 20.2102 22.0098 18.0002V10.8502C21.9998 9.61018 21.4298 8.45017 20.4598 7.69017Z" stroke="white" stroke-width="1.5"/> <path d="M12 15V18" stroke="white" stroke-width="1.5" stroke-linecap="round"/> </g> <defs> <clipPath id="clip0_4482_3492"> <rect width="24" height="24" fill="white"/> </clipPath> </defs> <g opacity="0" fill="none" stroke="none" aria-hidden="true"><path d="M0.0013 0.0001L0.0064 0.0008L0.003 0.0042L0.0087 0.0013L0.0004 0.0099L0.004 0.0056L0.0089 0.007L0.0098 0.0012L0.0064 0.0042L0.0002 0.0075L0.0099 0.0039L0.0076 0.0086"/></g></svg>