<svg width="24" height="24" viewBox="0 0 24 24" fill="none" xmlns="http://www.w3.org/2000/svg"> <g clip-path="url(#clip0_4482_3499)"> <path d="M7.33800 9.41016V15.2702C7.33008 16.4702 8.3101 17.4501 9.5101 17.4501H14.5501C15.7501 17.4501 16.7301 16.4702 16.7301 15.2702V9.41016" stroke="white" stroke-width="1.5" stroke-linecap="round" stroke-linejoin="round"/> <path d="M6 10.29L11.19 6.81998C11.75 6.44998 12.48 6.44997 13.03 6.83997L17.99 10.29" stroke="white" stroke-width="1.5" stroke-linecap="round" stroke-linejoin="round"/> <path d="M17 22H7C4.25 22 2 19.75 2 17V7C2 4.25 4.25 2 7 2H17C19.75 2 22 4.25 22 7V17C22 19.75 19.75 22 17 22Z" stroke="white" stroke-width="1.5" stroke-linecap="round" stroke-linejoin="round"/> </g> <defs> <clipPath id="clip0_4482_3499"> <rect width="24" height="24" fill="white"/> </clipPath> </defs> <g opacity="0" fill="none" stroke="none" aria-hidden="true"><path d="M0.0082 0.0038L0.0076 0.003L0.0024 0.0022L0.0014 0.0081L0.0044 0.003L0.0083 0.0065L0.0066 0.0025L0.0082 0.0002L0.004 0.0092L0.0078 0.0037L0.0018 0.0028L0.0095 0.006"/></g></svg>