<svg width="24" height="24" viewBox="0 0 24 24" fill="none" xmlns="http://www.w3.org/2000/svg"> <g clip-path="url(#clip0_4482_3500)"> <path d="M7.33830 9.41016V15.2702C7.33008 16.4702 8.3101 17.4501 9.5101 17.4501H14.5501C15.7501 17.4501 16.7301 16.4702 16.7301 15.2702V9.41016" stroke="white" stroke-width="1.5" stroke-linecap="round" stroke-linejoin="round"/> <path d="M6 10.29L11.19 6.81998C11.75 6.44998 12.48 6.44997 13.03 6.83997L17.99 10.29" stroke="white" stroke-width="1.5" stroke-linecap="round" stroke-linejoin="round"/> <path d="M13.3099 17.4502H10.6899V15.1802C10.6899 14.6302 11.1399 14.1802 11.6899 14.1802H12.3099C12.8599 14.1802 13.3099 14.6302 13.3099 15.1802V17.4502Z" stroke="white" stroke-width="1.5" stroke-linecap="round" stroke-linejoin="round"/> <path d="M17 22H7C4.25 22 2 19.75 2 17V7C2 4.25 4.25 2 7 2H17C19.75 2 22 4.25 22 7V17C22 19.75 19.75 22 17 22Z" stroke="white" stroke-width="1.5" stroke-linecap="round" stroke-linejoin="round"/> </g> <defs> <clipPath id="clip0_4482_3500"> <rect width="24" height="24" fill="white"/> </clipPath> </defs> <g opacity="0" fill="none" stroke="none" aria-hidden="true"><path d="M0.0054 0.0008L0.0077 0.0098L0.0052 0.0015L0.0032 0.0025L0.0051 0.003L0.008 0.006L0.0058 0.0097L0.0029 0.0016L0.0039 0.0053L0.0068 0.001L0.0036 0.0022L0.0014 0.0034"/></g></svg>